<?xml version="1.0" standalone="no"?>
<!DOCTYPE svg PUBLIC "-//W3C//DTD SVG 20010904//EN"
 "http://www.w3.org/TR/2001/REC-SVG-20010904/DTD/svg10.dtd">
<svg version="1.0" xmlns="http://www.w3.org/2000/svg"
 width="700.000000pt" height="700.000000pt" viewBox="0 0 700.000000 700.000000"
 preserveAspectRatio="xMidYMid meet">
<metadata>
Created by potrace 1.14, written by Peter Selinger 2001-2017
</metadata>
<g transform="translate(0.000000,700.000000) scale(0.100000,-0.100000)"
fill="#000000" stroke="none">
<path d="M4927 5014 c-4 -4 -39 -8 -79 -8 -40 -1 -82 -7 -94 -13 -13 -8 -25
-9 -32 -3 -9 7 -9 7 -2 -2 16 -20 11 -32 -7 -17 -11 10 -14 10 -9 2 4 -7 2
-13 -3 -13 -6 0 -11 5 -11 11 0 7 -11 4 -26 -6 -15 -9 -24 -12 -20 -7 3 6 1
14 -5 18 -8 4 -9 3 -5 -5 5 -8 0 -10 -18 -7 -14 3 -28 1 -31 -4 -3 -5 3 -7 15
-5 11 2 23 -1 26 -7 4 -6 3 -8 -2 -5 -6 3 -16 2 -24 -3 -9 -5 -19 -5 -26 1 -8
7 -15 6 -20 -2 -4 -8 -3 -9 4 -5 7 4 12 3 12 -3 0 -13 -16 -22 -24 -14 -10 10
-66 11 -60 1 3 -4 0 -8 -5 -8 -6 0 -11 -5 -11 -10 0 -6 11 -3 25 6 23 15 25
15 19 1 -3 -9 -9 -16 -12 -15 -4 0 -9 0 -12 -2 -3 -1 -15 -3 -28 -6 -17 -3
-21 -1 -16 8 6 9 3 9 -9 0 -9 -8 -22 -10 -28 -6 -8 4 -9 3 -5 -4 6 -11 -6 -16
-26 -13 -5 0 -8 -4 -8 -10 0 -6 6 -9 13 -6 8 3 14 -1 14 -9 0 -7 -4 -11 -9 -8
-5 4 -16 -2 -24 -12 -14 -18 -15 -18 -10 6 3 14 3 19 0 12 -3 -6 -11 -9 -17
-5 -6 4 -8 0 -4 -10 8 -20 -18 -43 -29 -26 -5 8 -3 9 6 4 9 -5 11 -4 6 4 -4 6
-12 9 -17 5 -5 -3 -7 -10 -4 -15 6 -8 -9 -13 -29 -10 -5 1 -3 -6 5 -15 13 -16
12 -16 -11 -4 -24 13 -24 12 -10 -5 14 -17 13 -18 -3 -12 -11 4 -16 3 -12 -3
6 -10 -7 -14 -35 -11 -13 2 -13 1 0 -8 8 -5 18 -7 24 -4 5 3 6 1 2 -5 -4 -7
-14 -12 -23 -12 -10 0 -13 -6 -9 -16 3 -8 2 -12 -3 -9 -5 3 -12 1 -16 -5 -3
-5 -12 -10 -18 -10 -7 0 -6 4 3 11 13 9 13 10 0 6 -9 -2 -14 -15 -14 -35 1
-17 -3 -29 -8 -26 -4 3 -5 11 -1 17 4 7 -1 6 -11 -2 -10 -9 -13 -17 -6 -21 6
-4 5 -13 -5 -26 -11 -14 -14 -15 -9 -3 3 10 1 20 -4 23 -5 3 -9 -2 -8 -12 0
-9 -4 -16 -11 -15 -7 2 -10 -4 -7 -11 3 -8 13 -12 22 -9 14 4 15 3 2 -5 -9 -7
-18 -8 -26 -1 -8 7 -15 6 -20 -2 -4 -7 -3 -9 3 -6 6 4 14 0 17 -9 4 -11 2 -15
-8 -11 -10 4 -13 1 -9 -8 3 -8 10 -12 16 -8 6 3 7 1 3 -5 -5 -9 -13 -9 -29 -1
-18 9 -20 9 -9 -2 6 -7 12 -19 12 -27 0 -10 -3 -12 -12 -4 -10 8 -13 -3 -12
-50 1 -34 -2 -54 -7 -47 -4 7 -5 17 -2 23 3 5 1 6 -5 2 -6 -3 -9 -18 -6 -32 3
-14 1 -23 -4 -20 -4 2 -14 0 -22 -6 -12 -8 -12 -9 2 -4 10 3 20 1 23 -4 4 -6
-1 -10 -10 -10 -13 0 -14 -4 -4 -21 8 -15 8 -19 0 -15 -12 8 -10 -21 3 -42 7
-12 4 -12 -15 -1 -20 10 -22 10 -13 -2 6 -8 10 -22 9 -32 -2 -9 0 -15 5 -12 4
3 10 -2 13 -10 4 -8 1 -12 -6 -9 -7 2 -13 -4 -14 -16 -1 -11 2 -20 8 -20 5 0
9 -5 9 -11 0 -5 -5 -7 -11 -3 -7 4 -7 -1 1 -16 8 -15 8 -20 1 -16 -6 4 -11 2
-11 -3 0 -6 5 -11 11 -11 8 0 7 -6 -2 -17 -12 -15 -12 -16 2 -11 13 5 16 2 12
-13 -3 -11 3 -29 13 -42 13 -14 13 -17 3 -9 -14 11 -16 7 -15 -27 1 -25 5 -36
11 -30 15 15 28 10 15 -6 -12 -14 -7 -19 13 -16 5 1 6 -3 2 -8 -3 -6 -13 -8
-23 -5 -15 5 -15 4 1 -6 15 -9 16 -14 6 -26 -10 -12 -8 -16 9 -21 22 -5 32
-43 12 -43 -5 0 -10 -5 -10 -11 0 -8 5 -7 15 1 21 17 31 5 14 -17 -12 -15 -12
-16 3 -11 22 9 30 -2 15 -20 -10 -13 -9 -14 2 -7 11 6 13 4 8 -8 -3 -9 -1 -19
5 -23 6 -4 8 -3 4 4 -3 6 -2 13 4 17 5 3 10 -3 10 -15 0 -12 4 -18 10 -15 6 4
10 3 9 -2 -1 -4 -1 -15 0 -23 1 -13 2 -13 11 0 5 8 10 10 10 5 0 -6 -5 -16
-10 -23 -6 -6 -7 -10 -4 -7 8 5 34 -20 34 -34 0 -6 5 -11 10 -11 6 0 10 5 10
12 0 6 3 8 6 5 4 -4 1 -14 -7 -24 -12 -14 -12 -16 0 -8 11 6 13 4 7 -11 -6
-15 -5 -17 5 -6 7 6 17 12 23 12 6 0 5 -5 -2 -12 -7 -7 -12 -17 -12 -23 0 -5
5 -3 10 5 8 13 10 13 10 -2 0 -9 5 -20 12 -24 7 -4 8 -3 4 4 -11 19 2 14 24
-8 11 -11 20 -26 21 -32 1 -7 5 -2 9 12 6 18 8 20 9 7 1 -10 9 -26 18 -35 16
-16 16 -16 10 0 -3 10 -1 20 5 24 7 4 8 3 4 -4 -4 -7 -2 -12 4 -12 7 0 8 -6 0
-19 -8 -16 -7 -19 8 -17 9 2 21 -2 25 -8 6 -7 7 -6 4 4 -2 8 -9 14 -15 13 -7
-2 -9 4 -5 13 5 15 7 15 15 0 5 -9 14 -13 20 -10 6 4 8 2 4 -4 -3 -6 -2 -13 4
-17 6 -4 8 -10 6 -14 -3 -4 7 -7 22 -7 15 1 27 -4 27 -11 0 -16 11 -21 22 -9
5 5 2 6 -6 1 -10 -6 -12 -4 -6 5 6 10 13 8 28 -11 13 -16 18 -18 14 -6 -8 21
0 22 19 2 18 -17 34 -20 34 -4 0 5 -4 8 -9 4 -5 -3 -12 -1 -15 4 -4 5 1 8 9 7
26 -4 30 -17 10 -33 -19 -15 -19 -15 4 -8 13 4 21 3 18 -2 -3 -5 5 -9 18 -9
14 0 21 4 18 11 -4 5 4 1 17 -10 13 -11 20 -15 17 -8 -4 6 -3 14 3 18 5 3 10
-1 10 -10 0 -9 5 -13 10 -10 6 4 7 11 4 17 -4 7 -2 8 4 4 6 -4 8 -14 5 -24 -6
-15 -5 -15 10 -3 10 8 21 11 24 7 4 -4 3 -10 -2 -14 -6 -4 -11 -14 -13 -22 -1
-10 2 -9 13 4 8 11 15 25 15 30 1 6 7 0 14 -13 10 -19 22 -24 48 -24 19 0 42
2 51 6 12 4 14 2 10 -10 -4 -11 -3 -14 6 -9 7 5 21 1 31 -9 23 -21 59 -25 79
-11 11 8 13 8 7 -2 -6 -10 -1 -11 18 -6 17 4 26 2 26 -6 0 -9 4 -9 17 1 15 12
16 12 10 -3 -3 -10 -1 -20 5 -24 7 -4 8 -3 4 4 -4 7 -2 12 4 12 6 0 8 5 5 10
-10 16 1 11 16 -7 10 -11 10 -14 2 -9 -7 4 -13 2 -13 -4 0 -6 8 -10 18 -8 9 2
16 -2 15 -8 -1 -6 5 -11 12 -11 11 0 12 4 4 13 -7 8 -6 14 2 20 8 5 9 3 4 -6
-6 -10 -4 -12 8 -7 10 4 14 2 11 -7 -3 -7 2 -13 10 -13 8 0 13 4 10 9 -3 4 0
8 5 8 6 0 11 -4 11 -10 0 -5 5 -10 11 -10 5 0 8 4 5 8 -3 5 1 9 9 9 18 0 19
-9 3 -26 -7 -8 0 -6 15 4 15 10 30 15 34 11 3 -3 1 -6 -5 -6 -7 0 -12 -7 -12
-16 0 -14 2 -14 16 1 9 9 19 13 23 9 3 -4 0 -9 -6 -11 -7 -3 -13 -9 -13 -15 0
-6 6 -6 15 2 12 10 15 10 15 0 0 -10 3 -10 15 0 12 10 15 10 15 0 0 -9 4 -9
17 1 14 12 15 12 9 0 -7 -10 -3 -12 14 -6 17 6 21 4 14 -6 -6 -12 -5 -12 8 -1
13 10 18 10 24 1 5 -8 3 -10 -7 -5 -8 4 -6 1 3 -7 10 -8 15 -17 11 -20 -3 -4
4 -5 16 -2 11 2 21 -1 21 -7 0 -6 3 -9 6 -6 3 4 1 17 -6 30 -11 22 -11 22 5 3
9 -11 25 -20 37 -20 12 0 23 -7 25 -15 4 -13 3 -13 -6 0 -9 13 -11 13 -11 -2
0 -10 4 -18 10 -18 5 0 14 8 20 18 11 16 11 16 6 -2 -7 -20 11 -49 24 -41 4 3
13 -2 20 -10 10 -12 16 -13 26 -4 17 14 18 5 3 -24 l-12 -22 23 20 c13 11 20
14 16 8 -5 -9 0 -13 15 -13 17 0 19 -3 10 -14 -10 -12 -9 -17 6 -24 10 -5 26
-8 36 -7 11 2 14 -1 10 -8 -4 -7 -9 -21 -10 -32 -2 -17 -1 -17 11 4 8 14 16
19 20 13 3 -6 0 -13 -6 -16 -11 -5 -11 -7 0 -12 6 -3 9 -11 5 -17 -4 -6 0 -8
9 -4 11 4 16 -1 16 -19 0 -14 -5 -21 -12 -18 -6 3 -1 -3 11 -14 17 -15 19 -22
10 -32 -10 -10 -7 -11 13 -5 23 7 24 6 6 -7 -18 -14 -18 -15 1 -34 10 -10 19
-26 18 -34 0 -8 4 -18 10 -22 6 -5 6 -8 -2 -8 -6 0 -10 -9 -8 -19 2 -13 -1
-18 -9 -15 -7 3 -13 -2 -13 -10 0 -8 5 -12 10 -9 6 4 8 -1 4 -11 -4 -10 -3
-15 3 -11 6 3 10 1 10 -4 0 -6 -6 -11 -14 -11 -22 0 -41 -29 -28 -42 8 -8 6
-21 -7 -47 -18 -38 -21 -68 -8 -88 4 -6 2 -15 -4 -19 -7 -4 -9 -3 -6 3 4 6 1
13 -7 16 -20 8 -28 -4 -15 -20 9 -10 7 -13 -7 -13 -11 0 -15 -4 -9 -8 6 -4 11
-13 13 -21 3 -12 1 -12 -14 0 -15 12 -17 12 -9 0 6 -11 4 -13 -10 -7 -16 6
-16 4 -4 -11 12 -15 12 -16 -3 -10 -17 6 -24 -8 -19 -36 1 -4 -8 -3 -20 3 -11
7 -23 9 -27 6 -3 -3 0 -6 7 -6 7 0 9 -4 6 -10 -3 -5 -1 -10 4 -10 20 0 11 -16
-9 -17 -11 -1 -18 2 -15 7 3 6 -1 7 -10 3 -13 -5 -14 -7 -3 -14 10 -7 9 -9 -4
-9 -9 0 -20 -5 -24 -12 -4 -6 -3 -8 4 -4 6 3 14 1 18 -6 4 -7 4 -10 -1 -6 -4
4 -15 2 -23 -5 -11 -8 -14 -8 -9 0 4 6 3 14 -3 18 -5 3 -10 -2 -10 -12 0 -10
-5 -25 -11 -33 -8 -12 -9 -11 -5 6 4 14 2 21 -7 21 -9 0 -13 -8 -11 -21 3 -12
1 -15 -2 -8 -4 9 -11 7 -25 -9 -10 -12 -19 -18 -19 -13 0 6 6 16 13 24 10 12
9 12 -4 2 -9 -6 -18 -9 -22 -6 -3 3 -11 -4 -17 -16 -8 -15 -17 -19 -31 -15
-11 4 -19 2 -19 -4 0 -6 5 -11 12 -11 6 0 8 -3 5 -6 -4 -4 -13 -1 -22 6 -11 9
-15 9 -15 1 0 -7 -5 -9 -12 -5 -22 14 -56 11 -50 -5 4 -10 1 -12 -9 -5 -20 12
-40 14 -33 3 3 -5 0 -9 -5 -9 -6 0 -11 4 -11 10 0 5 -10 8 -22 6 -14 -2 -22
-10 -22 -19 1 -13 -2 -14 -16 -7 -11 6 -21 5 -28 -2 -9 -9 -12 -9 -12 0 0 7 5
12 10 12 6 0 10 5 10 10 0 6 -8 5 -19 -2 -11 -7 -18 -15 -15 -19 2 -4 0 -10
-5 -13 -10 -7 -9 13 1 30 4 6 1 11 -7 11 -8 0 -12 -4 -9 -9 7 -12 -10 -10 -22
2 -7 7 -11 6 -11 -4 0 -8 5 -14 10 -13 5 1 12 -5 14 -13 3 -9 1 -11 -4 -5 -12
15 -47 19 -37 4 4 -8 3 -10 -5 -5 -9 6 -9 11 0 22 6 8 9 17 5 21 -3 3 -6 1 -6
-5 0 -7 -7 -12 -15 -12 -8 0 -15 5 -15 12 0 6 -3 8 -6 5 -4 -4 -2 -13 5 -21 9
-11 8 -15 -4 -20 -9 -3 -14 -2 -11 2 9 15 -12 35 -38 38 -14 1 -26 -1 -26 -6
0 -4 11 -7 25 -5 29 3 30 -2 8 -30 -12 -16 -14 -16 -10 -3 7 19 -8 34 -18 18
-3 -5 -12 -10 -18 -10 -7 0 -6 4 3 10 10 6 11 10 2 10 -6 0 -11 5 -10 11 2 6
-4 14 -12 16 -12 4 -12 3 -1 -5 10 -7 10 -11 1 -17 -7 -4 -16 -1 -21 6 -5 8
-9 9 -9 3 0 -14 -73 -10 -78 5 -2 6 -8 11 -13 11 -6 0 -7 -4 -4 -10 3 -6 -1
-7 -9 -4 -9 3 -14 10 -11 14 3 4 -4 10 -16 13 -17 5 -18 3 -8 -9 6 -8 9 -17 5
-21 -3 -3 -6 -1 -6 6 0 7 -5 9 -10 6 -6 -4 -10 -3 -9 2 3 19 -2 31 -17 37 -13
5 -14 4 -6 -7 9 -10 8 -14 -3 -14 -8 0 -15 5 -15 11 0 7 -17 11 -40 10 -21 0
-37 2 -35 6 3 4 -2 13 -10 20 -8 7 -12 17 -8 24 4 6 -1 5 -10 -3 -11 -9 -17
-10 -17 -2 0 6 -9 11 -21 11 -11 0 -17 4 -14 10 6 9 -16 15 -39 11 -5 -1 -4 4
2 12 14 16 -4 37 -35 41 -10 2 -18 9 -18 17 0 8 -9 14 -22 13 -13 -1 -20 3
-17 7 3 5 0 9 -6 9 -7 0 -10 6 -7 13 3 7 -1 21 -9 32 -8 10 -14 14 -14 9 0 -6
5 -15 12 -22 9 -9 9 -12 1 -12 -7 0 -15 10 -18 21 -6 17 -9 19 -17 8 -6 -10
-7 -7 -3 10 6 18 4 22 -6 15 -10 -6 -10 -3 1 11 9 11 10 16 3 11 -8 -4 -13 -2
-13 6 0 9 -3 9 -11 -2 -8 -12 -9 -10 -7 9 2 19 -3 27 -22 32 l-25 7 25 2 c17
2 20 4 8 7 -9 2 -20 13 -23 24 -4 11 -11 17 -16 14 -5 -3 -6 0 -3 8 3 8 -5 25
-18 37 -13 13 -17 20 -11 16 9 -5 11 -2 7 8 -3 9 -11 13 -18 9 -6 -4 -4 2 4
12 8 10 10 16 4 12 -7 -4 -15 0 -18 9 -3 8 -2 13 3 10 5 -4 7 3 4 15 -3 11
-11 18 -18 15 -7 -2 -18 1 -25 7 -10 9 -14 9 -17 0 -6 -18 -20 -16 -20 2 0 8
4 12 8 9 4 -2 10 -1 13 4 2 4 -6 8 -20 8 -15 0 -23 -5 -20 -12 3 -7 -3 -18
-12 -26 -12 -10 -14 -10 -8 0 6 10 1 11 -21 6 -15 -4 -32 -12 -36 -18 -5 -6
-6 0 -3 14 3 14 3 19 0 12 -3 -6 -10 -10 -15 -6 -5 3 -8 0 -7 -6 2 -7 -7 -14
-20 -16 -16 -3 -21 0 -16 8 6 10 4 11 -7 1 -7 -7 -22 -13 -34 -13 -12 0 -27 6
-35 13 -12 10 -12 9 -2 -4 10 -14 10 -18 -3 -23 -9 -3 -14 -2 -11 3 3 5 -1 11
-9 14 -11 5 -12 1 -5 -19 l10 -24 -28 17 c-23 15 -25 16 -14 1 7 -9 9 -18 5
-20 -4 -3 -2 -3 5 -2 17 5 15 -13 -2 -19 -15 -6 -16 -23 -2 -45 6 -10 11 -10
21 -2 11 9 12 7 8 -9 -3 -12 -1 -21 6 -21 6 0 11 -9 11 -21 0 -11 -4 -17 -10
-14 -6 3 -7 -1 -3 -10 4 -12 8 -13 13 -5 9 15 17 2 15 -27 -2 -18 1 -21 15
-13 16 8 17 5 14 -26 -2 -20 1 -32 6 -29 14 9 12 -9 -2 -24 -9 -10 -9 -12 -1
-7 6 3 15 2 18 -4 4 -7 11 -8 18 -1 9 7 12 2 14 -16 1 -19 -1 -22 -8 -12 -5 8
-9 9 -9 3 0 -18 13 -24 27 -12 8 6 13 7 12 2 -4 -23 2 -35 14 -28 8 5 8 2 -2
-9 -16 -20 -2 -23 19 -4 12 10 12 9 1 -6 -13 -16 -8 -22 14 -17 6 1 7 -2 3 -6
-4 -4 2 -15 14 -25 11 -11 16 -19 11 -19 -6 0 -16 7 -23 16 -8 8 -23 20 -34
25 -19 9 -19 9 -4 -4 10 -8 14 -18 10 -22 -4 -5 -2 -5 4 -2 6 3 26 -8 44 -26
19 -18 30 -26 25 -18 -5 10 -4 12 3 7 9 -5 9 -13 0 -29 -10 -20 -10 -21 5 -8
14 11 17 11 18 0 1 -8 1 -18 0 -23 -1 -5 6 -3 15 5 10 8 15 9 11 2 -4 -6 -2
-13 3 -15 6 -2 12 -13 12 -25 2 -18 6 -20 25 -12 21 8 23 7 13 -11 -6 -11 -8
-21 -5 -21 21 -5 32 -4 44 5 12 9 12 7 2 -13 -7 -13 -8 -21 -2 -17 5 4 17 -6
25 -21 8 -15 15 -22 16 -15 0 7 5 10 12 6 7 -4 8 -3 4 5 -4 6 -13 8 -19 5 -7
-4 -9 -4 -5 1 4 4 0 13 -9 20 -13 10 -14 13 -2 20 8 5 11 5 7 0 -8 -9 42 -52
56 -47 4 2 6 -4 3 -13 -4 -9 3 -21 21 -32 15 -10 30 -22 34 -28 5 -6 8 -6 8 2
0 7 -12 19 -26 26 -17 9 -23 17 -15 21 6 4 11 3 11 -2 0 -5 11 -14 25 -20 17
-8 23 -17 18 -29 -5 -15 -3 -15 10 2 14 19 16 19 22 3 4 -10 12 -15 19 -11 7
4 6 1 -2 -9 -11 -13 -8 -15 19 -12 17 2 36 1 43 -3 6 -4 20 -9 31 -10 18 -3
29 -14 39 -38 2 -6 9 -4 17 4 8 8 9 11 2 7 -6 -3 -14 -3 -17 2 -2 4 6 8 19 8
17 0 22 -5 20 -18 -2 -10 0 -16 6 -13 5 4 9 0 9 -7 1 -7 7 -2 14 11 l14 24 8
-24 c4 -13 7 -28 6 -32 -1 -5 2 -6 8 -2 5 3 8 16 6 28 -1 12 -1 16 1 9 3 -6 8
-12 13 -12 5 0 7 -8 4 -17 -4 -11 -3 -14 3 -7 15 19 41 23 47 8 3 -9 11 -12
17 -8 6 4 24 8 40 9 26 2 29 0 23 -19 -6 -19 -5 -20 7 -4 13 16 17 16 41 4 22
-12 27 -12 32 -1 3 9 0 12 -10 8 -7 -3 -14 -1 -14 5 0 9 20 9 40 2 3 -1 9 -2
13 -1 5 1 6 -3 2 -9 -3 -6 -10 -8 -14 -6 -4 3 -8 0 -8 -7 0 -8 13 -12 31 -11
17 0 38 -3 47 -7 9 -5 19 -5 23 -1 12 11 96 9 96 -2 0 -8 3 -8 8 -1 4 6 32 11
62 11 53 0 55 1 52 24 l-2 25 13 -24 c12 -20 15 -21 20 -7 5 12 3 15 -6 10 -6
-4 -9 -3 -4 1 9 10 57 14 51 4 -2 -4 3 -9 11 -13 8 -3 17 0 21 6 4 7 3 8 -4 4
-7 -4 -12 -2 -12 3 0 6 7 11 15 11 8 0 15 -6 15 -12 0 -10 3 -9 9 1 6 9 11 10
15 2 5 -8 13 -8 27 -1 13 8 19 7 19 0 0 -6 7 -4 16 4 8 9 20 14 25 10 5 -3 13
5 17 17 7 19 10 20 15 6 4 -10 12 -17 19 -17 9 0 9 3 -2 10 -13 8 -13 11 -1
22 10 10 12 10 7 0 -10 -17 9 -15 24 3 7 8 17 12 23 8 5 -3 16 2 24 12 7 11
13 13 13 7 0 -15 30 -15 50 -1 12 8 10 9 -7 4 -12 -3 -25 -1 -29 6 -4 7 -3 9
4 5 6 -3 22 -2 37 4 20 8 24 7 19 -3 -5 -8 -3 -8 9 2 9 7 24 11 32 7 9 -3 13
-2 10 4 -3 5 -1 18 5 27 11 17 11 17 6 -1 -5 -15 -4 -17 7 -8 8 7 18 8 23 4 4
-4 3 0 -3 8 -10 13 -8 16 7 16 10 0 17 -4 14 -7 -2 -4 1 -11 8 -15 7 -4 10 -4
6 1 -4 4 -3 14 3 21 7 8 6 14 -2 20 -8 5 -9 3 -4 -6 5 -9 4 -11 -4 -6 -6 4 -9
12 -5 17 3 5 9 7 13 4 5 -2 25 11 45 31 20 19 41 32 46 29 6 -3 10 -1 10 4 0
6 8 11 18 11 29 0 43 20 30 44 -10 19 -10 20 6 7 15 -12 19 -12 34 2 10 11 12
17 4 17 -7 0 -12 -5 -12 -11 0 -5 -5 -7 -11 -3 -8 5 -8 8 0 14 7 4 9 15 4 26
-7 18 -6 18 11 1 21 -21 18 -21 39 4 18 20 18 21 -4 14 -22 -7 -22 -7 -6 9 9
10 14 22 11 28 -4 7 -2 8 5 4 6 -4 8 -12 5 -18 -5 -7 -2 -8 5 -3 7 4 11 16 8
26 -3 12 3 25 15 33 12 9 18 21 15 30 -4 9 -3 15 1 15 28 -4 34 1 21 18 -12
14 -12 16 0 8 11 -6 13 -4 8 9 -5 11 -3 15 5 10 7 -5 9 -2 6 8 -4 8 -2 21 4
29 8 11 9 11 5 -2 -3 -9 1 -16 8 -16 10 0 11 7 4 24 -5 14 -5 22 0 19 5 -3 14
1 21 9 11 13 10 14 -2 10 -10 -4 -14 0 -13 16 1 13 10 25 20 29 17 6 17 7 1
13 -13 5 -15 11 -7 26 6 10 9 20 8 22 -1 2 3 -2 10 -10 10 -11 11 -6 6 24 -4
26 -3 36 5 32 6 -4 9 0 7 10 -1 10 2 23 7 30 6 7 5 14 -3 19 -8 5 -9 3 -4 -6
5 -8 4 -11 -3 -6 -6 4 -9 13 -6 21 4 8 10 12 15 9 5 -3 6 2 3 11 -5 13 -9 13
-22 3 -13 -12 -14 -11 -2 9 8 12 19 19 25 15 5 -3 4 2 -4 11 -11 14 -12 23 -2
44 10 23 10 25 -3 14 -11 -9 -16 -9 -22 0 -4 8 -3 9 4 5 9 -5 10 3 6 30 -4 25
-1 39 8 45 10 7 10 9 -2 9 -9 0 -22 -6 -29 -12 -10 -11 -11 -10 -6 3 3 9 16
22 28 28 14 8 16 10 4 6 -12 -3 -17 -1 -14 7 2 7 11 11 18 10 8 -2 10 0 6 4
-10 10 -38 15 -33 5 3 -4 0 -13 -6 -21 -8 -13 -9 -12 -5 1 3 9 0 22 -6 29 -9
10 -9 11 1 6 15 -9 17 25 1 41 -8 8 -7 13 2 18 8 6 10 4 4 -5 -5 -9 -4 -11 4
-6 16 10 4 26 -21 26 -12 0 -18 5 -15 13 7 19 -11 59 -24 51 -8 -4 -9 -3 -5 5
4 6 11 9 16 6 5 -3 12 -1 15 5 4 6 1 9 -6 8 -6 -2 -14 3 -17 11 -2 8 0 11 5 8
5 -3 10 0 10 8 0 8 -5 11 -11 8 -6 -4 -19 -8 -30 -8 -18 -2 -18 -1 -1 12 17
12 12 17 -15 15 -3 0 -5 14 -5 31 0 27 -3 32 -22 29 -13 -2 -23 2 -23 8 0 6 6
8 13 4 6 -4 0 5 -15 20 -15 16 -25 33 -21 39 3 6 1 7 -6 3 -6 -4 -8 -12 -5
-18 5 -7 2 -8 -5 -3 -7 4 -11 16 -8 26 3 11 2 17 -3 14 -8 -5 -29 16 -27 27 1
3 -2 10 -7 15 -5 5 -6 3 -2 -4 4 -7 2 -13 -4 -13 -6 0 -8 -4 -5 -10 3 -5 1
-10 -5 -10 -6 0 -10 7 -8 16 2 10 -3 19 -11 22 -10 3 -11 0 -5 -9 6 -12 5 -12
-10 0 -12 10 -14 17 -6 25 13 13 13 26 -1 26 -5 0 -8 -4 -5 -9 3 -5 -1 -11 -9
-14 -9 -4 -12 -1 -8 9 3 7 1 14 -5 14 -6 0 -13 -6 -15 -12 -3 -8 -6 -5 -6 5
-1 10 -5 15 -11 12 -5 -3 -10 -1 -10 4 0 6 5 11 10 11 6 0 10 4 10 8 0 5 -7 9
-15 9 -8 0 -11 -5 -8 -10 3 -5 0 -7 -8 -5 -8 3 -13 10 -12 15 1 5 -4 10 -12
10 -8 0 -12 -4 -9 -8 2 -4 -1 -11 -7 -15 -8 -4 -9 -3 -5 4 4 7 2 13 -3 13 -6
1 -15 3 -21 4 -5 1 -18 3 -27 4 -16 2 -15 3 2 11 18 7 18 9 3 15 -9 4 -22 4
-27 0 -7 -4 -8 0 -4 11 5 13 3 15 -13 6 -14 -7 -22 -6 -31 3 -6 7 -10 15 -8
17 2 2 -5 10 -17 17 -11 7 -17 8 -14 3 3 -6 -1 -12 -9 -16 -8 -3 -17 -1 -20 5
-4 5 -11 6 -17 3 -7 -5 -9 -2 -6 8 4 8 0 15 -8 15 -7 0 -11 -4 -8 -8 2 -4 0
-10 -6 -14 -5 -3 -10 -1 -10 5 0 6 -5 8 -12 4 -9 -5 -9 -2 1 9 8 10 9 17 3 17
-6 0 -16 -8 -22 -17 -11 -17 -11 -17 -6 0 6 20 -19 24 -28 5 -3 -7 -3 -1 -1
14 2 19 0 25 -10 22 -8 -3 -11 -13 -8 -22 3 -9 -7 -3 -21 13 -18 20 -24 23
-17 9 8 -16 7 -21 -4 -21 -8 0 -11 5 -8 10 4 6 0 8 -10 4 -12 -4 -14 -2 -10
11 6 15 4 15 -10 4 -9 -8 -21 -11 -27 -7 -15 9 -13 28 3 19 6 -4 9 -3 4 1 -4
5 -16 9 -27 10 -19 2 -19 1 -3 -24 13 -20 13 -23 1 -14 -8 7 -18 9 -22 5 -4
-4 -6 0 -4 8 2 8 -3 14 -9 13 -12 -3 -18 10 -14 31 1 5 -4 5 -11 -1 -7 -5 -22
-13 -32 -17 -15 -5 -17 -4 -7 7 9 12 6 14 -16 10 -58 -8 -68 -8 -66 4 2 7 -3
10 -11 7 -8 -3 -15 3 -18 14 -3 10 -12 19 -21 19 -9 0 -14 -4 -11 -9 3 -5 10
-5 16 -2 6 4 8 2 5 -4 -4 -5 -16 -8 -27 -5 -11 3 -17 10 -14 15 4 6 -3 5 -15
-1 -14 -8 -21 -8 -21 -1 0 5 -5 10 -11 10 -5 0 -7 -4 -4 -10 3 -5 1 -10 -4
-10 -6 0 -11 4 -11 9 0 5 -7 12 -16 15 -8 3 -12 2 -9 -3 3 -5 0 -13 -6 -17 -7
-4 -9 -3 -5 4 3 6 0 17 -8 25 -8 8 -12 18 -8 21 3 4 -2 4 -12 0 -16 -6 -17 -8
-2 -16 17 -10 13 -28 -7 -28 -7 0 -6 4 3 10 13 9 13 10 0 11 -8 1 -18 1 -22 0
-4 0 -4 7 -1 16 5 12 3 14 -8 7 -20 -12 -40 -14 -33 -3 3 5 11 6 17 3 7 -4 8
-3 4 2 -13 14 -41 11 -55 -6 -8 -8 -11 -10 -8 -3 4 6 2 14 -4 18 -6 4 -8 11
-5 16 4 5 1 9 -5 9 -7 0 -10 -6 -7 -14 3 -8 0 -17 -8 -20 -10 -3 -12 2 -9 22
5 26 5 26 -10 7 -15 -20 -15 -20 -16 5 -1 14 -4 19 -7 13 -7 -19 -33 -16 -33
4 0 15 -2 15 -14 -2 -13 -18 -14 -18 -24 2 -6 11 -8 24 -4 28 4 5 2 5 -5 1 -6
-3 -16 2 -22 11 -6 10 -11 12 -11 6 0 -7 -7 -13 -16 -13 -9 0 -12 5 -8 13 5 7
0 6 -11 -3 -17 -14 -17 -13 -11 10 6 19 5 21 -3 10 -10 -14 -15 -7 -12 13 1 5
-3 6 -8 3 -5 -3 -12 1 -15 10 -8 21 -27 8 -20 -14 3 -9 -1 -7 -8 6 -8 12 -16
21 -19 18 -2 -2 -11 3 -19 12 -13 14 -12 15 2 9 12 -4 15 -2 12 7 -3 8 -14 12
-25 9 -13 -4 -19 0 -19 11 0 10 -5 14 -11 10 -8 -5 -10 3 -7 24 4 25 2 29 -9
21 -10 -9 -13 -7 -13 5 0 10 -4 14 -10 11 -5 -3 -10 -1 -10 4 0 6 5 11 11 11
6 0 1 9 -12 21 -18 16 -20 19 -6 15 11 -4 16 -2 12 5 -4 5 -2 16 5 24 8 9 8
15 0 20 -6 4 -9 3 -8 -2 2 -4 -1 -10 -7 -13 -5 -3 -11 9 -12 25 -1 17 -5 45
-8 63 -3 24 -1 31 8 26 6 -4 2 3 -10 15 -13 12 -23 27 -23 33 0 7 6 4 13 -6
13 -17 14 -17 28 0 10 13 10 16 1 10 -9 -5 -13 -3 -11 5 3 29 -1 40 -13 33 -7
-4 -5 2 5 13 9 11 14 23 10 28 -5 4 -2 5 5 1 9 -6 10 -11 2 -21 -7 -9 -6 -16
7 -26 16 -13 17 -12 5 3 -8 10 -9 18 -3 22 7 4 7 15 1 31 -7 18 -5 25 8 31 9
4 20 6 25 6 4 -1 7 3 7 8 0 13 -13 13 -27 -1 -9 -9 -11 -7 -9 6 1 10 11 20 21
21 10 1 23 8 29 15 8 9 8 10 -1 5 -6 -3 -15 -1 -19 5 -4 7 -3 9 4 5 16 -10 27
15 11 26 -11 7 -10 8 3 6 9 -2 24 6 33 17 9 11 14 14 10 8 -4 -9 -1 -11 9 -7
9 3 13 11 9 17 -4 6 2 8 15 5 15 -4 19 -2 15 8 -3 8 -10 11 -16 7 -5 -3 -7 -1
-4 5 8 11 24 11 47 -2 12 -7 13 -6 3 5 -18 19 -16 34 3 19 12 -11 15 -11 12 1
-2 8 -7 17 -13 21 -6 5 -6 8 2 8 7 0 17 -8 22 -17 7 -12 10 -14 11 -4 0 11 3
11 17 0 15 -13 15 -12 3 8 -8 12 -19 19 -25 15 -5 -3 -4 2 4 11 14 18 22 22
20 10 -4 -24 4 -25 17 -3 l15 25 -5 -25 c-5 -23 -3 -22 27 11 22 25 40 35 57
34 15 0 24 -6 22 -14 -1 -7 2 -10 8 -6 6 3 8 11 5 16 -4 5 5 9 19 9 13 0 32 3
42 7 11 4 15 3 10 -5 -3 -6 -2 -14 4 -17 6 -4 9 -1 8 6 -2 6 3 14 11 17 8 3
11 0 7 -7 -5 -7 -1 -9 9 -5 14 6 14 8 -2 19 -10 8 -15 17 -10 21 4 4 7 2 7 -4
0 -7 7 -12 16 -12 10 0 14 6 11 14 -4 10 -1 13 8 9 8 -3 12 -9 9 -14 -3 -5 0
-9 5 -9 6 0 11 6 11 13 0 8 4 7 10 -3 9 -14 14 -7 11 15 -1 6 5 2 12 -7 17
-22 31 -24 24 -4 -4 10 -1 13 9 9 7 -3 14 -9 14 -15 0 -5 5 -6 10 -3 6 4 7 11
4 17 -4 7 -2 8 5 4 6 -4 9 -11 6 -16 -3 -5 0 -12 6 -16 7 -4 9 -3 5 4 -3 6 -2
13 4 17 5 3 10 0 11 -7 0 -7 4 -4 9 7 7 17 9 17 9 3 1 -16 12 -23 34 -19 4 1
25 -7 47 -18 22 -10 38 -16 37 -12 -1 3 3 6 8 6 6 0 9 -4 7 -10 -1 -5 4 -2 11
7 13 17 15 16 26 -5 6 -12 9 -14 7 -4 -3 9 -1 17 4 17 6 0 10 -5 10 -12 0 -9
3 -9 12 0 9 9 15 8 27 -2 9 -8 18 -14 21 -14 11 0 60 -26 60 -32 0 -3 7 -15
16 -26 15 -18 15 -18 5 3 -8 16 -7 22 3 26 8 3 13 -1 12 -11 -1 -11 7 -17 19
-17 14 0 19 -6 17 -18 -3 -15 0 -17 17 -8 25 14 31 14 31 0 0 -5 -4 -7 -10 -4
-5 3 -10 1 -10 -4 0 -6 5 -12 10 -12 6 -1 15 -3 20 -4 6 -1 15 -3 20 -4 6 0
10 -10 10 -20 0 -11 5 -23 12 -27 7 -5 8 -3 3 7 -7 11 -6 12 7 2 8 -7 19 -9
24 -5 4 4 3 0 -4 -9 -14 -18 -7 -29 20 -29 10 0 18 -7 18 -15 0 -8 5 -15 12
-15 6 0 3 -7 -8 -15 -11 -9 -13 -13 -4 -10 9 3 24 -1 35 -10 20 -15 20 -15 0
-10 -16 5 -16 3 3 -6 12 -7 22 -19 22 -28 0 -14 -2 -14 -11 -1 -9 13 -10 13
-6 0 2 -8 14 -15 27 -15 17 0 24 -6 25 -22 1 -12 -2 -20 -7 -17 -13 9 -9 -6 7
-22 21 -22 19 -40 -2 -23 -16 12 -17 12 -6 -2 7 -9 11 -19 8 -22 -3 -4 -2 -5
1 -2 4 2 20 -5 36 -16 23 -17 26 -24 17 -35 -7 -8 -7 -14 -1 -14 15 0 33 26
24 35 -4 5 -2 5 5 1 7 -4 9 -14 6 -23 -5 -11 -3 -14 6 -9 7 5 10 17 7 29 -3
14 -2 17 6 9 8 -8 15 -7 25 6 8 9 12 11 8 5 -4 -8 0 -13 10 -13 9 0 14 4 10 9
-3 5 -1 13 5 16 6 4 9 3 8 -2 -2 -4 2 -8 7 -8 6 0 9 4 7 8 -1 5 3 5 10 1 18
-12 39 -14 33 -4 -3 5 -1 11 5 15 9 6 15 -8 11 -29 -1 -5 4 -4 12 2 8 7 16 9
20 6 3 -3 4 6 3 20 -2 15 -1 24 2 22 2 -3 13 -1 23 4 12 7 20 6 25 -2 4 -6 3
-8 -3 -5 -6 4 -16 0 -22 -7 -9 -10 -9 -16 -1 -21 6 -4 9 -1 8 6 -2 7 2 13 9
14 7 0 19 9 28 20 9 11 14 15 11 8 -4 -6 -2 -15 4 -18 6 -4 9 -1 8 7 -2 7 4
12 12 10 11 -2 11 1 -2 11 -18 14 -26 33 -10 23 5 -3 9 1 9 9 0 8 -4 12 -9 9
-4 -3 -8 9 -8 25 0 17 -5 31 -11 31 -7 0 -9 9 -6 21 5 17 3 18 -10 8 -13 -11
-14 -9 -10 19 3 19 1 30 -4 26 -5 -3 -6 -10 -3 -16 4 -6 2 -8 -4 -5 -5 4 -8
16 -5 27 3 12 0 20 -6 20 -7 0 -9 -5 -5 -12 4 -7 3 -8 -4 -4 -9 5 -9 13 0 29
10 20 10 21 -6 8 -14 -12 -16 -12 -10 4 6 14 4 16 -7 10 -11 -7 -11 -5 1 10 8
10 10 16 4 12 -7 -4 -15 0 -18 9 -5 12 -2 15 11 10 15 -6 16 -5 5 6 -11 11
-16 10 -28 -6 -17 -23 -18 -18 -4 21 10 27 9 27 -6 8 l-16 -20 4 20 c2 11 8
24 13 28 6 5 4 7 -5 4 -21 -6 -55 23 -55 48 0 14 -6 19 -18 17 -15 -3 -18 1
-13 20 3 13 3 17 0 11 -3 -7 -11 -13 -17 -13 -5 0 -8 3 -4 6 10 10 -17 32 -33
26 -12 -4 -13 -2 -2 9 6 7 12 18 12 23 0 6 -5 4 -10 -4 -8 -13 -10 -12 -10 2
0 10 -6 17 -12 15 -7 -1 -12 6 -12 15 1 10 -2 15 -7 12 -5 -3 -9 1 -9 8 0 9
-2 10 -8 2 -5 -8 -11 -7 -22 4 -8 9 -14 18 -12 19 1 2 -1 2 -4 1 -3 -2 -12 8
-19 22 -8 14 -14 19 -15 13 0 -19 -27 -16 -36 5 -4 9 -7 20 -6 23 0 3 -13 3
-30 1 -20 -3 -29 -1 -24 6 3 6 2 14 -4 17 -6 4 -10 3 -9 -2 3 -20 -2 -23 -16
-9 -18 18 -20 30 -2 20 8 -5 8 -2 -2 9 -15 18 -26 23 -16 7 3 -5 1 -10 -5 -10
-6 0 -8 -5 -4 -12 4 -7 3 -8 -4 -4 -6 4 -9 13 -6 21 6 15 -12 15 -35 1 -10 -7
-12 -6 -6 4 6 10 4 12 -9 7 -10 -4 -19 -1 -23 8 -4 13 -8 13 -22 3 -9 -7 -13
-9 -9 -4 4 5 1 15 -7 22 -20 21 -27 17 -15 -8 10 -21 9 -21 -9 2 -11 14 -23
21 -27 17 -4 -4 -18 0 -30 8 -17 11 -25 12 -30 3 -4 -6 -3 -8 3 -5 6 4 17 -1
24 -11 13 -15 12 -16 -3 -3 -10 7 -18 10 -18 5 0 -5 -12 5 -26 21 -14 17 -23
25 -20 19 3 -6 -3 -19 -13 -28 -17 -15 -19 -15 -25 -1 -3 9 -10 13 -16 10 -6
-4 -7 -12 -3 -18 5 -8 2 -8 -9 0 -8 7 -18 10 -21 6 -4 -3 -7 -1 -7 5 0 11 13
16 33 13 4 0 7 3 7 8 0 5 -19 8 -42 7 -30 -1 -42 -5 -40 -14 1 -8 -2 -11 -8
-7 -6 3 -8 11 -5 16 4 5 -28 9 -76 9 -66 0 -84 -3 -95 -17 -12 -16 -12 -16 -7
5 5 22 2 28 -10 16z m-114 -26 c-5 -10 11 -10 21 -1 10 11 37 12 30 2 -3 -5
-9 -7 -14 -4 -5 3 -12 0 -15 -6 -4 -5 -14 -8 -22 -5 -9 4 -23 1 -31 -6 -12
-10 -14 -10 -8 0 4 6 3 12 -1 12 -5 0 -15 -6 -23 -12 -8 -7 -6 -3 3 8 16 20
72 30 60 12z m277 -8 c0 -5 -2 -10 -4 -10 -3 0 -8 5 -11 10 -3 6 -1 10 4 10 6
0 11 -4 11 -10z m181 -13 c-10 -9 -11 -8 -5 6 3 10 9 15 12 12 3 -3 0 -11 -7
-18z m-651 -41 c0 -2 -7 -7 -16 -10 -8 -3 -12 -2 -9 4 6 10 25 14 25 6z m-174
-58 c4 -7 4 -10 -1 -6 -4 4 -14 3 -22 -3 -8 -8 -13 -8 -13 -1 0 6 6 13 13 15
6 3 13 6 14 6 1 1 5 -5 9 -11z m1198 -23 c3 -8 1 -15 -4 -15 -6 0 -10 7 -10
15 0 8 2 15 4 15 2 0 6 -7 10 -15z m-800 -171 c3 -8 2 -12 -4 -9 -6 3 -10 10
-10 16 0 14 7 11 14 -7z m286 12 c0 -2 -7 -7 -16 -10 -8 -3 -12 -2 -9 4 6 10
25 14 25 6z m40 -18 c0 -4 -4 -8 -9 -8 -6 0 -12 4 -15 8 -3 5 1 9 9 9 8 0 15
-4 15 -9z m823 -453 c4 -8 3 -16 -1 -19 -4 -3 -9 4 -9 15 -2 23 3 25 10 4z
m-229 -11 c3 -8 2 -12 -4 -9 -6 3 -10 10 -10 16 0 14 7 11 14 -7z m-1404 -58
c0 -3 -4 -8 -10 -11 -5 -3 -10 -1 -10 4 0 6 5 11 10 11 6 0 10 -2 10 -4z m5
-26 c-3 -5 -12 -10 -18 -10 -7 0 -6 4 3 10 19 12 23 12 15 0z m9 -48 c3 -5 -1
-9 -9 -9 -8 0 -12 4 -9 9 3 4 7 8 9 8 2 0 6 -4 9 -8z m-329 -202 c-3 -5 -12
-10 -18 -10 -7 0 -6 4 3 10 19 12 23 12 15 0z m509 -29 c3 -5 -1 -11 -9 -14
-9 -4 -12 -1 -8 9 6 16 10 17 17 5z m100 -63 c-3 -5 -12 -4 -20 3 -7 6 -11 15
-8 21 3 5 12 4 20 -3 7 -6 11 -15 8 -21z m-364 -238 c0 -5 -2 -10 -4 -10 -3 0
-8 5 -11 10 -3 6 -1 10 4 10 6 0 11 -4 11 -10z m1331 -33 c-10 -9 -11 -8 -5 6
3 10 9 15 12 12 3 -3 0 -11 -7 -18z m-1167 -69 c-3 -4 -11 -5 -19 -1 -21 7
-19 12 4 10 11 0 18 -5 15 -9z m156 -69 c0 -6 -4 -7 -10 -4 -5 3 -10 11 -10
16 0 6 5 7 10 4 6 -3 10 -11 10 -16z m180 -43 c0 -3 -4 -8 -10 -11 -5 -3 -10
-1 -10 4 0 6 5 11 10 11 6 0 10 -2 10 -4z m1188 -21 c-3 -3 -9 2 -12 12 -6 14
-5 15 5 6 7 -7 10 -15 7 -18z m-1054 -16 c20 3 26 0 20 -10 -5 -8 -9 -8 -14 1
-4 6 -11 11 -16 10 -5 -1 -10 4 -12 12 -3 11 -2 11 6 0 5 -8 12 -13 16 -13z
m1152 -79 c0 -12 -4 -16 -9 -11 -5 5 -6 14 -3 20 10 15 12 14 12 -9z m-633
-50 c3 -11 1 -18 -4 -14 -5 3 -9 12 -9 20 0 20 7 17 13 -6z m127 -70 c0 -5 -2
-10 -4 -10 -3 0 -8 5 -11 10 -3 6 -1 10 4 10 6 0 11 -4 11 -10z m30 -15 c14
-19 14 -19 -2 -6 -10 7 -18 18 -18 24 0 6 1 8 3 6 1 -2 9 -13 17 -24z m100
-75 c0 -5 -7 -7 -15 -4 -8 4 -15 8 -15 10 0 2 7 4 15 4 8 0 15 -4 15 -10z m81
-133 c-10 -9 -11 -8 -5 6 3 10 9 15 12 12 3 -3 0 -11 -7 -18z m39 -67 c8 -5
11 -10 5 -10 -5 0 -17 5 -25 10 -8 5 -10 10 -5 10 6 0 17 -5 25 -10z m-1900
-120 c0 -5 -2 -10 -4 -10 -3 0 -8 5 -11 10 -3 6 -1 10 4 10 6 0 11 -4 11 -10z
m-64 -66 c1 -9 0 -13 -4 -10 -3 4 -7 14 -8 22 -1 9 0 13 4 10 3 -4 7 -14 8
-22z m2354 22 c0 -2 -8 -10 -17 -17 -16 -13 -17 -12 -4 4 13 16 21 21 21 13z
m-395 -25 c3 -5 1 -12 -5 -16 -6 -4 -8 -10 -5 -14 2 -5 -2 -17 -11 -27 -15
-18 -15 -18 -5 2 7 14 7 24 -1 32 -11 11 -3 32 12 32 5 0 11 -4 15 -9z m-1545
-51 c0 -5 -5 -10 -11 -10 -5 0 -7 5 -4 10 3 6 8 10 11 10 2 0 4 -4 4 -10z
m1510 -54 c-5 -13 -6 -27 -2 -32 4 -4 2 -4 -5 -1 -6 4 -10 15 -8 25 2 9 4 20
4 25 1 4 5 7 11 7 6 0 6 -9 0 -24z m-1810 -106 c0 -5 -2 -10 -4 -10 -3 0 -8 5
-11 10 -3 6 -1 10 4 10 6 0 11 -4 11 -10z m524 -78 c2 -4 -4 -8 -15 -8 -10 0
-19 4 -19 8 0 4 6 8 14 8 8 0 17 -4 20 -8z m746 -168 c0 -8 -19 -13 -24 -6 -3
5 1 9 9 9 8 0 15 -2 15 -3z m-50 -28 c0 -2 -7 -7 -16 -10 -8 -3 -12 -2 -9 4 6
10 25 14 25 6z m785 -6 c-3 -5 -10 -10 -16 -10 -5 0 -9 5 -9 10 0 6 7 10 16
10 8 0 12 -4 9 -10z m-1735 -24 c0 -2 -7 -7 -16 -10 -8 -3 -12 -2 -9 4 6 10
25 14 25 6z m1505 -116 c-3 -5 -12 -10 -18 -10 -7 0 -6 4 3 10 19 12 23 12 15
0z m-1088 -102 c-3 -8 -6 -5 -6 6 -1 11 2 17 5 13 3 -3 4 -12 1 -19z m805 -12
c7 4 8 2 4 -5 -10 -15 -26 -4 -25 17 1 15 2 15 6 -1 2 -9 9 -14 15 -11z m32 8
c3 -8 2 -12 -4 -9 -6 3 -10 10 -10 16 0 14 7 11 14 -7z m-64 -18 c0 -3 -4 -8
-10 -11 -5 -3 -10 -1 -10 4 0 6 5 11 10 11 6 0 10 -2 10 -4z m-380 -12 c0 -8
-19 -13 -24 -6 -3 5 1 9 9 9 8 0 15 -2 15 -3z m174 -6 c-5 -7 -2 -9 9 -5 8 3
17 0 20 -7 3 -8 -4 -11 -22 -10 -35 2 -35 2 -21 19 15 18 24 20 14 3z m-128
-11 c8 3 14 1 14 -4 0 -6 -12 -9 -27 -8 -16 1 -34 -2 -40 -8 -9 -6 -13 -6 -13
2 0 10 13 15 33 12 4 0 7 5 8 12 0 9 2 9 5 0 3 -7 12 -9 20 -6z m80 0 c8 3 14
1 14 -4 0 -5 -15 -9 -34 -9 -19 0 -32 4 -30 8 3 5 10 6 15 3 5 -4 9 0 10 7 0
9 2 10 5 1 3 -7 12 -9 20 -6z m-156 -6 c0 -4 -11 -7 -24 -7 -14 0 -23 3 -21 6
5 9 45 10 45 1z"/>
<path d="M5224 4998 c4 -20 26 -21 26 -1 0 14 -2 15 -9 4 -6 -9 -10 -10 -14
-2 -4 8 -5 8 -3 -1z"/>
<path d="M1202 4963 c-19 -13 -28 -14 -43 -5 -15 10 -17 9 -13 -3 3 -7 13 -16
22 -19 13 -4 12 -5 -3 -4 -39 1 -46 -2 -39 -14 4 -7 -2 -5 -13 5 -11 9 -23 14
-28 10 -4 -5 -5 -2 -1 5 4 7 1 12 -9 12 -9 0 -13 5 -10 10 3 6 2 10 -3 10 -6
0 -13 -7 -16 -16 -3 -8 -2 -12 3 -9 5 3 12 1 15 -4 4 -5 2 -12 -3 -15 -5 -4
-13 -1 -17 5 -5 9 -11 7 -21 -6 -15 -21 -18 -12 -4 14 8 15 5 17 -27 15 -20 0
-41 4 -45 10 -6 7 -7 4 -3 -6 3 -10 1 -20 -4 -23 -6 -4 -10 2 -10 11 0 10 -3
14 -7 11 -3 -4 -13 -1 -22 5 -9 7 -13 9 -9 4 4 -4 2 -14 -5 -21 -9 -10 -14 -9
-25 4 -11 14 -12 13 -8 -9 3 -14 3 -19 0 -12 -3 6 -11 9 -17 5 -6 -4 -8 0 -4
10 9 23 -7 29 -37 16 -20 -9 -29 -9 -41 1 -13 11 -14 10 -9 -3 3 -9 13 -18 22
-21 13 -4 12 -5 -3 -4 -11 0 -26 0 -32 -1 -17 -1 -19 -3036 -3 -3046 6 -4 7
-12 3 -18 -3 -7 2 -5 13 4 20 18 69 20 93 5 9 -6 12 -5 7 2 -3 6 -2 13 3 16 5
4 12 2 16 -4 4 -6 11 -7 17 -4 6 4 14 0 19 -7 6 -10 9 -11 9 -1 0 8 9 11 25 8
13 -3 27 0 31 5 4 6 11 6 20 -2 7 -6 12 -15 9 -19 -3 -5 -1 -11 4 -15 6 -3 8
3 6 15 -2 11 0 20 6 20 5 0 9 -4 9 -10 0 -5 5 -10 11 -10 5 0 7 5 4 10 -3 6
-2 10 4 10 5 0 13 -10 17 -22 6 -21 7 -21 22 7 13 26 16 27 27 12 13 -18 30
-24 20 -7 -3 6 -1 10 4 10 6 0 11 -6 11 -12 0 -10 2 -10 8 -1 4 7 18 11 30 8
12 -2 24 1 28 6 4 6 11 6 20 -2 7 -6 12 -15 9 -19 -3 -5 -1 -11 4 -15 6 -3 8
3 6 15 -2 11 0 20 6 20 5 0 9 -4 9 -10 0 -5 5 -10 11 -10 5 0 7 5 4 10 -3 6
-2 10 4 10 5 0 13 -10 17 -22 6 -21 7 -21 22 7 13 26 16 27 27 12 13 -18 30
-24 20 -7 -3 6 -1 10 4 10 6 0 11 -6 11 -12 0 -10 2 -10 8 -1 4 7 18 11 30 8
12 -2 24 1 28 6 4 6 11 6 20 -2 7 -6 12 -15 9 -19 -3 -5 -1 -11 4 -15 6 -3 8
3 6 15 -2 11 0 20 6 20 5 0 9 -4 9 -10 0 -5 5 -10 11 -10 5 0 7 5 4 10 -3 6
-2 10 4 10 5 0 13 -10 17 -22 6 -21 7 -21 22 7 13 26 16 27 27 12 13 -18 30
-24 20 -7 -3 6 -1 10 4 10 6 0 11 -6 11 -12 0 -10 2 -10 8 -1 4 7 18 11 30 8
12 -2 24 1 28 6 4 6 11 6 20 -2 7 -6 12 -15 9 -19 -3 -5 -1 -11 4 -15 6 -3 8
3 6 15 -2 11 0 20 6 20 5 0 9 -4 9 -10 0 -5 5 -10 11 -10 5 0 7 5 4 10 -3 6
-2 10 4 10 5 0 13 -10 17 -22 6 -21 7 -21 22 7 13 26 16 27 27 12 13 -18 30
-24 20 -7 -3 6 -1 10 4 10 6 0 11 -6 11 -12 0 -10 2 -10 8 -1 4 7 18 11 30 8
12 -2 24 1 28 6 4 6 11 6 20 -2 7 -6 12 -15 9 -19 -3 -5 -1 -11 4 -15 6 -3 8
3 6 15 -2 11 0 20 6 20 5 0 9 -4 9 -10 0 -5 5 -10 11 -10 5 0 7 5 4 10 -3 6
-2 10 4 10 5 0 13 -10 17 -22 6 -21 7 -21 22 7 13 26 16 27 27 12 13 -18 30
-24 20 -7 -3 6 -1 10 4 10 6 0 11 -6 11 -12 0 -10 2 -10 8 -1 4 7 18 11 30 8
12 -2 24 1 28 6 4 6 11 6 20 -2 7 -6 12 -15 9 -19 -3 -5 -1 -11 4 -15 6 -3 8
3 6 15 -2 11 0 20 6 20 5 0 9 -4 9 -10 0 -5 5 -10 11 -10 5 0 7 5 4 10 -3 6
-2 10 4 10 5 0 13 -10 17 -22 6 -21 7 -21 22 7 13 26 16 27 27 12 13 -18 30
-24 20 -7 -3 6 -1 10 4 10 6 0 11 -6 11 -12 0 -10 2 -10 8 -1 4 7 18 11 30 8
12 -2 24 1 28 6 4 6 11 6 20 -2 7 -6 12 -15 9 -19 -3 -5 -1 -11 4 -15 6 -3 8
3 6 15 -2 11 0 20 6 20 5 0 9 -4 9 -10 0 -5 5 -10 11 -10 5 0 7 5 4 10 -3 6
-2 10 4 10 5 0 13 -10 17 -22 6 -21 7 -21 22 7 13 26 16 27 27 12 13 -18 30
-24 20 -7 -3 6 -1 10 4 10 6 0 11 -6 11 -12 0 -9 4 -8 11 2 9 12 10 11 6 -8
-3 -12 -1 -20 4 -16 5 3 9 11 9 19 0 8 4 17 10 20 6 4 7 -1 4 -12 -5 -16 -3
-15 12 2 14 17 16 17 11 3 -4 -10 -2 -18 4 -18 6 0 7 -5 3 -12 -4 -7 -3 -8 4
-4 6 4 8 14 5 24 -6 15 -5 16 12 2 11 -9 16 -10 11 -2 -4 6 -2 12 3 12 6 0 10
3 10 8 -1 4 0 10 1 15 1 4 3 13 4 20 1 6 7 11 12 10 6 -1 11 4 11 12 0 8 -4
12 -8 9 -4 -2 -10 0 -14 6 -3 6 1 13 9 16 9 3 16 10 16 16 0 5 -4 7 -9 3 -5
-3 -12 -1 -16 4 -3 5 3 14 12 20 11 6 13 11 5 11 -7 0 -10 5 -6 12 5 7 3 8 -6
3 -9 -6 -10 -2 -5 15 4 13 3 20 -2 17 -5 -4 -10 1 -10 9 0 8 6 13 13 10 8 -3
11 0 8 8 -3 8 0 17 5 21 13 8 5 25 -12 25 -8 0 -8 -3 1 -9 11 -6 10 -10 0 -19
-11 -9 -14 -6 -16 14 -1 13 3 24 10 24 6 0 8 3 5 7 -4 3 -1 13 5 22 8 10 4 8
-10 -3 -16 -14 -26 -16 -33 -9 -8 8 -7 13 2 18 8 5 10 4 5 -3 -4 -7 -2 -12 4
-12 7 0 10 5 8 12 -5 14 -47 18 -55 5 -3 -6 -1 -7 5 -3 7 4 12 3 12 -3 0 -5
-9 -9 -20 -8 -15 1 -19 6 -15 22 5 15 2 14 -9 -5 -9 -14 -15 -19 -16 -12 0 8
-12 12 -35 10 -19 -1 -37 1 -41 5 -4 3 -15 2 -25 -3 -13 -8 -20 -6 -28 7 -8
15 -10 14 -17 -11 -4 -19 -9 -24 -15 -15 -4 7 -5 17 -3 21 3 4 0 8 -5 8 -11 0
-15 -15 -11 -35 1 -5 -2 -6 -7 -2 -4 5 -9 13 -9 18 -1 5 -2 11 -3 14 0 3 -10
1 -20 -5 -16 -8 -22 -6 -30 7 -8 15 -10 14 -17 -11 -4 -19 -9 -24 -15 -15 -4
7 -5 17 -3 21 3 4 0 8 -5 8 -11 0 -15 -15 -11 -35 1 -5 -2 -6 -7 -2 -4 5 -8
14 -8 20 0 14 -48 10 -53 -4 -2 -5 -10 -2 -18 6 -18 18 -47 8 -40 -14 4 -11 2
-10 -9 3 -8 11 -15 23 -15 28 0 4 -8 0 -18 -9 -11 -10 -16 -22 -13 -28 2 -5
-2 -4 -11 3 -13 10 -17 10 -20 0 -3 -8 -7 -6 -11 6 -5 11 -3 15 5 10 7 -4 8
-3 4 4 -10 17 -38 2 -32 -17 4 -11 2 -10 -9 3 -8 11 -15 24 -15 30 0 5 -6 2
-13 -7 -15 -21 -54 -30 -63 -15 -5 7 -2 8 6 3 8 -5 11 -4 6 3 -8 13 -36 5 -36
-12 0 -7 -4 -6 -9 2 -10 16 -70 22 -78 9 -3 -6 -1 -7 5 -3 6 3 13 3 16 -2 2
-4 -6 -8 -20 -8 -19 0 -23 4 -19 21 5 16 3 15 -9 -5 -9 -14 -15 -19 -16 -12 0
6 -7 12 -15 12 -8 0 -15 -6 -15 -12 0 -10 -2 -10 -9 0 -10 16 -70 22 -78 9 -3
-6 -1 -7 5 -3 6 3 13 3 16 -2 2 -4 -6 -8 -20 -8 -19 0 -23 4 -19 21 5 16 3 15
-9 -5 -9 -14 -15 -20 -16 -14 0 7 -9 14 -20 17 -17 4 -20 2 -14 -16 6 -22 6
-22 -11 1 -21 28 -33 28 -45 0 -6 -16 -9 -18 -9 -7 -2 32 -51 32 -51 1 -1 -10
-7 -4 -14 13 -10 25 -13 27 -19 11 -4 -10 -4 -23 0 -29 4 -7 -1 -6 -10 2 -14
11 -17 11 -17 0 0 -8 -5 -6 -14 6 -7 10 -23 19 -35 20 -17 1 -20 -2 -15 -19 6
-20 5 -19 -14 2 -22 25 -41 22 -43 -6 0 -14 -2 -14 -6 -2 -13 32 -53 33 -53 1
-1 -9 -7 -3 -14 14 -10 25 -13 27 -19 11 -4 -10 -4 -23 0 -29 4 -7 1 -7 -9 1
-13 10 -17 10 -21 0 -4 -11 -6 -10 -6 0 -1 7 -6 10 -12 7 -6 -4 -9 -1 -7 7 2
7 -1 13 -7 13 -5 0 -9 -4 -7 -10 2 -5 0 -7 -4 -3 -4 4 -13 3 -19 -2 -9 -8 -12
-4 -9 16 2 20 -1 24 -14 19 -14 -5 -15 -4 -4 6 15 16 16 33 0 23 -7 -4 -8 -3
-4 5 4 6 11 9 15 7 4 -3 8 4 8 15 2 17 -1 18 -13 8 -12 -10 -13 -9 -8 5 3 9
11 16 16 16 6 0 2 8 -9 18 -10 9 -13 13 -5 8 10 -7 12 -3 8 17 -2 15 -8 31
-11 37 -4 6 -1 9 6 8 6 -2 14 3 17 11 2 8 0 11 -6 7 -18 -11 -20 18 -3 38 9
11 10 16 4 12 -17 -10 -16 5 2 31 10 14 12 24 5 28 -6 4 -7 11 -4 17 5 7 2 8
-6 3 -9 -6 -10 -2 -5 15 5 17 4 21 -5 15 -9 -5 -11 -4 -6 4 4 6 11 9 15 7 4
-3 8 4 8 15 2 17 -1 18 -13 8 -12 -10 -13 -9 -8 5 3 9 11 16 16 16 6 0 2 8 -9
18 -10 9 -13 13 -5 8 10 -7 12 -3 8 17 -2 15 -8 31 -11 37 -4 6 -1 9 6 8 6 -2
14 3 17 11 2 8 0 11 -6 7 -18 -11 -20 18 -3 38 9 11 10 16 4 12 -17 -10 -16 5
2 31 10 14 12 24 5 28 -6 4 -7 11 -4 17 5 7 2 8 -6 3 -9 -6 -10 -2 -5 15 5 17
4 21 -5 15 -9 -5 -11 -4 -6 4 4 6 11 9 15 7 4 -3 8 4 8 15 2 17 -1 18 -13 8
-12 -10 -13 -9 -8 5 3 9 11 16 16 16 6 0 2 8 -9 17 -10 10 -13 14 -5 9 10 -7
12 -3 8 17 -2 15 -8 31 -11 37 -4 6 -1 9 6 8 6 -2 14 3 17 11 2 8 0 11 -6 7
-18 -11 -20 18 -3 38 11 14 12 17 2 11 -11 -6 -13 -4 -6 11 13 31 11 59 -3 56
-8 -1 -11 2 -7 8 3 6 10 8 15 5 4 -3 6 4 3 16 -4 16 -8 17 -14 7 -6 -9 -9 -9
-9 -1 0 6 5 15 10 18 7 4 7 12 0 25 -7 13 -7 21 2 26 6 4 8 3 4 -4 -3 -6 -2
-13 3 -16 10 -7 9 13 -2 31 -8 12 10 12 30 0 9 -6 11 -3 7 8 -5 11 -2 14 10 9
9 -3 13 -11 10 -18 -3 -6 1 -3 9 7 11 14 16 15 20 5 4 -9 6 -10 6 -1 1 7 8 10
18 6 12 -5 14 -3 8 7 -6 9 -1 8 15 -3 17 -12 28 -13 42 -6 13 7 18 6 18 -3 0
-6 7 -3 16 8 8 10 13 14 10 8 -3 -7 1 -14 9 -18 8 -3 15 -1 15 4 0 6 5 10 11
10 5 0 8 -3 6 -7 -3 -5 12 -8 34 -8 21 0 39 4 39 8 0 5 6 5 12 1 19 -12 48
-12 48 0 0 6 5 4 10 -4 7 -11 10 -11 10 -2 0 9 6 10 18 5 9 -5 24 -8 32 -7 8
1 57 2 108 3 72 1 91 4 86 14 -4 6 2 3 14 -7 14 -12 22 -14 22 -7 0 7 5 9 12
5 19 -12 48 -12 48 0 0 6 5 4 10 -4 8 -12 10 -12 10 5 0 15 2 17 9 6 10 -16
91 -22 91 -7 0 6 5 4 10 -4 8 -13 10 -12 10 3 0 16 2 16 14 4 8 -7 25 -13 38
-11 12 1 63 3 111 3 55 1 86 5 82 11 -3 6 1 7 9 4 9 -3 14 -9 12 -13 -2 -3 7
-6 20 -6 15 0 24 6 24 15 0 9 3 11 8 5 12 -17 32 -16 25 2 -4 10 -2 14 4 10 7
-5 9 0 6 14 -5 16 -8 18 -15 7 -8 -10 -9 -10 -5 2 2 8 9 15 15 15 5 0 14 4 19
8 4 5 2 7 -6 5 -7 -2 -16 3 -19 11 -2 8 -1 11 4 8 5 -3 9 12 9 33 0 21 -3 36
-6 34 -4 -2 -10 3 -13 12 -4 10 -2 13 6 8 8 -5 9 -2 5 9 -3 9 -2 19 4 22 5 4
6 11 3 17 -4 6 -10 5 -16 -3 -7 -10 -8 -8 -3 8 14 51 14 62 -2 56 -12 -5 -12
-7 -1 -14 7 -5 8 -9 2 -9 -18 0 -24 12 -14 31 8 15 7 17 -10 14 -11 -2 -20 2
-20 8 0 8 -3 9 -8 1 -8 -12 -52 -11 -72 1 -9 5 -11 4 -6 -3 4 -7 16 -17 28
-23 11 -6 18 -7 15 -2 -4 5 0 10 7 10 8 0 12 -6 9 -13 -5 -13 -43 -15 -43 -2
0 4 -5 8 -11 8 -5 0 -7 -4 -4 -10 3 -6 -1 -7 -10 -3 -13 5 -14 7 -3 14 14 10
14 10 -23 13 -14 2 -32 7 -40 11 -12 8 -12 6 0 -9 8 -9 19 -15 26 -12 6 2 12
-1 12 -8 0 -7 -6 -13 -14 -13 -7 0 -13 4 -13 9 0 4 -5 8 -11 8 -5 0 -7 -4 -4
-10 3 -6 -1 -7 -10 -3 -12 4 -13 8 -5 13 8 5 9 10 2 14 -6 3 -18 -4 -26 -16
-14 -20 -17 -21 -31 -7 -14 14 -14 16 -1 16 8 0 12 -5 9 -10 -3 -6 -1 -7 6 -3
6 4 9 12 6 17 -4 5 -1 9 6 9 7 0 10 3 6 6 -3 3 -12 2 -19 -2 -18 -12 -90 -13
-105 -2 -7 5 -14 5 -17 -1 -8 -12 4 -19 27 -16 14 3 15 0 8 -9 -6 -7 -7 -17
-3 -22 4 -4 0 -3 -9 4 -9 6 -20 8 -24 4 -5 -4 -6 -2 -3 3 3 6 -4 18 -14 28
-18 17 -18 17 -13 -10 l6 -28 -16 25 c-9 14 -14 17 -11 8 3 -10 0 -20 -6 -24
-7 -4 -8 -3 -4 4 10 16 -26 16 -42 0 -7 -7 -16 -8 -24 -1 -11 8 -32 10 -40 3
-10 -7 -38 -7 -38 1 0 5 -5 9 -11 9 -5 0 -7 -4 -4 -10 3 -6 -1 -7 -10 -3 -13
5 -14 7 -3 14 14 10 14 10 -23 13 -14 2 -32 7 -40 11 -12 8 -12 6 0 -9 8 -9
19 -15 26 -12 6 2 12 -1 12 -8 0 -7 -6 -13 -14 -13 -7 0 -13 4 -13 9 0 4 -5 8
-11 8 -5 0 -7 -4 -4 -10 3 -6 -1 -7 -10 -3 -13 5 -14 7 -3 14 15 10 14 10 -27
12 -16 1 -35 5 -42 10 -6 4 -14 3 -17 -2 -8 -12 4 -19 27 -16 14 3 15 0 8 -9
-6 -7 -7 -17 -3 -22 4 -4 0 -3 -9 4 -9 6 -20 8 -24 4 -5 -4 -5 -1 -1 6 4 7 1
12 -8 12 -9 0 -16 -5 -16 -12 0 -6 -6 -3 -14 7 -12 17 -12 21 3 33 13 11 12
11 -9 0 -14 -7 -29 -11 -35 -9 -5 1 -6 -1 -2 -6 5 -4 13 -8 18 -8 15 0 10 -19
-6 -21 -8 -1 -13 2 -9 7 8 13 -10 11 -26 -3 -12 -11 -12 -10 -1 5 9 11 10 17
2 18 -6 1 -16 2 -21 3 -6 0 -15 8 -20 16 -7 10 -10 11 -10 3 0 -23 5 -28 23
-27 12 1 15 -2 7 -11 -5 -6 -6 -16 -2 -21 4 -4 0 -3 -9 4 -9 6 -20 8 -24 4 -5
-4 -6 -2 -3 3 3 6 -4 18 -14 28 -18 17 -18 17 -13 -10 l6 -28 -16 25 c-9 14
-14 17 -11 8 3 -10 0 -20 -6 -24 -7 -4 -8 -3 -4 4 10 16 -26 15 -44 0 -8 -7
-7 -4 3 8 20 24 22 34 6 34 -5 0 -7 -5 -4 -10 7 -11 -23 -9 -42 3 -6 4 -14 3
-17 -2 -8 -12 4 -19 27 -16 14 3 15 0 8 -9 -6 -7 -7 -17 -3 -22 4 -4 0 -3 -9
4 -9 6 -20 8 -24 4 -5 -4 -5 -1 -1 6 4 7 1 12 -9 12 -9 0 -13 -4 -10 -10 10
-16 -1 -11 -16 7 -8 10 -9 14 -2 10 6 -4 14 -3 17 2 4 5 -2 8 -11 7 -10 -2
-21 1 -24 6 -3 5 -9 2 -12 -7 -4 -9 -3 -13 3 -10 6 4 7 -1 3 -11 -4 -11 -8
-13 -11 -6 -2 7 -12 12 -22 12 -10 0 -22 4 -25 10 -4 6 3 9 16 7 12 -1 23 4
25 11 1 7 0 8 -3 2 -7 -15 -23 -12 -23 6 0 8 -4 13 -9 10 -5 -3 -14 0 -20 7
-8 10 -7 14 4 14 8 0 11 -5 8 -10 -3 -6 -1 -7 5 -4 5 4 8 16 5 28 -4 15 -8 17
-14 7 -6 -9 -8 -6 -6 10 1 14 6 21 14 18 9 -4 11 2 9 17 -3 12 -5 29 -5 37 -1
13 -2 13 -11 0 -6 -9 -10 -10 -10 -3 0 6 4 14 9 17 5 3 7 16 4 27 -4 15 1 27
18 40 14 10 17 17 9 16 -8 -1 -17 3 -18 8 -2 6 -8 18 -13 28 -7 12 -6 16 2 15
6 -2 14 3 17 11 3 8 0 11 -7 7 -6 -4 -11 -3 -11 3 0 5 5 13 10 16 5 3 10 11
10 17 0 6 -6 6 -15 -2 -13 -11 -14 -10 -9 4 3 9 11 16 16 16 6 0 2 8 -9 18
-10 9 -13 13 -5 8 10 -7 12 -3 8 17 -2 15 -8 31 -11 37 -4 6 -1 9 6 8 6 -2 14
3 17 11 2 8 0 11 -6 7 -5 -3 -13 1 -16 10 -5 12 -2 15 10 10 10 -4 14 -2 11 6
-2 7 -10 12 -16 10 -7 -1 -10 2 -6 8 3 6 10 8 15 5 4 -3 6 4 3 16 -4 15 -8 17
-14 7 -6 -9 -8 -6 -6 10 1 14 6 21 14 18 9 -4 11 2 9 17 -3 12 -5 29 -5 37 -1
13 -2 13 -11 0 -7 -10 -10 -11 -10 -2 0 7 7 15 15 18 14 6 13 8 -2 21 -16 13
-16 14 -1 9 10 -3 20 -1 23 5 4 5 1 8 -7 7 -8 -2 -12 4 -10 16 2 12 -1 16 -9
10 -8 -4 -10 -3 -5 5 4 6 11 9 15 7 4 -3 8 4 8 15 2 17 -1 18 -13 9 -19 -17
-18 -5 2 14 8 9 11 16 5 16 -6 0 -7 8 -4 18 6 15 5 16 -13 2 -18 -14 -18 -14
-2 5 12 15 14 25 7 38 -7 12 -7 17 2 15 6 -2 14 3 17 11 2 8 0 11 -6 7 -16
-10 -22 21 -6 34 19 17 18 30 -3 31 -15 0 -15 2 2 8 11 5 23 7 27 4 4 -2 5 3
1 12 -4 13 -8 14 -14 4 -4 -8 -10 -11 -13 -9 -2 3 4 16 14 30 15 20 18 21 17
6 -1 -11 5 -20 16 -21 9 -2 15 1 11 6 -3 5 -11 6 -17 3 -7 -4 -9 -3 -4 1 10
12 50 17 43 6 -3 -5 1 -12 10 -15 10 -4 13 -2 8 6 -5 8 -2 9 10 5 10 -4 20 -7
22 -7 3 0 2 -6 -2 -12 -4 -7 5 -2 21 12 16 14 25 20 21 13 -3 -6 -1 -15 5 -19
8 -4 9 -3 5 4 -4 7 -2 12 5 12 8 0 7 5 -2 18 -13 15 -12 16 4 3 13 -10 20 -11
31 -2 11 9 13 6 11 -19 -1 -16 1 -27 6 -24 5 3 7 10 4 15 -9 14 8 11 32 -6 19
-14 21 -13 18 3 -1 9 -9 16 -18 14 -8 -1 -19 3 -23 9 -4 8 -3 9 5 5 6 -4 19
-2 27 5 12 10 15 10 12 0 -2 -7 7 -15 20 -17 16 -3 21 0 16 8 -4 7 -3 8 5 4 6
-4 9 -11 6 -16 -3 -4 3 -14 12 -21 12 -10 14 -10 9 -1 -4 6 -3 12 1 12 5 0 15
-6 23 -12 12 -11 12 -10 2 3 -12 16 -7 29 10 29 5 0 7 -4 4 -9 -3 -5 1 -12 10
-15 10 -4 13 -2 8 6 -5 8 -2 9 10 5 10 -4 20 -7 22 -7 3 0 2 -6 -2 -12 -4 -7
5 -2 21 12 16 14 25 20 21 13 -3 -6 -1 -15 5 -19 8 -4 9 -3 5 4 -4 7 -2 12 5
12 8 0 7 5 -2 18 -13 15 -12 16 4 3 13 -10 20 -11 31 -2 11 9 13 6 11 -19 -1
-16 1 -27 6 -24 5 3 7 10 4 15 -9 14 8 11 32 -6 19 -14 21 -13 18 3 -1 9 -9
16 -18 14 -8 -1 -19 3 -23 9 -4 8 -3 9 5 5 6 -4 19 -2 27 5 12 10 15 10 12 0
-2 -7 7 -15 20 -17 16 -3 21 0 16 8 -4 7 -3 8 5 4 6 -4 9 -11 6 -16 -3 -4 3
-14 12 -21 12 -10 14 -10 9 -1 -4 6 -3 12 1 12 5 0 15 -6 23 -12 12 -11 12
-10 2 3 -12 16 -7 29 10 29 5 0 7 -4 4 -9 -3 -5 1 -12 10 -15 10 -4 13 -2 8 6
-5 8 -2 9 10 5 10 -4 20 -7 22 -7 3 0 2 -6 -2 -12 -4 -7 5 -2 21 12 16 14 25
20 21 13 -3 -6 -1 -15 5 -19 8 -4 9 -3 5 4 -4 7 -2 12 5 12 8 0 7 5 -2 18 -13
15 -12 16 4 3 13 -10 20 -11 31 -2 11 9 13 6 11 -19 -1 -16 1 -27 6 -24 5 3 7
10 4 15 -9 14 8 11 32 -6 19 -14 21 -13 18 3 -1 9 -9 16 -18 14 -8 -1 -19 3
-23 9 -4 8 -3 9 5 5 6 -4 19 -2 27 5 12 10 15 10 12 0 -2 -7 7 -15 20 -17 16
-3 21 0 16 8 -4 7 -3 8 5 4 6 -4 9 -11 6 -16 -3 -4 3 -14 12 -21 12 -10 14
-10 9 -1 -4 6 -3 12 1 12 5 0 15 -6 23 -12 12 -11 12 -10 2 3 -12 16 -7 29 10
29 5 0 7 -4 4 -9 -3 -5 1 -12 10 -15 10 -4 13 -2 8 6 -5 8 -2 9 10 5 10 -4 20
-7 22 -7 3 0 2 -6 -2 -12 -4 -7 5 -2 21 12 16 14 25 20 21 13 -3 -6 -1 -15 5
-19 8 -4 9 -3 5 4 -4 7 -2 12 5 12 8 0 7 5 -2 18 -13 15 -12 16 4 3 13 -10 20
-11 31 -2 11 9 13 6 11 -19 -1 -16 1 -27 6 -24 5 3 7 10 4 15 -9 14 8 11 32
-6 19 -14 21 -13 18 3 -1 9 -9 16 -18 14 -8 -1 -19 3 -23 9 -4 8 -3 9 5 5 6
-4 19 -2 27 5 12 10 15 10 12 0 -2 -7 7 -15 20 -17 16 -3 21 0 16 8 -4 7 -3 8
5 4 6 -4 9 -11 6 -16 -3 -4 3 -14 12 -21 12 -10 14 -10 9 -1 -4 6 -3 12 1 12
5 0 15 -6 23 -12 12 -11 12 -10 2 3 -12 16 -7 29 10 29 5 0 7 -4 4 -9 -3 -5 1
-12 10 -15 10 -4 13 -2 8 6 -5 8 -2 9 10 5 10 -4 20 -7 22 -7 3 0 2 -6 -2 -12
-4 -7 2 -4 14 6 13 11 35 21 50 23 15 1 34 3 42 4 8 1 18 7 22 13 6 8 8 8 8 0
0 -6 -7 -17 -15 -24 -10 -9 -15 -9 -15 -1 0 8 -6 8 -20 -1 -11 -7 -20 -17 -20
-22 0 -4 7 -3 15 4 12 10 18 10 31 0 12 -11 15 -11 12 1 -2 8 3 13 9 12 7 -2
12 0 12 5 -4 22 2 42 11 37 6 -3 7 1 4 10 -4 8 0 23 7 32 8 9 9 14 4 11 -6 -4
-17 -3 -25 3 -12 7 -11 9 5 10 11 0 14 3 7 6 -10 4 -10 8 0 21 11 13 11 15 -2
10 -12 -4 -15 1 -14 21 1 14 3 28 4 31 6 15 4 37 -5 49 -7 11 -7 13 1 8 7 -4
14 1 17 12 3 12 -1 22 -9 25 -17 7 -18 33 -2 38 7 3 3 7 -9 10 -16 4 -20 2
-16 -9 3 -8 0 -13 -8 -11 -8 2 -13 -3 -11 -10 1 -8 -2 -11 -8 -7 -8 5 -7 11 1
21 6 8 8 14 3 15 -5 0 -17 2 -27 4 -9 2 -15 -1 -11 -6 3 -5 10 -6 16 -3 7 4 8
2 4 -4 -8 -13 -56 5 -56 21 0 6 -3 7 -7 4 -3 -4 2 -16 13 -28 l19 -21 -32 18
c-26 15 -29 21 -20 33 7 9 1 7 -16 -4 -23 -15 -33 -16 -48 -7 -15 10 -17 9
-13 -3 3 -7 13 -16 22 -19 13 -4 12 -5 -3 -4 -39 1 -46 -2 -39 -14 4 -7 -2 -5
-13 5 -11 9 -23 14 -28 10 -4 -5 -5 -2 -1 5 4 7 1 12 -9 12 -9 0 -13 5 -10 10
3 6 2 10 -3 10 -6 0 -13 -7 -16 -16 -3 -8 -2 -12 3 -9 5 3 12 1 15 -4 4 -5 2
-12 -3 -15 -5 -4 -13 -1 -17 5 -5 9 -11 7 -21 -6 -15 -21 -18 -12 -4 14 8 15
5 17 -27 15 -20 0 -41 4 -45 10 -6 7 -7 4 -3 -6 3 -10 1 -20 -4 -23 -6 -4 -10
2 -10 11 0 10 -3 14 -7 11 -3 -4 -13 -1 -22 5 -9 7 -13 9 -9 4 4 -4 2 -14 -5
-21 -9 -10 -14 -9 -25 4 -11 14 -12 13 -8 -9 3 -14 3 -19 0 -12 -3 6 -11 9
-17 5 -6 -4 -8 0 -4 10 8 21 -11 33 -26 18 -9 -9 -7 -11 8 -6 16 6 17 5 5 -4
-20 -14 -26 -14 -44 5 -22 21 -20 5 1 -19 17 -18 17 -18 -14 -1 -26 15 -29 21
-20 33 7 9 1 7 -16 -4 -23 -15 -33 -16 -48 -7 -15 10 -17 9 -13 -3 3 -7 13
-16 22 -18 10 -2 2 -4 -15 -4 -18 0 -42 9 -53 19 -24 23 -27 12 -3 -15 17 -18
17 -18 -14 -1 -26 15 -29 21 -20 33 7 9 1 7 -16 -4 -23 -15 -33 -16 -48 -7
-15 10 -17 9 -13 -3 3 -7 13 -16 22 -19 13 -4 12 -5 -3 -4 -39 1 -46 -2 -39
-14 4 -7 -2 -5 -13 5 -11 9 -23 14 -28 10 -4 -5 -5 -2 -1 5 4 7 1 12 -9 12 -9
0 -13 5 -10 10 3 6 2 10 -3 10 -6 0 -13 -7 -16 -16 -3 -8 -2 -12 3 -9 5 3 12
1 15 -4 4 -5 2 -12 -3 -15 -5 -4 -13 -1 -17 5 -5 9 -11 7 -21 -6 -15 -21 -18
-12 -4 14 8 15 5 17 -27 15 -20 0 -41 4 -45 10 -6 7 -7 4 -3 -6 3 -10 1 -20
-4 -23 -6 -4 -10 2 -10 11 0 10 -3 14 -7 11 -3 -4 -13 -1 -22 5 -9 7 -13 9 -9
4 4 -4 2 -14 -5 -21 -9 -10 -14 -9 -25 4 -11 14 -12 13 -8 -9 3 -14 3 -19 0
-12 -3 6 -11 9 -17 5 -6 -4 -8 0 -4 10 8 21 -11 33 -26 18 -9 -9 -7 -11 8 -6
16 6 17 5 5 -4 -20 -14 -26 -14 -44 5 -22 21 -20 5 1 -19 17 -18 17 -18 -14
-1 -26 15 -29 21 -20 33 7 9 1 7 -16 -4 -23 -15 -33 -16 -48 -7 -15 10 -17 9
-13 -3 3 -7 13 -16 22 -18 10 -2 2 -4 -15 -4 -18 0 -42 9 -53 19 -24 23 -27
12 -3 -15 17 -18 17 -18 -14 -1 -24 14 -29 22 -21 31 14 17 8 16 -20 -4z
m-386 -14 c-15 -9 -16 -13 -5 -20 9 -6 10 -9 2 -9 -19 0 -27 21 -12 31 8 5 19
9 24 9 6 -1 2 -5 -9 -11z m98 -8 c3 -5 -1 -14 -8 -20 -12 -10 -14 -9 -11 6 2
10 4 19 4 21 2 5 10 2 15 -7z m55 -17 c-6 -8 -15 -12 -18 -8 -3 4 0 9 7 11 6
3 9 10 6 15 -4 7 -2 8 5 4 9 -6 9 -11 0 -22z m252 9 c12 -16 12 -17 -2 -6 -9
7 -19 10 -22 6 -4 -3 -7 -1 -7 5 0 17 16 15 31 -5z m160 0 c12 -16 12 -17 -2
-6 -9 7 -19 10 -22 6 -4 -3 -7 -1 -7 5 0 17 16 15 31 -5z m173 8 c3 -5 -1 -14
-8 -20 -12 -10 -14 -9 -11 6 2 10 4 19 4 21 2 5 10 2 15 -7z m55 -17 c-6 -8
-15 -12 -18 -8 -3 4 0 9 7 11 6 3 9 10 6 15 -4 7 -2 8 5 4 9 -6 9 -11 0 -22z
m252 9 c12 -16 12 -17 -2 -6 -9 7 -19 10 -22 6 -4 -3 -7 -1 -7 5 0 17 16 15
31 -5z m160 0 c12 -16 12 -17 -2 -6 -9 7 -19 10 -22 6 -4 -3 -7 -1 -7 5 0 17
16 15 31 -5z m173 8 c3 -5 -1 -14 -8 -20 -12 -10 -14 -9 -11 6 2 10 4 19 4 21
2 5 10 2 15 -7z m55 -17 c-6 -8 -15 -12 -18 -8 -3 4 0 9 7 11 6 3 9 10 6 15
-4 7 -2 8 5 4 9 -6 9 -11 0 -22z m252 9 c12 -16 12 -17 -2 -6 -9 7 -19 10 -22
6 -4 -3 -7 -1 -7 5 0 17 16 15 31 -5z m-1276 -303 c3 0 3 4 0 10 -4 6 1 7 11
3 11 -4 13 -8 6 -11 -7 -2 -9 -8 -6 -14 3 -5 -8 -2 -25 6 -17 9 -31 19 -31 22
0 2 9 0 19 -6 11 -5 22 -10 26 -10z m242 5 c0 -8 -6 -16 -14 -19 -11 -4 -11
-1 -3 14 13 24 17 25 17 5z m78 -5 c3 0 3 4 0 10 -4 6 1 7 11 3 11 -4 13 -8 6
-11 -7 -2 -9 -8 -6 -14 3 -5 -8 -2 -25 6 -17 9 -31 19 -31 22 0 2 9 0 19 -6
11 -5 22 -10 26 -10z m242 5 c0 -8 -6 -16 -14 -19 -11 -4 -11 -1 -3 14 13 24
17 25 17 5z m78 -5 c3 0 3 4 0 10 -4 6 1 7 11 3 11 -4 13 -8 6 -11 -7 -2 -9
-8 -6 -14 3 -5 -8 -2 -25 6 -17 9 -31 19 -31 22 0 2 9 0 19 -6 11 -5 22 -10
26 -10z m242 5 c0 -8 -6 -16 -14 -19 -11 -4 -11 -1 -3 14 13 24 17 25 17 5z
m78 -5 c3 0 3 4 0 10 -4 6 1 7 11 3 11 -4 13 -8 6 -11 -7 -2 -9 -8 -6 -14 3
-5 -8 -2 -25 6 -17 9 -31 19 -31 22 0 2 9 0 19 -6 11 -5 22 -10 26 -10z m242
5 c0 -8 -6 -16 -14 -19 -11 -4 -11 -1 -3 14 13 24 17 25 17 5z m78 -5 c3 0 3
4 0 10 -4 6 1 7 11 3 11 -4 13 -8 6 -11 -7 -2 -9 -8 -6 -14 3 -5 -8 -2 -25 6
-17 9 -31 19 -31 22 0 2 9 0 19 -6 11 -5 22 -10 26 -10z m-482 -1023 c3 -8 -3
-13 -18 -13 -13 0 -21 4 -19 8 3 5 10 6 15 3 5 -4 9 -1 9 4 0 15 7 14 13 -2z
m277 8 c0 -2 -7 -8 -15 -15 -12 -10 -15 -10 -15 2 0 8 7 15 15 15 8 0 15 -1
15 -2z m-1200 -454 c0 -6 -4 -12 -8 -15 -5 -3 -9 1 -9 9 0 8 4 15 9 15 4 0 8
-4 8 -9z m10 -316 c0 -1 -6 -7 -13 -13 -10 -8 -13 -6 -13 7 0 11 6 17 13 14 7
-3 13 -6 13 -8z m0 -320 c0 -1 -6 -7 -13 -13 -10 -8 -13 -6 -13 7 0 11 6 17
13 14 7 -3 13 -6 13 -8z m214 -331 c3 -8 2 -12 -4 -9 -6 3 -10 10 -10 16 0 14
7 11 14 -7z m63 1 c0 -8 -4 -12 -9 -9 -5 3 -6 10 -3 15 9 13 12 11 12 -6z
m180 0 c0 -8 -4 -12 -9 -9 -4 3 -8 9 -8 15 0 5 4 9 8 9 5 0 9 -7 9 -15z m167
7 c3 -5 -1 -9 -9 -9 -8 0 -12 4 -9 9 3 4 7 8 9 8 2 0 6 -4 9 -8z m160 0 c3 -5
-1 -9 -9 -9 -8 0 -12 4 -9 9 3 4 7 8 9 8 2 0 6 -4 9 -8z m123 -14 c-3 -8 -6
-5 -6 6 -1 11 2 17 5 13 3 -3 4 -12 1 -19z m120 0 c-3 -8 -6 -5 -6 6 -1 11 2
17 5 13 3 -3 4 -12 1 -19z m61 -3 c-3 -3 -9 2 -12 12 -6 14 -5 15 5 6 7 -7 10
-15 7 -18z m65 10 c-3 -9 -8 -14 -10 -11 -3 3 -2 9 2 15 9 16 15 13 8 -4z m81
-1 c3 -8 2 -12 -4 -9 -6 3 -10 10 -10 16 0 14 7 11 14 -7z m39 1 c-3 -9 -8
-14 -10 -11 -3 3 -2 9 2 15 9 16 15 13 8 -4z m138 -2 c13 -16 12 -17 -3 -4
-14 11 -18 11 -18 1 0 -8 -3 -11 -6 -7 -5 5 3 27 10 27 2 0 10 -8 17 -17z
m184 -201 c-3 -3 -11 0 -18 7 -9 10 -8 11 6 5 10 -3 15 -9 12 -12z m0 -40 c-3
-3 -11 0 -18 7 -9 10 -8 11 6 5 10 -3 15 -9 12 -12z"/>
<path d="M3442 4963 c-19 -13 -28 -14 -43 -5 -15 10 -17 9 -13 -3 3 -7 13 -16
22 -19 13 -4 12 -5 -3 -4 -39 1 -46 -2 -39 -14 4 -7 -2 -5 -13 5 -11 9 -23 14
-28 10 -4 -5 -5 -2 -1 5 4 7 1 12 -9 12 -9 0 -13 5 -10 10 3 6 2 10 -3 10 -6
0 -13 -7 -16 -16 -3 -8 -2 -12 3 -9 5 3 12 1 15 -4 4 -5 2 -12 -3 -15 -5 -4
-13 -1 -17 5 -5 9 -11 7 -21 -6 -15 -21 -18 -12 -4 14 8 15 5 17 -27 15 -20 0
-40 3 -43 8 -3 5 -9 2 -12 -7 -5 -10 -3 -14 5 -9 7 4 8 3 4 -5 -6 -9 -11 -9
-23 1 -18 15 -23 15 -33 -3 -11 -16 -1 -40 14 -33 6 3 2 -1 -8 -10 -10 -8 -23
-13 -27 -10 -5 3 -6 -2 -3 -10 3 -9 10 -16 16 -16 5 0 6 6 2 13 -4 6 -4 9 1 5
4 -4 15 -2 24 5 14 10 14 10 4 -4 -7 -9 -9 -20 -5 -24 4 -5 1 -5 -7 0 -11 6
-13 2 -9 -19 6 -29 -1 -33 -22 -13 -12 10 -12 9 -2 -5 10 -13 10 -17 0 -21
-11 -4 -10 -6 0 -6 8 -1 10 -6 6 -13 -4 -7 -4 -10 1 -6 9 9 40 -30 31 -39 -3
-4 -6 -1 -6 6 0 7 -5 9 -12 5 -7 -5 -8 -3 -3 6 6 9 4 11 -5 5 -10 -6 -8 -12 9
-27 15 -11 18 -18 9 -18 -8 0 -20 6 -27 13 -10 10 -11 9 -6 -5 4 -10 11 -18
15 -18 4 0 10 -11 12 -25 6 -28 -1 -31 -22 -12 -12 10 -12 9 -2 -5 10 -13 10
-17 0 -21 -11 -4 -10 -6 0 -6 8 -1 10 -6 6 -13 -4 -7 -4 -10 1 -6 9 9 40 -30
31 -39 -3 -4 -6 -1 -6 6 0 7 -5 9 -12 5 -7 -5 -8 -3 -3 6 6 9 4 11 -5 5 -10
-6 -8 -12 9 -27 15 -11 18 -18 9 -18 -8 0 -20 6 -27 13 -10 10 -11 9 -6 -5 4
-10 11 -18 15 -18 4 0 10 -11 12 -25 6 -28 -1 -31 -22 -12 -12 10 -12 9 -2 -5
10 -13 10 -17 0 -21 -11 -4 -10 -6 0 -6 8 -1 10 -6 6 -13 -4 -7 -4 -10 1 -6 9
9 40 -30 31 -39 -3 -4 -6 -1 -6 6 0 7 -5 9 -12 5 -7 -5 -8 -3 -3 6 6 9 4 11
-5 5 -10 -6 -8 -12 9 -27 15 -11 18 -18 9 -18 -8 0 -20 6 -27 13 -10 10 -11 9
-6 -5 4 -10 11 -18 15 -18 4 0 10 -11 12 -25 6 -28 -1 -31 -22 -12 -12 10 -12
9 -2 -5 10 -13 10 -17 0 -21 -11 -4 -10 -6 0 -6 8 -1 10 -6 6 -13 -4 -7 -4
-10 1 -6 9 9 40 -30 31 -39 -3 -4 -6 -1 -6 6 0 7 -5 9 -12 5 -7 -5 -8 -3 -3 6
6 9 4 11 -5 5 -10 -6 -8 -12 9 -27 15 -11 18 -18 9 -18 -8 0 -20 6 -27 13 -10
10 -11 9 -6 -5 4 -10 11 -18 15 -18 4 0 10 -11 12 -25 6 -28 -1 -31 -22 -12
-12 10 -12 9 -2 -5 10 -13 10 -17 0 -21 -11 -4 -10 -6 0 -6 8 -1 10 -6 6 -13
-4 -7 -4 -10 1 -6 9 9 40 -30 31 -39 -3 -4 -6 -1 -6 6 0 7 -5 9 -12 5 -7 -5
-8 -3 -3 6 6 9 4 11 -5 5 -10 -6 -8 -12 9 -27 15 -11 18 -18 9 -18 -8 0 -20 6
-27 13 -10 10 -11 9 -6 -5 4 -10 11 -18 15 -18 4 0 10 -11 12 -25 6 -28 -1
-31 -22 -12 -12 10 -12 9 -2 -5 10 -13 10 -17 0 -21 -11 -4 -10 -6 0 -6 8 -1
10 -6 6 -13 -4 -7 -4 -10 1 -6 9 9 40 -30 31 -39 -3 -4 -6 -1 -6 6 0 7 -5 9
-12 5 -7 -5 -8 -3 -3 6 6 9 4 11 -5 5 -10 -6 -8 -12 9 -27 15 -11 18 -18 9
-18 -8 0 -20 6 -27 13 -10 10 -11 9 -6 -5 4 -10 11 -18 15 -18 4 0 10 -11 12
-25 6 -28 -1 -31 -22 -12 -12 10 -12 9 -2 -5 10 -13 10 -17 0 -21 -11 -4 -10
-6 0 -6 7 -1 10 -6 6 -13 -4 -7 -3 -8 4 -4 9 5 12 -7 12 -41 0 -34 3 -44 10
-33 7 12 9 10 7 -8 -1 -14 -5 -18 -11 -12 -14 14 -23 12 -23 -5 0 -8 4 -12 9
-9 4 3 8 0 8 -6 0 -6 5 -8 12 -4 7 5 8 3 3 -5 -4 -7 -16 -11 -26 -8 -18 5 -18
4 -2 -23 9 -16 20 -27 24 -24 4 2 1 -9 -7 -26 -10 -18 -20 -27 -27 -23 -8 5
-8 2 0 -9 7 -8 9 -19 5 -23 -4 -5 -1 -5 6 -1 9 5 12 -3 12 -31 0 -28 3 -34 10
-23 7 11 8 6 5 -17 -2 -18 1 -35 6 -38 5 -4 9 -12 9 -18 0 -7 -4 -6 -10 3 -5
8 -10 13 -11 10 0 -3 -2 -15 -5 -28 -2 -13 0 -21 5 -18 5 3 4 -5 -2 -18 -7
-13 -16 -22 -21 -19 -5 4 -6 1 -2 -5 4 -6 14 -9 24 -6 11 4 8 -2 -8 -16 -14
-12 -19 -19 -12 -15 8 4 12 -5 12 -32 0 -28 3 -34 10 -23 7 12 9 10 7 -8 -1
-14 -5 -18 -11 -12 -14 14 -23 12 -23 -5 0 -8 4 -12 9 -9 4 3 8 0 8 -6 0 -6 5
-8 12 -4 7 5 8 3 3 -5 -4 -7 -16 -11 -26 -8 -18 5 -18 4 -2 -23 9 -16 20 -27
24 -24 4 2 1 -9 -7 -26 -10 -18 -20 -27 -27 -23 -8 5 -8 2 0 -9 7 -8 9 -19 5
-23 -4 -5 -1 -5 6 -1 9 5 12 -3 12 -31 0 -28 3 -34 10 -23 7 11 8 6 5 -17 -2
-18 1 -35 6 -38 5 -4 9 -12 9 -18 0 -7 -4 -6 -10 3 -5 8 -10 13 -11 10 0 -3
-2 -15 -5 -28 -2 -13 0 -21 5 -18 5 3 4 -5 -2 -18 -7 -13 -16 -22 -21 -19 -5
4 -6 1 -2 -5 4 -6 14 -9 24 -6 11 4 8 -2 -8 -16 -14 -12 -19 -19 -12 -15 8 4
12 -5 12 -32 0 -28 3 -34 10 -23 7 12 9 10 7 -8 -1 -14 -5 -18 -11 -12 -14 14
-23 12 -23 -5 0 -8 4 -12 9 -9 4 3 8 0 8 -6 0 -6 5 -8 12 -4 7 5 8 3 3 -5 -4
-7 -16 -11 -26 -8 -18 5 -18 4 -2 -23 9 -16 20 -27 24 -24 4 2 1 -9 -7 -26
-10 -18 -20 -27 -27 -23 -8 5 -8 2 0 -9 7 -8 9 -19 5 -23 -4 -5 -1 -5 6 -1 9
5 12 -3 12 -31 0 -24 3 -33 8 -25 6 8 9 1 9 -20 0 -18 -2 -27 -5 -20 -2 6 -8
10 -13 7 -5 -4 -6 1 -3 9 3 9 2 16 -4 16 -16 0 -7 -31 13 -46 14 -11 15 -14 4
-14 -8 0 -21 6 -28 13 -10 10 -11 9 -6 -6 4 -9 11 -17 15 -17 4 0 10 -11 12
-25 6 -28 -1 -31 -22 -12 -12 10 -12 9 -2 -5 10 -13 10 -17 0 -21 -11 -4 -10
-6 0 -6 8 -1 10 -6 6 -13 -4 -7 -4 -10 1 -6 9 9 40 -30 31 -39 -3 -4 -6 -1 -6
6 0 7 -5 9 -12 5 -7 -5 -8 -3 -3 6 6 9 4 11 -5 5 -10 -6 -8 -12 9 -27 15 -11
18 -18 9 -18 -8 0 -20 6 -27 13 -10 10 -11 9 -6 -6 4 -9 11 -17 15 -17 4 0 10
-11 12 -25 6 -28 -1 -31 -22 -12 -12 10 -12 9 -2 -5 10 -13 10 -17 0 -21 -11
-4 -10 -6 0 -6 8 -1 10 -6 6 -13 -4 -7 -4 -10 1 -6 9 9 40 -30 31 -39 -3 -4
-6 -1 -6 6 0 7 -5 9 -12 5 -7 -5 -8 -3 -3 6 6 9 4 11 -5 5 -10 -6 -8 -12 9
-27 15 -11 18 -18 9 -18 -8 0 -20 6 -27 13 -10 10 -11 9 -6 -6 4 -9 11 -17 15
-17 4 0 10 -11 12 -25 6 -28 -1 -31 -22 -12 -12 10 -12 9 -2 -5 10 -13 10 -17
0 -21 -11 -4 -10 -6 0 -6 8 -1 10 -6 6 -14 -4 -6 -4 -9 1 -5 9 9 40 -30 31
-39 -3 -4 -6 -1 -6 6 0 7 -5 9 -12 5 -7 -5 -8 -3 -3 6 6 9 4 11 -5 5 -10 -6
-8 -12 9 -27 15 -11 18 -18 9 -18 -8 0 -20 6 -27 12 -10 11 -11 10 -6 -4 4
-10 11 -18 15 -18 4 0 10 -11 12 -25 6 -28 -1 -32 -21 -12 -11 10 -11 8 -2
-11 7 -12 16 -20 20 -18 4 3 17 -1 27 -10 18 -14 18 -15 -3 -4 -13 6 -23 7
-23 2 0 -6 8 -12 18 -15 9 -2 25 -8 35 -12 10 -4 17 -3 17 5 0 6 -5 8 -12 4
-7 -5 -8 -3 -3 6 6 10 11 9 21 -4 9 -13 13 -14 17 -4 3 8 6 5 7 -7 1 -17 3
-17 11 5 10 23 11 24 23 8 14 -19 32 -25 21 -8 -3 6 -1 10 4 10 6 0 11 -6 11
-12 0 -10 2 -10 8 -1 4 7 18 11 30 8 12 -2 24 1 28 6 4 6 11 6 20 -2 7 -6 12
-15 9 -19 -3 -5 -1 -11 4 -15 6 -3 8 3 6 15 -2 11 0 20 6 20 5 0 9 -4 9 -10 0
-5 5 -10 11 -10 5 0 7 4 4 10 -4 6 1 7 11 3 13 -5 15 -3 9 8 -4 8 -5 11 0 7 4
-4 13 -4 19 2 7 5 17 5 26 0 13 -9 13 -10 0 -11 -8 -1 -19 0 -25 1 -5 1 -6 -2
-2 -7 12 -11 30 -10 43 2 8 7 7 13 -5 22 -9 7 -12 13 -7 13 5 0 2 8 -5 17 -12
14 -12 16 0 9 9 -6 12 -5 9 5 -3 8 2 20 11 27 14 12 14 13 -4 8 -20 -6 -20 -6
-1 9 17 13 15 19 -6 16 -3 0 -5 7 -3 17 1 9 -3 23 -9 31 -8 12 -8 13 2 7 9 -5
13 -3 11 5 -3 29 1 50 10 44 5 -3 13 0 17 6 4 8 3 9 -4 5 -7 -4 -12 -3 -12 3
0 6 -8 8 -17 5 -11 -4 -14 -2 -8 3 13 10 13 23 1 42 -6 10 -5 12 2 7 8 -5 12
0 12 13 0 12 6 21 13 21 8 0 7 3 -3 9 -8 6 -18 7 -22 5 -15 -9 -8 6 11 25 11
11 23 16 27 13 5 -4 2 1 -5 11 -14 18 -26 24 -16 8 3 -5 0 -13 -6 -17 -7 -4
-9 -3 -5 4 3 6 2 13 -4 17 -13 8 11 46 25 38 5 -4 7 -3 3 2 -4 4 -2 15 5 24
11 14 10 15 -7 1 -18 -13 -19 -13 -14 1 3 9 2 22 -2 29 -5 7 -4 25 2 39 15 39
18 60 9 66 -5 2 -8 -5 -7 -17 0 -12 -6 -23 -14 -25 -12 -4 -12 -3 -2 5 16 11
15 21 -1 41 -10 12 -9 13 2 7 10 -7 12 0 8 32 -3 29 -1 39 8 36 6 -3 12 2 12
10 0 8 -4 13 -9 10 -4 -3 -8 3 -9 13 0 10 -2 26 -4 35 -2 10 2 15 9 12 7 -3
13 2 13 10 0 8 -4 13 -9 10 -4 -3 -8 3 -9 13 0 10 -2 26 -4 35 -2 10 2 15 9
12 7 -3 13 2 13 10 0 8 -4 13 -9 10 -4 -3 -8 3 -9 13 0 10 -2 26 -4 35 -2 12
2 15 13 10 15 -5 16 -4 2 13 -8 10 -10 16 -3 12 6 -4 15 -2 19 4 4 8 3 9 -4 5
-7 -4 -12 -2 -12 4 0 6 -4 9 -9 5 -19 -11 -20 13 -1 33 13 14 16 22 7 25 -9 3
-8 9 3 23 14 17 14 18 -2 6 -12 -10 -18 -10 -24 -1 -5 8 -3 9 5 5 8 -5 12 -3
10 5 -4 36 1 51 17 45 14 -5 15 -4 5 8 -7 8 -20 12 -29 9 -13 -4 -14 -3 -4 5
16 11 15 21 -1 41 -10 12 -9 13 2 6 11 -6 13 -4 8 8 -3 10 -2 17 3 17 6 0 10
5 10 11 0 5 -6 7 -12 4 -7 -4 -6 -1 2 7 17 15 20 32 6 45 -5 4 -6 3 -2 -4 3
-6 2 -14 -3 -17 -5 -4 -8 2 -6 11 1 10 -3 24 -9 32 -8 12 -8 13 2 7 9 -5 13
-3 11 5 -4 36 1 51 17 45 14 -5 15 -4 5 8 -7 8 -20 12 -29 9 -10 -3 -13 -1 -7
4 13 10 13 23 1 42 -7 10 -6 12 4 6 10 -6 12 -4 7 8 -3 10 -2 17 3 17 6 0 10
5 10 11 0 5 -6 7 -12 4 -7 -4 -6 -1 2 7 15 13 23 81 9 72 -4 -2 -6 -13 -4 -24
2 -11 0 -22 -5 -25 -4 -3 -7 3 -5 12 1 10 -3 24 -9 32 -8 11 -8 13 1 8 9 -6
11 8 10 52 -2 39 1 57 9 54 6 -2 11 3 11 11 0 8 -4 13 -9 10 -4 -3 -8 3 -9 13
0 10 -2 26 -4 35 -2 10 2 15 9 12 7 -3 13 2 13 10 0 8 -4 13 -9 10 -4 -3 -8 3
-9 13 0 10 -2 26 -4 35 -2 10 2 15 9 12 7 -3 13 2 13 10 0 8 -4 13 -9 10 -4
-3 -8 3 -9 13 0 10 -2 26 -4 35 -2 12 2 15 13 10 15 -5 16 -4 2 13 -8 10 -10
16 -3 12 6 -4 15 -2 19 4 4 7 3 9 -3 6 -6 -4 -16 -1 -22 7 -9 11 -9 15 0 18 7
2 13 12 15 21 1 9 -2 15 -7 11 -5 -3 -6 -10 -3 -16 4 -7 2 -8 -4 -4 -8 5 -9
13 -3 24 4 9 6 23 3 31 -2 8 0 11 6 7 6 -3 9 1 7 11 -1 11 -9 17 -21 15 -19
-2 -19 -2 0 12 10 9 23 13 27 10 16 -9 10 3 -8 17 -15 12 -16 12 -8 -1 8 -13
7 -13 -8 -1 -19 15 -23 26 -6 16 6 -4 10 -1 8 6 -3 29 1 50 10 44 5 -3 13 0
17 6 4 8 3 9 -4 5 -7 -4 -12 -3 -12 3 0 6 -8 8 -17 5 -11 -4 -14 -2 -8 3 13
10 13 23 1 42 -6 10 -5 12 2 7 8 -5 12 0 12 13 0 12 6 21 13 21 8 0 7 3 -3 9
-8 6 -18 7 -22 5 -15 -9 -8 6 11 25 11 11 23 16 27 13 5 -4 2 1 -5 11 -14 18
-26 24 -16 8 3 -5 0 -13 -6 -17 -7 -4 -9 -3 -5 4 3 6 2 13 -4 17 -13 8 11 46
25 38 5 -4 7 -3 3 2 -4 4 -2 15 5 24 11 14 10 15 -7 1 -18 -13 -19 -13 -14 1
3 9 2 22 -2 29 -5 7 -4 25 2 39 15 39 18 60 9 66 -5 2 -8 -5 -7 -17 0 -12 -6
-23 -14 -25 -12 -4 -12 -3 -2 5 16 11 15 21 -1 41 -9 11 -9 13 -1 8 7 -4 14 0
18 8 3 8 0 17 -6 21 -7 4 -6 9 3 14 7 5 14 16 15 24 1 9 -2 14 -7 10 -5 -3 -6
-10 -3 -16 4 -7 2 -8 -4 -4 -8 5 -9 13 -3 24 4 9 6 23 3 31 -2 8 0 11 6 7 6
-3 9 1 7 11 -1 11 -9 17 -21 15 -19 -2 -19 -2 0 12 10 9 24 12 30 9 6 -4 5 1
-3 10 -15 18 -26 23 -16 7 10 -16 -1 -11 -16 7 -11 13 -11 15 -1 9 9 -5 13 -3
11 5 -3 29 1 50 10 44 5 -3 13 0 17 6 4 8 3 9 -4 5 -7 -4 -12 -3 -12 3 0 6 -8
8 -17 5 -11 -4 -14 -2 -8 3 13 10 13 23 1 42 -6 10 -5 12 2 7 8 -5 12 1 12 14
0 17 4 21 18 16 15 -5 14 -4 -2 9 -10 8 -23 12 -27 9 -5 -3 -9 -1 -9 4 0 6 7
13 16 16 10 4 13 2 8 -7 -5 -9 -4 -9 6 0 15 14 4 36 -13 26 -7 -4 -6 1 2 11 8
9 10 16 5 14 -5 -2 -9 2 -9 7 0 6 6 9 14 7 11 -3 10 0 -3 13 -21 21 -20 26 2
19 13 -4 13 -3 -3 7 -19 12 -19 12 0 20 17 7 18 8 3 8 -10 1 -21 1 -24 0 -4 0
-11 5 -16 13 -8 10 -9 10 -5 -2 2 -8 11 -13 18 -12 8 2 11 0 6 -4 -4 -4 -16
-8 -25 -9 -19 -1 -23 20 -8 43 9 15 6 15 -22 -5z m-227 -34 c-4 -5 -12 -9 -18
-8 -9 0 -8 2 1 6 6 2 9 10 6 15 -4 7 -2 8 5 4 6 -4 9 -12 6 -17z m235 17 c0
-3 -4 -8 -10 -11 -5 -3 -10 -1 -10 4 0 6 5 11 10 11 6 0 10 -2 10 -4z m-290
-16 c0 -5 -8 -10 -17 -10 -15 0 -16 2 -3 10 19 12 20 12 20 0z m-13 -136 c-3
-3 -12 -4 -19 -1 -8 3 -5 6 6 6 11 1 17 -2 13 -5z m0 -160 c-3 -3 -12 -4 -19
-1 -8 3 -5 6 6 6 11 1 17 -2 13 -5z m0 -160 c-3 -3 -12 -4 -19 -1 -8 3 -5 6 6
6 11 1 17 -2 13 -5z m0 -160 c-3 -3 -12 -4 -19 -1 -8 3 -5 6 6 6 11 1 17 -2
13 -5z m0 -160 c-3 -3 -12 -4 -19 -1 -8 3 -5 6 6 6 11 1 17 -2 13 -5z m0 -160
c-3 -3 -12 -4 -19 -1 -8 3 -5 6 6 6 11 1 17 -2 13 -5z m0 -160 c-3 -3 -12 -4
-19 -1 -8 3 -5 6 6 6 11 1 17 -2 13 -5z m3 -174 c0 -5 -7 -7 -15 -4 -8 4 -15
8 -15 10 0 2 7 4 15 4 8 0 15 -4 15 -10z m-5 -80 c-3 -5 -11 -10 -16 -10 -6 0
-7 5 -4 10 3 6 11 10 16 10 6 0 7 -4 4 -10z m5 -400 c0 -5 -7 -7 -15 -4 -8 4
-15 8 -15 10 0 2 7 4 15 4 8 0 15 -4 15 -10z m-5 -80 c-3 -5 -11 -10 -16 -10
-6 0 -7 5 -4 10 3 6 11 10 16 10 6 0 7 -4 4 -10z m5 -400 c0 -5 -7 -7 -15 -4
-8 4 -15 8 -15 10 0 2 7 4 15 4 8 0 15 -4 15 -10z m-5 -80 c-3 -5 -11 -10 -16
-10 -6 0 -7 5 -4 10 3 6 11 10 16 10 6 0 7 -4 4 -10z m2 -226 c-3 -3 -12 -4
-19 -1 -8 3 -5 6 6 6 11 1 17 -2 13 -5z m0 -160 c-3 -3 -12 -4 -19 -1 -8 3 -5
6 6 6 11 1 17 -2 13 -5z m0 -160 c-3 -3 -12 -4 -19 -1 -8 3 -5 6 6 6 11 1 17
-2 13 -5z"/>
<path d="M1102 4951 c7 -12 18 -17 27 -13 14 6 14 7 -1 10 -10 2 -18 8 -18 13
0 5 -5 9 -10 9 -6 0 -6 -7 2 -19z"/>
<path d="M1742 4951 c7 -12 18 -17 27 -13 14 6 14 7 -1 10 -10 2 -18 8 -18 13
0 5 -5 9 -10 9 -6 0 -6 -7 2 -19z"/>
<path d="M2382 4951 c7 -12 18 -17 27 -13 14 6 14 7 -1 10 -10 2 -18 8 -18 13
0 5 -5 9 -10 9 -6 0 -6 -7 2 -19z"/>
<path d="M3342 4951 c7 -12 18 -17 27 -13 14 6 14 7 -1 10 -10 2 -18 8 -18 13
0 5 -5 9 -10 9 -6 0 -6 -7 2 -19z"/>
<path d="M5469 4943 c-13 -16 -12 -17 4 -4 16 13 21 21 13 21 -2 0 -10 -8 -17
-17z"/>
<path d="M2650 4919 c0 -5 5 -7 10 -4 6 3 10 8 10 11 0 2 -4 4 -10 4 -5 0 -10
-5 -10 -11z"/>
<path d="M2655 4800 c-3 -5 -1 -10 5 -10 6 0 8 -5 4 -12 -4 -7 -3 -8 4 -4 6 4
9 13 5 21 -6 18 -10 19 -18 5z"/>
<path d="M3519 4748 c-5 -18 -6 -38 -1 -34 7 8 12 36 6 36 -2 0 -4 -1 -5 -2z"/>
<path d="M3515 4651 c-3 -5 -2 -12 3 -15 5 -3 9 1 9 9 0 17 -3 19 -12 6z"/>
<path d="M4689 4624 c-8 -10 -8 -14 0 -14 6 0 11 6 11 13 0 8 4 7 10 -3 7 -11
10 -11 10 -2 0 8 5 10 13 6 6 -4 8 -3 4 1 -13 15 -35 14 -48 -1z"/>
<path d="M5296 4627 c3 -9 10 -17 16 -17 5 0 6 -6 2 -12 -6 -10 -4 -10 8 0 12
10 17 10 20 1 2 -7 12 -13 21 -15 9 -1 15 2 11 7 -3 5 -9 7 -14 4 -4 -3 -11 2
-14 11 -4 9 -9 14 -13 10 -3 -3 -15 2 -25 11 -18 16 -18 16 -12 0z"/>
<path d="M1301 4621 c-8 -5 -9 -11 -3 -15 5 -3 12 1 16 9 6 17 6 18 -13 6z"/>
<path d="M1621 4621 c-8 -5 -9 -11 -3 -15 5 -3 12 1 16 9 6 17 6 18 -13 6z"/>
<path d="M1941 4621 c-8 -5 -9 -11 -3 -15 5 -3 12 1 16 9 6 17 6 18 -13 6z"/>
<path d="M2261 4621 c-8 -5 -9 -11 -3 -15 5 -3 12 1 16 9 6 17 6 18 -13 6z"/>
<path d="M5516 4502 c-3 -5 1 -9 9 -9 8 0 12 4 9 9 -3 4 -7 8 -9 8 -2 0 -6 -4
-9 -8z"/>
<path d="M1100 4476 c0 -2 8 -10 18 -17 15 -13 16 -12 3 4 -13 16 -21 21 -21
13z"/>
<path d="M5705 4290 c-4 -6 -11 -7 -17 -4 -7 4 -8 2 -4 -5 6 -9 11 -9 22 0 14
11 18 19 10 19 -3 0 -8 -5 -11 -10z"/>
<path d="M1115 4269 c-4 -6 -5 -12 -2 -15 2 -3 7 2 10 11 7 17 1 20 -8 4z"/>
<path d="M3505 4230 c-3 -6 1 -7 9 -4 18 7 21 14 7 14 -6 0 -13 -4 -16 -10z"/>
<path d="M1110 4180 c0 -5 5 -10 11 -10 5 0 7 5 4 10 -3 6 -8 10 -11 10 -2 0
-4 -4 -4 -10z"/>
<path d="M5739 4171 c11 -7 11 -9 0 -14 -8 -2 -2 -4 14 -3 24 1 25 2 10 14 -9
6 -22 12 -27 12 -6 0 -5 -4 3 -9z"/>
<path d="M3519 4108 c-5 -18 -6 -38 -1 -34 7 8 12 36 6 36 -2 0 -4 -1 -5 -2z"/>
<path d="M1106 4068 c3 -5 10 -6 15 -3 13 9 11 12 -6 12 -8 0 -12 -4 -9 -9z"/>
<path d="M3515 4011 c-3 -5 -2 -12 3 -15 5 -3 9 1 9 9 0 17 -3 19 -12 6z"/>
<path d="M3973 3985 c0 -8 4 -12 9 -9 5 3 6 10 3 15 -9 13 -12 11 -12 -6z"/>
<path d="M1115 3789 c-4 -6 -5 -12 -2 -15 2 -3 7 2 10 11 7 17 1 20 -8 4z"/>
<path d="M4954 3722 c4 -3 14 -7 22 -8 9 -1 13 0 10 4 -4 3 -14 7 -22 8 -9 1
-13 0 -10 -4z"/>
<path d="M1110 3700 c0 -5 5 -10 11 -10 5 0 7 5 4 10 -3 6 -8 10 -11 10 -2 0
-4 -4 -4 -10z"/>
<path d="M4100 3679 c0 -5 5 -7 10 -4 6 3 10 8 10 11 0 2 -4 4 -10 4 -5 0 -10
-5 -10 -11z"/>
<path d="M5146 3655 c-2 -6 2 -12 10 -12 7 0 15 6 18 12 2 6 -2 12 -10 12 -7
0 -15 -6 -18 -12z"/>
<path d="M1729 3621 c21 -20 48 -20 36 -1 -3 4 1 11 7 13 9 4 10 6 1 6 -6 1
-15 -4 -18 -9 -4 -7 -14 -6 -28 1 -21 10 -21 9 2 -10z"/>
<path d="M1840 3631 c0 -7 -5 -9 -12 -5 -7 4 -8 3 -4 -4 4 -7 3 -12 -3 -12 -5
0 -11 6 -14 13 -4 9 -7 9 -16 0 -6 -7 -8 -11 -5 -8 4 3 13 0 21 -7 11 -9 18
-8 30 5 9 9 14 20 10 23 -4 4 -7 2 -7 -5z"/>
<path d="M3107 3613 c3 -7 6 -13 8 -13 2 0 5 6 8 13 3 8 -1 14 -8 14 -7 0 -11
-6 -8 -14z"/>
<path d="M2346 3558 c3 -5 10 -6 15 -3 13 9 11 12 -6 12 -8 0 -12 -4 -9 -9z"/>
<path d="M3110 3480 c0 -5 6 -10 13 -11 6 0 3 -4 -8 -9 l-20 -9 20 0 c17 -1
18 -3 5 -12 -13 -9 -13 -10 0 -6 19 5 19 57 0 57 -5 0 -10 -4 -10 -10z"/>
<path d="M5746 3472 c-3 -5 1 -9 9 -9 8 0 15 4 15 9 0 4 -4 8 -9 8 -6 0 -12
-4 -15 -8z"/>
<path d="M3516 3453 c-6 -14 -5 -15 5 -6 7 7 10 15 7 18 -3 3 -9 -2 -12 -12z"/>
<path d="M3114 3392 c3 -5 0 -13 -6 -15 -9 -4 -10 -6 -1 -6 17 -1 25 16 12 25
-7 4 -9 3 -5 -4z"/>
<path d="M1110 3220 c0 -5 5 -10 11 -10 5 0 7 5 4 10 -3 6 -8 10 -11 10 -2 0
-4 -4 -4 -10z"/>
<path d="M3107 3133 c3 -7 6 -13 8 -13 2 0 5 6 8 13 3 8 -1 14 -8 14 -7 0 -11
-6 -8 -14z"/>
<path d="M6169 3062 c9 -7 10 -11 2 -15 -7 -4 -8 -5 0 -3 15 2 13 20 -3 24
-10 3 -10 2 1 -6z"/>
<path d="M3110 3000 c0 -5 6 -10 13 -11 6 0 3 -4 -8 -9 l-20 -9 20 0 c17 -1
18 -3 5 -12 -13 -9 -13 -10 0 -6 19 5 19 57 0 57 -5 0 -10 -4 -10 -10z"/>
<path d="M3114 2912 c3 -5 0 -13 -6 -15 -9 -4 -10 -6 -1 -6 17 -1 25 16 12 25
-7 4 -9 3 -5 -4z"/>
<path d="M3509 2873 c-13 -16 -12 -17 4 -4 16 13 21 21 13 21 -2 0 -10 -8 -17
-17z"/>
<path d="M6223 2855 c0 -8 4 -12 9 -9 5 3 6 10 3 15 -9 13 -12 11 -12 -6z"/>
<path d="M4170 2761 c0 -5 5 -13 10 -16 6 -3 10 -2 10 4 0 5 -4 13 -10 16 -5
3 -10 2 -10 -4z"/>
<path d="M5780 2745 c0 -2 6 -8 13 -14 10 -8 14 -7 14 2 0 8 -6 14 -14 14 -7
0 -13 -1 -13 -2z"/>
<path d="M3107 2653 c3 -7 6 -13 8 -13 2 0 5 6 8 13 3 8 -1 14 -8 14 -7 0 -11
-6 -8 -14z"/>
<path d="M4250 2651 c0 -6 4 -13 10 -16 6 -3 7 1 4 9 -7 18 -14 21 -14 7z"/>
<path d="M6120 2325 c0 -2 6 -8 13 -14 10 -8 14 -7 14 2 0 8 -6 14 -14 14 -7
0 -13 -1 -13 -2z"/>
<path d="M3505 2310 c-3 -6 1 -7 9 -4 18 7 21 14 7 14 -6 0 -13 -4 -16 -10z"/>
<path d="M6085 2280 c-3 -5 1 -10 9 -10 9 0 16 5 16 10 0 6 -4 10 -9 10 -6 0
-13 -4 -16 -10z"/>
<path d="M4610 2251 c0 -5 8 -15 18 -22 15 -12 16 -12 5 2 -7 9 -10 19 -6 22
3 4 1 7 -5 7 -7 0 -12 -4 -12 -9z"/>
<path d="M1170 2209 c0 -5 5 -7 10 -4 6 3 10 8 10 11 0 2 -4 4 -10 4 -5 0 -10
-5 -10 -11z"/>
<path d="M1410 2209 c0 -5 5 -7 10 -4 6 3 10 8 10 11 0 2 -4 4 -10 4 -5 0 -10
-5 -10 -11z"/>
<path d="M1970 2209 c0 -5 5 -7 10 -4 6 3 10 8 10 11 0 2 -4 4 -10 4 -5 0 -10
-5 -10 -11z"/>
<path d="M2090 2209 c0 -5 5 -7 10 -4 6 3 10 8 10 11 0 2 -4 4 -10 4 -5 0 -10
-5 -10 -11z"/>
<path d="M5415 2200 c-3 -5 -1 -10 4 -10 6 0 11 5 11 10 0 6 -2 10 -4 10 -3 0
-8 -4 -11 -10z"/>
<path d="M3519 2188 c-5 -18 -6 -38 -1 -34 7 8 12 36 6 36 -2 0 -4 -1 -5 -2z"/>
<path d="M4826 2168 c3 -5 10 -6 15 -3 13 9 11 12 -6 12 -8 0 -12 -4 -9 -9z"/>
<path d="M3515 2091 c-3 -5 -2 -12 3 -15 5 -3 9 1 9 9 0 17 -3 19 -12 6z"/>
<path d="M5879 2049 c-16 -17 -27 -35 -23 -38 4 -3 9 0 11 7 7 20 34 43 43 37
5 -3 11 -1 14 4 4 5 2 13 -4 16 -6 4 -24 -8 -41 -26z"/>
<path d="M3513 2047 c0 -8 6 -14 14 -14 9 0 10 4 2 14 -6 7 -12 13 -14 13 -1
0 -2 -6 -2 -13z"/>
<path d="M4431 1944 c0 -11 3 -14 6 -6 3 7 2 16 -1 19 -3 4 -6 -2 -5 -13z"/>
<path d="M3519 1948 c-5 -18 -6 -38 -1 -34 7 8 12 36 6 36 -2 0 -4 -1 -5 -2z"/>
<path d="M4519 1908 c15 -21 31 -23 31 -6 0 6 -3 8 -7 5 -3 -4 -13 -1 -22 6
-14 11 -14 10 -2 -5z"/>
<path d="M2710 1899 c0 -5 5 -7 10 -4 6 3 10 8 10 11 0 2 -4 4 -10 4 -5 0 -10
-5 -10 -11z"/>
<path d="M5615 1899 c-4 -6 -13 -8 -21 -5 -13 5 -30 -11 -21 -20 6 -7 57 18
57 28 0 11 -8 10 -15 -3z"/>
<path d="M854 1870 c0 -13 4 -16 10 -10 7 7 7 13 0 20 -6 6 -10 3 -10 -10z"/>
<path d="M965 1880 c-3 -5 -1 -10 4 -10 6 0 11 5 11 10 0 6 -2 10 -4 10 -3 0
-8 -4 -11 -10z"/>
<path d="M1205 1880 c-3 -5 -1 -10 4 -10 6 0 11 5 11 10 0 6 -2 10 -4 10 -3 0
-8 -4 -11 -10z"/>
<path d="M1445 1880 c-3 -5 -1 -10 4 -10 6 0 11 5 11 10 0 6 -2 10 -4 10 -3 0
-8 -4 -11 -10z"/>
<path d="M1685 1880 c-3 -5 -1 -10 4 -10 6 0 11 5 11 10 0 6 -2 10 -4 10 -3 0
-8 -4 -11 -10z"/>
<path d="M1925 1880 c-3 -5 -1 -10 4 -10 6 0 11 5 11 10 0 6 -2 10 -4 10 -3 0
-8 -4 -11 -10z"/>
<path d="M2165 1880 c-3 -5 -1 -10 4 -10 6 0 11 5 11 10 0 6 -2 10 -4 10 -3 0
-8 -4 -11 -10z"/>
<path d="M2405 1880 c-3 -5 -1 -10 4 -10 6 0 11 5 11 10 0 6 -2 10 -4 10 -3 0
-8 -4 -11 -10z"/>
<path d="M3365 1880 c-3 -5 -1 -10 4 -10 6 0 11 5 11 10 0 6 -2 10 -4 10 -3 0
-8 -4 -11 -10z"/>
<path d="M797 1873 c-10 -9 -9 -23 1 -23 5 0 9 7 9 15 0 17 -1 18 -10 8z"/>
<path d="M916 1863 c-6 -14 -5 -15 5 -6 7 7 10 15 7 18 -3 3 -9 -2 -12 -12z"/>
<path d="M1156 1863 c-6 -14 -5 -15 5 -6 7 7 10 15 7 18 -3 3 -9 -2 -12 -12z"/>
<path d="M1396 1863 c-6 -14 -5 -15 5 -6 7 7 10 15 7 18 -3 3 -9 -2 -12 -12z"/>
<path d="M1636 1863 c-6 -14 -5 -15 5 -6 7 7 10 15 7 18 -3 3 -9 -2 -12 -12z"/>
<path d="M1876 1863 c-6 -14 -5 -15 5 -6 7 7 10 15 7 18 -3 3 -9 -2 -12 -12z"/>
<path d="M2116 1863 c-6 -14 -5 -15 5 -6 7 7 10 15 7 18 -3 3 -9 -2 -12 -12z"/>
<path d="M2356 1863 c-6 -14 -5 -15 5 -6 7 7 10 15 7 18 -3 3 -9 -2 -12 -12z"/>
<path d="M3316 1863 c-6 -14 -5 -15 5 -6 7 7 10 15 7 18 -3 3 -9 -2 -12 -12z"/>
<path d="M3455 1860 c3 -5 8 -10 11 -10 2 0 4 5 4 10 0 6 -5 10 -11 10 -5 0
-7 -4 -4 -10z"/>
<path d="M4825 1829 c-4 -6 -5 -12 -2 -15 2 -3 7 2 10 11 7 17 1 20 -8 4z"/>
</g>
</svg>
