<?xml version="1.0" encoding="utf-8"?>
<!-- Generator: Adobe Illustrator 27.9.0, SVG Export Plug-In . SVG Version: 6.00 Build 0)  -->
<svg version="1.1" id="Layer_1" xmlns="http://www.w3.org/2000/svg" xmlns:xlink="http://www.w3.org/1999/xlink" x="0px" y="0px"
	 viewBox="0 0 664 383.3" style="enable-background:new 0 0 664 383.3;" xml:space="preserve">
<style type="text/css">
	.st0{fill:#00205C;}
	.st1{fill:#7BADD3;}
	.st2{opacity:0.35;fill:#00205C;}
</style>
<g>
	<path class="st0" d="M68.4,127H57.6v-2.6h27.3l25.3,38.2c10.6,16.4,10.4,16,14.6,23.2V127h-11v-2.6h24.8v2.6h-10.8v84.4h-3
		l-53.4-81.9v79.3h11v2.6H57.6v-2.6h10.8V127z"/>
	<path class="st0" d="M156.3,127h-10.8v-2.6H181v2.6h-10.8v81.8H181v2.6h-35.6v-2.6h10.8V127z"/>
	<path class="st1" d="M199.2,127h-10.8v-2.6h28.8c16.3,0,23.1,1.4,29.6,6.4c5,3.7,7.4,8.7,7.4,14.9c0,10.3-7.8,17.2-22.6,20.2
		c16.8,1.4,26.2,9.5,26.2,22.8c0,6.9-3.4,13-9.7,17.3c-6,4.2-12.5,5.3-28.7,5.3h-31.2v-2.6h10.8V127z M213.1,164.7
		c4.2,0.1,5.3,0.1,6.8,0.1c14.3,0,20.1-5.2,20.1-18.5c0-7.4-2-13-5.6-15.9c-3.5-2.6-7.3-3.4-17.6-3.4h-3.7V164.7z M220.9,208.8
		c16.2,0,21.3-5,21.3-20.5c0-15.9-5.5-21.1-22.2-21.1c-1.4,0-3.8,0.1-6.9,0.3v41.4H220.9z"/>
	<path class="st1" d="M317.3,208.8h8.6v2.6h-20.3v-7.2c-3.5,5.6-9.3,8.5-16.8,8.5c-5.9,0-10.7-1.7-13.8-4.7c-3.3-3.3-4-6.5-4-17.5
		v-27.8h-8.7v-2.6h20.5v30.4c0,12.9,0.3,15.3,2.1,17.1c1.2,1.3,3.5,2.1,6.3,2.1c4.8,0,9.3-2.5,11.6-6.4c2.5-4.2,3-8.3,3-22.3v-18.3
		h-8.7v-2.6h20.5V208.8z"/>
	<path class="st1" d="M340.7,162.8h-8.7v-2.6h20.5v12.4c3.7-9.4,8.1-13.7,14.2-13.7c4.7,0,8.1,3.1,8.1,7.6c0,3.9-2.6,6.7-6.5,6.7
		c-3.7,0-5.5-2.2-5.7-7c-0.1-1.2-0.5-1.8-1.3-1.8c-0.9,0-2.3,1.3-3.5,3.3c-3.9,6.7-5.2,14.1-5.2,29.2v12.1h8.6v2.6h-29.1v-2.6h8.7
		V162.8z"/>
	<path class="st1" d="M391.6,181.5v4c0,13,0.3,15.7,1.8,18.4c2.1,3.7,5.7,5.7,10.4,5.7c8.5,0,15-5.7,17.5-15.5h3.1
		c-2.1,11.1-10.7,18.5-21.7,18.5c-12.9,0-24.8-12.9-24.8-26.9c0-14.5,11.3-27,24.5-27c13,0,21.9,8.9,22.8,22.7H391.6z M411.8,178.9
		c0-8.6-0.1-9.7-1-12c-1.2-3.3-4.2-5.1-8.5-5.1c-7.7,0-10.7,3.9-10.7,14.1v3H411.8z"/>
	<path class="st1" d="M482,208.8c-3.1,2.9-5.6,3.9-9.1,3.9c-6.3,0-10-3.5-10.8-10.2c-3.8,6.5-9.9,10.2-17,10.2
		c-8.3,0-13.8-5-13.8-12.4c0-10.7,11-16.8,30.8-17.2v-9c0-7.6-0.3-8.9-1.8-10.6c-1.4-1.6-4-2.5-7-2.5c-4.6,0-9.8,3-9.8,5.5
		c0,0.5,0.1,0.8,0.7,1.4c1.3,1.6,1.8,2.6,1.8,4c0,3.3-2.2,5.6-5.5,5.6c-3.1,0-5.5-2.5-5.5-5.6c0-7,9.5-13.2,20.5-13.2
		c6.4,0,12.3,2.1,15.4,5.5c2.9,3,3,3.7,3,15.1v14.3v3.1c0,11.7,0.1,12,2.9,12c1.2,0,1.4-0.1,3.8-2.1L482,208.8z M462.1,185.3
		c-13.3,0.5-19.2,4.7-19.2,13.2c0,5.3,3,8.5,8,8.5c3.9,0,7.3-2.2,9.4-6.1c1.3-2.5,1.8-6.4,1.8-12.9V185.3z"/>
	<path class="st1" d="M536.8,208.8h8.6v2.6H525v-7.2c-3.5,5.6-9.3,8.5-16.8,8.5c-5.9,0-10.7-1.7-13.8-4.7c-3.3-3.3-4-6.5-4-17.5
		v-27.8h-8.7v-2.6h20.5v30.4c0,12.9,0.3,15.3,2.1,17.1c1.2,1.3,3.5,2.1,6.3,2.1c4.8,0,9.3-2.5,11.6-6.4c2.5-4.2,3-8.3,3-22.3v-18.3
		h-8.7v-2.6h20.5V208.8z"/>
</g>
<g>
	<path class="st0" d="M201,244.8h4.2l12.3,21.5v-21.5h2.6v26h-3.2l-13.3-23.2v23.2H201V244.8z"/>
	<path class="st0" d="M224.3,261.1c0-6.2,3.5-10.2,8.6-10.2c5.1,0,8.7,3.9,8.7,10.2c0,6.2-3.6,10.2-8.7,10.2
		C227.8,271.3,224.3,267.3,224.3,261.1z M238.5,261.1c0-4.9-2.2-7.8-5.6-7.8c-3.3,0-5.5,2.8-5.5,7.8c0,4.9,2.2,7.8,5.5,7.8
		C236.2,268.9,238.5,266,238.5,261.1z"/>
	<path class="st0" d="M245.4,251.5h2.7v4.3c1.2-3.3,3-4.9,5.6-4.9c0.3,0,0.7,0,1.1,0.1v2.9c-0.2,0-0.3,0-0.5,0c-3.7,0-6,2.7-6,7.2
		v9.7h-2.9V251.5z"/>
	<path class="st0" d="M257.8,253.6h-3.4v-2.1h3.4v-4.6l2.9-0.3v4.9h4.6v2.1h-4.6v10.1c0,3.6,0.3,5.1,3.3,5.1c0.6,0,1.3,0,2-0.2v2.4
		c-0.8,0.2-1.6,0.3-2.4,0.3c-2.3,0-3.9-0.7-5-2.3c-0.8-1.1-0.8-2.9-0.8-5.4V253.6z"/>
	<path class="st0" d="M268.5,244.8h2.8v10.2c1.4-2.6,3.4-3.9,6-3.9c4.1,0,6.3,2.6,6.3,7.6v12.2h-2.8v-12.5c0-3.2-1.5-5-4-5
		c-3.1,0-5.6,2.7-5.6,6.8v10.7h-2.8V244.8z"/>
	<path class="st0" d="M295.9,271.3c-5.2,0-8.6-3.9-8.6-10.2c0-6.2,3.6-10.2,8.6-10.2c5.2,0,8.5,3.8,8.5,10c0,0.1,0,0.3,0,0.4h-14
		c0,0,0,0.1,0,0.1c0,4.7,2.3,7.4,5.7,7.4c2.4,0,4.3-1.3,5.3-3.8l2.7,0.5C302.8,269.3,300,271.3,295.9,271.3z M301.3,259.3
		c-0.2-3.8-2.1-5.9-5.3-5.9c-3.2,0-5.1,2.1-5.6,5.9H301.3z"/>
	<path class="st0" d="M308.3,251.5h2.7v4.3c1.2-3.3,3-4.9,5.6-4.9c0.3,0,0.7,0,1.1,0.1v2.9c-0.2,0-0.3,0-0.5,0c-3.7,0-6,2.7-6,7.2
		v9.7h-2.9V251.5z"/>
	<path class="st0" d="M319.8,251.5h2.6v3.6c1.6-2.8,3.6-4.1,6.2-4.1c4.1,0,6.3,2.6,6.3,7.6v12.2h-2.8v-12.5c0-3.2-1.5-5-4-5
		c-3.1,0-5.6,2.7-5.6,6.8v10.7h-2.8V251.5z"/>
	<path class="st0" d="M351.6,244.8h3.2v26h-3.2V244.8z"/>
	<path class="st0" d="M360.5,251.5h2.7v4.3c1.2-3.3,3-4.9,5.6-4.9c0.3,0,0.7,0,1,0.1v2.9c-0.2,0-0.3,0-0.5,0c-3.7,0-6,2.7-6,7.2v9.7
		h-2.9V251.5z"/>
	<path class="st0" d="M379.3,271.3c-5.2,0-8.6-3.9-8.6-10.2c0-6.2,3.6-10.2,8.6-10.2c5.2,0,8.5,3.8,8.5,10c0,0.1,0,0.3,0,0.4h-14
		c0,0,0,0.1,0,0.1c0,4.7,2.3,7.4,5.7,7.4c2.4,0,4.3-1.3,5.3-3.8l2.7,0.5C386.2,269.3,383.3,271.3,379.3,271.3z M384.7,259.3
		c-0.1-3.8-2.1-5.9-5.3-5.9c-3.2,0-5.1,2.1-5.6,5.9H384.7z"/>
	<path class="st0" d="M391.7,244.8h2.9v26h-2.9V244.8z"/>
	<path class="st0" d="M411.8,267.1c-1.3,2.6-3.7,4.1-6.6,4.1c-3.9,0-6.6-2.5-6.6-5.9c0-4.4,3.9-6.6,11.6-6.6c0.5,0,1.1,0,1.7,0v-1.2
		c0-2.9-1.5-4.3-4.8-4.3c-2.9,0-4.6,1-5.1,3.3l-2.7-0.4c0.8-3.5,3.6-5.2,8.4-5.2c5,0,7.1,2.4,7.1,7.6v8.3c0,1.5,0.1,2.7,0.5,3.9
		h-2.9C412,269.7,411.8,268.5,411.8,267.1z M409.6,261c-5.2,0-7.8,1.5-7.8,4.4c0,2.1,1.5,3.5,4,3.5c3.4,0,6.1-3,6.1-6.8v-1
		C411,261,410.3,261,409.6,261z"/>
	<path class="st0" d="M419.5,251.5h2.6v3.6c1.6-2.8,3.6-4.1,6.2-4.1c4.1,0,6.3,2.6,6.3,7.6v12.2h-2.8v-12.5c0-3.2-1.5-5-4-5
		c-3.1,0-5.6,2.7-5.6,6.8v10.7h-2.8V251.5z"/>
	<path class="st0" d="M454.3,270.8h-2.6V267c-1.3,2.8-3.4,4.3-6,4.3c-4.2,0-7.4-3.9-7.4-10c0-6.3,3.3-10.2,7.6-10.2
		c2.3,0,4.3,1.2,5.6,3.5v-9.8h2.8V270.8z M446.5,253.5c-2.9,0-5,2.7-5,7.6c0,4.8,2,7.5,5,7.5c2.7,0,5-2.4,5-6.2v-3
		C451.5,255.8,449.5,253.5,446.5,253.5z"/>
	<path class="st0" d="M471.1,244.8h9.9c5.2,0,8,2.5,8,6.6c0,2.6-1.7,4.8-4.6,5.6c3.5,0.9,5.4,3.3,5.4,6.7c0,4.7-3.2,7.2-9.4,7.2
		h-9.3V244.8z M479.9,255.9c3.8,0,5.7-1.5,5.7-4.5c0-2.6-1.8-4.1-5.3-4.1h-6.1v8.6H479.9z M480.4,268.1c4,0,6.1-1.7,6.1-4.7
		c0-3.3-2.2-5-6.6-5h-5.6v9.7H480.4z"/>
	<path class="st0" d="M508.9,270.8h-2.6v-3.6c-1.6,2.8-3.6,4.1-6.2,4.1c-4.1,0-6.3-2.6-6.3-7.6v-12.2h2.8V264c0,3.2,1.5,5,4,5
		c3.1,0,5.6-2.7,5.6-6.8v-10.7h2.8V270.8z"/>
	<path class="st0" d="M514,251.5h2.7v4.3c1.2-3.3,3-4.9,5.6-4.9c0.3,0,0.7,0,1,0.1v2.9c-0.2,0-0.3,0-0.5,0c-3.7,0-6,2.7-6,7.2v9.7
		H514V251.5z"/>
	<path class="st0" d="M532.9,271.3c-5.2,0-8.6-3.9-8.6-10.2c0-6.2,3.6-10.2,8.6-10.2c5.2,0,8.5,3.8,8.5,10c0,0.1,0,0.3,0,0.4h-14
		c0,0,0,0.1,0,0.1c0,4.7,2.3,7.4,5.7,7.4c2.4,0,4.3-1.3,5.3-3.8l2.7,0.5C539.8,269.3,536.9,271.3,532.9,271.3z M538.3,259.3
		c-0.1-3.8-2.1-5.9-5.3-5.9c-3.2,0-5.1,2.1-5.6,5.9H538.3z"/>
	<path class="st0" d="M557.1,267.1c-1.3,2.6-3.7,4.1-6.6,4.1c-3.9,0-6.6-2.5-6.6-5.9c0-4.4,3.9-6.6,11.6-6.6c0.5,0,1.1,0,1.7,0v-1.2
		c0-2.9-1.5-4.3-4.8-4.3c-2.9,0-4.6,1-5.1,3.3l-2.7-0.4c0.8-3.5,3.6-5.2,8.4-5.2c5,0,7.1,2.4,7.1,7.6v8.3c0,1.5,0.1,2.7,0.5,3.9
		h-2.9C557.3,269.7,557.1,268.5,557.1,267.1z M554.9,261c-5.2,0-7.8,1.5-7.8,4.4c0,2.1,1.5,3.5,4,3.5c3.4,0,6.1-3,6.1-6.8v-1
		C556.3,261,555.6,261,554.9,261z"/>
	<path class="st0" d="M579.8,270.8h-2.6v-3.6c-1.6,2.8-3.6,4.1-6.2,4.1c-4.1,0-6.3-2.6-6.3-7.6v-12.2h2.8V264c0,3.2,1.5,5,4,5
		c3.1,0,5.6-2.7,5.6-6.8v-10.7h2.8V270.8z"/>
	<path class="st0" d="M201,289.8h4.2l12.3,21.5v-21.5h2.6v26h-3.2l-13.3-23.2v23.2H201V289.8z"/>
	<path class="st0" d="M224.3,306.1c0-6.2,3.5-10.2,8.6-10.2c5.1,0,8.7,3.9,8.7,10.2c0,6.2-3.6,10.2-8.7,10.2
		C227.8,316.3,224.3,312.3,224.3,306.1z M238.5,306.1c0-4.9-2.2-7.8-5.6-7.8c-3.3,0-5.5,2.8-5.5,7.8c0,4.9,2.2,7.8,5.5,7.8
		C236.2,313.9,238.5,311,238.5,306.1z"/>
	<path class="st0" d="M245.4,296.5h2.7v4.3c1.2-3.3,3-4.9,5.6-4.9c0.3,0,0.7,0,1.1,0.1v2.9c-0.2,0-0.3,0-0.5,0c-3.7,0-6,2.7-6,7.2
		v9.7h-2.9V296.5z"/>
	<path class="st0" d="M257.8,298.6h-3.4v-2.1h3.4v-4.6l2.9-0.3v4.9h4.6v2.1h-4.6v10.1c0,3.6,0.3,5.1,3.3,5.1c0.6,0,1.3,0,2-0.2v2.4
		c-0.8,0.2-1.6,0.3-2.4,0.3c-2.3,0-3.9-0.7-5-2.3c-0.8-1.1-0.8-2.9-0.8-5.4V298.6z"/>
	<path class="st0" d="M268.5,289.8h2.8v10.2c1.4-2.6,3.4-3.9,6-3.9c4.1,0,6.3,2.6,6.3,7.6v12.2h-2.8v-12.5c0-3.2-1.5-5-4-5
		c-3.1,0-5.6,2.7-5.6,6.8v10.7h-2.8V289.8z"/>
	<path class="st0" d="M305.9,289.8h3.7l8.5,26H315l-2.5-7.8h-9.8l-2.4,7.8h-3L305.9,289.8z M311.6,305.5l-4.1-12.8l-4.1,12.8H311.6z
		"/>
	<path class="st0" d="M340.8,296.1c3.8,0,5.9,2.6,5.9,7.5v12.2h-2.8v-12.5c0-3.2-1.4-4.8-3.6-4.8c-2.8,0-5.2,2.7-5.2,6.6v10.7h-2.8
		v-12.5c0-3.1-1.4-4.8-3.6-4.8c-2.8,0-5.2,2.7-5.2,6.6v10.7h-2.8v-19.3h2.6v3.6c1.5-2.7,3.4-4,5.8-4c2.8,0,4.8,1.5,5.6,4.2
		C336.4,297.4,338.4,296.1,340.8,296.1z"/>
	<path class="st0" d="M359,316.3c-5.2,0-8.6-3.9-8.6-10.2c0-6.2,3.6-10.2,8.6-10.2c5.2,0,8.5,3.8,8.5,10c0,0.1,0,0.3,0,0.4h-14
		c0,0,0,0.1,0,0.1c0,4.7,2.2,7.4,5.7,7.4c2.4,0,4.3-1.3,5.3-3.8l2.7,0.5C365.9,314.3,363,316.3,359,316.3z M364.4,304.3
		c-0.1-3.8-2.1-5.9-5.3-5.9c-3.2,0-5.1,2.1-5.6,5.9H364.4z"/>
	<path class="st0" d="M371.3,296.5h2.7v4.3c1.2-3.3,3-4.9,5.6-4.9c0.3,0,0.7,0,1,0.1v2.9c-0.2,0-0.3,0-0.5,0c-3.7,0-6,2.7-6,7.2v9.7
		h-2.9V296.5z"/>
	<path class="st0" d="M383,289.8h2.9v2.9H383V289.8z M383,296.5h2.9v19.3H383V296.5z"/>
	<path class="st0" d="M398.1,298.4c-3,0-5.3,2.8-5.3,7.8c0,4.8,2.1,7.7,5.2,7.7c2.3,0,4.1-1.7,4.7-4.7l2.6,0.5
		c-0.8,4.3-3.5,6.7-7.4,6.7c-4.8,0-8.2-3.9-8.2-10.2c0-6.2,3.5-10.2,8.6-10.2c3.7,0,6.3,2.5,6.9,6.9l-2.7,0.4
		C402.3,300.2,400.4,298.4,398.1,298.4z"/>
	<path class="st0" d="M421,312.1c-1.3,2.6-3.7,4.1-6.6,4.1c-3.9,0-6.6-2.5-6.6-5.9c0-4.4,3.9-6.6,11.6-6.6c0.5,0,1.1,0,1.7,0v-1.2
		c0-2.9-1.5-4.3-4.8-4.3c-2.9,0-4.6,1-5.1,3.3l-2.7-0.4c0.8-3.5,3.6-5.2,8.4-5.2c5,0,7.1,2.4,7.1,7.6v8.3c0,1.5,0.1,2.7,0.5,3.9
		h-2.9C421.2,314.7,421,313.5,421,312.1z M418.8,306c-5.2,0-7.8,1.5-7.8,4.4c0,2.1,1.5,3.5,4,3.5c3.4,0,6.1-3,6.1-6.8v-1
		C420.2,306,419.5,306,418.8,306z"/>
</g>
<g>
	<polygon class="st1" points="575.9,122.2 547.1,106.3 546.5,73.4 574.6,56.5 603.4,72.4 604,105.2 	"/>
	<polygon class="st2" points="536.5,146.9 507.8,131.1 507.1,98.2 535.3,81.3 564,97.2 564.6,130 	"/>
</g>
</svg>
