<svg version="1.1" id="Layer_1" xmlns="http://www.w3.org/2000/svg" xmlns:xlink="http://www.w3.org/1999/xlink" x="0px" y="0px"
	 width="100%" viewBox="0 0 1180 869" enable-background="new 0 0 1180 869" xml:space="preserve">
<path fill="#FEFFFF" opacity="1.000000" stroke="none" 
	d="
M831.000000,870.000000 
	C554.033691,870.000000 277.567413,870.000000 1.050555,870.000000 
	C1.050555,580.402344 1.050555,290.804688 1.050555,1.103516 
	C394.216370,1.103516 787.432739,1.103516 1180.824585,1.103516 
	C1180.824585,290.666565 1180.824585,580.333252 1180.824585,870.000000 
	C1064.471313,870.000000 947.985657,870.000000 831.000000,870.000000 
M483.929108,485.436249 
	C483.536469,485.474670 483.143829,485.513092 482.751190,485.551483 
	C483.145508,485.723938 483.539825,485.896393 484.222229,486.689362 
	C500.604889,495.174866 516.626343,504.472321 533.453918,511.957642 
	C559.437561,523.515747 586.848022,530.610413 615.277161,532.695007 
	C643.167358,534.740112 670.266785,530.045410 696.853943,521.612854 
	C723.939758,513.022156 749.411438,500.748505 774.920654,488.481415 
	C798.966797,476.917908 823.670959,467.059357 849.881775,461.504120 
	C870.913940,457.046448 892.066956,456.448914 913.360168,459.735718 
	C938.520081,463.619385 962.431763,471.665741 986.002625,480.936401 
	C988.790466,482.032867 991.593140,483.092468 994.396179,484.149811 
	C996.994568,485.129944 999.602661,486.084198 1002.206421,487.049835 
	C1002.087646,485.744659 1001.656555,485.245941 1001.135803,484.872375 
	C979.584412,469.411774 957.453613,454.917999 932.938599,444.469269 
	C911.153137,435.183929 888.477600,429.589661 864.745728,429.094116 
	C834.998718,428.472931 806.499634,435.232819 779.180847,446.205597 
	C754.028564,456.308105 729.580200,468.154236 704.745667,479.058899 
	C676.195251,491.595123 646.474792,499.925629 615.273132,501.861664 
	C581.663452,503.947113 548.515076,500.157501 515.753296,492.542938 
	C505.256439,490.103210 494.662506,488.081207 483.929108,485.436249 
M410.186493,96.610649 
	C392.637665,108.933441 386.056702,126.281403 389.523712,146.759018 
	C392.892487,166.656326 404.957642,180.109940 424.902771,185.171143 
	C429.853729,186.427490 430.956940,188.997803 430.971588,193.146439 
	C431.040497,212.642151 431.045410,232.138214 431.178986,251.633423 
	C431.196808,254.237366 430.344849,255.477554 427.772644,256.186493 
	C422.650696,257.598206 417.634766,259.394409 412.574371,261.029755 
	C389.914917,268.352631 367.289490,275.765686 346.009796,286.666718 
	C344.592773,287.392639 343.275879,288.313965 341.912384,289.144379 
	C342.119019,289.503296 342.325653,289.862183 342.532288,290.221069 
	C345.000336,289.342682 347.465302,288.455536 349.936920,287.587250 
	C378.780884,277.454254 407.711212,276.248718 437.081268,285.725067 
	C463.957397,294.396729 487.368835,309.160522 510.043365,325.421753 
	C525.330750,336.385254 540.184448,348.046844 556.079285,358.050171 
	C588.529358,378.472382 624.385742,386.477692 662.520569,383.787231 
	C690.836548,381.789490 717.738220,373.758331 744.075439,363.510376 
	C748.255798,361.883759 749.816223,360.014587 749.800781,355.324554 
	C749.607300,296.669464 749.674072,238.013519 749.674072,179.357788 
	C749.674072,174.743240 749.674072,170.128708 749.674072,165.411591 
	C723.907288,165.411591 698.551086,165.411591 672.231628,165.411591 
	C672.231628,175.135605 672.345581,184.455276 672.209656,193.771286 
	C671.842529,218.925690 671.377075,244.078705 670.921997,269.231750 
	C670.885986,271.220978 670.641052,273.207275 670.470764,275.193054 
	C670.048340,280.118805 666.254761,278.869385 663.299316,279.047180 
	C659.802429,279.257538 659.732727,276.625183 659.720032,274.287781 
	C659.652283,261.790497 659.679565,249.292694 659.674194,236.795074 
	C659.673462,235.012009 659.674072,233.228943 659.674072,230.816528 
	C646.181213,230.816528 633.298706,230.816528 620.138855,230.816528 
	C620.138855,228.204453 620.128052,226.221207 620.140381,224.238098 
	C620.419312,179.419617 620.655701,134.600739 621.065857,89.783447 
	C621.099487,86.115463 620.004822,83.632774 617.417664,81.101540 
	C600.624756,64.671707 584.061096,48.007099 567.204346,31.644016 
	C565.321167,29.816002 562.082764,28.516153 559.447632,28.471865 
	C542.622192,28.189077 525.789673,28.326578 508.959503,28.325806 
	C506.174774,28.325678 503.390015,28.325787 499.979218,28.325787 
	C499.979218,98.598114 499.979218,168.293152 499.979218,238.540787 
	C479.042206,236.688797 460.680206,244.974258 440.922638,250.483261 
	C440.922638,228.616257 440.922638,207.556763 440.922638,186.645996 
	C464.441254,181.187057 478.297913,167.182892 481.389893,143.941086 
	C483.948273,124.710464 477.036377,108.559776 461.125061,97.399521 
	C444.963196,86.063454 427.820374,86.284088 410.186493,96.610649 
M327.318634,399.062683 
	C340.911682,404.508240 354.691711,409.534851 368.054138,415.497192 
	C388.268616,424.517029 407.994751,434.642639 428.287598,443.472748 
	C456.021179,455.540588 485.075897,463.025360 515.464722,462.703247 
	C567.351501,462.153259 615.030762,446.739075 659.115234,419.724487 
	C660.105042,419.117859 660.862976,418.132874 662.638855,416.475189 
	C659.718384,416.905457 658.079102,417.070312 656.472290,417.395355 
	C639.845703,420.759125 623.289856,424.521606 606.588318,427.455597 
	C568.778381,434.097687 531.067261,434.117676 493.521057,425.043854 
	C466.816681,418.590179 441.902405,407.531097 416.882111,396.571747 
	C396.014038,387.431122 375.143951,378.102753 353.670685,370.582275 
	C323.686707,360.081207 292.723755,355.481415 260.774597,359.897491 
	C218.858917,365.691162 184.196548,386.076782 152.513626,412.917542 
	C155.245270,412.641571 157.846191,411.942383 160.393600,411.084351 
	C173.794907,406.570374 187.118958,401.816772 200.587051,397.513214 
	C242.699005,384.056885 284.722107,383.852203 327.318634,399.062683 
M341.971130,320.442902 
	C345.287659,320.711456 348.628693,320.807587 351.916840,321.275513 
	C381.394073,325.470093 407.633820,337.533508 431.892273,354.357788 
	C453.901306,369.621887 475.317169,385.843170 498.068451,399.904907 
	C518.684570,412.646973 541.858948,418.842346 566.419556,419.165894 
	C595.599365,419.550262 624.022156,414.643097 652.169373,407.616669 
	C657.239624,406.351013 662.160339,404.486389 667.150146,402.898285 
	C664.873230,402.209290 662.870605,402.071655 660.891541,402.229828 
	C628.852661,404.790161 597.071045,402.965698 565.610596,396.387726 
	C535.998169,390.196228 510.181091,376.156281 486.406342,357.832886 
	C465.686829,341.864136 444.540527,326.548187 420.483398,315.722473 
	C399.545990,306.300629 377.711761,300.845367 354.772217,301.302460 
	C334.118225,301.714020 314.294220,306.702301 295.445007,315.252655 
	C288.494324,318.405579 281.652557,321.798584 274.761139,325.082092 
	C297.004425,322.695801 318.793335,318.670074 341.971130,320.442902 
M831.617737,389.782074 
	C847.566833,392.906250 863.515869,396.030426 879.464966,399.154602 
	C879.587708,398.728882 879.710388,398.303131 879.833130,397.877411 
	C872.021301,394.291809 864.236633,390.645538 856.393127,387.130554 
	C807.807373,365.357452 760.064148,367.423309 714.135010,394.054443 
	C693.306458,406.131470 673.686462,420.349182 653.872131,434.105652 
	C624.302734,454.634827 592.276062,468.550354 556.068726,471.100922 
	C536.980225,472.445587 517.811279,472.642700 498.679871,473.388306 
	C494.977875,473.532593 491.281372,473.817932 487.582336,474.038239 
	C489.087494,475.563324 490.670868,476.417755 492.361176,476.887390 
	C504.062531,480.138458 515.731323,483.530182 527.515137,486.455719 
	C546.384399,491.140350 565.455933,493.557007 584.903015,490.407776 
	C623.489807,484.159149 658.194153,469.163361 689.057678,445.056854 
	C708.348816,429.989197 727.905090,415.234375 749.980347,404.273315 
	C775.496826,391.603638 802.175903,385.467560 831.617737,389.782074 
M547.651489,788.759094 
	C540.972839,784.975098 533.919006,784.516418 526.413818,785.636047 
	C518.766846,786.776733 512.944397,790.477295 507.693848,797.959717 
	C507.693848,792.637390 507.693848,788.921448 507.693848,785.282104 
	C504.550995,785.282104 501.958282,785.282104 499.356354,785.282104 
	C499.356354,810.312683 499.356354,835.039612 499.356354,859.796265 
	C502.475128,859.796265 505.252228,859.796265 508.463684,859.796265 
	C508.463684,847.104736 508.109222,834.617554 508.616394,822.165527 
	C508.862061,816.134644 509.782562,809.779236 512.069641,804.264099 
	C515.712158,795.480774 526.491272,791.199097 536.075623,793.412476 
	C544.529907,795.364868 548.086792,800.767578 548.134155,812.046143 
	C548.193665,826.212097 548.149231,840.378418 548.149658,854.544617 
	C548.149719,856.296814 548.149597,858.049011 548.149597,859.769226 
	C551.681702,859.769226 554.456543,859.769226 557.706299,859.769226 
	C557.706299,857.904175 557.706299,856.271179 557.706299,854.638184 
	C557.706421,842.638611 557.459473,830.631409 557.826416,818.643066 
	C557.976501,813.739807 558.690186,808.572144 560.490234,804.060486 
	C564.078613,795.066223 573.658447,791.209534 584.384338,793.507568 
	C593.503357,795.461304 597.093689,800.425476 597.135620,811.425293 
	C597.190308,825.757874 597.149353,840.090881 597.149597,854.423706 
	C597.149658,856.194214 597.149597,857.964722 597.149597,859.818604 
	C600.592407,859.818604 603.376038,859.818604 605.941589,859.818604 
	C605.941589,840.680420 606.508301,821.721741 605.698853,802.821960 
	C605.303284,793.584778 598.271667,787.742920 589.114258,785.948059 
	C575.527893,783.284973 564.186523,786.518555 556.688599,798.162720 
	C553.851074,795.086487 551.081909,792.084290 547.651489,788.759094 
M554.717346,697.229187 
	C561.370178,690.231323 563.134155,681.528015 563.176758,672.326172 
	C563.261536,653.995728 563.202332,635.664551 563.202698,617.333679 
	C563.202759,612.709045 563.202698,608.084351 563.202698,603.335327 
	C559.881348,603.335327 557.007019,603.335327 553.767700,603.335327 
	C553.767700,607.245239 553.767700,610.812866 553.767700,614.334045 
	C550.541809,611.688721 547.827148,608.678284 544.470276,606.841553 
	C527.002869,597.284363 504.555969,605.368530 496.774963,623.650024 
	C493.595551,631.120117 493.269928,638.876770 494.114410,646.717712 
	C495.735809,661.771606 504.009155,672.211853 517.147400,675.578003 
	C531.067932,679.144592 544.075928,676.912659 552.686096,663.633484 
	C552.786377,663.478882 553.239441,663.552917 553.528137,663.523254 
	C555.596558,682.020935 550.945190,692.898010 539.430542,696.489929 
	C524.447083,701.163940 512.660950,696.568542 505.265228,683.287109 
	C502.417511,683.287109 499.660370,683.287109 496.789917,683.287109 
	C497.053131,690.536499 500.792694,695.451294 506.082367,699.353943 
	C518.885254,708.799744 541.872070,707.979309 554.717346,697.229187 
M477.521973,795.135071 
	C473.296387,788.124207 466.403870,785.769714 458.908844,785.195068 
	C447.016754,784.283386 437.152771,788.274475 430.589966,799.159241 
	C426.096771,788.334534 417.565613,785.166687 407.425018,785.085693 
	C397.452576,785.005981 388.695862,788.004639 382.084351,796.290771 
	C382.084351,792.683472 382.084351,789.076111 382.084351,785.234253 
	C379.197632,785.234253 376.609314,785.234253 373.803040,785.234253 
	C373.803040,810.142578 373.803040,834.911377 373.803040,859.638855 
	C376.948730,859.638855 379.846771,859.638855 382.967407,859.638855 
	C382.967407,857.453979 382.966370,855.637024 382.967590,853.820007 
	C382.975464,842.154724 382.894104,830.488342 383.026947,818.824524 
	C383.102081,812.226074 384.392700,805.892090 388.703003,800.570984 
	C394.041260,793.980896 404.365936,791.187988 412.773071,794.015686 
	C419.438904,796.257751 422.665283,801.860413 422.779388,811.793091 
	C422.877045,820.291016 422.800354,828.790955 422.800537,837.290039 
	C422.800720,844.733093 422.800598,852.176147 422.800598,859.610962 
	C426.213898,859.610962 429.081329,859.610962 432.081177,859.610962 
	C432.081177,847.218506 431.991211,835.221741 432.126465,823.227539 
	C432.178802,818.582397 432.295746,813.857300 433.168243,809.319641 
	C434.734772,801.172485 439.252441,795.107971 447.880493,793.666687 
	C465.010010,790.804932 471.916077,797.818542 471.807648,812.253967 
	C471.763855,818.086304 471.800568,823.919312 471.800598,829.752014 
	C471.800629,839.698120 471.800598,849.644165 471.800598,859.624512 
	C475.184204,859.624512 478.052185,859.624512 481.041779,859.624512 
	C481.041779,842.083740 481.234467,824.922180 480.898834,807.771057 
	C480.820282,803.756775 478.952240,799.777588 477.521973,795.135071 
M681.485596,606.911194 
	C677.713196,597.665588 673.762451,588.486877 670.259705,579.140259 
	C668.935242,575.606079 667.180481,574.091675 663.376099,574.503357 
	C659.880920,574.881592 656.732788,573.870667 654.738770,578.850525 
	C645.088196,602.951660 634.814148,626.803101 624.767639,650.745789 
	C621.049194,659.607422 617.348694,668.476624 613.597534,677.443970 
	C623.890747,679.044739 623.873779,679.037903 627.433533,670.201599 
	C630.661682,662.188416 633.932312,654.192383 637.255798,646.012634 
	C652.923767,646.012634 668.409363,645.941467 683.891418,646.144226 
	C685.166077,646.160889 686.992981,647.780334 687.580933,649.094604 
	C690.570068,655.775696 693.280090,662.583801 696.002625,669.381531 
	C699.576904,678.305847 699.542847,678.322876 708.999451,677.935852 
	C709.269226,677.924805 709.528625,677.662720 710.156433,677.318115 
	C700.716614,654.101196 691.264038,630.852966 681.485596,606.911194 
M183.330109,789.903137 
	C179.846069,801.879272 179.670319,813.907776 183.198349,825.869141 
	C194.138412,862.960022 236.648117,866.280151 256.731903,853.272827 
	C268.963287,845.351196 274.249268,833.445190 276.224365,819.190735 
	C272.638611,819.190735 269.538849,819.190735 266.322418,819.190735 
	C265.991913,820.550842 265.673645,821.818359 265.376282,823.090698 
	C261.497253,839.689880 250.451202,850.380981 235.600693,851.905334 
	C217.609131,853.752075 202.188995,845.304260 195.198700,829.704651 
	C191.215637,820.815979 190.158051,811.453247 191.134537,801.849915 
	C193.290787,780.644348 205.744385,767.470459 226.264801,764.546143 
	C243.967361,762.023376 257.250641,770.402588 264.804047,788.864502 
	C268.009644,788.864502 271.215240,788.864502 274.601379,788.864502 
	C273.027222,777.897034 267.569458,769.861450 258.837311,764.062805 
	C237.108337,749.633545 195.048950,753.453247 183.330109,789.903137 
M763.523621,677.131958 
	C779.789124,673.862427 789.453613,661.158264 790.159119,642.119263 
	C790.945923,620.887878 780.266296,606.302856 760.715515,603.552979 
	C747.970947,601.760376 735.834778,603.759460 727.054199,616.811157 
	C727.054199,611.429138 727.054199,607.383484 727.054199,603.216003 
	C723.960876,603.216003 721.376953,603.216003 718.620361,603.216003 
	C718.620361,637.504028 718.620361,671.555359 718.620361,705.523193 
	C721.839905,705.523193 724.724365,705.523193 728.061096,705.523193 
	C728.061096,691.267700 728.061096,677.418701 728.061096,662.978210 
	C737.994873,675.828735 748.656982,680.110779 763.523621,677.131958 
M107.030525,597.599854 
	C103.790031,583.218445 94.289299,575.210327 79.576454,574.861572 
	C67.919830,574.585388 56.254982,574.647278 44.593655,574.582520 
	C39.140232,574.552185 33.686497,574.577332 28.312162,574.577332 
	C28.312162,609.384460 28.312162,643.613647 28.312162,677.763306 
	C31.615999,677.763306 34.560699,677.763306 37.964252,677.763306 
	C37.964252,670.242554 37.964252,662.955444 37.964252,655.668335 
	C37.964252,648.232483 37.964252,640.796631 37.964252,633.005493 
	C51.010429,633.005493 63.475952,633.047363 75.941093,632.996216 
	C97.476143,632.907837 109.247398,619.828247 107.030525,597.599854 
M816.749939,665.657532 
	C825.096802,676.775452 839.075989,680.855530 853.387207,676.350830 
	C868.690369,671.533813 877.692322,656.991943 876.726440,638.648193 
	C875.662476,618.441895 865.358826,605.735046 846.741577,603.472473 
	C834.235657,601.952576 822.176086,603.781799 813.521240,616.985657 
	C813.521240,611.322571 813.521240,607.268433 813.521240,603.306885 
	C810.381470,603.306885 807.794312,603.306885 805.311951,603.306885 
	C805.311951,637.651855 805.311951,671.677124 805.311951,705.574219 
	C808.461731,705.574219 811.206421,705.574219 814.322510,705.574219 
	C814.322510,691.331055 814.322510,677.433228 814.322510,662.452637 
	C815.443970,663.893677 815.893372,664.471130 816.749939,665.657532 
M969.358032,619.884949 
	C969.105042,621.794373 968.852112,623.703857 968.568787,625.842041 
	C971.886475,625.842041 974.670044,625.842041 977.419800,625.842041 
	C981.234009,610.438721 999.686768,603.412048 1013.306030,612.051514 
	C1018.089050,615.085632 1020.420105,621.417969 1018.871338,627.473083 
	C1017.455444,633.008301 1012.790588,633.424744 1008.278992,633.981445 
	C1005.146179,634.368042 1001.957397,634.451172 998.875977,635.075928 
	C991.425659,636.586487 983.779663,637.647644 976.667847,640.172546 
	C968.913757,642.925354 965.146301,649.339600 965.149658,657.747803 
	C965.153015,666.320801 968.481506,673.025024 976.348450,676.833008 
	C986.764282,681.874634 1006.896912,682.734192 1017.042603,668.407654 
	C1017.666687,667.526306 1018.462219,666.766357 1019.384949,665.713745 
	C1021.954651,677.166260 1026.840088,680.201172 1036.979858,676.959839 
	C1036.979858,674.757568 1036.979858,672.513000 1036.979858,670.282104 
	C1029.197388,669.965515 1028.707153,669.452759 1028.701294,661.699524 
	C1028.691895,649.373230 1028.781860,637.046265 1028.674683,624.720886 
	C1028.569092,612.576660 1022.467468,604.388977 1011.477478,602.248291 
	C1006.465942,601.272156 1001.213074,600.913269 996.109924,601.147949 
	C982.025757,601.795715 973.156860,608.044495 969.358032,619.884949 
M163.016754,613.415955 
	C171.460327,607.766663 180.618637,607.865051 189.818954,610.652283 
	C196.336029,612.626526 199.579483,618.672363 198.728851,625.635498 
	C198.034698,631.317993 195.188522,632.967896 187.174164,634.107300 
	C177.189178,635.526978 167.063812,636.833069 157.441849,639.683105 
	C148.081802,642.455444 144.634323,648.989624 144.799149,658.878235 
	C144.951874,668.040527 149.638077,674.896057 158.266144,677.870544 
	C170.318695,682.025452 187.745911,681.498962 197.249542,667.504578 
	C197.636841,666.934265 198.282135,666.539062 199.215866,665.691284 
	C199.616730,668.099304 199.749466,669.920532 200.238541,671.640442 
	C201.643417,676.580933 208.160431,679.745178 214.257217,677.620056 
	C215.966614,677.024231 216.601334,673.345093 217.933945,670.668701 
	C208.294373,669.614075 208.088470,669.381653 208.086502,661.023926 
	C208.083557,648.534119 208.162811,636.043701 208.057602,623.554810 
	C207.978745,614.196106 204.027893,606.860840 195.041336,603.617004 
	C183.161789,599.328857 171.169418,599.702576 159.761642,605.574219 
	C151.740326,609.702881 148.624725,616.870422 148.118744,625.704346 
	C151.347961,625.704346 154.240051,625.704346 155.868652,625.704346 
	C158.354385,621.255859 160.405426,617.585266 163.016754,613.415955 
M891.088501,622.660400 
	C890.576172,624.066833 890.007080,625.455383 889.559998,626.882263 
	C880.507080,655.775879 897.351257,679.406921 925.963379,677.968994 
	C941.937561,677.166199 954.782654,665.703979 955.855347,651.123291 
	C953.045532,651.123291 950.248230,651.123291 947.485046,651.123291 
	C940.578430,670.275635 927.092651,671.906860 915.068604,668.972656 
	C904.024658,666.277588 896.226929,654.627808 897.503174,642.860596 
	C917.172668,642.860596 936.904480,642.860596 956.581909,642.860596 
	C958.140564,624.439514 948.452637,608.782776 933.154968,604.405701 
	C915.751709,599.426270 899.576233,606.227844 891.088501,622.660400 
M759.759216,861.402893 
	C761.390869,861.100891 763.048706,860.899292 764.649963,860.480957 
	C777.189636,857.204956 784.262390,849.281494 783.933655,838.943604 
	C783.608887,828.730835 775.824402,821.457031 763.062988,818.931396 
	C755.915833,817.516968 748.752869,815.939636 741.827576,813.717224 
	C735.209595,811.593384 732.602966,807.703552 732.958679,802.601074 
	C733.316101,797.473816 737.002319,793.729370 743.383789,792.011292 
	C757.889526,788.105896 766.762512,792.616943 772.527649,806.699585 
	C775.367004,806.699585 778.134033,806.699585 781.133240,806.699585 
	C780.505798,797.774048 777.018860,790.748840 769.185059,786.893250 
	C756.435059,780.617859 743.499634,781.308350 731.625732,788.884705 
	C719.532959,796.600647 720.709045,813.353088 733.451355,819.890564 
	C737.097839,821.761475 741.169678,822.907043 745.153137,823.994019 
	C751.546326,825.738647 758.086853,826.953186 764.454956,828.776306 
	C769.888306,830.331726 774.146667,833.396912 774.436279,839.761536 
	C774.683960,845.203735 771.147827,849.511169 764.530945,852.062195 
	C748.703735,858.163879 735.883240,852.373657 729.420715,836.259460 
	C726.609680,836.259460 723.829468,836.259460 721.042053,836.259460 
	C721.584717,848.218445 727.564392,856.879395 738.722961,859.762085 
	C745.178162,861.429688 752.155518,861.075867 759.759216,861.402893 
M681.413879,862.011414 
	C687.938599,860.328003 694.772705,859.368896 700.898682,856.752075 
	C706.725220,854.263123 710.384033,849.078186 711.149414,842.354980 
	C712.507507,830.426025 705.001892,821.846863 690.992065,818.986572 
	C683.696350,817.497009 676.375793,815.923157 669.286804,813.688538 
	C662.999756,811.706604 660.146179,807.669495 660.352417,803.049194 
	C660.583374,797.877686 664.260254,793.877625 670.421631,792.094971 
	C684.799622,787.934814 694.418701,792.731079 699.991943,806.726440 
	C702.830261,806.726440 705.608521,806.726440 708.579468,806.726440 
	C708.108765,798.028198 704.753601,791.060608 697.241882,787.188354 
	C684.254333,780.493530 670.988098,781.175415 658.854492,789.071106 
	C647.066040,796.742249 648.316284,813.398682 660.768921,819.811401 
	C664.551941,821.759644 668.808533,822.869019 672.938843,824.044128 
	C680.095642,826.080200 687.404358,827.611389 694.491150,829.854187 
	C698.894592,831.247681 701.684875,834.609802 701.966064,839.499329 
	C702.245117,844.353271 699.755798,847.686646 695.848694,850.184509 
	C681.116089,859.603210 662.144775,852.825867 657.157166,836.301697 
	C654.256958,836.301697 651.344666,836.301697 648.332642,836.301697 
	C649.414612,848.675110 655.305298,856.945312 667.228088,860.096741 
	C671.512573,861.229187 676.050964,861.401489 681.413879,862.011414 
M1087.413940,677.220215 
	C1099.960327,681.682800 1112.302002,681.231323 1124.027466,674.844299 
	C1131.372559,670.843323 1134.734009,664.362610 1134.119995,655.737915 
	C1133.567261,647.972046 1129.227417,643.196899 1122.729370,640.052612 
	C1119.785278,638.627991 1116.495483,637.874695 1113.313599,636.993286 
	C1105.504028,634.830017 1097.345093,633.542480 1089.923706,630.463867 
	C1081.395752,626.926270 1081.059937,617.116760 1088.599609,612.248169 
	C1101.454834,603.947083 1118.601807,610.194275 1122.770508,624.655518 
	C1125.695068,624.655518 1128.596313,624.655518 1131.520874,624.655518 
	C1130.594482,614.788513 1127.163574,608.534424 1119.627808,604.865845 
	C1106.859863,598.649841 1093.946045,599.308716 1082.092285,606.900024 
	C1070.005371,614.640808 1071.213013,631.416199 1083.962524,637.901855 
	C1087.615601,639.760132 1091.679688,640.912781 1095.661255,642.000732 
	C1102.371216,643.834106 1109.250122,645.080078 1115.897461,647.101318 
	C1120.930542,648.631653 1124.781494,651.850647 1124.964722,657.725098 
	C1125.152710,663.755676 1121.423706,667.135193 1116.449585,669.465149 
	C1101.023071,676.691162 1086.077637,670.427002 1079.980225,654.224609 
	C1077.196655,654.224609 1074.413086,654.224609 1071.376709,654.224609 
	C1072.190918,664.946838 1076.738892,672.767944 1087.413940,677.220215 
M295.106506,796.620789 
	C287.899506,805.084534 285.463654,815.038269 286.103516,825.893494 
	C287.050446,841.958252 296.839020,854.430420 311.643768,858.585022 
	C327.419403,863.012085 344.106262,857.743835 352.736084,845.611755 
	C363.819916,830.029724 361.283142,805.460144 347.367889,793.618408 
	C332.787720,781.210938 309.875610,782.311951 295.106506,796.620789 
M894.135925,813.478088 
	C888.736816,786.526855 860.269531,779.733276 841.356750,788.747742 
	C824.162720,796.942932 816.703064,818.735962 824.346436,838.163025 
	C831.163208,855.489075 850.740295,864.158936 869.987793,858.375732 
	C888.334229,852.863281 897.944824,835.452698 894.135925,813.478088 
M416.546295,608.711487 
	C416.546295,631.656250 416.546295,654.601013 416.546295,677.714050 
	C419.852325,677.714050 422.736481,677.714050 425.979370,677.714050 
	C425.979370,676.281677 425.979309,675.148193 425.979370,674.014709 
	C425.980164,661.031189 425.820343,648.045166 426.024567,635.064819 
	C426.253510,620.513550 436.400055,610.901306 450.976227,611.040894 
	C464.298462,611.168518 470.146057,618.309814 470.155334,634.477844 
	C470.161438,645.130981 470.156433,655.784180 470.156433,666.437317 
	C470.156433,670.205139 470.156464,673.972900 470.156464,677.813599 
	C473.595795,677.813599 476.376129,677.813599 479.534760,677.813599 
	C479.534760,660.851746 480.121033,644.061096 479.363159,627.331238 
	C478.662140,611.857544 472.476654,605.602417 457.148376,603.466797 
	C445.492828,601.842896 433.911346,601.642517 426.960876,614.043884 
	C426.891144,614.168274 426.405151,614.059326 425.728760,614.059326 
	C425.728760,610.465515 425.728760,606.869141 425.728760,603.175537 
	C422.564728,603.175537 419.786346,603.175537 416.546783,603.175537 
	C416.546783,604.829529 416.546783,606.299866 416.546295,608.711487 
M909.295593,821.499939 
	C909.295593,834.256165 909.295593,847.012390 909.295593,859.793945 
	C912.767700,859.793945 915.547058,859.793945 918.848755,859.793945 
	C918.848755,857.968689 918.848633,856.345215 918.848816,854.721741 
	C918.850586,842.232361 918.739258,829.741577 918.888000,817.253967 
	C919.019043,806.251465 924.521362,798.190063 933.889099,794.695496 
	C950.414917,788.530640 962.843079,796.895325 963.007568,814.332581 
	C963.070374,820.992981 963.018250,827.654480 963.018311,834.315491 
	C963.018433,842.755005 963.018311,851.194519 963.018311,859.659058 
	C966.447021,859.659058 969.315002,859.659058 972.103210,859.659058 
	C972.103210,841.835754 972.542053,824.357910 971.953125,806.914856 
	C971.541748,794.727600 964.537292,787.767212 952.484802,785.947144 
	C947.906677,785.255737 943.219482,785.291687 938.583252,784.978577 
	C931.431641,784.495667 926.134766,787.775696 921.865784,793.171265 
	C921.119934,794.114014 920.335938,795.026672 918.771973,796.917603 
	C918.771973,792.230286 918.771973,788.826050 918.771973,785.299683 
	C915.436401,785.299683 912.552795,785.299683 909.295654,785.299683 
	C909.295654,797.242798 909.295654,808.871338 909.295593,821.499939 
M277.347076,606.001404 
	C262.358582,602.031067 247.382248,598.122803 235.913345,615.786072 
	C235.913345,610.435791 235.913345,606.841919 235.913345,603.268738 
	C232.791595,603.268738 230.043228,603.268738 227.217758,603.268738 
	C227.217758,628.251953 227.217758,652.956909 227.217758,677.765442 
	C230.272232,677.765442 233.022507,677.765442 236.199951,677.765442 
	C236.199951,675.906189 236.199890,674.284180 236.199951,672.662231 
	C236.200455,660.507202 236.106140,648.351196 236.228973,636.197449 
	C236.344971,624.719727 241.629013,616.519531 250.952225,612.859558 
	C267.572449,606.334961 280.183350,614.596680 280.539062,632.316528 
	C280.666016,638.641235 280.560608,644.970703 280.560791,651.297974 
	C280.561035,660.093994 280.560852,668.890015 280.560852,677.643555 
	C283.944885,677.643555 286.841034,677.643555 289.850586,677.643555 
	C289.850586,660.480530 290.084808,643.677124 289.754211,626.884888 
	C289.582581,618.167297 286.517456,610.557190 277.347076,606.001404 
M317.199982,608.318054 
	C317.199982,606.696106 317.199982,605.074219 317.199982,603.349487 
	C313.878662,603.349487 311.006134,603.349487 308.146362,603.349487 
	C308.146362,628.312744 308.146362,652.917419 308.146362,677.662598 
	C311.256378,677.662598 314.129303,677.662598 317.201202,677.662598 
	C317.201202,663.661804 317.117584,650.005310 317.226685,636.350403 
	C317.320374,624.625183 322.706909,616.350769 332.301575,612.725037 
	C348.811676,606.486023 361.145569,614.691589 361.542450,632.231323 
	C361.651733,637.062073 361.560638,641.897339 361.560760,646.730530 
	C361.561035,657.035645 361.560852,667.340820 361.560852,677.656372 
	C364.923767,677.656372 367.818359,677.656372 370.849854,677.656372 
	C370.849854,660.493652 371.259583,643.669067 370.723938,626.874634 
	C370.272034,612.705627 363.761841,605.906372 349.449921,603.691650 
	C337.432343,601.832031 325.574432,601.337036 318.281403,614.087952 
	C318.208405,614.215637 317.716766,614.103821 317.200043,614.103821 
	C317.200043,612.476074 317.200043,610.840271 317.199982,608.318054 
M121.157539,670.411072 
	C121.157539,672.847961 121.157539,675.284790 121.157539,677.755859 
	C124.554665,677.755859 127.310570,677.755859 130.121124,677.755859 
	C130.121124,643.307556 130.121124,609.119202 130.121124,574.867310 
	C127.034515,574.867310 124.282967,574.867310 121.157600,574.867310 
	C121.157600,606.594910 121.157600,638.015137 121.157539,670.411072 
M1057.080322,608.500000 
	C1057.080322,597.386536 1057.080322,586.273071 1057.080322,574.910400 
	C1053.855225,574.910400 1051.132324,574.910400 1048.249512,574.910400 
	C1048.249512,609.363342 1048.249512,643.543762 1048.249512,677.683228 
	C1051.325439,677.683228 1054.063477,677.683228 1057.080322,677.683228 
	C1057.080322,654.740051 1057.080322,632.120056 1057.080322,608.500000 
M625.157532,791.617615 
	C625.157532,814.238281 625.157532,836.859009 625.157532,859.662415 
	C628.463867,859.662415 631.312927,859.662415 634.245789,859.662415 
	C634.245789,834.693481 634.245789,810.077454 634.245789,785.353882 
	C631.167358,785.353882 628.302002,785.353882 625.157593,785.353882 
	C625.157593,787.361328 625.157593,789.008606 625.157532,791.617615 
M389.157562,639.500000 
	C389.157562,652.261902 389.157562,665.023865 389.157562,677.715942 
	C392.604736,677.715942 395.359222,677.715942 398.117493,677.715942 
	C398.117493,652.691772 398.117493,627.967957 398.117493,603.299500 
	C395.020203,603.299500 392.269867,603.299500 389.157593,603.299500 
	C389.157593,615.239868 389.157593,626.869934 389.157562,639.500000 
M806.949768,785.810669 
	C804.116943,785.456238 801.284119,785.101807 798.167725,784.711853 
	C798.167725,810.161194 798.167725,834.861084 798.167725,859.765015 
	C801.152832,859.765015 803.888611,859.765015 807.061584,859.765015 
	C807.061584,835.269287 807.061584,811.013062 806.949768,785.810669 
M634.463379,761.663696 
	C634.463379,759.892883 634.463379,758.122009 634.463379,756.369263 
	C631.074280,756.369263 628.325195,756.369263 625.493774,756.369263 
	C625.493774,761.391785 625.493774,766.105835 625.493774,770.780762 
	C628.592590,770.780762 631.343811,770.780762 634.463013,770.780762 
	C634.463013,767.858704 634.463013,765.223145 634.463379,761.663696 
M395.154114,574.559082 
	C393.232819,574.559082 391.311554,574.559082 389.418579,574.559082 
	C389.418579,579.753906 389.418579,584.182678 389.418579,588.834229 
	C392.439850,588.834229 395.201843,588.834229 398.435608,588.834229 
	C398.435608,584.759155 398.569275,580.794495 398.325073,576.853271 
	C398.275024,576.045532 396.810089,575.325378 395.154114,574.559082 
M806.225952,756.227478 
	C803.628601,756.227478 801.031189,756.227478 798.176514,756.227478 
	C798.176514,761.240967 798.176514,765.929199 798.176514,770.655212 
	C801.276428,770.655212 804.111328,770.655212 806.895081,770.655212 
	C806.895081,765.793274 806.895081,761.339111 806.225952,756.227478 
M340.507355,290.774719 
	C340.633179,290.682190 340.759033,290.589630 340.884857,290.497101 
	C340.774811,290.386444 340.670807,290.196350 340.553070,290.187439 
	C340.434662,290.178497 340.302612,290.349854 340.507355,290.774719 
z"/>
<path fill="#878A8A" opacity="1.000000" stroke="none" 
	d="
M410.491425,96.406891 
	C427.820374,86.284088 444.963196,86.063454 461.125061,97.399521 
	C477.036377,108.559776 483.948273,124.710464 481.389893,143.941086 
	C478.297913,167.182892 464.441254,181.187057 440.922638,186.645996 
	C440.922638,207.556763 440.922638,228.616257 440.922638,250.483261 
	C460.680206,244.974258 479.042206,236.688797 499.979218,238.540787 
	C499.979218,168.293152 499.979218,98.598114 499.979218,28.325787 
	C503.390015,28.325787 506.174774,28.325678 508.959503,28.325806 
	C525.789673,28.326578 542.622192,28.189077 559.447632,28.471865 
	C562.082764,28.516153 565.321167,29.816002 567.204346,31.644016 
	C584.061096,48.007099 600.624756,64.671707 617.417664,81.101540 
	C620.004822,83.632774 621.099487,86.115463 621.065857,89.783447 
	C620.655701,134.600739 620.419312,179.419617 620.140381,224.238098 
	C620.128052,226.221207 620.138855,228.204453 620.138855,230.816528 
	C633.298706,230.816528 646.181213,230.816528 659.674072,230.816528 
	C659.674072,233.228943 659.673462,235.012009 659.674194,236.795074 
	C659.679565,249.292694 659.652283,261.790497 659.720032,274.287781 
	C659.732727,276.625183 659.802429,279.257538 663.299316,279.047180 
	C666.254761,278.869385 670.048340,280.118805 670.470764,275.193054 
	C670.641052,273.207275 670.885986,271.220978 670.921997,269.231750 
	C671.377075,244.078705 671.842529,218.925690 672.209656,193.771286 
	C672.345581,184.455276 672.231628,175.135605 672.231628,165.411591 
	C698.551086,165.411591 723.907288,165.411591 749.674072,165.411591 
	C749.674072,170.128708 749.674072,174.743240 749.674072,179.357788 
	C749.674072,238.013519 749.607300,296.669464 749.800781,355.324554 
	C749.816223,360.014587 748.255798,361.883759 744.075439,363.510376 
	C717.738220,373.758331 690.836548,381.789490 662.520569,383.787231 
	C624.385742,386.477692 588.529358,378.472382 556.079285,358.050171 
	C540.184448,348.046844 525.330750,336.385254 510.043365,325.421753 
	C487.368835,309.160522 463.957397,294.396729 437.081268,285.725067 
	C407.711212,276.248718 378.780884,277.454254 349.936920,287.587250 
	C347.465302,288.455536 345.000336,289.342682 342.532288,290.221069 
	C342.325653,289.862183 342.119019,289.503296 341.912384,289.144379 
	C343.275879,288.313965 344.592773,287.392639 346.009796,286.666718 
	C367.289490,275.765686 389.914917,268.352631 412.574371,261.029755 
	C417.634766,259.394409 422.650696,257.598206 427.772644,256.186493 
	C430.344849,255.477554 431.196808,254.237366 431.178986,251.633423 
	C431.045410,232.138214 431.040497,212.642151 430.971588,193.146439 
	C430.956940,188.997803 429.853729,186.427490 424.902771,185.171143 
	C404.957642,180.109940 392.892487,166.656326 389.523712,146.759018 
	C386.056702,126.281403 392.637665,108.933441 410.491425,96.406891 
z"/>
<path fill="#037F82" opacity="1.000000" stroke="none" 
	d="
M326.939270,398.950348 
	C284.722107,383.852203 242.699005,384.056885 200.587051,397.513214 
	C187.118958,401.816772 173.794907,406.570374 160.393600,411.084351 
	C157.846191,411.942383 155.245270,412.641571 152.513626,412.917542 
	C184.196548,386.076782 218.858917,365.691162 260.774597,359.897491 
	C292.723755,355.481415 323.686707,360.081207 353.670685,370.582275 
	C375.143951,378.102753 396.014038,387.431122 416.882111,396.571747 
	C441.902405,407.531097 466.816681,418.590179 493.521057,425.043854 
	C531.067261,434.117676 568.778381,434.097687 606.588318,427.455597 
	C623.289856,424.521606 639.845703,420.759125 656.472290,417.395355 
	C658.079102,417.070312 659.718384,416.905457 662.638855,416.475189 
	C660.862976,418.132874 660.105042,419.117859 659.115234,419.724487 
	C615.030762,446.739075 567.351501,462.153259 515.464722,462.703247 
	C485.075897,463.025360 456.021179,455.540588 428.287598,443.472748 
	C407.994751,434.642639 388.268616,424.517029 368.054138,415.497192 
	C354.691711,409.534851 340.911682,404.508240 326.939270,398.950348 
z"/>
<path fill="#7AC1B6" opacity="1.000000" stroke="none" 
	d="
M484.112976,485.868103 
	C494.662506,488.081207 505.256439,490.103210 515.753296,492.542938 
	C548.515076,500.157501 581.663452,503.947113 615.273132,501.861664 
	C646.474792,499.925629 676.195251,491.595123 704.745667,479.058899 
	C729.580200,468.154236 754.028564,456.308105 779.180847,446.205597 
	C806.499634,435.232819 834.998718,428.472931 864.745728,429.094116 
	C888.477600,429.589661 911.153137,435.183929 932.938599,444.469269 
	C957.453613,454.917999 979.584412,469.411774 1001.135803,484.872375 
	C1001.656555,485.245941 1002.087646,485.744659 1002.206421,487.049835 
	C999.602661,486.084198 996.994568,485.129944 994.396179,484.149811 
	C991.593140,483.092468 988.790466,482.032867 986.002625,480.936401 
	C962.431763,471.665741 938.520081,463.619385 913.360168,459.735718 
	C892.066956,456.448914 870.913940,457.046448 849.881775,461.504120 
	C823.670959,467.059357 798.966797,476.917908 774.920654,488.481415 
	C749.411438,500.748505 723.939758,513.022156 696.853943,521.612854 
	C670.266785,530.045410 643.167358,534.740112 615.277161,532.695007 
	C586.848022,530.610413 559.437561,523.515747 533.453918,511.957642 
	C516.626343,504.472321 500.604889,495.174866 484.123474,486.329437 
	C484.024719,485.969513 484.112976,485.868103 484.112976,485.868103 
z"/>
<path fill="#7BC1B6" opacity="1.000000" stroke="none" 
	d="
M341.513855,320.355286 
	C318.793335,318.670074 297.004425,322.695801 274.761139,325.082092 
	C281.652557,321.798584 288.494324,318.405579 295.445007,315.252655 
	C314.294220,306.702301 334.118225,301.714020 354.772217,301.302460 
	C377.711761,300.845367 399.545990,306.300629 420.483398,315.722473 
	C444.540527,326.548187 465.686829,341.864136 486.406342,357.832886 
	C510.181091,376.156281 535.998169,390.196228 565.610596,396.387726 
	C597.071045,402.965698 628.852661,404.790161 660.891541,402.229828 
	C662.870605,402.071655 664.873230,402.209290 667.150146,402.898285 
	C662.160339,404.486389 657.239624,406.351013 652.169373,407.616669 
	C624.022156,414.643097 595.599365,419.550262 566.419556,419.165894 
	C541.858948,418.842346 518.684570,412.646973 498.068451,399.904907 
	C475.317169,385.843170 453.901306,369.621887 431.892273,354.357788 
	C407.633820,337.533508 381.394073,325.470093 351.916840,321.275513 
	C348.628693,320.807587 345.287659,320.711456 341.513855,320.355286 
z"/>
<path fill="#048083" opacity="1.000000" stroke="none" 
	d="
M831.175842,389.714539 
	C802.175903,385.467560 775.496826,391.603638 749.980347,404.273315 
	C727.905090,415.234375 708.348816,429.989197 689.057678,445.056854 
	C658.194153,469.163361 623.489807,484.159149 584.903015,490.407776 
	C565.455933,493.557007 546.384399,491.140350 527.515137,486.455719 
	C515.731323,483.530182 504.062531,480.138458 492.361176,476.887390 
	C490.670868,476.417755 489.087494,475.563324 487.582336,474.038239 
	C491.281372,473.817932 494.977875,473.532593 498.679871,473.388306 
	C517.811279,472.642700 536.980225,472.445587 556.068726,471.100922 
	C592.276062,468.550354 624.302734,454.634827 653.872131,434.105652 
	C673.686462,420.349182 693.306458,406.131470 714.135010,394.054443 
	C760.064148,367.423309 807.807373,365.357452 856.393127,387.130554 
	C864.236633,390.645538 872.021301,394.291809 879.833130,397.877411 
	C879.710388,398.303131 879.587708,398.728882 879.464966,399.154602 
	C863.515869,396.030426 847.566833,392.906250 831.175842,389.714539 
z"/>
<path fill="#0B8486" opacity="1.000000" stroke="none" 
	d="
M547.982117,788.920654 
	C551.081909,792.084290 553.851074,795.086487 556.688599,798.162720 
	C564.186523,786.518555 575.527893,783.284973 589.114258,785.948059 
	C598.271667,787.742920 605.303284,793.584778 605.698853,802.821960 
	C606.508301,821.721741 605.941589,840.680420 605.941589,859.818604 
	C603.376038,859.818604 600.592407,859.818604 597.149597,859.818604 
	C597.149597,857.964722 597.149658,856.194214 597.149597,854.423706 
	C597.149353,840.090881 597.190308,825.757874 597.135620,811.425293 
	C597.093689,800.425476 593.503357,795.461304 584.384338,793.507568 
	C573.658447,791.209534 564.078613,795.066223 560.490234,804.060486 
	C558.690186,808.572144 557.976501,813.739807 557.826416,818.643066 
	C557.459473,830.631409 557.706421,842.638611 557.706299,854.638184 
	C557.706299,856.271179 557.706299,857.904175 557.706299,859.769226 
	C554.456543,859.769226 551.681702,859.769226 548.149597,859.769226 
	C548.149597,858.049011 548.149719,856.296814 548.149658,854.544617 
	C548.149231,840.378418 548.193665,826.212097 548.134155,812.046143 
	C548.086792,800.767578 544.529907,795.364868 536.075623,793.412476 
	C526.491272,791.199097 515.712158,795.480774 512.069641,804.264099 
	C509.782562,809.779236 508.862061,816.134644 508.616394,822.165527 
	C508.109222,834.617554 508.463684,847.104736 508.463684,859.796265 
	C505.252228,859.796265 502.475128,859.796265 499.356354,859.796265 
	C499.356354,835.039612 499.356354,810.312683 499.356354,785.282104 
	C501.958282,785.282104 504.550995,785.282104 507.693848,785.282104 
	C507.693848,788.921448 507.693848,792.637390 507.693848,797.959717 
	C512.944397,790.477295 518.766846,786.776733 526.413818,785.636047 
	C533.919006,784.516418 540.972839,784.975098 547.982117,788.920654 
z"/>
<path fill="#068184" opacity="1.000000" stroke="none" 
	d="
M554.462891,697.479431 
	C541.872070,707.979309 518.885254,708.799744 506.082367,699.353943 
	C500.792694,695.451294 497.053131,690.536499 496.789917,683.287109 
	C499.660370,683.287109 502.417511,683.287109 505.265228,683.287109 
	C512.660950,696.568542 524.447083,701.163940 539.430542,696.489929 
	C550.945190,692.898010 555.596558,682.020935 553.527954,663.521729 
	C553.239441,663.552917 552.786377,663.478882 552.686096,663.633484 
	C544.075928,676.912659 531.067932,679.144592 517.147400,675.578003 
	C504.009155,672.211853 495.735809,661.771606 494.114410,646.717712 
	C493.269928,638.876770 493.595551,631.120117 496.774963,623.650024 
	C504.555969,605.368530 527.002869,597.284363 544.470276,606.841553 
	C547.827148,608.678284 550.541809,611.688721 553.767700,614.334045 
	C553.767700,610.812866 553.767700,607.245239 553.767700,603.335327 
	C557.007019,603.335327 559.881348,603.335327 563.202698,603.335327 
	C563.202698,608.084351 563.202759,612.709045 563.202698,617.333679 
	C563.202332,635.664551 563.261536,653.995728 563.176758,672.326172 
	C563.134155,681.528015 561.370178,690.231323 554.462891,697.479431 
M524.990540,668.916443 
	C538.565369,669.254333 547.078857,664.462769 551.395630,653.659119 
	C555.447571,643.518127 554.939209,633.342712 549.993225,623.684875 
	C542.639893,609.326416 522.774353,606.290161 511.392120,617.906311 
	C502.501129,626.979980 501.520447,638.360352 504.315979,650.077148 
	C506.781616,660.411316 513.657410,666.662170 524.990540,668.916443 
z"/>
<path fill="#058083" opacity="1.000000" stroke="none" 
	d="
M477.714722,795.458618 
	C478.952240,799.777588 480.820282,803.756775 480.898834,807.771057 
	C481.234467,824.922180 481.041779,842.083740 481.041779,859.624512 
	C478.052185,859.624512 475.184204,859.624512 471.800598,859.624512 
	C471.800598,849.644165 471.800629,839.698120 471.800598,829.752014 
	C471.800568,823.919312 471.763855,818.086304 471.807648,812.253967 
	C471.916077,797.818542 465.010010,790.804932 447.880493,793.666687 
	C439.252441,795.107971 434.734772,801.172485 433.168243,809.319641 
	C432.295746,813.857300 432.178802,818.582397 432.126465,823.227539 
	C431.991211,835.221741 432.081177,847.218506 432.081177,859.610962 
	C429.081329,859.610962 426.213898,859.610962 422.800598,859.610962 
	C422.800598,852.176147 422.800720,844.733093 422.800537,837.290039 
	C422.800354,828.790955 422.877045,820.291016 422.779388,811.793091 
	C422.665283,801.860413 419.438904,796.257751 412.773071,794.015686 
	C404.365936,791.187988 394.041260,793.980896 388.703003,800.570984 
	C384.392700,805.892090 383.102081,812.226074 383.026947,818.824524 
	C382.894104,830.488342 382.975464,842.154724 382.967590,853.820007 
	C382.966370,855.637024 382.967407,857.453979 382.967407,859.638855 
	C379.846771,859.638855 376.948730,859.638855 373.803040,859.638855 
	C373.803040,834.911377 373.803040,810.142578 373.803040,785.234253 
	C376.609314,785.234253 379.197632,785.234253 382.084351,785.234253 
	C382.084351,789.076111 382.084351,792.683472 382.084351,796.290771 
	C388.695862,788.004639 397.452576,785.005981 407.425018,785.085693 
	C417.565613,785.166687 426.096771,788.334534 430.589966,799.159241 
	C437.152771,788.274475 447.016754,784.283386 458.908844,785.195068 
	C466.403870,785.769714 473.296387,788.124207 477.714722,795.458618 
z"/>
<path fill="#068184" opacity="1.000000" stroke="none" 
	d="
M681.648560,607.257935 
	C691.264038,630.852966 700.716614,654.101196 710.156433,677.318115 
	C709.528625,677.662720 709.269226,677.924805 708.999451,677.935852 
	C699.542847,678.322876 699.576904,678.305847 696.002625,669.381531 
	C693.280090,662.583801 690.570068,655.775696 687.580933,649.094604 
	C686.992981,647.780334 685.166077,646.160889 683.891418,646.144226 
	C668.409363,645.941467 652.923767,646.012634 637.255798,646.012634 
	C633.932312,654.192383 630.661682,662.188416 627.433533,670.201599 
	C623.873779,679.037903 623.890747,679.044739 613.597534,677.443970 
	C617.348694,668.476624 621.049194,659.607422 624.767639,650.745789 
	C634.814148,626.803101 645.088196,602.951660 654.738770,578.850525 
	C656.732788,573.870667 659.880920,574.881592 663.376099,574.503357 
	C667.180481,574.091675 668.935242,575.606079 670.259705,579.140259 
	C673.762451,588.486877 677.713196,597.665588 681.648560,607.257935 
M648.428406,617.962158 
	C645.846680,624.488281 643.264954,631.014404 640.631897,637.670410 
	C655.044922,637.670410 668.717224,637.670410 682.824158,637.670410 
	C675.970886,620.026306 669.286011,602.815735 662.552795,585.480774 
	C661.769226,585.998718 661.376038,586.109924 661.281555,586.342468 
	C657.093079,596.646301 652.931030,606.960876 648.428406,617.962158 
z"/>
<path fill="#078285" opacity="1.000000" stroke="none" 
	d="
M183.480469,789.534851 
	C195.048950,753.453247 237.108337,749.633545 258.837311,764.062805 
	C267.569458,769.861450 273.027222,777.897034 274.601379,788.864502 
	C271.215240,788.864502 268.009644,788.864502 264.800476,788.858521 
	C257.250641,770.402588 243.967361,762.023376 226.264801,764.546143 
	C205.744385,767.470459 193.290787,780.644348 191.134537,801.849915 
	C190.158051,811.453247 191.215637,820.815979 195.198700,829.704651 
	C202.188995,845.304260 217.609131,853.752075 235.600693,851.905334 
	C250.451202,850.380981 261.497253,839.689880 265.376282,823.090698 
	C265.673645,821.818359 265.991913,820.550842 266.322418,819.190735 
	C269.538849,819.190735 272.638611,819.190735 276.224365,819.190735 
	C274.249268,833.445190 268.963287,845.351196 256.731903,853.272827 
	C236.648117,866.280151 194.138412,862.960022 183.198349,825.869141 
	C179.670319,813.907776 179.846069,801.879272 183.480469,789.534851 
z"/>
<path fill="#0B8486" opacity="1.000000" stroke="none" 
	d="
M763.099365,677.214600 
	C748.656982,680.110779 737.994873,675.828735 728.061096,662.978210 
	C728.061096,677.418701 728.061096,691.267700 728.061096,705.523193 
	C724.724365,705.523193 721.839905,705.523193 718.620361,705.523193 
	C718.620361,671.555359 718.620361,637.504028 718.620361,603.216003 
	C721.376953,603.216003 723.960876,603.216003 727.054199,603.216003 
	C727.054199,607.383484 727.054199,611.429138 727.054199,616.811157 
	C735.834778,603.759460 747.970947,601.760376 760.715515,603.552979 
	C780.266296,606.302856 790.945923,620.887878 790.159119,642.119263 
	C789.453613,661.158264 779.789124,673.862427 763.099365,677.214600 
M773.152588,662.628174 
	C780.646790,653.799622 782.026245,643.553528 779.976135,632.584656 
	C777.313782,618.340088 767.290894,610.487732 752.694458,611.069275 
	C738.715515,611.626221 729.719788,620.136047 728.222839,634.464111 
	C727.861633,637.921143 727.766785,641.477478 728.134033,644.925842 
	C729.266724,655.561584 733.731384,664.234558 744.340881,668.092896 
	C754.548950,671.805359 764.293152,670.979187 773.152588,662.628174 
z"/>
<path fill="#048083" opacity="1.000000" stroke="none" 
	d="
M107.071640,598.016846 
	C109.247398,619.828247 97.476143,632.907837 75.941093,632.996216 
	C63.475952,633.047363 51.010429,633.005493 37.964252,633.005493 
	C37.964252,640.796631 37.964252,648.232483 37.964252,655.668335 
	C37.964252,662.955444 37.964252,670.242554 37.964252,677.763306 
	C34.560699,677.763306 31.615999,677.763306 28.312162,677.763306 
	C28.312162,643.613647 28.312162,609.384460 28.312162,574.577332 
	C33.686497,574.577332 39.140232,574.552185 44.593655,574.582520 
	C56.254982,574.647278 67.919830,574.585388 79.576454,574.861572 
	C94.289299,575.210327 103.790031,583.218445 107.071640,598.016846 
M71.320290,582.053162 
	C60.253796,582.053162 49.187302,582.053162 38.228989,582.053162 
	C38.228989,596.757202 38.228989,610.672058 38.228989,624.894409 
	C51.600632,624.894409 64.739738,625.465332 77.805229,624.729309 
	C90.174866,624.032532 97.062958,616.143311 97.318497,604.364441 
	C97.586357,592.017273 91.631462,584.914917 79.191673,582.839172 
	C76.904160,582.457458 74.577393,582.311035 71.320290,582.053162 
z"/>
<path fill="#068184" opacity="1.000000" stroke="none" 
	d="
M816.546326,665.353027 
	C815.893372,664.471130 815.443970,663.893677 814.322510,662.452637 
	C814.322510,677.433228 814.322510,691.331055 814.322510,705.574219 
	C811.206421,705.574219 808.461731,705.574219 805.311951,705.574219 
	C805.311951,671.677124 805.311951,637.651855 805.311951,603.306885 
	C807.794312,603.306885 810.381470,603.306885 813.521240,603.306885 
	C813.521240,607.268433 813.521240,611.322571 813.521240,616.985657 
	C822.176086,603.781799 834.235657,601.952576 846.741577,603.472473 
	C865.358826,605.735046 875.662476,618.441895 876.726440,638.648193 
	C877.692322,656.991943 868.690369,671.533813 853.387207,676.350830 
	C839.075989,680.855530 825.096802,676.775452 816.546326,665.353027 
M814.841675,633.626892 
	C814.884399,638.262451 814.442627,642.963806 815.062073,647.520996 
	C816.820129,660.453491 826.356140,669.301086 838.645691,669.959045 
	C853.147644,670.735352 862.914001,663.899475 866.008728,650.014343 
	C867.108765,645.078918 867.347351,639.724243 866.794556,634.691040 
	C865.248901,620.617859 855.559143,611.362732 842.875427,611.043762 
	C826.886780,610.641602 817.834290,617.683350 814.841675,633.626892 
z"/>
<path fill="#098285" opacity="1.000000" stroke="none" 
	d="
M969.488037,619.519043 
	C973.156860,608.044495 982.025757,601.795715 996.109924,601.147949 
	C1001.213074,600.913269 1006.465942,601.272156 1011.477478,602.248291 
	C1022.467468,604.388977 1028.569092,612.576660 1028.674683,624.720886 
	C1028.781860,637.046265 1028.691895,649.373230 1028.701294,661.699524 
	C1028.707153,669.452759 1029.197388,669.965515 1036.979858,670.282104 
	C1036.979858,672.513000 1036.979858,674.757568 1036.979858,676.959839 
	C1026.840088,680.201172 1021.954651,677.166260 1019.384949,665.713745 
	C1018.462219,666.766357 1017.666687,667.526306 1017.042603,668.407654 
	C1006.896912,682.734192 986.764282,681.874634 976.348450,676.833008 
	C968.481506,673.025024 965.153015,666.320801 965.149658,657.747803 
	C965.146301,649.339600 968.913757,642.925354 976.667847,640.172546 
	C983.779663,637.647644 991.425659,636.586487 998.875977,635.075928 
	C1001.957397,634.451172 1005.146179,634.368042 1008.278992,633.981445 
	C1012.790588,633.424744 1017.455444,633.008301 1018.871338,627.473083 
	C1020.420105,621.417969 1018.089050,615.085632 1013.306030,612.051514 
	C999.686768,603.412048 981.234009,610.438721 977.419800,625.842041 
	C974.670044,625.842041 971.886475,625.842041 968.568787,625.842041 
	C968.852112,623.703857 969.105042,621.794373 969.488037,619.519043 
M1001.981445,641.385498 
	C995.556580,642.881348 989.015869,644.010803 982.745178,645.994141 
	C978.096741,647.464417 974.920776,650.810486 974.675659,656.259033 
	C974.416931,662.009644 976.619873,666.738831 981.641418,669.012634 
	C985.696960,670.848999 990.514160,671.890198 994.963562,671.800537 
	C1007.461853,671.548584 1017.888489,662.731934 1018.929077,652.000732 
	C1019.373718,647.415161 1019.003418,642.750610 1019.003418,638.425903 
	C1013.519226,639.368896 1008.181641,640.286743 1001.981445,641.385498 
z"/>
<path fill="#078184" opacity="1.000000" stroke="none" 
	d="
M162.736603,613.665283 
	C160.405426,617.585266 158.354385,621.255859 155.868652,625.704346 
	C154.240051,625.704346 151.347961,625.704346 148.118744,625.704346 
	C148.624725,616.870422 151.740326,609.702881 159.761642,605.574219 
	C171.169418,599.702576 183.161789,599.328857 195.041336,603.617004 
	C204.027893,606.860840 207.978745,614.196106 208.057602,623.554810 
	C208.162811,636.043701 208.083557,648.534119 208.086502,661.023926 
	C208.088470,669.381653 208.294373,669.614075 217.933945,670.668701 
	C216.601334,673.345093 215.966614,677.024231 214.257217,677.620056 
	C208.160431,679.745178 201.643417,676.580933 200.238541,671.640442 
	C199.749466,669.920532 199.616730,668.099304 199.215866,665.691284 
	C198.282135,666.539062 197.636841,666.934265 197.249542,667.504578 
	C187.745911,681.498962 170.318695,682.025452 158.266144,677.870544 
	C149.638077,674.896057 144.951874,668.040527 144.799149,658.878235 
	C144.634323,648.989624 148.081802,642.455444 157.441849,639.683105 
	C167.063812,636.833069 177.189178,635.526978 187.174164,634.107300 
	C195.188522,632.967896 198.034698,631.317993 198.728851,625.635498 
	C199.579483,618.672363 196.336029,612.626526 189.818954,610.652283 
	C180.618637,607.865051 171.460327,607.766663 162.736603,613.665283 
M197.920532,655.036133 
	C198.328644,649.312317 198.736755,643.588440 199.143936,637.877747 
	C195.443756,638.742065 192.434540,639.535034 189.387894,640.139282 
	C180.940735,641.814636 172.334167,642.894287 164.064453,645.194031 
	C156.736191,647.231934 153.881088,651.676758 154.083069,657.756836 
	C154.285675,663.855286 158.553101,668.976807 165.134750,671.020447 
	C178.046234,675.029602 192.183563,668.430237 197.920532,655.036133 
z"/>
<path fill="#068184" opacity="1.000000" stroke="none" 
	d="
M891.240967,622.313110 
	C899.576233,606.227844 915.751709,599.426270 933.154968,604.405701 
	C948.452637,608.782776 958.140564,624.439514 956.581909,642.860596 
	C936.904480,642.860596 917.172668,642.860596 897.503174,642.860596 
	C896.226929,654.627808 904.024658,666.277588 915.068604,668.972656 
	C927.092651,671.906860 940.578430,670.275635 947.485046,651.123291 
	C950.248230,651.123291 953.045532,651.123291 955.855347,651.123291 
	C954.782654,665.703979 941.937561,677.166199 925.963379,677.968994 
	C897.351257,679.406921 880.507080,655.775879 889.559998,626.882263 
	C890.007080,625.455383 890.576172,624.066833 891.240967,622.313110 
M908.526611,634.993774 
	C921.391296,634.993774 934.255981,634.993774 947.137024,634.993774 
	C946.530579,620.258606 935.818298,610.622742 921.336426,611.048950 
	C908.300171,611.432617 897.184570,622.527649 897.600769,634.993774 
	C900.906433,634.993774 904.222351,634.993774 908.526611,634.993774 
z"/>
<path fill="#078284" opacity="1.000000" stroke="none" 
	d="
M759.328552,861.517334 
	C752.155518,861.075867 745.178162,861.429688 738.722961,859.762085 
	C727.564392,856.879395 721.584717,848.218445 721.042053,836.259460 
	C723.829468,836.259460 726.609680,836.259460 729.420715,836.259460 
	C735.883240,852.373657 748.703735,858.163879 764.530945,852.062195 
	C771.147827,849.511169 774.683960,845.203735 774.436279,839.761536 
	C774.146667,833.396912 769.888306,830.331726 764.454956,828.776306 
	C758.086853,826.953186 751.546326,825.738647 745.153137,823.994019 
	C741.169678,822.907043 737.097839,821.761475 733.451355,819.890564 
	C720.709045,813.353088 719.532959,796.600647 731.625732,788.884705 
	C743.499634,781.308350 756.435059,780.617859 769.185059,786.893250 
	C777.018860,790.748840 780.505798,797.774048 781.133240,806.699585 
	C778.134033,806.699585 775.367004,806.699585 772.527649,806.699585 
	C766.762512,792.616943 757.889526,788.105896 743.383789,792.011292 
	C737.002319,793.729370 733.316101,797.473816 732.958679,802.601074 
	C732.602966,807.703552 735.209595,811.593384 741.827576,813.717224 
	C748.752869,815.939636 755.915833,817.516968 763.062988,818.931396 
	C775.824402,821.457031 783.608887,828.730835 783.933655,838.943604 
	C784.262390,849.281494 777.189636,857.204956 764.649963,860.480957 
	C763.048706,860.899292 761.390869,861.100891 759.328552,861.517334 
z"/>
<path fill="#078184" opacity="1.000000" stroke="none" 
	d="
M680.943665,862.011719 
	C676.050964,861.401489 671.512573,861.229187 667.228088,860.096741 
	C655.305298,856.945312 649.414612,848.675110 648.332642,836.301697 
	C651.344666,836.301697 654.256958,836.301697 657.157166,836.301697 
	C662.144775,852.825867 681.116089,859.603210 695.848694,850.184509 
	C699.755798,847.686646 702.245117,844.353271 701.966064,839.499329 
	C701.684875,834.609802 698.894592,831.247681 694.491150,829.854187 
	C687.404358,827.611389 680.095642,826.080200 672.938843,824.044128 
	C668.808533,822.869019 664.551941,821.759644 660.768921,819.811401 
	C648.316284,813.398682 647.066040,796.742249 658.854492,789.071106 
	C670.988098,781.175415 684.254333,780.493530 697.241882,787.188354 
	C704.753601,791.060608 708.108765,798.028198 708.579468,806.726440 
	C705.608521,806.726440 702.830261,806.726440 699.991943,806.726440 
	C694.418701,792.731079 684.799622,787.934814 670.421631,792.094971 
	C664.260254,793.877625 660.583374,797.877686 660.352417,803.049194 
	C660.146179,807.669495 662.999756,811.706604 669.286804,813.688538 
	C676.375793,815.923157 683.696350,817.497009 690.992065,818.986572 
	C705.001892,821.846863 712.507507,830.426025 711.149414,842.354980 
	C710.384033,849.078186 706.725220,854.263123 700.898682,856.752075 
	C694.772705,859.368896 687.938599,860.328003 680.943665,862.011719 
z"/>
<path fill="#078184" opacity="1.000000" stroke="none" 
	d="
M1087.045166,677.105225 
	C1076.738892,672.767944 1072.190918,664.946838 1071.376709,654.224609 
	C1074.413086,654.224609 1077.196655,654.224609 1079.981567,654.222778 
	C1086.077637,670.427002 1101.023071,676.691162 1116.449585,669.465149 
	C1121.423706,667.135193 1125.152710,663.755676 1124.964722,657.725098 
	C1124.781494,651.850647 1120.930542,648.631653 1115.897461,647.101318 
	C1109.250122,645.080078 1102.371216,643.834106 1095.661255,642.000732 
	C1091.679688,640.912781 1087.615601,639.760132 1083.962524,637.901855 
	C1071.213013,631.416199 1070.005371,614.640808 1082.092285,606.900024 
	C1093.946045,599.308716 1106.859863,598.649841 1119.627808,604.865845 
	C1127.163574,608.534424 1130.594482,614.788513 1131.520874,624.655518 
	C1128.596313,624.655518 1125.695068,624.655518 1122.770508,624.655518 
	C1118.601807,610.194275 1101.454834,603.947083 1088.599609,612.248169 
	C1081.059937,617.116760 1081.395752,626.926270 1089.923706,630.463867 
	C1097.345093,633.542480 1105.504028,634.830017 1113.313599,636.993286 
	C1116.495483,637.874695 1119.785278,638.627991 1122.729370,640.052612 
	C1129.227417,643.196899 1133.567261,647.972046 1134.119995,655.737915 
	C1134.734009,664.362610 1131.372559,670.843323 1124.027466,674.844299 
	C1112.302002,681.231323 1099.960327,681.682800 1087.045166,677.105225 
z"/>
<path fill="#088285" opacity="1.000000" stroke="none" 
	d="
M295.350403,796.363525 
	C309.875610,782.311951 332.787720,781.210938 347.367889,793.618408 
	C361.283142,805.460144 363.819916,830.029724 352.736084,845.611755 
	C344.106262,857.743835 327.419403,863.012085 311.643768,858.585022 
	C296.839020,854.430420 287.050446,841.958252 286.103516,825.893494 
	C285.463654,815.038269 287.899506,805.084534 295.350403,796.363525 
M299.204315,806.922363 
	C295.626312,813.827942 294.739349,821.130249 295.992615,828.746216 
	C298.758423,845.553589 313.760925,855.332947 330.233917,851.068298 
	C343.607910,847.605957 351.778168,833.976379 349.933533,818.205688 
	C348.471405,805.705322 340.556091,796.449158 329.038269,793.770874 
	C317.028320,790.978027 306.513428,795.443176 299.204315,806.922363 
z"/>
<path fill="#078284" opacity="1.000000" stroke="none" 
	d="
M894.219604,813.901794 
	C897.944824,835.452698 888.334229,852.863281 869.987793,858.375732 
	C850.740295,864.158936 831.163208,855.489075 824.346436,838.163025 
	C816.703064,818.735962 824.162720,796.942932 841.356750,788.747742 
	C860.269531,779.733276 888.736816,786.526855 894.219604,813.901794 
M841.299438,846.269104 
	C850.223816,852.959412 859.998413,854.044006 869.976379,849.516541 
	C880.652161,844.672546 884.818970,835.217896 885.724792,824.115784 
	C886.906738,809.629150 877.873352,796.860046 864.468567,793.768066 
	C851.056030,790.674377 838.076477,797.127686 833.371582,809.957764 
	C828.505798,823.226379 830.299011,835.503540 841.299438,846.269104 
z"/>
<path fill="#098285" opacity="1.000000" stroke="none" 
	d="
M416.546539,608.240845 
	C416.546783,606.299866 416.546783,604.829529 416.546783,603.175537 
	C419.786346,603.175537 422.564728,603.175537 425.728760,603.175537 
	C425.728760,606.869141 425.728760,610.465515 425.728760,614.059326 
	C426.405151,614.059326 426.891144,614.168274 426.960876,614.043884 
	C433.911346,601.642517 445.492828,601.842896 457.148376,603.466797 
	C472.476654,605.602417 478.662140,611.857544 479.363159,627.331238 
	C480.121033,644.061096 479.534760,660.851746 479.534760,677.813599 
	C476.376129,677.813599 473.595795,677.813599 470.156464,677.813599 
	C470.156464,673.972900 470.156433,670.205139 470.156433,666.437317 
	C470.156433,655.784180 470.161438,645.130981 470.155334,634.477844 
	C470.146057,618.309814 464.298462,611.168518 450.976227,611.040894 
	C436.400055,610.901306 426.253510,620.513550 426.024567,635.064819 
	C425.820343,648.045166 425.980164,661.031189 425.979370,674.014709 
	C425.979309,675.148193 425.979370,676.281677 425.979370,677.714050 
	C422.736481,677.714050 419.852325,677.714050 416.546295,677.714050 
	C416.546295,654.601013 416.546295,631.656250 416.546539,608.240845 
z"/>
<path fill="#0A8386" opacity="1.000000" stroke="none" 
	d="
M909.295654,820.999878 
	C909.295654,808.871338 909.295654,797.242798 909.295654,785.299683 
	C912.552795,785.299683 915.436401,785.299683 918.771973,785.299683 
	C918.771973,788.826050 918.771973,792.230286 918.771973,796.917603 
	C920.335938,795.026672 921.119934,794.114014 921.865784,793.171265 
	C926.134766,787.775696 931.431641,784.495667 938.583252,784.978577 
	C943.219482,785.291687 947.906677,785.255737 952.484802,785.947144 
	C964.537292,787.767212 971.541748,794.727600 971.953125,806.914856 
	C972.542053,824.357910 972.103210,841.835754 972.103210,859.659058 
	C969.315002,859.659058 966.447021,859.659058 963.018311,859.659058 
	C963.018311,851.194519 963.018433,842.755005 963.018311,834.315491 
	C963.018250,827.654480 963.070374,820.992981 963.007568,814.332581 
	C962.843079,796.895325 950.414917,788.530640 933.889099,794.695496 
	C924.521362,798.190063 919.019043,806.251465 918.888000,817.253967 
	C918.739258,829.741577 918.850586,842.232361 918.848816,854.721741 
	C918.848633,856.345215 918.848755,857.968689 918.848755,859.793945 
	C915.547058,859.793945 912.767700,859.793945 909.295593,859.793945 
	C909.295593,847.012390 909.295593,834.256165 909.295654,820.999878 
z"/>
<path fill="#058183" opacity="1.000000" stroke="none" 
	d="
M277.692444,606.153442 
	C286.517456,610.557190 289.582581,618.167297 289.754211,626.884888 
	C290.084808,643.677124 289.850586,660.480530 289.850586,677.643555 
	C286.841034,677.643555 283.944885,677.643555 280.560852,677.643555 
	C280.560852,668.890015 280.561035,660.093994 280.560791,651.297974 
	C280.560608,644.970703 280.666016,638.641235 280.539062,632.316528 
	C280.183350,614.596680 267.572449,606.334961 250.952225,612.859558 
	C241.629013,616.519531 236.344971,624.719727 236.228973,636.197449 
	C236.106140,648.351196 236.200455,660.507202 236.199951,672.662231 
	C236.199890,674.284180 236.199951,675.906189 236.199951,677.765442 
	C233.022507,677.765442 230.272232,677.765442 227.217758,677.765442 
	C227.217758,652.956909 227.217758,628.251953 227.217758,603.268738 
	C230.043228,603.268738 232.791595,603.268738 235.913345,603.268738 
	C235.913345,606.841919 235.913345,610.435791 235.913345,615.786072 
	C247.382248,598.122803 262.358582,602.031067 277.692444,606.153442 
z"/>
<path fill="#058183" opacity="1.000000" stroke="none" 
	d="
M317.200012,608.761230 
	C317.200043,610.840271 317.200043,612.476074 317.200043,614.103821 
	C317.716766,614.103821 318.208405,614.215637 318.281403,614.087952 
	C325.574432,601.337036 337.432343,601.832031 349.449921,603.691650 
	C363.761841,605.906372 370.272034,612.705627 370.723938,626.874634 
	C371.259583,643.669067 370.849854,660.493652 370.849854,677.656372 
	C367.818359,677.656372 364.923767,677.656372 361.560852,677.656372 
	C361.560852,667.340820 361.561035,657.035645 361.560760,646.730530 
	C361.560638,641.897339 361.651733,637.062073 361.542450,632.231323 
	C361.145569,614.691589 348.811676,606.486023 332.301575,612.725037 
	C322.706909,616.350769 317.320374,624.625183 317.226685,636.350403 
	C317.117584,650.005310 317.201202,663.661804 317.201202,677.662598 
	C314.129303,677.662598 311.256378,677.662598 308.146362,677.662598 
	C308.146362,652.917419 308.146362,628.312744 308.146362,603.349487 
	C311.006134,603.349487 313.878662,603.349487 317.199982,603.349487 
	C317.199982,605.074219 317.199982,606.696106 317.200012,608.761230 
z"/>
<path fill="#088285" opacity="1.000000" stroke="none" 
	d="
M121.157570,669.923218 
	C121.157600,638.015137 121.157600,606.594910 121.157600,574.867310 
	C124.282967,574.867310 127.034515,574.867310 130.121124,574.867310 
	C130.121124,609.119202 130.121124,643.307556 130.121124,677.755859 
	C127.310570,677.755859 124.554665,677.755859 121.157539,677.755859 
	C121.157539,675.284790 121.157539,672.847961 121.157570,669.923218 
z"/>
<path fill="#048083" opacity="1.000000" stroke="none" 
	d="
M1057.080322,609.000000 
	C1057.080322,632.120056 1057.080322,654.740051 1057.080322,677.683228 
	C1054.063477,677.683228 1051.325439,677.683228 1048.249512,677.683228 
	C1048.249512,643.543762 1048.249512,609.363342 1048.249512,574.910400 
	C1051.132324,574.910400 1053.855225,574.910400 1057.080322,574.910400 
	C1057.080322,586.273071 1057.080322,597.386536 1057.080322,609.000000 
z"/>
<path fill="#088285" opacity="1.000000" stroke="none" 
	d="
M625.157593,791.136719 
	C625.157593,789.008606 625.157593,787.361328 625.157593,785.353882 
	C628.302002,785.353882 631.167358,785.353882 634.245789,785.353882 
	C634.245789,810.077454 634.245789,834.693481 634.245789,859.662415 
	C631.312927,859.662415 628.463867,859.662415 625.157532,859.662415 
	C625.157532,836.859009 625.157532,814.238281 625.157593,791.136719 
z"/>
<path fill="#088285" opacity="1.000000" stroke="none" 
	d="
M389.157593,639.000000 
	C389.157593,626.869934 389.157593,615.239868 389.157593,603.299500 
	C392.269867,603.299500 395.020203,603.299500 398.117493,603.299500 
	C398.117493,627.967957 398.117493,652.691772 398.117493,677.715942 
	C395.359222,677.715942 392.604736,677.715942 389.157562,677.715942 
	C389.157562,665.023865 389.157562,652.261902 389.157593,639.000000 
z"/>
<path fill="#048083" opacity="1.000000" stroke="none" 
	d="
M807.005676,786.283813 
	C807.061584,811.013062 807.061584,835.269287 807.061584,859.765015 
	C803.888611,859.765015 801.152832,859.765015 798.167725,859.765015 
	C798.167725,834.861084 798.167725,810.161194 798.167725,784.711853 
	C801.284119,785.101807 804.116943,785.456238 807.005676,786.283813 
z"/>
<path fill="#0B8486" opacity="1.000000" stroke="none" 
	d="
M634.463196,762.125610 
	C634.463013,765.223145 634.463013,767.858704 634.463013,770.780762 
	C631.343811,770.780762 628.592590,770.780762 625.493774,770.780762 
	C625.493774,766.105835 625.493774,761.391785 625.493774,756.369263 
	C628.325195,756.369263 631.074280,756.369263 634.463379,756.369263 
	C634.463379,758.122009 634.463379,759.892883 634.463196,762.125610 
z"/>
<path fill="#088285" opacity="1.000000" stroke="none" 
	d="
M395.575745,574.562012 
	C396.810089,575.325378 398.275024,576.045532 398.325073,576.853271 
	C398.569275,580.794495 398.435608,584.759155 398.435608,588.834229 
	C395.201843,588.834229 392.439850,588.834229 389.418579,588.834229 
	C389.418579,584.182678 389.418579,579.753906 389.418579,574.559082 
	C391.311554,574.559082 393.232819,574.559082 395.575745,574.562012 
z"/>
<path fill="#078284" opacity="1.000000" stroke="none" 
	d="
M806.560547,756.556213 
	C806.895081,761.339111 806.895081,765.793274 806.895081,770.655212 
	C804.111328,770.655212 801.276428,770.655212 798.176514,770.655212 
	C798.176514,765.929199 798.176514,761.240967 798.176514,756.227478 
	C801.031189,756.227478 803.628601,756.227478 806.560547,756.556213 
z"/>
<path fill="#7AC1B6" opacity="1.000000" stroke="none" 
	d="
M483.979431,486.019165 
	C483.539825,485.896393 483.145508,485.723938 482.751190,485.551514 
	C483.143829,485.513092 483.536469,485.474670 484.021057,485.652161 
	C484.112976,485.868103 484.024719,485.969513 483.979431,486.019165 
z"/>
<path fill="#878A8A" opacity="1.000000" stroke="none" 
	d="
M340.341949,290.608459 
	C340.302612,290.349854 340.434662,290.178497 340.553070,290.187439 
	C340.670807,290.196350 340.774811,290.386444 340.884857,290.497101 
	C340.759033,290.589630 340.633179,290.682190 340.341949,290.608459 
z"/>
<path fill="#FCFEFE" opacity="1.000000" stroke="none" 
	d="
M524.561401,668.868286 
	C513.657410,666.662170 506.781616,660.411316 504.315979,650.077148 
	C501.520447,638.360352 502.501129,626.979980 511.392120,617.906311 
	C522.774353,606.290161 542.639893,609.326416 549.993225,623.684875 
	C554.939209,633.342712 555.447571,643.518127 551.395630,653.659119 
	C547.078857,664.462769 538.565369,669.254333 524.561401,668.868286 
z"/>
<path fill="#FBFDFD" opacity="1.000000" stroke="none" 
	d="
M648.597107,617.618164 
	C652.931030,606.960876 657.093079,596.646301 661.281555,586.342468 
	C661.376038,586.109924 661.769226,585.998718 662.552795,585.480774 
	C669.286011,602.815735 675.970886,620.026306 682.824158,637.670410 
	C668.717224,637.670410 655.044922,637.670410 640.631897,637.670410 
	C643.264954,631.014404 645.846680,624.488281 648.597107,617.618164 
z"/>
<path fill="#FDFEFE" opacity="1.000000" stroke="none" 
	d="
M772.898682,662.886597 
	C764.293152,670.979187 754.548950,671.805359 744.340881,668.092896 
	C733.731384,664.234558 729.266724,655.561584 728.134033,644.925842 
	C727.766785,641.477478 727.861633,637.921143 728.222839,634.464111 
	C729.719788,620.136047 738.715515,611.626221 752.694458,611.069275 
	C767.290894,610.487732 777.313782,618.340088 779.976135,632.584656 
	C782.026245,643.553528 780.646790,653.799622 772.898682,662.886597 
z"/>
<path fill="#FDFEFE" opacity="1.000000" stroke="none" 
	d="
M71.794518,582.054565 
	C74.577393,582.311035 76.904160,582.457458 79.191673,582.839172 
	C91.631462,584.914917 97.586357,592.017273 97.318497,604.364441 
	C97.062958,616.143311 90.174866,624.032532 77.805229,624.729309 
	C64.739738,625.465332 51.600632,624.894409 38.228989,624.894409 
	C38.228989,610.672058 38.228989,596.757202 38.228989,582.053162 
	C49.187302,582.053162 60.253796,582.053162 71.794518,582.054565 
z"/>
<path fill="#FCFEFE" opacity="1.000000" stroke="none" 
	d="
M814.891968,633.199585 
	C817.834290,617.683350 826.886780,610.641602 842.875427,611.043762 
	C855.559143,611.362732 865.248901,620.617859 866.794556,634.691040 
	C867.347351,639.724243 867.108765,645.078918 866.008728,650.014343 
	C862.914001,663.899475 853.147644,670.735352 838.645691,669.959045 
	C826.356140,669.301086 816.820129,660.453491 815.062073,647.520996 
	C814.442627,642.963806 814.884399,638.262451 814.891968,633.199585 
z"/>
<path fill="#FBFDFD" opacity="1.000000" stroke="none" 
	d="
M1002.412781,641.295044 
	C1008.181641,640.286743 1013.519226,639.368896 1019.003418,638.425903 
	C1019.003418,642.750610 1019.373718,647.415161 1018.929077,652.000732 
	C1017.888489,662.731934 1007.461853,671.548584 994.963562,671.800537 
	C990.514160,671.890198 985.696960,670.848999 981.641418,669.012634 
	C976.619873,666.738831 974.416931,662.009644 974.675659,656.259033 
	C974.920776,650.810486 978.096741,647.464417 982.745178,645.994141 
	C989.015869,644.010803 995.556580,642.881348 1002.412781,641.295044 
z"/>
<path fill="#FBFDFD" opacity="1.000000" stroke="none" 
	d="
M197.813843,655.425903 
	C192.183563,668.430237 178.046234,675.029602 165.134750,671.020447 
	C158.553101,668.976807 154.285675,663.855286 154.083069,657.756836 
	C153.881088,651.676758 156.736191,647.231934 164.064453,645.194031 
	C172.334167,642.894287 180.940735,641.814636 189.387894,640.139282 
	C192.434540,639.535034 195.443756,638.742065 199.143936,637.877747 
	C198.736755,643.588440 198.328644,649.312317 197.813843,655.425903 
z"/>
<path fill="#FCFEFE" opacity="1.000000" stroke="none" 
	d="
M908.032410,634.993774 
	C904.222351,634.993774 900.906433,634.993774 897.600769,634.993774 
	C897.184570,622.527649 908.300171,611.432617 921.336426,611.048950 
	C935.818298,610.622742 946.530579,620.258606 947.137024,634.993774 
	C934.255981,634.993774 921.391296,634.993774 908.032410,634.993774 
z"/>
<path fill="#FCFEFE" opacity="1.000000" stroke="none" 
	d="
M299.395782,806.599731 
	C306.513428,795.443176 317.028320,790.978027 329.038269,793.770874 
	C340.556091,796.449158 348.471405,805.705322 349.933533,818.205688 
	C351.778168,833.976379 343.607910,847.605957 330.233917,851.068298 
	C313.760925,855.332947 298.758423,845.553589 295.992615,828.746216 
	C294.739349,821.130249 295.626312,813.827942 299.395782,806.599731 
z"/>
<path fill="#FCFEFE" opacity="1.000000" stroke="none" 
	d="
M841.018799,846.041687 
	C830.299011,835.503540 828.505798,823.226379 833.371582,809.957764 
	C838.076477,797.127686 851.056030,790.674377 864.468567,793.768066 
	C877.873352,796.860046 886.906738,809.629150 885.724792,824.115784 
	C884.818970,835.217896 880.652161,844.672546 869.976379,849.516541 
	C859.998413,854.044006 850.223816,852.959412 841.018799,846.041687 
z"/>
</svg>