<?xml version="1.0" standalone="no"?>
<!DOCTYPE svg PUBLIC "-//W3C//DTD SVG 20010904//EN"
 "http://www.w3.org/TR/2001/REC-SVG-20010904/DTD/svg10.dtd">
<svg version="1.0" xmlns="http://www.w3.org/2000/svg"
 width="700.000000pt" height="700.000000pt" viewBox="0 0 700.000000 700.000000"
 preserveAspectRatio="xMidYMid meet">
<metadata>
Created by potrace 1.14, written by Peter Selinger 2001-2017
</metadata>
<g transform="translate(0.000000,700.000000) scale(0.100000,-0.100000)"
fill="#000000" stroke="none">
<path d="M1351 4384 c-1 -6 -21 -10 -50 -9 -28 1 -48 -2 -45 -7 3 -4 0 -8 -6
-8 -6 0 -9 -4 -6 -8 3 -5 -17 -5 -44 -2 -31 4 -47 3 -43 -4 4 -5 -1 -7 -11 -3
-13 5 -17 3 -13 -7 4 -10 1 -13 -7 -10 -8 3 -17 1 -20 -5 -4 -7 -15 -7 -30 -1
-17 6 -29 4 -42 -6 -18 -14 -17 -14 6 -4 24 11 24 10 5 -5 -11 -8 -25 -13 -32
-10 -8 2 -23 -5 -34 -16 -11 -11 -25 -17 -32 -12 -7 4 -6 0 2 -11 8 -9 10 -16
5 -15 -22 4 -34 -2 -34 -17 0 -8 -4 -12 -10 -9 -5 3 -10 0 -10 -7 0 -9 -3 -9
-10 2 -7 11 -10 11 -10 2 0 -8 -5 -10 -12 -6 -7 5 -9 2 -5 -9 4 -12 1 -15 -14
-12 -13 3 -19 0 -17 -8 5 -13 -77 -99 -85 -90 -3 2 -8 -5 -12 -16 -3 -11 -15
-23 -27 -27 -16 -5 -18 -8 -7 -15 11 -8 9 -14 -13 -32 -21 -17 -25 -26 -17
-39 10 -17 2 -23 -24 -19 -4 0 -6 -5 -5 -11 2 -7 -2 -12 -8 -11 -6 1 -11 -3
-12 -10 -6 -45 -16 -77 -24 -77 -5 0 -6 -4 -3 -10 3 -5 1 -10 -5 -10 -8 0 -8
-6 0 -20 8 -14 8 -20 0 -20 -6 0 -8 -5 -5 -10 3 -6 0 -13 -8 -16 -8 -3 -14
-13 -12 -22 1 -9 -3 -23 -9 -31 -8 -11 -8 -13 1 -8 13 8 12 -30 -2 -52 -6 -10
-4 -12 6 -7 8 4 5 -1 -7 -11 -17 -15 -20 -30 -20 -94 1 -70 -1 -76 -16 -68
-14 7 -16 6 -12 -6 4 -8 11 -15 18 -15 8 0 8 -2 0 -8 -13 -9 -26 -54 -13 -46
6 3 8 -6 5 -20 -3 -16 0 -26 7 -26 7 0 6 -4 -3 -10 -12 -8 -12 -10 5 -10 15 0
17 -3 7 -9 -11 -7 -10 -9 3 -15 10 -3 13 -11 8 -18 -4 -7 -8 -30 -9 -51 -1
-28 4 -40 18 -48 14 -8 17 -14 10 -21 -8 -8 -8 -17 0 -32 8 -15 8 -21 0 -24
-9 -3 -9 -9 -2 -23 6 -10 7 -19 3 -19 -4 0 0 -7 11 -15 11 -9 18 -26 18 -49 0
-21 6 -37 15 -40 8 -3 13 -14 12 -23 -3 -26 11 -54 24 -46 6 4 8 0 4 -10 -3
-9 0 -20 7 -24 8 -5 16 -17 18 -28 1 -11 12 -28 22 -37 12 -12 14 -18 6 -18
-8 0 -4 -8 9 -19 12 -11 23 -23 24 -28 1 -4 6 -7 10 -5 5 1 11 -7 14 -18 3
-11 10 -20 15 -20 14 0 38 -27 31 -34 -4 -3 1 -6 11 -6 9 0 21 -10 26 -22 5
-13 9 -19 9 -14 1 5 9 2 18 -5 11 -9 14 -10 9 -2 -5 9 -2 11 9 7 9 -4 14 -9
11 -12 -11 -10 16 -42 35 -42 11 0 18 -4 14 -9 -7 -12 7 -21 39 -23 14 -1 26
-8 26 -16 0 -7 5 -10 10 -7 6 3 10 1 10 -4 0 -6 5 -11 11 -11 5 0 7 6 4 13 -4
6 2 3 12 -8 10 -11 29 -20 43 -19 13 1 29 -5 35 -12 5 -7 27 -15 47 -17 21 -2
41 -7 45 -12 5 -4 2 -5 -6 0 -9 5 -12 4 -8 -2 4 -6 17 -10 29 -9 13 1 26 -3
31 -9 4 -7 10 -7 15 0 9 13 52 15 52 2 0 -5 7 -4 15 3 12 10 15 10 15 -1 0 -9
3 -10 8 -4 8 12 27 13 37 3 4 -4 18 -3 31 2 16 6 24 6 24 -1 0 -6 7 -6 20 1
15 8 20 8 20 -1 0 -7 10 -5 26 6 15 9 24 12 20 7 -3 -6 -2 -13 3 -16 5 -3 11
3 14 15 4 17 11 20 36 16 21 -4 29 -2 24 6 -4 7 0 8 12 3 14 -5 16 -4 6 7 -9
12 -5 14 24 12 27 -1 36 3 41 18 5 16 8 17 15 6 5 -8 9 -9 9 -3 0 7 13 10 30
9 21 -2 31 3 35 16 3 10 12 16 19 13 7 -3 27 8 43 25 17 17 34 27 37 23 4 -3
4 2 0 12 -5 14 -4 17 4 12 7 -4 12 -2 12 4 0 6 5 8 12 4 7 -5 9 -2 6 8 -6 14
28 45 45 40 5 -1 6 1 3 6 -3 5 10 21 29 37 19 15 33 31 30 35 -3 5 1 11 7 13
10 4 10 6 1 6 -8 1 -6 8 7 21 11 11 17 26 14 35 -4 10 0 15 11 15 9 0 13 -4
10 -10 -3 -5 -1 -10 5 -10 7 0 9 -9 6 -22 -3 -13 -3 -17 0 -10 9 20 19 14 22
-14 1 -14 9 -32 17 -40 8 -9 15 -20 15 -25 0 -5 7 -9 16 -9 8 0 12 -4 9 -10
-3 -5 1 -10 9 -10 9 0 16 -7 16 -16 0 -8 5 -12 10 -9 6 3 10 -1 10 -9 0 -8 9
-18 20 -21 11 -4 18 -11 15 -16 -4 -5 1 -9 9 -9 9 0 16 -7 16 -16 0 -8 4 -12
10 -9 6 3 10 0 10 -8 0 -16 21 -27 51 -27 10 0 18 -6 17 -12 -2 -9 9 -13 35
-12 25 0 37 -4 37 -13 0 -8 5 -11 10 -8 6 3 10 2 10 -3 0 -5 8 -9 18 -9 39 0
53 -3 48 -12 -3 -5 1 -11 8 -14 8 -3 17 -1 20 6 3 9 5 9 5 0 1 -7 8 -10 16 -7
16 7 48 -20 37 -31 -4 -4 3 -2 16 4 16 9 22 9 22 0 0 -8 4 -8 15 1 12 10 15
10 15 0 0 -10 3 -10 15 0 12 10 15 10 15 -1 0 -9 3 -10 8 -4 9 13 52 15 52 2
0 -5 7 -4 15 3 12 10 15 10 15 -1 0 -9 3 -10 8 -4 8 12 27 13 37 3 4 -4 18 -3
31 2 16 6 24 6 24 -1 0 -6 7 -6 20 1 15 8 20 8 20 -2 0 -9 3 -9 10 2 8 12 10
12 10 1 0 -10 3 -11 13 -2 10 8 17 7 26 -2 10 -9 11 -8 5 7 -6 15 -4 17 6 11
10 -6 12 -4 7 9 -6 14 -3 15 13 6 15 -8 20 -8 20 2 0 8 3 9 8 3 14 -19 31 -15
27 6 -4 18 -2 19 12 7 9 -7 14 -8 10 -2 -4 7 0 15 9 18 8 3 12 2 9 -4 -3 -6 5
-9 19 -8 13 1 24 5 24 8 -2 27 12 34 38 17 6 -3 23 4 37 17 14 13 28 22 31 19
2 -3 15 4 27 16 17 16 25 18 32 9 5 -8 6 -4 2 11 -5 16 -4 21 4 17 6 -4 11 0
11 8 0 10 9 16 25 16 14 0 25 4 25 8 0 5 12 14 26 20 16 8 22 16 17 25 -4 6
-8 18 -9 25 -2 10 1 11 12 1 8 -7 14 -8 13 -3 -4 21 2 35 12 28 7 -4 10 -1 7
7 -3 8 2 20 11 27 9 8 10 10 3 7 -11 -6 -12 -3 -2 14 6 12 14 19 18 17 5 -3 9
4 9 15 1 10 9 26 17 35 9 9 14 19 12 23 -3 4 3 12 13 18 15 9 17 7 15 -18 -1
-16 2 -29 6 -29 5 0 22 -12 37 -27 15 -14 23 -23 16 -19 -8 4 -11 -1 -10 -13
0 -11 4 -19 7 -19 19 2 30 -3 25 -12 -3 -6 1 -13 9 -16 9 -3 16 -13 16 -21 0
-9 6 -13 14 -10 10 4 13 1 10 -7 -3 -8 0 -17 7 -22 8 -4 10 -3 5 4 -5 8 -2 10
8 6 9 -3 14 -9 13 -12 -3 -10 71 -81 77 -74 3 3 6 -2 6 -11 0 -15 17 -22 42
-18 4 0 5 -6 1 -15 -3 -8 -2 -14 3 -13 30 5 64 -3 64 -15 0 -8 8 -13 17 -12 9
2 25 -6 35 -16 15 -15 22 -16 39 -7 17 9 20 8 14 -2 -6 -9 -3 -10 10 -5 16 6
16 4 4 -11 -7 -10 -10 -15 -5 -11 5 4 17 3 27 -2 12 -7 19 -6 22 3 4 8 6 8 6
0 1 -7 10 -9 24 -5 19 5 20 4 9 -11 -12 -14 -11 -16 7 -12 12 2 21 -1 21 -6 0
-6 6 -7 12 -3 18 11 48 12 48 2 0 -4 5 -8 11 -8 5 0 8 3 6 8 -6 9 50 8 60 -1
3 -4 12 -2 20 4 10 9 13 8 13 -1 0 -10 3 -10 15 0 11 9 15 9 15 1 0 -7 5 -9
13 -4 17 10 37 13 37 4 0 -7 35 -7 50 -1 3 1 9 2 14 1 5 -1 6 6 2 15 -5 14 -4
15 8 5 11 -10 17 -8 25 6 6 10 11 13 11 8 0 -6 9 -11 19 -11 11 0 17 4 15 8
-7 11 27 24 58 23 19 -1 30 5 34 17 3 10 10 16 15 13 13 -9 51 14 43 27 -5 7
-1 7 12 0 14 -8 24 -3 52 27 19 20 31 29 26 21 -6 -10 -3 -9 8 2 18 20 33 24
22 6 -5 -7 -3 -8 5 -4 7 5 10 15 7 23 -3 8 -2 12 3 9 10 -6 51 30 51 46 0 6 3
9 6 5 10 -9 32 16 27 30 -3 7 2 13 10 13 9 0 14 7 12 18 -4 26 5 34 23 20 10
-8 13 -9 9 -1 -4 6 -2 17 5 25 13 14 18 28 23 63 1 11 3 24 4 28 0 5 6 5 13 1
8 -5 9 0 5 15 -4 15 1 24 15 32 12 6 18 18 15 28 -4 16 16 45 25 36 2 -3 3 23
2 56 -2 49 2 66 16 82 14 14 16 25 10 36 -5 10 -5 23 0 31 6 9 3 19 -8 28 -9
7 -11 10 -3 6 9 -4 12 -3 8 4 -4 5 -16 8 -27 5 -12 -3 -20 0 -20 6 0 7 5 9 12
5 6 -4 9 -3 5 2 -9 15 -433 11 -430 -4 3 -11 -9 -16 -29 -13 -4 0 -5 -13 -3
-29 2 -17 0 -28 -4 -26 -4 3 -13 1 -21 -5 -12 -7 -12 -9 -1 -9 9 0 10 -4 5
-12 -5 -7 -9 -30 -9 -50 1 -21 -1 -35 -3 -33 -10 9 -29 -21 -24 -39 3 -12 1
-17 -5 -13 -6 4 -14 0 -17 -9 -3 -8 -11 -12 -16 -9 -6 4 -10 3 -9 -2 1 -4 0
-11 -1 -15 -3 -10 -7 -25 -9 -35 -1 -5 -5 -2 -10 6 -7 12 -12 11 -30 -1 -11
-8 -19 -17 -16 -19 2 -3 -13 -4 -33 -4 -21 0 -42 -6 -48 -14 -11 -15 -72 -20
-92 -8 -6 4 -14 2 -17 -4 -5 -7 -12 -4 -20 8 -9 13 -24 18 -49 18 -26 -1 -37
3 -41 17 -6 18 -25 20 -37 3 -5 -6 -8 -2 -8 7 0 10 -9 23 -20 30 -11 7 -20 18
-20 25 0 7 -6 12 -12 11 -8 -2 -12 5 -10 15 2 10 -7 27 -20 38 -13 11 -17 17
-10 14 11 -6 11 -3 1 13 -7 12 -17 18 -22 15 -5 -3 -7 0 -5 8 3 8 -2 19 -10
25 -9 6 -15 30 -16 60 -1 39 -5 50 -20 52 -15 3 -16 6 -5 13 11 7 11 9 1 9 -9
0 -10 5 -2 19 7 14 7 22 0 26 -8 5 -8 11 0 20 8 9 8 14 0 17 -8 2 -8 11 -1 31
8 20 7 27 -2 27 -8 0 -7 4 3 10 11 7 11 10 2 10 -10 0 -10 5 -2 20 6 11 7 20
2 20 -4 0 -8 9 -8 20 0 11 3 20 6 20 3 0 6 9 6 20 0 11 -4 20 -8 20 -16 0 -7
18 12 23 15 4 19 13 19 43 -2 66 0 74 16 68 11 -5 13 -2 8 12 -4 12 -3 15 6 9
10 -6 11 -3 1 15 -10 20 -10 22 3 17 10 -3 17 1 20 14 3 12 1 17 -6 12 -11 -5
17 27 65 78 9 9 19 15 22 11 3 -3 6 2 6 11 0 9 7 17 15 17 8 0 14 3 14 8 -3
18 2 26 9 14 6 -9 14 -7 30 9 20 18 33 20 127 17 61 -2 105 1 105 6 0 6 9 0
21 -12 11 -12 24 -20 30 -17 5 4 9 1 9 -5 0 -6 4 -8 10 -5 6 3 10 -1 10 -9 0
-9 6 -16 14 -16 8 0 17 -7 20 -16 3 -8 10 -13 15 -10 5 4 15 -7 22 -23 7 -16
17 -27 21 -25 7 5 12 -18 9 -38 0 -5 4 -8 10 -8 8 0 8 -4 0 -14 -9 -11 -8 -15
5 -20 10 -4 14 -12 10 -22 -4 -11 1 -18 14 -21 11 -3 20 -9 20 -14 0 -10 29
-7 47 4 6 4 14 3 17 -2 3 -5 22 -7 41 -5 21 2 33 -1 30 -6 -4 -6 3 -7 17 -2
13 5 30 8 38 7 8 -1 21 4 29 9 11 8 13 8 7 -1 -5 -9 2 -12 26 -10 18 2 38 6
44 10 6 3 14 3 18 0 11 -11 40 -12 52 -2 7 6 15 6 18 1 6 -11 53 -9 79 3 14 6
15 10 6 21 -9 11 -8 14 2 14 10 0 10 3 1 12 -7 7 -8 17 -1 30 7 12 6 18 -2 18
-6 0 -8 7 -5 16 6 15 4 15 -11 3 -10 -7 -15 -10 -11 -5 4 4 3 19 -2 32 -7 17
-6 24 3 24 8 0 8 3 -2 9 -10 6 -10 10 -1 13 9 3 9 10 -1 31 -7 15 -16 27 -22
27 -5 0 -7 7 -3 15 3 9 -2 20 -13 27 -11 6 -16 19 -14 29 3 11 -1 21 -11 25
-9 3 -13 10 -10 15 3 5 -1 9 -8 9 -10 0 -10 2 -1 8 13 8 3 34 -13 34 -5 0 -8
4 -7 8 2 5 -6 12 -17 15 -11 4 -20 13 -20 21 0 8 -4 12 -10 9 -5 -3 -10 1 -10
9 0 9 -7 16 -16 16 -8 0 -12 5 -9 10 3 6 2 10 -4 10 -17 0 -61 48 -61 66 0 4
-7 1 -15 -6 -11 -9 -15 -9 -15 -1 0 7 -5 9 -12 5 -8 -5 -9 -2 -5 10 4 9 3 14
-2 11 -5 -3 -16 4 -25 16 -8 12 -19 18 -24 15 -6 -3 -13 1 -16 10 -4 10 -2 13
6 8 7 -5 8 -3 4 5 -5 7 -15 10 -23 7 -9 -4 -23 -1 -31 6 -9 7 -13 8 -9 2 3 -6
0 -11 -8 -11 -8 0 -13 3 -11 6 2 3 -2 12 -10 19 -10 9 -14 9 -14 1 0 -8 -4 -8
-12 -2 -7 6 -21 9 -30 8 -10 -2 -18 3 -18 11 0 10 -14 14 -55 14 -37 0 -55 4
-55 13 0 9 -2 9 -9 -1 -6 -11 -10 -10 -15 3 -3 9 -12 15 -20 12 -7 -3 -19 0
-26 6 -7 7 -10 8 -7 2 3 -6 -34 -10 -103 -9 -73 0 -108 -3 -107 -10 1 -6 -4
-10 -10 -8 -7 1 -13 -2 -13 -7 0 -6 -12 -6 -30 -1 -17 5 -30 5 -30 1 0 -5 -11
-7 -25 -6 -13 2 -24 0 -24 -3 3 -22 -2 -32 -13 -26 -31 19 -64 9 -59 -19 1 -4
-10 -5 -24 -3 -17 3 -28 -1 -34 -12 -5 -10 -19 -18 -30 -19 -11 -1 -34 -16
-51 -33 -17 -17 -35 -28 -40 -25 -6 4 -7 -1 -3 -11 4 -12 3 -15 -5 -10 -7 4
-22 -3 -34 -15 -13 -12 -18 -19 -11 -15 6 3 15 2 18 -4 4 -6 3 -10 -2 -9 -21
4 -33 -2 -33 -15 0 -8 -4 -18 -10 -21 -6 -4 -7 1 -4 12 3 10 -3 6 -12 -9 -10
-16 -22 -28 -27 -28 -4 0 -5 -4 -2 -10 3 -5 1 -10 -5 -10 -6 0 -8 -5 -4 -12 5
-7 2 -9 -9 -5 -11 4 -15 0 -14 -14 1 -10 6 -19 12 -19 5 0 3 -4 -5 -9 -8 -6
-18 -7 -24 -4 -5 3 -6 2 -3 -4 7 -12 -28 -44 -39 -35 -5 4 -3 0 4 -9 10 -14
10 -18 -3 -23 -11 -4 -14 -2 -9 7 4 7 3 9 -2 4 -5 -5 -10 -22 -10 -38 -2 -49
-3 -51 -20 -45 -8 3 -12 2 -9 -3 7 -12 -12 -24 -25 -16 -6 4 -7 12 -3 18 12
19 12 36 2 43 -6 3 -5 11 2 20 9 11 7 15 -8 21 -10 5 -19 18 -20 31 -2 57 -4
63 -13 57 -9 -5 -15 24 -11 48 1 5 -3 6 -9 2 -5 -3 -10 1 -10 10 0 9 -5 13
-11 9 -8 -4 -9 0 -4 15 5 15 2 21 -9 21 -9 0 -16 7 -16 15 0 8 -6 14 -12 13
-7 -2 -12 2 -11 9 2 6 -6 15 -17 18 -11 4 -20 14 -20 22 0 9 -3 13 -6 10 -4
-4 -15 3 -25 14 -9 11 -20 20 -23 20 -20 -3 -26 0 -21 9 3 6 -1 7 -9 4 -11 -4
-16 0 -16 10 0 9 -7 17 -15 18 -8 0 -21 1 -27 2 -7 1 -16 9 -21 20 -6 15 -10
16 -22 6 -10 -8 -15 -9 -15 -2 0 6 -7 9 -15 6 -8 -3 -17 0 -20 8 -4 10 -25 15
-68 17 -38 1 -65 7 -69 15 -5 9 -33 13 -98 12 -51 -1 -92 3 -95 9 -3 6 -7 6
-11 -2 -3 -6 -21 -9 -45 -7 -28 3 -38 0 -33 -8 5 -7 2 -9 -9 -5 -9 3 -17 2
-19 -3 -2 -5 -29 -10 -60 -11 -31 -1 -55 -6 -52 -10 8 -14 -29 -27 -53 -18
-22 8 -28 2 -24 -23 0 -3 -13 -5 -29 -3 -17 2 -30 0 -30 -5 0 -5 -6 -7 -14 -4
-9 3 -21 -7 -32 -25 -13 -22 -21 -27 -27 -18 -6 8 -7 4 -4 -11 3 -14 1 -22 -6
-21 -27 3 -60 -1 -54 -8 4 -3 -2 -13 -13 -20 -11 -8 -18 -19 -14 -24 3 -5 0
-8 -8 -7 -7 2 -13 -4 -13 -13 0 -21 -25 -50 -36 -43 -5 3 -6 -2 -3 -11 4 -10
2 -15 -6 -13 -7 2 -14 -7 -16 -20 -3 -16 0 -21 8 -16 7 4 8 3 4 -4 -4 -7 -15
-12 -25 -12 -14 0 -17 -6 -13 -25 3 -17 0 -25 -10 -25 -21 0 -50 40 -45 61 3
10 2 18 -2 17 -21 -2 -29 4 -24 21 3 10 0 22 -6 25 -7 5 -9 1 -5 -11 6 -16 5
-15 -9 2 -8 10 -13 25 -10 32 3 7 -2 13 -10 13 -9 0 -19 10 -22 21 -6 17 -9
19 -16 8 -6 -10 -9 -11 -9 -1 0 6 -8 12 -17 12 -15 0 -16 2 -3 10 13 8 12 10
-2 10 -23 0 -58 30 -58 50 0 13 -1 13 -10 0 -7 -11 -10 -11 -10 -2 0 7 -5 10
-11 6 -6 -3 -21 4 -33 17 -26 29 -62 58 -53 42 9 -14 -16 -11 -35 5 -8 6 -18
9 -21 5 -4 -3 -7 -1 -7 7 0 10 -3 10 -15 0 -12 -10 -15 -10 -15 4 0 9 -5 16
-11 16 -5 0 -7 -6 -3 -12 4 -7 -1 -6 -12 3 -24 20 -54 31 -54 19 0 -5 -12 -5
-27 -1 -16 4 -35 6 -43 3 -12 -4 -13 -2 -3 9 9 12 5 14 -25 14 -21 0 -43 4
-49 9 -8 5 -13 4 -13 -2 0 -6 -9 -10 -20 -9 -11 1 -20 5 -20 10 0 5 -6 4 -14
-2 -11 -9 -15 -9 -19 1 -3 7 -6 8 -6 2z m1383 -452 c11 -2 15 1 11 7 -5 10 25
3 46 -10 3 -2 13 2 22 10 10 7 17 9 17 4 0 -5 9 -9 20 -10 11 -1 18 2 15 8 -4
5 6 4 22 -2 15 -6 30 -11 33 -12 3 -1 4 -5 3 -9 -2 -5 8 -8 22 -8 22 0 30 -9
26 -32 0 -5 4 -8 9 -8 6 0 10 -8 10 -17 0 -9 3 -14 6 -10 13 13 34 -23 36 -62
1 -24 5 -38 11 -34 6 4 8 0 4 -10 -4 -11 -2 -14 9 -10 8 3 14 -1 14 -8 0 -11
3 -11 10 1 5 8 10 10 10 4 0 -11 35 -12 46 -2 3 4 13 4 22 0 22 -8 65 -7 80 2
7 4 12 3 12 -2 0 -7 33 -8 50 -2 3 1 10 1 15 0 33 -7 75 -5 75 4 0 6 4 6 12
-2 9 -9 15 -9 26 0 10 9 15 9 21 0 4 -6 16 -10 28 -8 23 5 25 -12 6 -36 -7 -7
-10 -26 -9 -40 2 -15 -1 -25 -5 -22 -5 3 -9 0 -9 -6 0 -6 -4 -9 -8 -6 -5 3 -9
-1 -9 -9 0 -8 5 -11 10 -8 6 4 7 1 1 -8 -4 -8 -9 -48 -10 -89 -1 -41 -2 -77
-3 -80 -1 -3 -14 9 -29 25 -15 17 -36 32 -47 33 -23 5 -36 22 -27 37 3 5 -2 4
-11 -4 -9 -7 -17 -9 -17 -3 0 5 -8 9 -17 8 -10 0 -17 5 -15 12 1 6 -4 11 -10
10 -7 -2 -12 4 -10 12 3 12 1 13 -10 2 -10 -10 -16 -8 -31 10 -10 13 -15 17
-11 9 5 -10 3 -12 -5 -7 -7 5 -10 14 -7 22 5 12 2 12 -15 3 -16 -8 -23 -8 -29
1 -4 6 -10 11 -14 11 -25 -4 -36 0 -30 10 5 8 -1 10 -20 7 -14 -3 -29 -2 -32
3 -2 5 -16 4 -30 -1 -14 -6 -23 -7 -21 -2 3 4 -5 16 -16 27 -11 11 -17 15 -14
9 5 -8 -4 -11 -23 -10 -17 0 -30 5 -30 11 0 5 -4 4 -9 -4 -7 -11 -10 -9 -16 8
-6 19 -12 21 -43 16 -23 -3 -32 -2 -23 4 7 5 9 11 5 14 -16 9 -59 12 -71 4 -7
-5 -16 1 -23 13 -9 16 -18 20 -41 16 -16 -2 -27 0 -23 5 3 5 -4 9 -16 9 -11 0
-23 7 -26 15 -4 8 -11 12 -18 8 -8 -5 -8 -3 0 8 9 11 9 17 -1 26 -7 6 -15 10
-18 7 -2 -3 -4 12 -4 32 1 25 10 46 28 65 14 16 24 31 21 34 -3 3 2 6 11 6 30
2 35 4 43 12 4 4 10 4 13 0 3 -5 14 -9 25 -11z m-1240 -33 c-5 -8 -1 -10 32
-13 7 -1 22 -12 34 -26 12 -14 19 -19 15 -13 -4 9 -1 11 9 7 9 -3 14 -10 11
-14 -3 -5 5 -10 17 -12 16 -2 22 -9 20 -21 -3 -20 22 -50 33 -39 4 4 2 -4 -5
-17 -10 -19 -10 -22 1 -16 9 6 10 3 6 -9 -6 -14 -3 -17 8 -12 9 3 13 2 10 -4
-3 -6 0 -10 7 -11 10 0 10 -2 1 -6 -9 -3 -9 -11 3 -29 9 -13 20 -21 25 -18 5
3 9 1 9 -3 0 -16 38 -34 46 -21 4 6 3 8 -4 4 -6 -3 -14 -1 -18 5 -5 9 1 10 22
4 16 -4 34 -7 39 -7 6 1 31 3 58 5 28 2 47 -1 48 -7 0 -7 3 -6 5 1 3 7 12 9
21 6 12 -5 14 -3 8 6 -5 8 1 7 16 -3 16 -10 29 -12 39 -6 9 6 20 4 29 -3 8 -7
12 -7 9 -2 -4 6 11 9 39 6 31 -2 41 -6 32 -12 -10 -6 -11 -9 -1 -9 6 0 11 -3
11 -7 -5 -29 3 -53 17 -53 8 0 12 -4 9 -10 -3 -5 0 -10 7 -10 9 0 9 -3 -2 -10
-14 -9 -7 -12 17 -9 11 1 24 -31 17 -43 -4 -7 -3 -8 4 -4 7 4 12 0 12 -10 0
-10 3 -15 6 -11 8 7 53 -36 47 -45 -2 -5 1 -8 7 -8 7 0 21 -10 32 -22 11 -13
16 -16 12 -8 -7 13 -5 13 8 2 13 -10 17 -10 22 0 3 7 3 2 0 -11 -4 -15 -2 -21
4 -17 15 9 43 -4 35 -17 -3 -5 -1 -7 5 -3 6 3 13 2 17 -3 3 -6 12 -8 21 -4 8
3 23 -4 33 -16 10 -11 21 -18 24 -15 3 3 14 1 24 -5 19 -11 16 -13 -29 -15
-15 -1 -30 -5 -33 -8 -4 -4 -13 -4 -20 -2 -26 10 -145 9 -145 -1 0 -7 -3 -7
-8 0 -10 14 -143 14 -135 0 3 -5 0 -4 -7 2 -10 9 -17 10 -27 2 -10 -9 -13 -8
-13 2 0 11 -2 11 -10 -1 -5 -8 -10 -10 -10 -5 0 11 -150 12 -168 1 -6 -3 -13
0 -15 6 -4 10 -8 9 -16 -2 -6 -8 -11 -10 -11 -5 0 14 -53 13 -62 0 -5 -7 -8
-7 -8 0 0 6 -17 9 -40 7 -25 -3 -37 -8 -33 -15 4 -6 0 -8 -9 -5 -11 5 -15 -4
-17 -45 -1 -28 -8 -58 -14 -66 -10 -12 -9 -13 3 -7 8 4 7 1 -4 -8 -10 -8 -16
-22 -13 -31 4 -8 1 -15 -6 -15 -8 0 -6 -4 3 -10 10 -6 11 -10 3 -10 -7 0 -13
-7 -13 -16 0 -8 -5 -12 -11 -8 -8 4 -9 -1 -4 -16 4 -13 3 -20 -2 -17 -5 3 -15
-3 -23 -13 -8 -10 -17 -17 -22 -14 -4 3 -5 -2 -2 -10 6 -15 -6 -21 -29 -17 -5
1 -5 -4 -1 -10 5 -9 2 -10 -9 -6 -11 4 -14 2 -11 -7 4 -10 -6 -13 -38 -13 -24
1 -42 -3 -41 -9 2 -12 -5 -13 -72 -15 -25 -1 -54 5 -67 13 -13 8 -36 14 -52
12 -29 -3 -61 17 -48 31 4 5 -1 5 -10 2 -10 -4 -18 -2 -18 4 0 15 -67 78 -76
71 -4 -4 -4 -2 0 5 3 6 -1 16 -10 21 -10 6 -17 23 -17 46 -1 22 -6 36 -14 36
-7 0 -13 6 -14 13 -2 38 -10 82 -17 86 -19 15 -39 70 -37 104 1 20 -3 37 -9
37 -6 0 -4 5 4 10 13 9 13 10 0 10 -9 0 -11 3 -5 8 14 10 14 85 1 94 -8 5 -7
8 1 8 6 0 10 9 8 20 -2 12 3 21 16 25 12 4 16 11 12 18 -11 18 -12 38 -2 31 5
-3 9 0 9 6 0 6 5 8 12 4 6 -4 8 -3 4 4 -3 6 -2 14 4 17 8 5 7 11 -1 21 -9 11
-8 14 2 15 10 0 10 2 2 5 -8 4 -5 12 8 25 11 11 17 24 14 29 -9 14 5 51 16 45
5 -4 9 5 9 18 0 30 25 55 34 35 3 -7 4 -3 2 9 -3 18 0 21 21 17 16 -3 22 -1
18 6 -4 7 2 14 14 17 11 3 18 9 15 14 -3 5 -1 9 5 9 6 0 20 10 32 23 20 20 21
20 15 2 -6 -19 -5 -19 8 -2 12 16 26 18 80 15 36 -1 66 -1 66 2 0 3 18 4 40 2
22 -2 37 -8 34 -13z m1081 -661 c-2 -11 1 -15 10 -12 7 3 23 0 35 -6 17 -9 21
-9 15 0 -4 7 -1 10 11 8 21 -3 44 -20 39 -28 -2 -3 24 -5 58 -4 51 0 65 -3 76
-19 11 -15 15 -16 22 -6 7 11 9 11 9 1 0 -7 5 -10 10 -7 6 3 10 1 10 -5 0 -6
5 -8 10 -5 6 3 10 -2 10 -12 0 -15 2 -16 10 -3 8 12 10 12 10 1 0 -11 3 -11
16 -1 8 8 14 9 13 4 -4 -23 3 -30 29 -29 35 2 48 -5 31 -16 -10 -6 -8 -9 9 -9
12 0 22 -6 22 -13 0 -8 10 -19 23 -25 14 -7 16 -11 7 -11 -12 -1 -12 -3 -1
-10 10 -7 11 -13 1 -31 -8 -15 -8 -20 -1 -16 14 9 14 4 1 -28 -6 -17 -6 -26 1
-26 6 0 6 -7 -1 -21 -7 -12 -18 -18 -26 -15 -8 3 -14 0 -14 -8 0 -12 -11 -15
-52 -17 -9 0 -18 -9 -21 -20 -4 -16 -9 -18 -32 -9 -19 7 -24 7 -19 -1 4 -7 1
-10 -7 -7 -8 3 -20 -2 -27 -11 -8 -9 -11 -10 -7 -3 3 6 1 12 -5 12 -6 0 -8 6
-5 13 4 6 -1 3 -9 -7 -12 -15 -16 -16 -17 -5 0 10 -2 10 -6 2 -3 -9 -10 -10
-22 -3 -10 5 -21 6 -25 3 -3 -3 -6 -1 -6 7 0 9 -4 9 -13 2 -8 -7 -17 -7 -29 2
-10 7 -15 15 -12 18 2 3 -2 8 -11 12 -9 3 -13 2 -10 -4 8 -13 -1 -13 -26 1
-11 5 -17 14 -14 18 2 5 -1 9 -8 8 -6 0 -21 1 -32 2 -17 1 -18 3 -5 11 11 7
11 10 2 10 -7 0 -10 5 -7 10 3 6 -1 13 -9 16 -9 3 -16 12 -16 20 0 8 -6 13
-12 12 -7 -2 -12 3 -10 10 1 6 -3 12 -9 12 -6 0 -7 5 -2 13 11 18 13 37 2 37
-5 0 -5 10 0 23 5 13 5 30 1 37 -5 8 -6 19 -3 24 9 14 10 56 2 56 -9 0 -6 21
4 38 5 6 6 16 3 20 -2 4 4 8 14 8 12 0 17 -6 15 -18z"/>
<path d="M1730 4321 c0 -6 4 -13 10 -16 6 -3 7 1 4 9 -7 18 -14 21 -14 7z"/>
<path d="M5287 4318 c-14 -7 -15 -13 -7 -23 8 -10 8 -19 1 -34 -7 -12 -7 -22
-2 -26 11 -6 9 -44 -4 -64 -5 -9 -4 -12 2 -8 12 8 11 -51 -1 -71 -4 -6 -3 -12
1 -12 11 0 10 -76 0 -86 -4 -4 -2 -13 4 -20 7 -9 7 -19 0 -33 -7 -12 -7 -22
-2 -26 11 -6 9 -44 -4 -64 -5 -9 -4 -12 2 -8 8 5 10 -63 3 -83 -1 -3 -1 -9 0
-15 8 -40 8 -49 0 -65 -6 -11 -5 -21 1 -27 8 -8 8 -17 0 -31 -7 -13 -7 -23 -2
-27 11 -6 9 -44 -4 -64 -5 -9 -4 -12 2 -8 12 8 11 -51 -1 -71 -4 -6 -3 -12 1
-12 11 0 10 -76 0 -86 -4 -4 -2 -13 4 -20 7 -9 7 -19 0 -33 -7 -12 -7 -22 -2
-26 11 -6 9 -44 -3 -63 -4 -7 -4 -12 1 -11 4 1 10 0 13 -1 19 -7 50 -5 50 4 0
7 3 7 8 1 10 -14 56 -15 64 -1 5 8 8 7 8 -3 0 -11 3 -11 15 -1 8 7 15 8 15 3
0 -5 20 -9 44 -9 24 1 42 3 40 5 -3 3 6 11 18 18 13 7 17 12 10 13 -9 0 -10 5
-3 18 5 10 6 24 1 32 -5 8 -4 22 1 32 5 10 6 18 1 18 -5 0 -9 7 -9 15 0 8 4
15 9 15 5 0 6 6 1 13 -10 15 -12 57 -3 57 4 0 7 7 7 15 0 8 -3 15 -7 15 -6 0
-6 26 0 55 1 6 1 12 0 15 -6 15 -4 67 3 63 4 -2 7 0 7 6 0 5 -4 12 -10 16 -5
3 -6 15 0 29 4 12 4 29 0 36 -5 8 -4 22 1 32 7 13 6 18 -3 18 -9 0 -9 3 2 10
16 10 59 -27 52 -46 -2 -7 2 -15 9 -20 8 -5 10 -3 4 6 -5 8 -4 11 3 6 6 -4 9
-13 5 -21 -3 -9 1 -15 8 -15 11 0 11 -3 -1 -10 -10 -6 -11 -10 -2 -10 6 0 12
-7 12 -16 0 -8 4 -12 10 -9 6 4 7 -1 3 -11 -4 -11 -3 -15 4 -11 7 5 9 0 6 -13
-4 -14 0 -20 10 -20 9 0 14 -7 12 -17 -3 -23 14 -45 29 -36 6 4 4 -2 -4 -12
-8 -10 -10 -16 -4 -12 14 8 38 -18 30 -32 -4 -6 2 -15 13 -20 12 -7 19 -21 19
-38 -1 -47 2 -55 15 -50 10 4 14 -4 12 -28 -1 -27 2 -33 17 -30 10 2 16 0 13
-6 -4 -5 -1 -9 6 -9 8 0 8 -4 -1 -15 -10 -13 -9 -15 11 -15 19 0 21 -2 9 -10
-11 -7 -11 -10 -2 -10 7 0 11 -3 9 -7 -3 -5 12 -8 34 -8 21 -1 39 3 39 8 0 4
6 5 12 1 19 -12 108 -11 108 1 0 7 3 7 8 0 8 -12 93 -15 86 -3 -3 5 0 8 7 8
10 0 10 3 2 11 -12 12 -6 42 7 34 4 -3 10 2 14 10 3 8 0 17 -6 21 -7 5 -8 2
-3 -7 5 -8 4 -11 0 -6 -12 10 -14 107 -3 107 5 0 6 -5 2 -12 -5 -7 -3 -8 5 -3
9 5 6 14 -11 33 -13 14 -17 22 -10 18 10 -6 12 1 9 28 -3 28 -1 36 12 37 9 1
5 5 -9 9 -14 4 -19 8 -12 9 8 1 12 7 9 14 -2 6 3 18 12 25 9 8 10 11 4 7 -12
-6 -19 21 -14 49 1 5 -4 13 -11 17 -9 6 -8 9 6 9 20 0 20 0 0 16 -10 8 -13 13
-6 9 9 -5 11 5 8 39 -4 37 -2 46 10 46 14 0 14 2 0 16 -14 14 -14 34 0 34 3 0
2 -5 -2 -12 -4 -7 -3 -8 5 -4 6 4 9 12 5 17 -3 5 -9 7 -14 4 -5 -3 -12 0 -16
6 -5 8 -3 9 6 4 10 -6 12 -4 7 8 -4 10 -1 17 6 17 8 0 6 4 -3 10 -12 8 -12 10
-1 10 10 0 10 6 -4 26 -9 15 -12 23 -6 20 8 -5 10 6 7 34 -3 32 -1 40 10 36 8
-3 14 -1 14 4 0 6 -10 10 -22 10 -18 0 -20 2 -8 10 8 5 11 12 7 16 -4 4 1 13
11 21 9 8 11 12 5 8 -12 -6 -18 18 -14 53 1 6 -4 12 -11 13 -7 0 -4 4 7 9 11
5 14 9 8 9 -7 1 -13 6 -13 12 0 5 5 7 11 3 8 -4 8 0 0 15 -8 15 -9 21 -1 21 6
0 8 5 4 12 -11 17 -13 48 -3 42 4 -2 10 0 14 6 6 9 -8 14 -28 11 -5 -1 -6 3
-2 9 3 6 10 8 15 5 5 -3 11 -1 14 4 3 5 -1 11 -9 15 -9 3 -12 12 -8 22 5 13 3
15 -8 9 -12 -7 -12 -6 -1 7 10 13 10 17 -3 22 -11 4 -14 2 -9 -7 6 -9 4 -9 -8
1 -11 8 -18 9 -22 3 -5 -7 -15 -7 -31 -1 -18 7 -25 6 -25 -3 0 -9 -2 -9 -9 1
-9 14 -31 13 -44 -3 -6 -7 -10 -6 -13 1 -5 11 -91 10 -102 -1 -9 -8 -8 -59 1
-79 6 -12 5 -16 -1 -12 -5 3 -9 -5 -9 -19 0 -14 4 -22 10 -18 6 4 7 1 2 -6
-11 -18 -12 -240 -1 -234 5 4 6 1 2 -6 -5 -7 -8 -53 -9 -102 -1 -66 -4 -89
-14 -89 -7 0 -14 6 -14 13 -1 6 -2 19 -3 27 0 8 -7 14 -14 12 -6 -1 -11 1 -11
5 4 25 -2 53 -11 48 -9 -5 -15 28 -13 73 1 10 -3 9 -16 -2 -16 -14 -17 -13
-15 14 1 20 -3 30 -12 30 -12 0 -20 27 -15 53 1 5 -3 6 -8 2 -6 -3 -15 4 -21
16 -9 16 -9 20 0 14 9 -6 9 -2 1 14 -7 11 -14 21 -17 21 -3 0 -2 -6 2 -12 4
-7 3 -10 -1 -6 -5 5 -10 20 -11 35 -2 15 -10 31 -19 35 -8 5 -15 14 -15 19 0
6 4 7 10 4 6 -3 7 1 4 9 -3 9 -10 14 -14 11 -13 -8 -60 61 -49 72 6 6 0 20
-16 39 -26 30 -54 38 -67 19 -6 -7 -10 -7 -15 0 -9 12 -93 13 -111 1 -7 -4
-12 -3 -12 3 0 9 -37 7 -48 -3 -2 -3 -12 -1 -21 4 -10 5 -24 4 -34 -2z"/>
<path d="M6231 4321 c-10 -7 -14 -39 -16 -120 -2 -73 1 -108 8 -104 6 4 7 1 2
-7 -11 -18 -12 -480 -1 -473 5 4 6 0 1 -7 -11 -17 -12 -320 -2 -320 5 0 5 -6
0 -12 -12 -20 -14 -48 -3 -48 6 0 10 -7 10 -16 0 -8 5 -12 10 -9 6 3 10 2 10
-2 0 -5 9 -9 20 -10 13 -1 18 2 14 9 -5 7 -2 8 7 3 20 -13 73 -14 81 -1 5 6 8
7 8 1 0 -12 79 -13 98 -2 7 5 12 3 12 -3 0 -6 5 -8 10 -5 6 4 8 11 5 16 -4 5
2 9 12 10 11 0 13 3 5 6 -10 4 -10 8 -1 19 6 8 7 14 2 14 -5 0 -9 9 -9 20 0
11 5 20 11 20 6 0 7 3 0 8 -13 9 -16 42 -3 42 5 0 6 5 2 12 -11 17 -10 68 0
68 6 0 5 5 -1 11 -8 8 -8 20 -3 35 5 13 6 24 1 24 -12 0 -9 33 4 42 6 5 5 8
-4 8 -11 0 -11 3 -1 15 8 10 9 15 1 15 -7 0 -8 8 -1 25 6 16 6 26 -1 31 -6 4
-6 11 2 20 9 11 9 14 -1 14 -10 0 -10 3 0 15 8 10 9 15 1 15 -7 0 -8 8 -1 25
7 17 6 25 -1 25 -8 0 -7 5 1 15 7 8 9 15 4 15 -5 0 -9 11 -9 25 0 14 4 25 8
25 5 0 5 5 1 12 -11 17 -10 68 1 68 5 0 4 5 -2 11 -8 8 -8 20 -3 35 5 13 6 24
1 24 -12 0 -9 33 4 42 6 5 5 8 -4 8 -11 0 -11 3 -1 15 8 10 9 15 1 15 -7 0 -8
8 -1 25 6 16 6 26 -1 31 -6 4 -6 11 2 20 9 11 9 14 -1 14 -10 0 -10 3 0 15 8
10 9 15 1 15 -7 0 -8 8 -1 25 7 17 6 25 -1 25 -8 0 -7 5 1 15 7 8 9 15 4 15
-13 0 -11 50 1 51 6 0 1 4 -10 8 -12 5 -23 4 -27 -3 -6 -7 -10 -8 -15 -1 -9
12 -93 13 -111 1 -7 -4 -12 -3 -12 3 0 9 -37 7 -48 -3 -2 -3 -13 -1 -23 5 -14
7 -19 6 -19 -3 0 -10 -2 -10 -8 -1 -5 7 -13 9 -21 4z"/>
<path d="M6173 3925 c0 -8 4 -12 9 -9 5 3 6 10 3 15 -9 13 -12 11 -12 -6z"/>
<path d="M6173 3685 c0 -8 4 -12 9 -9 5 3 6 10 3 15 -9 13 -12 11 -12 -6z"/>
<path d="M3915 2490 c3 -5 8 -10 11 -10 2 0 4 5 4 10 0 6 -5 10 -11 10 -5 0
-7 -4 -4 -10z"/>
</g>
</svg>
