<?xml version="1.0" standalone="no"?>
<!DOCTYPE svg PUBLIC "-//W3C//DTD SVG 20010904//EN"
 "http://www.w3.org/TR/2001/REC-SVG-20010904/DTD/svg10.dtd">
<svg version="1.0" xmlns="http://www.w3.org/2000/svg"
 width="700.000000pt" height="700.000000pt" viewBox="0 0 700.000000 700.000000"
 preserveAspectRatio="xMidYMid meet">
<metadata>
Created by potrace 1.14, written by Peter Selinger 2001-2017
</metadata>
<g transform="translate(0.000000,700.000000) scale(0.100000,-0.100000)"
fill="#000000" stroke="none">
<path d="M5527 6993 c-1 -1 -650 -4 -1442 -8 -792 -4 -1678 -8 -1970 -10 -291
-2 -880 -4 -1308 -5 -427 -2 -777 -5 -778 -9 -2 -13 -7 -1000 -13 -2831 -4
-1042 -9 -2398 -11 -3012 l-4 -1117 867 4 c477 2 1490 7 2252 10 762 4 1621 8
1910 10 289 2 841 4 1228 6 485 1 705 6 709 13 4 6 8 229 9 496 1 267 5 1326
8 2355 4 1029 9 2373 11 2987 l5 1116 -736 -1 c-405 -1 -736 -3 -737 -4z"/>
</g>
</svg>
