<?xml version="1.0" encoding="utf-8"?>
<!-- Generator: Adobe Illustrator 28.1.0, SVG Export Plug-In . SVG Version: 6.00 Build 0)  -->
<svg version="1.1" id="Layer_1" xmlns="http://www.w3.org/2000/svg" xmlns:xlink="http://www.w3.org/1999/xlink" x="0px" y="0px"
	 viewBox="0 0 707.5 235" style="enable-background:new 0 0 707.5 235;" xml:space="preserve">
<style type="text/css">
	.st0{fill:#FEFEFE;}
	.st1{fill:#5AA8D9;}
	.st2{fill:#29285F;}
	.st3{fill:#2A295F;}
	.st4{fill:#2A285F;}
	.st5{fill:#2A2960;}
	.st6{fill:#5AA8DA;}
	.st7{fill:#5DA9DA;}
	.st8{fill:#5CA9DA;}
	.st9{fill:#5BA8DA;}
	.st10{fill:#F6FAFC;}
	.st11{fill:#FFFFFF;}
	.st12{fill:#FCFCFD;}
	.st13{fill:#F6F5F7;}
	.st14{fill:#F4F4F6;}
	.st15{fill:#FBFDFE;}
	.st16{fill:#F2F7FB;}
</style>
<g>
	<path class="st0" d="M0,235C0,156.7,0,78.3,0,0c235.9,0,471.7,0,707.6,0c0,78.3,0,156.7,0,235C471.7,235,235.9,235,0,235z
		 M176.4,167.6c0,9.9,0,19.7,0,29.6c0,1.1,0.2,1.8,1.3,2.4c17.2,9.9,34.3,19.8,51.5,29.6c0.5,0.3,1.6,0.3,2.2,0
		c17.1-9.8,34.1-19.6,51.2-29.4c1.2-0.7,1.7-1.5,1.7-2.9c-0.1-19.5-0.1-39,0-58.5c0-1.4-0.4-2.1-1.6-2.7
		c-16.7-9.6-33.4-19.2-50-28.9c-1.6-0.9-2.8-1-4.4-0.1c-16.7,9.7-33.4,19.3-50.2,29c-1.1,0.6-1.5,1.4-1.5,2.7
		C176.4,148.1,176.4,157.8,176.4,167.6z M226.6,69.4c0-9.9,0-19.7,0-29.6c0-0.9,0-1.6-1-2.1c-17.2-9.9-34.4-19.8-51.6-29.7
		c-0.9-0.5-1.5-0.6-2.4,0c-17.1,9.9-34.2,19.8-51.3,29.6c-1.1,0.6-1.4,1.3-1.4,2.5c0,19.5,0,39.1,0,58.6c0,1.4,0.5,2.2,1.7,2.9
		c17,9.8,34,19.6,51,29.4c0.9,0.5,1.4,0.5,2.3,0c17.1-9.9,34.3-19.8,51.5-29.7c1-0.5,1.3-1.1,1.3-2.2
		C226.6,89.1,226.6,79.2,226.6,69.4z M3.9,69.3c0,9.9,0,19.8,0,29.8c0,0.7,0.4,1.6,1,1.9c17.3,10,34.6,20,51.9,29.9
		c0.5,0.3,1.5,0.3,2,0c17.2-9.8,34.3-19.8,51.5-29.6c1-0.6,1.4-1.2,1.3-2.3c0-19.7,0-39.3,0-59c0-1.2-0.4-1.9-1.4-2.5
		c-17-9.8-34-19.6-51-29.4c-1.1-0.6-1.8-0.6-2.8,0C39.3,17.9,22.2,27.8,5.1,37.6c-1,0.6-1.2,1.2-1.2,2.2C3.9,49.6,3.9,59.4,3.9,69.3
		z M169.1,167.7c0-9.9,0-19.7,0-29.6c0-1.1-0.2-1.8-1.3-2.4c-17.1-9.8-34.1-19.6-51.2-29.5c-1-0.6-1.7-0.7-2.7-0.1
		c-17.1,9.9-34.3,19.8-51.5,29.7c-1,0.6-1.1,1.3-1.1,2.3c0,19.5,0,39,0,58.5c0,1.5,0.4,2.4,1.8,3.2c17,9.7,33.9,19.5,50.9,29.3
		c1,0.6,1.6,0.5,2.5,0c17-9.9,34.1-19.7,51.2-29.5c1.1-0.6,1.4-1.3,1.4-2.5C169.1,187.3,169.1,177.5,169.1,167.7z M431.6,96.9
		c0-0.5,0-0.8,0-1.2c0-4.6,0-9.2,0-13.7c0-2.2,1.3-3.4,3.4-3.4c2.1,0,3.3,1.2,3.3,3.4c0,1.1,0,2.2,0,3.3c0,3.9,0,7.7,0,11.6
		c3.8,0,7.4,0,11.2,0c0-0.5,0-1,0-1.4c0-5.6,0-11.2,0-16.7c0-5.8-4-9.8-9.8-9.9c-3.8-0.1-7,1.3-9.5,4.1c-1.9-3-4.8-4-8-4.1
		c-3.3-0.1-6.3,0.6-8.8,3c-0.2-1-0.4-1.8-0.5-2.5c-3.4,0-6.7,0-10,0c0,9.3,0,18.4,0,27.6c3.7,0,7.4,0,11.1,0c0-5.1,0-10.1,0-15.1
		c0-2.1,1.3-3.2,3.4-3.2c2.1,0,3.3,1.2,3.3,3.2c0,1.4,0,2.8,0,4.2c0,3.6,0,7.2,0,10.9C424.4,96.9,427.9,96.9,431.6,96.9z
		 M349.2,69.1c0,9.4,0,18.5,0,27.7c3.7,0,7.4,0,11.1,0c0-4.9,0-9.7,0-14.5c0-2.6,1.1-3.8,3.3-3.8c2.3,0,3.4,1.2,3.4,3.9
		c0,4.8,0,9.6,0,14.5c3.7,0,7.2,0,10.9,0c0-5,0-9.9,0-14.8c0-2.3,1.3-3.5,3.5-3.5c2.1,0,3.2,1.2,3.2,3.5c0,4.5,0,9,0,13.6
		c0,0.4,0.1,0.9,0.1,1.2c3.8,0,7.4,0,11.1,0c0-6,0-12,0-17.9c0-6.8-5.5-11.3-12.2-10.1c-2.9,0.5-5.2,1.9-7.2,4c-2-3-4.8-4-8.1-4.1
		c-3.2-0.1-6.2,0.7-8.7,2.9c-0.2-1-0.4-1.8-0.5-2.6C355.8,69.1,352.6,69.1,349.2,69.1z M497.6,49.3c0-4,0-8,0-12
		c0-5.2,3.1-7.6,8.1-6.6c0.4,0.1,0.9,0.2,1.4,0.3c0.2-3,0.5-5.9,0.7-8.8c0.4,0.4,0.6,0.8,0.7,1.2c3.1,8.1,6.1,16.2,9.1,24.3
		c0.5,1.4,1.2,1.8,2.6,1.8c2.9-0.1,5.9-0.1,8.8,0c1.3,0.1,1.8-0.4,2.2-1.6c3.1-8.3,6.2-16.6,9.3-25c0.2-0.4,0.2-0.8,0.4-1.3
		c-4,0-7.8,0-11.6,0c-1.6,5.6-3.2,11.1-4.9,17c-1.7-6-3.3-11.5-4.9-17.1c-1.3,0-2.4,0-3.6,0c-3,0-6,0.3-9-0.1c-4-0.6-7.3,0-9.8,3.4
		c0,0-0.2,0-0.2,0c-0.2-1.1-0.3-2.2-0.5-3.2c-3.5,0-6.7,0-10,0c0,9.3,0,18.5,0,27.7C490.2,49.3,493.8,49.3,497.6,49.3z M310.4,67
		c-4.1-7.9-13.7-11.6-23.4-9.2c-9.4,2.3-15.3,10.3-15,20.5c0.3,9,6.9,16.6,16.4,18.5c9.1,1.9,19.1-2.4,22.4-9.6
		c-2.7-1.9-5.4-3.7-8.1-5.6c-4.7,5.8-11,7.2-15.5,3.3c-4.1-3.5-4.5-11-0.8-14.9c1.9-2,4.3-2.8,7-2.8c4,0,6.8,2.1,8.7,5.5
		C304.9,70.7,307.6,68.9,310.4,67z M310.4,19.4c-3.8-7.8-13.8-11.7-23.5-9.1c-9.6,2.5-15.5,11-14.8,20.9c0.7,9.9,8,17,18.8,18.4
		c8.1,1,17.8-3.9,19.9-10c-2.7-1.8-5.4-3.7-8.1-5.5c-4.8,5.9-11.2,7.2-15.6,3.2c-4.1-3.6-4.3-11.2-0.5-15.1c1.9-1.9,4.3-2.6,6.9-2.6
		c4,0,6.7,2.1,8.6,5.5C304.9,23.2,307.6,21.3,310.4,19.4z M447.9,18.2c-6.8-11.4-21-10.2-27.1-4.5c-5.2,4.9-4.6,12.9,1.5,16.7
		c1.3,0.8,2.8,1.5,4.3,2c3,1.1,6.1,1.9,9.1,3.1c0.8,0.3,1.4,1.4,2.1,2.1c-0.8,0.7-1.5,1.8-2.5,2.2c-3,1-5.8,0-8.2-1.9
		c-1.1-0.8-2-1.9-3-2.9c-2.7,1.9-5.4,3.7-8.1,5.6c5.2,10.1,22.8,12.5,30.3,4.2c4.4-4.9,3.5-12.3-2.3-15.7c-2.4-1.4-5.1-2.3-7.7-3.3
		c-2-0.8-4-1.2-5.9-2.1c-0.8-0.4-1.7-1.6-1.7-2.3c0.1-0.7,1.2-1.6,2.1-1.9c0.9-0.3,2-0.3,2.9-0.1c2.7,0.4,4.6,2.1,6.3,4.3
		C442.7,21.7,445.2,20,447.9,18.2z M613.7,96.9c0-6.4,0.1-12.7,0-19c-0.1-4.8-2.9-8-7.7-8.9c-3.9-0.7-7.7-0.1-10.9,2.4
		c-0.2-0.8-0.3-1.6-0.5-2.2c-3.4,0-6.7,0-10,0c0,9.3,0,18.5,0,27.7c3.7,0,7.3,0,11.1,0c0-0.6,0-1.2,0-1.8c0-4.3,0-8.7,0-13
		c0-2.4,1.3-3.8,3.4-3.8c2.1,0,3.3,1.4,3.3,3.7c0,3.5,0,7,0,10.6c0,1.4,0,2.9,0,4.3C606.2,96.9,609.9,96.9,613.7,96.9z M548.6,83
		c0,6.9,3.8,12,10.5,13.5c2.7,0.6,5.6,0.8,8.3,0.3c12.8-2.1,14.3-15.7,9.2-22.4c-3.5-4.6-8.5-6-14-5.7C554.3,69,548.6,74.9,548.6,83
		z M328.6,68.6c-1.3,0.2-2.6,0.2-3.8,0.5c-12.9,2.5-13.9,16.3-8.8,22.7c3.6,4.4,8.4,5.7,13.8,5.5c9.8-0.3,16.2-8.9,13.6-18.4
		C341.7,72.6,336.1,68.7,328.6,68.6z M603,37.5c5.8,0,11.6,0,17.6,0c0-2.2,0.3-4.2-0.1-6.1c-1-5.5-5.2-9-11.5-10.1
		c-5.7-1-11.8,1.7-14.7,6.5c-3,5-2.6,12.1,1.1,16.5c4.4,5.2,10.2,6.2,16.6,4.8c3.3-0.7,6.2-2.3,8.4-5.1c-2.2-2-4.3-3.8-6.4-5.6
		C609.5,42.3,604,41.9,603,37.5z M646.7,85.1c0-2.1,0.3-4.1-0.1-6c-1-5.5-5.2-9.1-11.5-10.2c-5.7-1-11.7,1.7-14.7,6.6
		c-2.9,4.9-2.5,12,1,16.4c4.8,6,14.6,7.3,21.7,2.7c1.2-0.8,2.3-1.9,3.5-2.9c-2.4-2.1-4.5-4-6.6-5.8c-2.3,2.5-5,3.4-8.2,2.4
		c-1.4-0.5-2.6-1.3-2.8-3.2C634.9,85.1,640.6,85.1,646.7,85.1z M480.8,37.5c0-2.2,0.3-4.3-0.1-6.2c-1-5.5-5.2-9-11.4-10.1
		c-5.7-1-11.8,1.7-14.7,6.5c-3,5-2.6,12.1,1.1,16.5c4.4,5.2,10.2,6.2,16.6,4.8c3.3-0.7,6.2-2.3,8.4-5.1c-2.2-2-4.3-3.8-6.4-5.6
		c-4.5,4-10,3.6-11-0.8C469,37.5,474.7,37.5,480.8,37.5z M346.7,38.6c-1.7-5.9-3.3-11.4-4.9-17c-3.9,0-7.7,0-11.7,0
		c3.5,9.3,7,18.6,10.5,27.7c4.2,0,8.2,0,12.4,0c3.5-9.2,6.9-18.4,10.4-27.7c-4.1,0-7.9,0-11.7,0c-0.8,2.8-1.6,5.5-2.4,8.3
		C348.5,32.6,347.6,35.4,346.7,38.6z M589.9,28.4c-2.8-5.7-9.8-8.5-17.1-6.9c-6.6,1.5-11.5,7-11.1,14.6c0.3,6.3,4.9,11.9,11.4,13.2
		c7.3,1.4,14.6-1.4,16.9-6.6c-2.6-1.8-5.2-3.6-7.8-5.3c-2.6,3.3-5.8,4-8.4,1.8c-2-1.7-2.3-5.2-0.3-7.1c0.9-0.8,2.3-1.5,3.5-1.6
		c2.3-0.3,3.7,1.4,4.9,3.2C584.7,31.9,587.2,30.2,589.9,28.4z M490.9,79c2-1.9,3.9-3.7,5.9-5.5c-4.2-5.2-13-6-18.3-3.2
		c-3,1.6-4.9,4-4.9,7.6c0,3.4,2.1,5.6,5,6.8c2.4,1,5,1.6,7.5,2.4c0.7,0.2,1.3,0.6,1.9,0.8c0,0.2,0,0.4-0.1,0.6
		c-0.7,0.2-1.5,0.6-2.2,0.7c-2.8,0.2-5.1-0.8-7.2-2.7c-2,1.9-4,3.7-5.9,5.5c4.4,5.4,14.3,7.1,20.6,3.5c3-1.7,4.9-4.2,4.6-7.9
		c-0.2-3.3-2.6-5-5.3-6.1c-2.4-1-4.9-1.6-7.3-2.5c-0.7-0.2-1.3-0.6-2-1C485.3,76.1,487.6,76.6,490.9,79z M525.5,73.5
		c-4.1-5.3-13-6-18.1-3.4c-3.1,1.6-5.1,4-5,7.6c0,3.5,2.1,5.7,5.1,6.9c2.4,1,4.9,1.6,7.3,2.4c0.7,0.2,1.3,0.5,2,0.9
		c-2.2,2.1-5.6,1.5-9.6-1.4c-2,1.8-3.9,3.6-5.9,5.5c4.6,6.1,16,7.2,22.1,2.5c3.5-2.7,5.2-9.3-1-12.3c-2.4-1.2-5.1-1.9-7.7-2.8
		c-0.9-0.3-1.8-0.8-2.8-1.2c0.1-0.2,0.1-0.4,0.2-0.7c2.9-1.6,5.3,0.2,7.4,1.6C521.6,77.1,523.5,75.3,525.5,73.5z M674.9,91.9
		c4.5,5.4,14.4,7,20.6,3.5c3-1.7,4.9-4.2,4.6-7.9c-0.2-3.3-2.6-5-5.3-6.1c-2.4-1-4.9-1.6-7.3-2.5c-0.7-0.2-1.3-0.6-2-1
		c2-1.8,4.2-1.4,7.6,1c2-1.9,4-3.7,5.9-5.5c-4.2-5.3-13.4-5.9-18.4-3.1c-3,1.6-4.7,4-4.7,7.5c0,3.3,2,5.5,4.9,6.7
		c2.2,0.9,4.5,1.5,6.8,2.2c0.9,0.3,1.8,0.6,2.7,0.9c0,0.2,0,0.4,0,0.6c-0.6,0.3-1.3,0.7-1.9,0.8c-2.9,0.3-5.4-0.7-7.5-2.7
		C678.8,88.3,676.8,90.1,674.9,91.9z M385.9,8.5c0,13.7,0,27.2,0,40.7c3.7,0,7.4,0,11,0c0-13.6,0-27.1,0-40.7
		C393.3,8.5,389.6,8.5,385.9,8.5z M673,78.5c0.2-3.2,0.5-6.3,0.7-9.3c-4.4-1.2-8-0.4-10.8,3.4c-0.2-1.3-0.3-2.4-0.5-3.4
		c-3.5,0-6.8,0-10.1,0c0,9.3,0,18.5,0,27.6c3.7,0,7.4,0,11.1,0c0-4.3-0.1-8.5,0-12.7c0.1-4.2,3.1-6.6,7.3-6.1
		C671.4,78.1,672.1,78.3,673,78.5z M397.7,142c0-6.7,0-13.2,0-20c0.4,0.4,0.6,0.5,0.7,0.6c4.5,5.6,9.2,11.2,13.5,16.9
		c1.7,2.2,3.5,3.1,6.2,2.3c0-8.9,0-17.8,0-26.8c-1.3,0-2.5,0-4,0c0,6.7,0,13.3,0,20.2c-0.5-0.6-0.7-0.7-0.9-1
		c-4.6-5.7-9.3-11.3-13.7-17.2c-1.7-2.3-3.6-2.3-5.9-2.1c0,9,0,18,0,27C395,142,396.2,142,397.7,142z M315.3,21.5
		c0,9.4,0,18.5,0,27.7c3.7,0,7.3,0,11,0c0-9.3,0-18.5,0-27.7C322.6,21.5,319,21.5,315.3,21.5z M545.4,21.5c0,9.4,0,18.5,0,27.7
		c3.7,0,7.3,0,11,0c0-9.3,0-18.5,0-27.7C552.7,21.5,549.1,21.5,545.4,21.5z M467.5,96.9c0-9.3,0-18.5,0-27.7c-3.7,0-7.4,0-11,0
		c0,9.3,0,18.5,0,27.7C460.2,96.9,463.8,96.9,467.5,96.9z M543.4,96.8c0-9.3,0-18.5,0-27.7c-3.7,0-7.3,0-11,0c0,9.3,0,18.4,0,27.7
		C536,96.8,539.7,96.8,543.4,96.8z M367.2,21.5c0,9.4,0,18.5,0,27.7c3.7,0,7.3,0,11,0c0-9.3,0-18.5,0-27.7
		C374.5,21.5,370.9,21.5,367.2,21.5z M693.2,125.1c-4.9-3.9-10.7-2.8-13.8,0.2c-3.1,3.1-3.5,9.5-0.8,13.2c3.2,4.3,8,4.8,14.4,1.6
		c0.1,0.6,0.2,1.2,0.3,1.8c1.3,0,2.4,0,3.6,0c0-9.3,0-18.4,0-27.6c-1.3,0-2.4,0-3.7,0C693.2,117.8,693.2,121.3,693.2,125.1z
		 M480,113.9c0,9.4,0,18.7,0,28c1.3,0,2.5,0,3.7,0c0-0.7,0.1-1.2,0.1-1.8c0-3.1,0-6.1,0-9.2c0-2.7,2.2-4.7,5.1-4.8
		c2.7-0.1,4.6,1.6,4.8,4.5c0.1,1.2,0,2.3,0,3.5c0,2.6,0,5.1,0,7.7c1.4,0,2.6,0,3.8,0c0-4.6,0.2-9.1-0.1-13.6
		c-0.2-3.1-2.7-5.1-5.8-5.8c-2.9-0.6-5.4,0.1-7.8,2.2c0-3.8,0-7.3,0-10.9C482.5,113.9,481.3,113.9,480,113.9z M617.8,133.6
		c0.4-3.8-0.5-6.9-3.3-9.1c-3.1-2.4-6.6-2.5-10-1.1c-3.9,1.7-5.7,4.8-5.7,9.1c0,4.2,1.9,7.4,5.8,9c3.9,1.6,7.6,1.1,10.9-1.6
		c2.4-2,2.3-2.5-0.3-4.1c-0.2-0.1-0.4-0.2-0.6-0.2c-2.9,2.9-5.8,3.7-8.5,2.4c-2-0.9-3-2.5-2.8-4.5c2.4,0,4.8,0,7.2,0
		C612.9,133.6,615.3,133.6,617.8,133.6z M521,133.5c1.1-7.1-4.5-12.3-11.4-10.8c-3.9,0.9-7,4-7.5,7.8c-0.6,4.8,1.1,8.6,4.9,10.6
		c3.7,2,8.8,1.5,11.7-1.2c2.3-2.1,2.3-2.7-0.5-4.2c-0.1-0.1-0.3-0.1-0.5-0.1c-3,2.9-5.8,3.7-8.5,2.4c-2-0.9-3-2.5-2.8-4.5
		C511.3,133.5,516.1,133.5,521,133.5z M644.5,131.1c-1.2-0.1-2.3-0.3-3.4-0.4c-1.1-0.1-2.2,0-3.3,0c-3.5,0.3-6.3,2.6-6.5,5.4
		c-0.2,3.5,2.3,6,6.3,6.3c2.6,0.2,4.9-0.5,6.9-2.4c0.1,0.9,0.2,1.4,0.2,1.9c1.3,0,2.5,0,3.8,0c0-4.2,0.1-8.3,0-12.3
		c-0.1-2.7-1.4-5-4-6.2c-3.7-1.7-9.8-1.3-12.8,3c0.8,0.7,1.5,1.5,2.4,2.3c2.6-2,5.3-3.7,8.5-1.7
		C644.1,127.9,644.8,129.2,644.5,131.1z M354.4,142.4c5,0.2,10.2-3.2,10.3-9.9c0.2-5.6-4.5-10.1-10.3-10.1
		c-5.7,0-10.4,4.5-10.3,10.1C344.4,139.2,349.5,142.5,354.4,142.4z M444,132.5c0-5.8-4.3-10.1-10.1-10.1c-5.8,0-10.1,4.3-10.2,10.2
		c-0.1,5.3,4.5,9.7,10.1,9.7C439.8,142.4,444,138.3,444,132.5z M558.9,141.9c0-4.7,0.2-9.2-0.1-13.8c-0.2-2.5-1.9-4.3-4.4-5.2
		c-3.3-1.1-6.3-0.7-9.1,1.8c-0.1-0.7-0.2-1.3-0.2-1.9c-1.3,0-2.5,0-3.7,0c0,6.4,0,12.7,0,19.1c1.3,0,2.5,0,3.8,0c0-0.7,0-1.3,0-1.9
		c0-2.9,0-5.9,0-8.8c0-3,2.2-5.1,5.3-5c2.8,0,4.5,1.9,4.5,4.9c0,3.1,0,6.1,0,9.2c0,0.6,0,1.1,0.1,1.6
		C556.6,141.9,557.7,141.9,558.9,141.9z M671.9,141.9c0-4.7,0.2-9.2-0.1-13.7c-0.2-2.6-1.9-4.5-4.5-5.3c-3.3-1.1-6.3-0.7-9.1,1.8
		c-0.1-0.8-0.2-1.3-0.2-1.9c-1.3,0-2.5,0-3.7,0c0,6.4,0,12.7,0,19.1c1.3,0,2.5,0,3.8,0c0-3.5,0-6.9,0-10.3c0-3.3,2-5.4,5.2-5.4
		c3,0,4.7,1.9,4.7,5.3c0,3.4,0,6.9,0,10.4C669.4,141.9,670.5,141.9,671.9,141.9z M336.6,122.9c0.4-1.8,0.4-3.5,1.2-4.7
		c1.3-2,3.5-1.1,5.4-1c0.1-0.9,0.4-1.5,0.3-2.2c0-0.4-0.3-1-0.6-1.2c-4-1.8-9.2,1-9.8,5.2c-0.2,1.1,0.2,2.7-0.4,3.4
		c-0.6,0.7-2.1,0.4-3.4,0.6c0,1,0,1.9,0,2.9c1.2,0.1,2.4,0.1,3.7,0.2c0,5.3,0,10.4,0,15.6c1.4,0,2.6,0,4,0c0-5.3,0-10.5,0-15.8
		c2,0,3.7,0,5.4,0c0-1.1,0-2,0-3.1C340.7,122.9,339,122.9,336.6,122.9z M465.1,126.2c0,3.3,0,6.3,0,9.4c0,4.7,2.1,6.8,6.9,6.8
		c3.7,0,3.9-0.4,3.3-3.9c0-0.1-0.2-0.1-0.2-0.2c-0.8,0.2-1.6,0.4-2.4,0.5c-1.8,0.2-3.4-0.7-3.5-2.4c-0.2-3.4,0-6.7,0-10.3
		c2.1,0,4,0,5.8,0c0-1.1,0-2.1,0-3.2c-2,0-3.9,0-6,0c0-2.2,0-4.2,0-6.1c-1.3,0-2.5,0-3.8,0c0,1.1,0,2.1,0,3.1c0,1,0,2,0,3
		c-1.3,0.1-2.3,0.1-3.4,0.2c0,1.1,0,2,0,3.1C462.8,126.1,463.9,126.2,465.1,126.2z M531.7,60.3c0,3.8,2.4,6.3,6.1,6.3
		c3.6,0,6.1-2.4,6.2-6c0.1-3.7-2.4-6.3-6-6.3C534.1,54.2,531.7,56.5,531.7,60.3z M366.6,12.9c0,3.7,2.4,6.1,6,6.2
		c3.7,0,6.2-2.4,6.2-6.1c0-3.7-2.4-6.2-6.1-6.2C368.9,6.7,366.6,9,366.6,12.9z M550.9,6.7c-3.8,0-6.1,2.3-6.1,6.1
		c0,3.7,2.3,6.1,5.9,6.2c3.7,0.1,6.2-2.4,6.3-6.1C557,9.2,554.6,6.7,550.9,6.7z M455.8,60.3c0,3.8,2.4,6.3,6,6.3
		c3.7,0,6.2-2.5,6.2-6.2c0-3.7-2.4-6.1-6-6.1C458.2,54.2,455.9,56.5,455.8,60.3z M314.7,12.8c0,3.8,2.4,6.3,6,6.3
		c3.6,0,6.1-2.4,6.2-6c0.1-3.7-2.3-6.3-6-6.3C317.1,6.7,314.7,9,314.7,12.8z M575,114.9c0,9.1,0,18,0,27c1.4,0,2.7,0,4,0
		c0-9,0-18,0-27C577.6,114.9,576.4,114.9,575,114.9z M622.6,114c0,9.4,0,18.6,0,27.9c1.3,0,2.5,0,3.7,0c0-9.4,0-18.6,0-27.9
		C625,114,623.8,114,622.6,114z M452.8,141.9c0-3.7,0-7.2,0-10.7c0-3.5,2.4-5.5,5.9-5c0.4,0.1,0.8,0.1,1.3,0.2
		c0.1-0.7,0.1-1.3,0.2-1.8c0.3-1.5-0.2-2.1-1.8-2.1c-2.2-0.1-4.1,0.4-5.5,2.5c-0.1-0.9-0.1-1.4-0.2-2c-1.3,0-2.5,0-3.7,0
		c0,6.4,0,12.6,0,18.9C450.2,141.9,451.4,141.9,452.8,141.9z M525.9,123c0,6.4,0,12.7,0,18.9c1.3,0,2.5,0,3.8,0c0-3.6,0-7,0-10.5
		c0-3.7,2.5-5.7,6.1-5.1c0.3,0.1,0.6,0.1,1.1,0.1c0.1-0.6,0.1-1.1,0.2-1.7c0.4-1.7-0.4-2.2-2.1-2.2c-2.1,0-3.9,0.6-5.2,2.4
		c-0.1-0.8-0.2-1.3-0.2-1.9C528.3,123,527.2,123,525.9,123z M585.5,123c0,6.4,0,12.7,0,18.9c1.3,0,2.5,0,3.8,0c0-3.7,0-7.3,0-10.9
		c0.1-3.1,2.3-5.1,5.4-4.8c0.5,0,1,0.2,1.7,0.3c0.1-0.6,0.2-1.2,0.3-1.7c0.3-1.6-0.2-2.2-1.9-2.2c-2.2,0-4,0.5-5.4,2.4
		c-0.1-0.8-0.2-1.3-0.2-1.9C587.9,123,586.8,123,585.5,123z M373.2,141.9c0.1-0.3,0.2-0.4,0.2-0.5c0-3.2,0-6.3,0-9.5
		c0-4.5,2.3-6.4,6.7-5.5c0.1,0,0.2-0.1,0.5-0.2c0.1-0.5,0.1-1.1,0.2-1.6c0.3-1.5-0.3-2.1-1.8-2.1c-2.2,0-4.1,0.4-5.5,2.5
		c-0.1-0.8-0.2-1.4-0.2-2c-1.3,0-2.5,0-3.7,0c0,6.4,0,12.6,0,18.9C370.8,141.9,372,141.9,373.2,141.9z"/>
	<path class="st1" d="M176.4,167.6c0-9.7,0-19.5,0-29.2c0-1.3,0.3-2,1.5-2.7c16.8-9.6,33.5-19.2,50.2-29c1.7-1,2.8-0.9,4.4,0.1
		c16.6,9.7,33.3,19.3,50,28.9c1.2,0.7,1.6,1.4,1.6,2.7c-0.1,19.5-0.1,39,0,58.5c0,1.4-0.5,2.2-1.7,2.9
		c-17.1,9.8-34.1,19.6-51.2,29.4c-0.6,0.3-1.6,0.3-2.2,0c-17.2-9.8-34.3-19.7-51.5-29.6c-1-0.6-1.3-1.3-1.3-2.4
		C176.4,187.3,176.4,177.4,176.4,167.6z M246.8,193.8c0-17.5,0-34.7,0-52c-1.6,0-3.1,0-4.7,0c0,15,0,29.8,0,45.1
		c-3.8-4.7-7.4-9.1-10.9-13.5c-8.3-10.3-16.7-20.6-25-30.9c-0.3-0.3-0.7-0.8-1.1-0.8c-1.6-0.1-3.2,0-4.8,0c0,17.5,0,34.7,0,52
		c1.6,0,3.1,0,4.8,0c0-15,0-29.9,0-44.7c0.1-0.1,0.3-0.1,0.4-0.2c0.1,0.3,0.3,0.5,0.4,0.8c5,6.2,10,12.4,15,18.7
		c6.6,8.1,13.1,16.3,19.7,24.4c0.4,0.5,1,1.2,1.6,1.2C243.7,193.9,245.2,193.8,246.8,193.8z M260.3,193.7c0-17.4,0-34.7,0-52
		c-1.6,0-3.1,0-4.7,0c0,17.4,0,34.7,0,52C257.2,193.7,258.7,193.7,260.3,193.7z"/>
	<path class="st2" d="M226.6,69.4c0,9.9,0,19.7,0,29.6c0,1.1-0.3,1.7-1.3,2.2c-17.2,9.9-34.3,19.7-51.5,29.7c-0.9,0.5-1.5,0.5-2.3,0
		c-17-9.8-34-19.6-51-29.4c-1.2-0.7-1.7-1.4-1.7-2.9c0.1-19.5,0-39.1,0-58.6c0-1.2,0.3-1.9,1.4-2.5c17.1-9.8,34.2-19.7,51.3-29.6
		c0.9-0.5,1.5-0.5,2.4,0c17.2,9.9,34.4,19.9,51.6,29.7c1,0.6,1,1.2,1,2.1C226.6,49.7,226.6,59.5,226.6,69.4z M142.8,88
		c1.9,2.2,3.6,4.5,5.6,6.4c6.7,6.4,14.9,9.1,24,9.2c7.3,0.1,14.2-1.5,20.2-5.9c6.5-4.8,8.9-11.3,7.4-19.2
		c-1.1-6.1-5.1-10.1-10.4-12.4c-5.5-2.5-11.4-4.2-17.1-6.3c-1.9-0.7-3.9-1.4-5.6-2.5c-2.9-1.9-2.4-5.2,0.7-6.6
		c0.5-0.2,1.1-0.4,1.7-0.5c3.6-0.7,7.1,0.1,10,2.2c2.1,1.5,3.8,3.4,5.8,5.2c4.3-3,8.8-6.1,13.3-9.2c-5.8-9.1-13.7-14.3-24.4-15
		c-7.5-0.4-14.6,1.2-20.8,5.7c-10.9,7.9-10.6,24.6,1.7,31.3c4.8,2.7,10,4.2,15.2,5.9c2.9,0.9,5.9,1.8,8.7,3.2
		c2.9,1.4,2.8,4.2,0.1,5.9c-0.8,0.5-1.8,0.9-2.8,1.1c-3.1,0.8-6.2,0.3-9.1-0.8c-4.1-1.5-7.1-4.4-9.7-8
		C152.7,81.2,147.9,84.5,142.8,88z"/>
	<path class="st2" d="M3.9,69.3c0-9.8,0-19.6,0-29.4c0-1,0.2-1.7,1.2-2.2C22.2,27.8,39.3,17.9,56.4,8c1-0.6,1.8-0.6,2.8,0
		c17,9.8,34,19.6,51,29.4c1,0.6,1.4,1.3,1.4,2.5c0,19.7,0,39.3,0,59c0,1.2-0.3,1.8-1.3,2.3C93.1,111.1,76,121,58.8,130.9
		c-0.5,0.3-1.5,0.3-2,0C39.5,121,22.2,111,4.9,100.9c-0.5-0.3-1-1.3-1-1.9C3.9,89.1,3.9,79.2,3.9,69.3z M88.2,50.7
		C81,36.9,63.9,30.3,47.2,35c-15.8,4.4-26.8,18.1-25.2,37c1.3,16,13,29.1,31.3,31.4c17.3,2.2,31.5-7.6,35.6-17.2
		c-4.7-3.3-9.5-6.6-14-9.8c-1.7,1.9-3.1,3.8-4.8,5.3c-7.1,6.3-18.4,5.5-24-1.7c-3.8-4.9-4.4-10.5-3.2-16.4
		c1.2-5.8,4.5-10.1,10.3-11.8c6.1-1.8,11.8-1,16.5,3.5c1.5,1.5,2.7,3.3,4.2,5.1C78.5,57.4,83.3,54.1,88.2,50.7z"/>
	<path class="st2" d="M169.1,167.7c0,9.8,0,19.6,0,29.4c0,1.2-0.4,1.9-1.4,2.5c-17.1,9.8-34.1,19.6-51.2,29.5
		c-0.9,0.5-1.6,0.5-2.5,0c-16.9-9.8-33.9-19.6-50.9-29.3c-1.4-0.8-1.8-1.6-1.8-3.2c0.1-19.5,0-39,0-58.5c0-1,0.1-1.7,1.1-2.3
		c17.2-9.8,34.3-19.7,51.5-29.7c1-0.6,1.7-0.5,2.7,0.1c17,9.9,34.1,19.7,51.2,29.5c1,0.6,1.3,1.3,1.3,2.4
		C169.1,148,169.1,157.9,169.1,167.7z M133.7,159.7c4.8-3.3,9.6-6.7,14.5-10c-2.5-4.5-5.8-8.2-9.9-11c-9-6.1-18.8-7.5-29.3-5.1
		c-29,6.5-33.7,38.8-19.9,56c11.8,14.7,34.9,17.6,50.4,6.5c3.9-2.8,7.1-6.2,9.3-10.6c-4.8-3.4-9.6-6.7-14-9.8
		c-2.2,2.2-4.1,4.6-6.5,6.4c-7.2,5.3-17.6,3.8-22.7-3c-3.1-4.2-3.9-8.9-3.3-14c0.7-6.4,3.6-11.5,9.9-13.7c6.4-2.2,12.5-1.5,17.6,3.6
		C131.2,156.3,132.4,158,133.7,159.7z"/>
	<path class="st3" d="M431.6,96.9c-3.7,0-7.2,0-10.9,0c0-3.7,0-7.3,0-10.9c0-1.4,0-2.8,0-4.2c0-2.1-1.3-3.2-3.3-3.2
		c-2.1,0-3.3,1.2-3.4,3.2c0,5,0,10,0,15.1c-3.7,0-7.4,0-11.1,0c0-9.2,0-18.3,0-27.6c3.3,0,6.6,0,10,0c0.1,0.7,0.3,1.5,0.5,2.5
		c2.6-2.4,5.6-3.1,8.8-3c3.3,0.1,6.1,1.1,8,4.1c2.6-2.9,5.7-4.2,9.5-4.1c5.8,0.2,9.8,4.1,9.8,9.9c0,5.6,0,11.2,0,16.7
		c0,0.5,0,0.9,0,1.4c-3.8,0-7.4,0-11.2,0c0-3.9,0-7.7,0-11.6c0-1.1,0-2.2,0-3.3c0-2.2-1.2-3.4-3.3-3.4c-2.1,0-3.3,1.2-3.4,3.4
		c0,4.6,0,9.2,0,13.7C431.6,96,431.6,96.4,431.6,96.9z"/>
	<path class="st3" d="M349.2,69.1c3.3,0,6.6,0,9.9,0c0.2,0.8,0.3,1.5,0.5,2.6c2.6-2.3,5.5-3.1,8.7-2.9c3.3,0.1,6.1,1.1,8.1,4.1
		c2-2.1,4.3-3.5,7.2-4c6.7-1.2,12.2,3.3,12.2,10.1c0,5.9,0,11.8,0,17.9c-3.7,0-7.3,0-11.1,0c0-0.3-0.1-0.8-0.1-1.2c0-4.5,0-9,0-13.6
		c0-2.3-1.1-3.5-3.2-3.5c-2.2,0-3.4,1.2-3.5,3.5c0,4.9,0,9.8,0,14.8c-3.7,0-7.2,0-10.9,0c0-4.9,0-9.7,0-14.5c0-2.7-1.1-3.9-3.4-3.9
		c-2.2,0-3.3,1.2-3.3,3.8c0,4.8,0,9.6,0,14.5c-3.7,0-7.4,0-11.1,0C349.2,87.6,349.2,78.5,349.2,69.1z"/>
	<path class="st3" d="M497.6,49.3c-3.8,0-7.4,0-11.1,0c0-9.2,0-18.4,0-27.7c3.3,0,6.6,0,10,0c0.2,1,0.3,2.1,0.5,3.2
		c0,0,0.2,0.1,0.2,0c2.5-3.4,5.8-4,9.8-3.4c2.9,0.4,6,0.1,9,0.1c1.2,0,2.3,0,3.6,0c1.6,5.6,3.2,11.1,4.9,17.1
		c1.7-5.9,3.3-11.4,4.9-17c3.8,0,7.6,0,11.6,0c-0.1,0.4-0.2,0.9-0.4,1.3c-3.1,8.3-6.3,16.6-9.3,25c-0.4,1.2-1,1.6-2.2,1.6
		c-2.9-0.1-5.9-0.1-8.8,0c-1.5,0.1-2.1-0.4-2.6-1.8c-3-8.1-6.1-16.2-9.1-24.3c-0.2-0.4-0.3-0.8-0.7-1.2c-0.2,2.9-0.5,5.8-0.7,8.8
		c-0.5-0.1-1-0.2-1.4-0.3c-5.1-1-8.1,1.5-8.1,6.6C497.6,41.2,497.6,45.2,497.6,49.3z"/>
	<path class="st3" d="M310.4,67c-2.8,1.9-5.5,3.8-8.4,5.7c-1.9-3.4-4.7-5.5-8.7-5.5c-2.7,0-5.1,0.8-7,2.8
		c-3.7,3.9-3.3,11.4,0.8,14.9c4.5,3.8,10.8,2.5,15.5-3.3c2.7,1.9,5.4,3.7,8.1,5.6c-3.3,7.2-13.2,11.5-22.4,9.6
		c-9.5-1.9-16.1-9.5-16.4-18.5c-0.3-10.2,5.6-18.1,15-20.5C296.8,55.4,306.4,59.1,310.4,67z"/>
	<path class="st3" d="M310.4,19.4c-2.8,1.9-5.5,3.7-8.3,5.7c-1.9-3.3-4.6-5.4-8.6-5.5c-2.6,0-5,0.7-6.9,2.6
		c-3.9,3.9-3.6,11.4,0.5,15.1c4.4,3.9,10.8,2.6,15.6-3.2c2.7,1.8,5.4,3.7,8.1,5.5c-2,6.1-11.8,11-19.9,10
		c-10.8-1.3-18-8.5-18.8-18.4c-0.7-10,5.3-18.5,14.8-20.9C296.6,7.8,306.6,11.6,310.4,19.4z"/>
	<path class="st3" d="M447.9,18.2c-2.6,1.8-5.2,3.5-7.8,5.3c-1.7-2.2-3.6-3.9-6.3-4.3c-1-0.1-2.1-0.2-2.9,0.1
		c-0.9,0.3-2,1.2-2.1,1.9c-0.1,0.7,0.9,1.9,1.7,2.3c1.9,0.9,4,1.3,5.9,2.1c2.6,1,5.3,1.9,7.7,3.3c5.7,3.4,6.7,10.9,2.3,15.7
		c-7.5,8.3-25.1,5.9-30.3-4.2c2.7-1.8,5.4-3.7,8.1-5.6c1,1,1.9,2.1,3,2.9c2.4,1.8,5.2,2.9,8.2,1.9c1-0.3,1.6-1.4,2.5-2.2
		c-0.7-0.7-1.2-1.8-2.1-2.1c-3-1.1-6.1-2-9.1-3.1c-1.5-0.5-2.9-1.2-4.3-2c-6.1-3.8-6.7-11.8-1.5-16.7C426.8,8,441.1,6.8,447.9,18.2z
		"/>
	<path class="st4" d="M613.7,96.9c-3.8,0-7.4,0-11.3,0c0-1.5,0-2.9,0-4.3c0-3.5,0-7,0-10.6c0-2.3-1.2-3.7-3.3-3.7
		c-2.1,0-3.4,1.3-3.4,3.8c0,4.3,0,8.7,0,13c0,0.6,0,1.1,0,1.8c-3.8,0-7.4,0-11.1,0c0-9.2,0-18.4,0-27.7c3.3,0,6.6,0,10,0
		c0.1,0.6,0.3,1.4,0.5,2.2c3.3-2.6,7-3.1,10.9-2.4c4.8,0.9,7.6,4.1,7.7,8.9C613.8,84.1,613.7,90.4,613.7,96.9z"/>
	<path class="st3" d="M548.6,83c0-8.2,5.7-14,14-14.3c5.5-0.2,10.5,1.1,14,5.7c5.1,6.7,3.5,20.3-9.2,22.4c-2.7,0.4-5.7,0.3-8.3-0.3
		C552.4,95,548.7,89.9,548.6,83z M568.8,83c0-2.9-2.1-5.1-4.9-5c-2.8,0-4.8,2.1-4.8,5c0,2.8,2,5,4.7,5
		C566.6,88.1,568.8,85.9,568.8,83z"/>
	<path class="st3" d="M328.6,68.6c7.4,0.1,13,4,14.8,10.2c2.6,9.5-3.7,18.1-13.6,18.4c-5.4,0.2-10.2-1.1-13.8-5.5
		c-5.1-6.3-4.1-20.2,8.8-22.7C326.1,68.8,327.4,68.8,328.6,68.6z M323.7,83c0,2.8,2.1,4.9,4.8,5c2.8,0,4.9-2.2,4.9-5.1
		c0-2.9-2.2-5-5-4.9C325.7,78.1,323.7,80.2,323.7,83z"/>
	<path class="st3" d="M603,37.5c1,4.5,6.5,4.8,11,0.8c2.1,1.8,4.2,3.7,6.4,5.6c-2.1,2.8-5.1,4.4-8.4,5.1c-6.4,1.4-12.2,0.5-16.6-4.8
		c-3.7-4.4-4.1-11.5-1.1-16.5c2.9-4.9,9-7.6,14.7-6.5c6.3,1.1,10.4,4.6,11.5,10.1c0.4,1.9,0.1,3.9,0.1,6.1
		C614.6,37.5,608.8,37.5,603,37.5z M610.5,32.4c-0.3-2-1.6-3.1-3.6-3.1c-2.1,0-3.6,1.2-3.9,3.1C605.5,32.4,607.9,32.4,610.5,32.4z"
		/>
	<path class="st3" d="M646.7,85.1c-6.1,0-11.8,0-17.7,0c0.2,1.9,1.3,2.7,2.8,3.2c3.2,1.1,5.9,0.1,8.2-2.4c2.1,1.9,4.2,3.7,6.6,5.8
		c-1.2,1-2.3,2.1-3.5,2.9c-7.1,4.6-16.9,3.3-21.7-2.7c-3.5-4.4-3.9-11.5-1-16.4c2.9-4.9,8.9-7.6,14.7-6.6
		c6.3,1.1,10.5,4.7,11.5,10.2C647,80.9,646.7,83,646.7,85.1z M629,80c1.4,0,2.7,0,4,0c1.2,0,2.5,0,3.8,0c-0.7-2.2-1.9-3.1-3.8-3.1
		C631,76.8,629.7,77.9,629,80z"/>
	<path class="st3" d="M480.8,37.5c-6.1,0-11.8,0-17.6,0c1,4.4,6.5,4.8,11,0.8c2.1,1.8,4.2,3.7,6.4,5.6c-2.2,2.8-5.1,4.4-8.4,5.1
		c-6.4,1.4-12.2,0.5-16.6-4.8c-3.7-4.4-4-11.5-1.1-16.5c2.9-4.9,9-7.6,14.7-6.5c6.2,1.1,10.4,4.6,11.4,10.1
		C481.1,33.3,480.8,35.3,480.8,37.5z M470.8,32.4c-0.3-2-1.6-3-3.6-3.1c-2.1,0-3.6,1.1-3.9,3.1C465.8,32.4,468.3,32.4,470.8,32.4z"
		/>
	<path class="st3" d="M346.7,38.6c0.9-3.2,1.8-5.9,2.6-8.7c0.8-2.7,1.6-5.5,2.4-8.3c3.9,0,7.7,0,11.7,0c-3.5,9.3-7,18.5-10.4,27.7
		c-4.1,0-8.2,0-12.4,0c-3.5-9.2-6.9-18.4-10.5-27.7c4,0,7.8,0,11.7,0C343.4,27.1,345,32.7,346.7,38.6z"/>
	<path class="st3" d="M589.9,28.4c-2.6,1.8-5.2,3.5-7.9,5.3c-1.2-1.8-2.6-3.4-4.9-3.2c-1.2,0.1-2.6,0.8-3.5,1.6
		c-2,1.9-1.7,5.3,0.3,7.1c2.5,2.2,5.7,1.5,8.4-1.8c2.6,1.8,5.2,3.6,7.8,5.3c-2.3,5.2-9.6,8.1-16.9,6.6c-6.5-1.3-11.1-6.8-11.4-13.2
		c-0.3-7.6,4.6-13.1,11.1-14.6C580.1,19.9,587.1,22.7,589.9,28.4z"/>
	<path class="st3" d="M490.9,79c-3.3-2.4-5.6-2.8-7.6-1c0.7,0.4,1.3,0.7,2,1c2.4,0.8,4.9,1.5,7.3,2.5c2.8,1.1,5.1,2.8,5.3,6.1
		c0.2,3.6-1.6,6.1-4.6,7.9c-6.2,3.6-16.2,1.9-20.6-3.5c2-1.8,3.9-3.7,5.9-5.5c2.1,1.9,4.5,2.9,7.2,2.7c0.7,0,1.5-0.4,2.2-0.7
		c0-0.2,0-0.4,0.1-0.6c-0.6-0.3-1.2-0.6-1.9-0.8c-2.5-0.8-5.1-1.4-7.5-2.4c-3-1.2-5-3.4-5-6.8c0-3.5,1.8-6,4.9-7.6
		c5.2-2.7,14.1-2,18.3,3.2C494.9,75.3,492.9,77.1,490.9,79z"/>
	<path class="st3" d="M525.5,73.5c-1.9,1.8-3.8,3.6-5.9,5.5c-2.1-1.5-4.5-3.2-7.4-1.6c-0.1,0.2-0.1,0.4-0.2,0.7
		c0.9,0.4,1.8,0.8,2.8,1.2c2.6,1,5.3,1.6,7.7,2.8c6.1,3,4.5,9.5,1,12.3c-6.1,4.8-17.5,3.6-22.1-2.5c2-1.8,3.9-3.6,5.9-5.5
		c4,2.9,7.4,3.5,9.6,1.4c-0.8-0.3-1.4-0.7-2-0.9c-2.4-0.8-5-1.4-7.3-2.4c-3-1.2-5.1-3.4-5.1-6.9c0-3.6,1.9-6,5-7.6
		C512.5,67.5,521.3,68.3,525.5,73.5z"/>
	<path class="st3" d="M674.9,91.9c2-1.8,3.9-3.7,5.9-5.5c2.2,1.9,4.7,3,7.5,2.7c0.7-0.1,1.3-0.5,1.9-0.8c0-0.2,0-0.4,0-0.6
		c-0.9-0.3-1.8-0.7-2.7-0.9c-2.3-0.7-4.6-1.3-6.8-2.2c-2.9-1.2-4.8-3.4-4.9-6.7c0-3.4,1.7-5.8,4.7-7.5c5.1-2.8,14.2-2.2,18.4,3.1
		c-2,1.8-3.9,3.6-5.9,5.5c-3.4-2.4-5.6-2.8-7.6-1c0.7,0.4,1.3,0.8,2,1c2.4,0.8,4.9,1.5,7.3,2.5c2.8,1.1,5.1,2.8,5.3,6.1
		c0.2,3.6-1.6,6.1-4.6,7.9C689.3,99,679.4,97.4,674.9,91.9z"/>
	<path class="st5" d="M385.9,8.5c3.7,0,7.3,0,11,0c0,13.6,0,27.1,0,40.7c-3.7,0-7.3,0-11,0C385.9,35.7,385.9,22.2,385.9,8.5z"/>
	<path class="st5" d="M673,78.5c-0.9-0.2-1.6-0.4-2.3-0.5c-4.2-0.6-7.2,1.8-7.3,6.1c-0.1,4.2,0,8.4,0,12.7c-3.7,0-7.4,0-11.1,0
		c0-9.2,0-18.3,0-27.6c3.3,0,6.6,0,10.1,0c0.1,1,0.3,2.1,0.5,3.4c2.8-3.8,6.4-4.5,10.8-3.4C673.5,72.3,673.2,75.3,673,78.5z"/>
	<path class="st6" d="M397.7,142c-1.5,0-2.8,0-4.1,0c0-9,0-17.9,0-27c2.3-0.3,4.2-0.3,5.9,2.1c4.4,5.9,9.1,11.5,13.7,17.2
		c0.2,0.2,0.4,0.4,0.9,1c0-7,0-13.5,0-20.2c1.4,0,2.6,0,4,0c0,8.9,0,17.9,0,26.8c-2.7,0.8-4.5-0.1-6.2-2.3
		c-4.4-5.8-9-11.3-13.5-16.9c-0.1-0.2-0.3-0.3-0.7-0.6C397.7,128.7,397.7,135.3,397.7,142z"/>
	<path class="st5" d="M315.3,21.5c3.7,0,7.3,0,11,0c0,9.2,0,18.4,0,27.7c-3.6,0-7.2,0-11,0C315.3,40.1,315.3,30.9,315.3,21.5z"/>
	<path class="st5" d="M545.4,21.5c3.7,0,7.3,0,11,0c0,9.2,0,18.4,0,27.7c-3.6,0-7.2,0-11,0C545.4,40.1,545.4,30.9,545.4,21.5z"/>
	<path class="st5" d="M467.5,96.9c-3.7,0-7.3,0-11,0c0-9.2,0-18.4,0-27.7c3.6,0,7.3,0,11,0C467.5,78.4,467.5,87.5,467.5,96.9z"/>
	<path class="st5" d="M543.4,96.8c-3.7,0-7.3,0-11,0c0-9.3,0-18.4,0-27.7c3.7,0,7.3,0,11,0C543.4,78.3,543.4,87.5,543.4,96.8z"/>
	<path class="st5" d="M367.2,21.5c3.7,0,7.3,0,11,0c0,9.2,0,18.4,0,27.7c-3.6,0-7.3,0-11,0C367.2,40.1,367.2,30.9,367.2,21.5z"/>
	<path class="st7" d="M693.2,125.1c0-3.8,0-7.3,0-10.9c1.3,0,2.4,0,3.7,0c0,9.2,0,18.4,0,27.6c-1.2,0-2.3,0-3.6,0
		c-0.1-0.6-0.2-1.2-0.3-1.8c-6.4,3.3-11.2,2.8-14.4-1.6c-2.7-3.7-2.4-10.1,0.8-13.2C682.5,122.3,688.2,121.2,693.2,125.1z
		 M693.1,132.5c0-3.6-2.7-6.3-6.3-6.3c-3.4,0-6,2.7-6,6.2c0,3.7,2.7,6.5,6.2,6.4C690.4,138.8,693.1,135.9,693.1,132.5z"/>
	<path class="st6" d="M480,113.9c1.3,0,2.5,0,3.8,0c0,3.6,0,7.1,0,10.9c2.4-2.1,4.9-2.8,7.8-2.2c3.1,0.7,5.6,2.6,5.8,5.8
		c0.3,4.5,0.1,9,0.1,13.6c-1.3,0-2.4,0-3.8,0c0-2.6,0-5.1,0-7.7c0-1.2,0-2.4,0-3.5c-0.2-2.9-2-4.6-4.8-4.5c-2.9,0.1-5,2.1-5.1,4.8
		c-0.1,3.1,0,6.1,0,9.2c0,0.6-0.1,1.1-0.1,1.8c-1.3,0-2.4,0-3.7,0C480,132.6,480,123.3,480,113.9z"/>
	<path class="st8" d="M617.8,133.6c-2.6,0-5,0-7.3,0c-2.4,0-4.8,0-7.2,0c-0.2,1.9,0.8,3.5,2.8,4.5c2.7,1.3,5.6,0.5,8.5-2.4
		c0.2,0.1,0.4,0.1,0.6,0.2c2.6,1.6,2.7,2.2,0.3,4.1c-3.3,2.7-7,3.2-10.9,1.6c-3.9-1.7-5.8-4.8-5.8-9c0-4.2,1.8-7.4,5.7-9.1
		c3.4-1.5,6.9-1.3,10,1.1C617.4,126.7,618.2,129.8,617.8,133.6z M613.6,130.5c0-2.5-2-4.3-4.7-4.4c-3-0.1-5.3,1.8-5.5,4.4
		C606.7,130.5,610.1,130.5,613.6,130.5z"/>
	<path class="st8" d="M521,133.5c-4.9,0-9.7,0-14.5,0c-0.2,2,0.9,3.6,2.8,4.5c2.7,1.3,5.5,0.5,8.5-2.4c0.1,0,0.3,0.1,0.5,0.1
		c2.7,1.5,2.8,2.2,0.5,4.2c-3,2.7-8,3.2-11.7,1.2c-3.7-2-5.5-5.9-4.9-10.6c0.5-3.7,3.5-6.9,7.5-7.8
		C516.5,121.2,522.1,126.4,521,133.5z M517,130.6c-0.3-2.7-2.2-4.4-4.9-4.4c-2.9,0-5.1,1.7-5.4,4.4C510,130.6,513.4,130.6,517,130.6
		z"/>
	<path class="st8" d="M644.5,131.1c0.3-1.8-0.4-3.2-1.9-4c-3.3-2-5.9-0.3-8.5,1.7c-0.8-0.8-1.6-1.6-2.4-2.3c3.1-4.3,9.1-4.7,12.8-3
		c2.6,1.2,3.9,3.4,4,6.2c0.1,4,0,8.1,0,12.3c-1.3,0-2.4,0-3.8,0c-0.1-0.5-0.1-1.1-0.2-1.9c-2,1.9-4.3,2.6-6.9,2.4
		c-4-0.3-6.6-2.8-6.3-6.3c0.2-2.8,2.9-5.1,6.5-5.4c1.1-0.1,2.2-0.1,3.3,0C642.2,130.7,643.3,130.9,644.5,131.1z M639.4,139.1
		c2.1,0,4.2-1.3,4.9-2.9c0.5-1.2,0.4-2.1-1.1-2.3c-1.4-0.2-2.9-0.4-4.3-0.3c-2.1,0.1-3.5,1.4-3.5,2.8c0,1.4,1.5,2.5,3.6,2.7
		C639,139.2,639.2,139.1,639.4,139.1z"/>
	<path class="st7" d="M354.4,142.4c-4.9,0.1-10-3.2-10.2-9.9c-0.2-5.6,4.5-10.1,10.3-10.1c5.7,0,10.4,4.4,10.3,10.1
		C364.6,139.2,359.4,142.5,354.4,142.4z M354.6,138.5c3.6,0,6.1-2.6,6.1-6.3c0-3.4-2.7-6.1-6.2-6.1c-3.5,0-6.2,2.7-6.2,6.3
		C348.3,136.1,350.9,138.5,354.6,138.5z"/>
	<path class="st7" d="M444,132.5c0,5.8-4.2,9.9-10.2,9.9c-5.7,0-10.2-4.4-10.1-9.7c0.1-6,4.4-10.2,10.2-10.2
		C439.7,122.4,444,126.7,444,132.5z M433.9,138.5c3.7,0,6.2-2.5,6.2-6.2c0-3.5-2.7-6.2-6.3-6.2c-3.4,0-6.1,2.7-6.1,6.2
		C427.7,136,430.2,138.5,433.9,138.5z"/>
	<path class="st9" d="M558.9,141.9c-1.2,0-2.4,0-3.8,0c0-0.5-0.1-1.1-0.1-1.6c0-3.1,0-6.1,0-9.2c0-3-1.7-4.9-4.5-4.9
		c-3.1,0-5.3,2-5.3,5c0,2.9,0,5.9,0,8.8c0,0.6,0,1.2,0,1.9c-1.3,0-2.5,0-3.8,0c0-6.3,0-12.7,0-19.1c1.3,0,2.5,0,3.7,0
		c0.1,0.6,0.1,1.2,0.2,1.9c2.7-2.5,5.8-2.9,9.1-1.8c2.5,0.8,4.3,2.7,4.4,5.2C559.2,132.7,558.9,137.2,558.9,141.9z"/>
	<path class="st9" d="M671.9,141.9c-1.4,0-2.5,0-3.9,0c0-3.5,0-7,0-10.4c0-3.4-1.7-5.3-4.7-5.3c-3.1,0-5.2,2.1-5.2,5.4
		c0,3.4,0,6.8,0,10.3c-1.3,0-2.5,0-3.8,0c0-6.3,0-12.6,0-19.1c1.2,0,2.4,0,3.7,0c0.1,0.6,0.1,1.1,0.2,1.9c2.7-2.5,5.8-2.9,9.1-1.8
		c2.6,0.9,4.3,2.7,4.5,5.3C672.1,132.7,671.9,137.3,671.9,141.9z"/>
	<path class="st8" d="M336.6,122.9c2.3,0,4.1,0,5.9,0c0,1.1,0,2,0,3.1c-1.7,0-3.5,0-5.4,0c0,5.4,0,10.5,0,15.8c-1.4,0-2.6,0-4,0
		c0-5.2,0-10.3,0-15.6c-1.3-0.1-2.4-0.1-3.7-0.2c0-1,0-2,0-2.9c1.2-0.2,2.8,0,3.4-0.6c0.6-0.7,0.2-2.2,0.4-3.4
		c0.6-4.2,5.7-7,9.8-5.2c0.3,0.1,0.6,0.8,0.6,1.2c0,0.7-0.2,1.4-0.3,2.2c-1.9-0.1-4.2-1-5.4,1C337,119.4,337,121.1,336.6,122.9z"/>
	<path class="st6" d="M465.1,126.2c-1.2-0.1-2.3-0.1-3.4-0.2c0-1.1,0-2,0-3.1c1.1-0.1,2.2-0.1,3.4-0.2c0-1,0-2,0-3c0-1,0-2,0-3.1
		c1.3,0,2.5,0,3.8,0c0,2,0,3.9,0,6.1c2.1,0,4,0,6,0c0,1.1,0,2.1,0,3.2c-1.9,0-3.8,0-5.8,0c0,3.6-0.1,7,0,10.3
		c0.1,1.7,1.7,2.6,3.5,2.4c0.8-0.1,1.6-0.3,2.4-0.5c0.1,0.1,0.2,0.2,0.2,0.2c0.7,3.5,0.4,3.8-3.3,3.9c-4.8,0-6.9-2-6.9-6.8
		C465.1,132.6,465.1,129.5,465.1,126.2z"/>
	<path class="st3" d="M531.7,60.3c0-3.8,2.4-6.1,6.2-6.1c3.7,0,6.1,2.6,6,6.3c-0.1,3.6-2.5,6-6.2,6
		C534.1,66.6,531.7,64.1,531.7,60.3z"/>
	<path class="st3" d="M366.6,12.9c0-3.8,2.3-6.2,6.1-6.2c3.7,0,6.1,2.5,6.1,6.2c0,3.7-2.5,6.2-6.2,6.1
		C368.9,19,366.6,16.5,366.6,12.9z"/>
	<path class="st3" d="M550.9,6.7c3.7,0,6.1,2.5,6.1,6.3c0,3.7-2.6,6.1-6.3,6.1c-3.6-0.1-5.9-2.5-5.9-6.2
		C544.8,9,547.1,6.7,550.9,6.7z"/>
	<path class="st3" d="M455.8,60.3c0-3.8,2.4-6.1,6.2-6.1c3.6,0,6,2.5,6,6.1c0,3.7-2.5,6.2-6.2,6.2C458.2,66.6,455.8,64.1,455.8,60.3
		z"/>
	<path class="st3" d="M314.7,12.8c0-3.8,2.4-6.1,6.2-6.1c3.7,0,6.1,2.6,6,6.3c-0.1,3.6-2.5,6-6.2,6C317.1,19,314.7,16.5,314.7,12.8z
		"/>
	<path class="st1" d="M575,114.9c1.4,0,2.6,0,4,0c0,9,0,17.9,0,27c-1.3,0-2.6,0-4,0C575,133,575,124,575,114.9z"/>
	<path class="st6" d="M622.6,114c1.2,0,2.4,0,3.7,0c0,9.3,0,18.6,0,27.9c-1.2,0-2.4,0-3.7,0C622.6,132.6,622.6,123.3,622.6,114z"/>
	<path class="st6" d="M452.8,141.9c-1.4,0-2.6,0-3.8,0c0-6.3,0-12.5,0-18.9c1.3,0,2.5,0,3.7,0c0.1,0.6,0.1,1.1,0.2,2
		c1.4-2,3.3-2.5,5.5-2.5c1.6,0,2.1,0.6,1.8,2.1c-0.1,0.6-0.1,1.1-0.2,1.8c-0.5-0.1-0.9-0.2-1.3-0.2c-3.4-0.5-5.8,1.5-5.9,5
		C452.7,134.8,452.8,138.3,452.8,141.9z"/>
	<path class="st6" d="M525.9,123c1.3,0,2.4,0,3.7,0c0.1,0.6,0.1,1.2,0.2,1.9c1.4-1.8,3.1-2.5,5.2-2.4c1.6,0,2.4,0.5,2.1,2.2
		c-0.1,0.5-0.1,1-0.2,1.7c-0.4,0-0.8,0-1.1-0.1c-3.7-0.6-6.1,1.4-6.1,5.1c0,3.5,0,6.9,0,10.5c-1.3,0-2.5,0-3.8,0
		C525.9,135.7,525.9,129.4,525.9,123z"/>
	<path class="st6" d="M585.5,123c1.3,0,2.4,0,3.7,0c0.1,0.6,0.1,1.2,0.2,1.9c1.4-1.9,3.2-2.5,5.4-2.4c1.7,0,2.2,0.6,1.9,2.2
		c-0.1,0.5-0.2,1.1-0.3,1.7c-0.7-0.1-1.2-0.2-1.7-0.3c-3.1-0.3-5.4,1.7-5.4,4.8c-0.1,3.6,0,7.1,0,10.9c-1.3,0-2.5,0-3.8,0
		C585.5,135.7,585.5,129.4,585.5,123z"/>
	<path class="st6" d="M373.2,141.9c-1.2,0-2.4,0-3.6,0c0-6.3,0-12.5,0-18.9c1.3,0,2.5,0,3.7,0c0.1,0.6,0.1,1.2,0.2,2
		c1.4-2.1,3.3-2.6,5.5-2.5c1.6,0,2.1,0.6,1.8,2.1c-0.1,0.6-0.1,1.1-0.2,1.6c-0.3,0.1-0.4,0.2-0.5,0.2c-4.5-0.8-6.7,1-6.7,5.5
		c0,3.2,0,6.3,0,9.5C373.3,141.5,373.3,141.6,373.2,141.9z"/>
	<path class="st10" d="M246.8,193.8c-1.6,0-3.1,0.1-4.6-0.1c-0.6-0.1-1.2-0.7-1.6-1.2c-6.6-8.1-13.1-16.3-19.7-24.4
		c-5-6.2-10-12.4-15-18.7c-0.2-0.2-0.3-0.5-0.4-0.8c-0.1,0.1-0.3,0.1-0.4,0.2c0,14.9,0,29.7,0,44.7c-1.7,0-3.2,0-4.8,0
		c0-17.2,0-34.4,0-52c1.6,0,3.2,0,4.8,0c0.4,0,0.8,0.4,1.1,0.8c8.4,10.3,16.7,20.6,25,30.9c3.5,4.4,7.1,8.7,10.9,13.5
		c0-15.3,0-30.2,0-45.1c1.6,0,3.1,0,4.7,0C246.8,159,246.8,176.3,246.8,193.8z"/>
	<path class="st11" d="M260.3,193.7c-1.6,0-3.1,0-4.7,0c0-17.3,0-34.6,0-52c1.5,0,3,0,4.7,0C260.3,159,260.3,176.3,260.3,193.7z"/>
	<path class="st12" d="M142.8,88c5.1-3.5,9.8-6.9,14.6-10.2c2.6,3.6,5.6,6.5,9.7,8c3,1.1,6,1.6,9.1,0.8c1-0.2,1.9-0.6,2.8-1.1
		c2.7-1.7,2.7-4.6-0.1-5.9c-2.8-1.3-5.8-2.2-8.7-3.2c-5.2-1.6-10.4-3.2-15.2-5.9c-12.2-6.8-12.5-23.4-1.7-31.3
		c6.2-4.5,13.2-6.1,20.8-5.7c10.7,0.6,18.7,5.9,24.4,15c-4.5,3.1-9,6.3-13.3,9.2c-2-1.8-3.7-3.8-5.8-5.2c-3-2.1-6.4-2.9-10-2.2
		c-0.6,0.1-1.2,0.2-1.7,0.5c-3.2,1.4-3.6,4.7-0.7,6.6c1.7,1.1,3.7,1.8,5.6,2.5c5.7,2.1,11.5,3.9,17.1,6.3c5.3,2.4,9.3,6.4,10.4,12.4
		c1.5,7.9-1,14.4-7.4,19.2c-6,4.4-12.9,6-20.2,5.9c-9.1-0.1-17.3-2.8-24-9.2C146.4,92.6,144.7,90.3,142.8,88z"/>
	<path class="st12" d="M88.2,50.7c-4.9,3.4-9.7,6.7-14.4,10c-1.4-1.8-2.6-3.7-4.2-5.1c-4.7-4.6-10.5-5.3-16.5-3.5
		c-5.8,1.7-9.2,6-10.3,11.8c-1.2,5.8-0.6,11.5,3.2,16.4c5.6,7.2,16.9,8,24,1.7c1.7-1.5,3.1-3.4,4.8-5.3c4.6,3.2,9.3,6.5,14,9.8
		c-4.1,9.6-18.3,19.3-35.6,17.2C34.9,101.1,23.3,88.1,21.9,72c-1.6-18.9,9.4-32.7,25.2-37C63.9,30.3,81,36.9,88.2,50.7z"/>
	<path class="st12" d="M133.7,159.7c-1.3-1.7-2.4-3.4-3.9-4.9c-5-5-11.1-5.8-17.6-3.6c-6.3,2.2-9.2,7.3-9.9,13.7
		c-0.6,5,0.2,9.8,3.3,14c5.1,6.9,15.5,8.3,22.7,3c2.4-1.7,4.2-4.1,6.5-6.4c4.5,3.1,9.2,6.4,14,9.8c-2.2,4.4-5.4,7.8-9.3,10.6
		c-15.5,11.1-38.6,8.2-50.4-6.5c-13.8-17.1-9.1-49.5,19.9-56c10.4-2.3,20.3-1,29.3,5.1c4.1,2.8,7.4,6.5,9.9,11
		C143.3,153.1,138.4,156.4,133.7,159.7z"/>
	<path class="st13" d="M568.8,83c0,2.9-2.2,5.1-5,5c-2.8-0.1-4.8-2.2-4.7-5c0-2.8,2.1-4.9,4.8-5C566.7,78,568.9,80.1,568.8,83z"/>
	<path class="st13" d="M323.7,83c0-2.8,2-5,4.7-5.1c2.8-0.1,5,2.1,5,4.9c0,2.9-2.1,5.1-4.9,5.1C325.8,88,323.7,85.9,323.7,83z"/>
	<path class="st14" d="M610.5,32.4c-2.6,0-5,0-7.5,0c0.3-2,1.8-3.1,3.9-3.1C608.9,29.3,610.3,30.4,610.5,32.4z"/>
	<path class="st14" d="M629,80c0.6-2.1,2-3.2,4-3.1c1.9,0,3.1,0.9,3.8,3.1c-1.3,0-2.5,0-3.8,0C631.7,80,630.5,80,629,80z"/>
	<path class="st14" d="M470.8,32.4c-2.5,0-5,0-7.5,0c0.3-1.9,1.8-3.1,3.9-3.1C469.2,29.3,470.5,30.4,470.8,32.4z"/>
	<path class="st15" d="M693.1,132.5c0,3.5-2.8,6.3-6.2,6.3c-3.5,0-6.2-2.8-6.2-6.4c0-3.5,2.6-6.2,6-6.2
		C690.4,126.1,693.1,128.9,693.1,132.5z"/>
	<path class="st16" d="M613.6,130.5c-3.4,0-6.8,0-10.3,0c0.2-2.6,2.5-4.5,5.5-4.4C611.6,126.2,613.5,128,613.6,130.5z"/>
	<path class="st16" d="M517,130.6c-3.5,0-7,0-10.4,0c0.3-2.7,2.5-4.4,5.4-4.4C514.7,126.2,516.6,127.8,517,130.6z"/>
	<path class="st10" d="M639.4,139.1c-0.2,0-0.4,0-0.5,0c-2.1-0.2-3.6-1.3-3.6-2.7c0-1.4,1.4-2.7,3.5-2.8c1.4-0.1,2.9,0.2,4.3,0.3
		c1.5,0.2,1.6,1.1,1.1,2.3C643.5,137.9,641.4,139.1,639.4,139.1z"/>
	<path class="st15" d="M354.6,138.5c-3.7,0-6.2-2.5-6.2-6.1c0-3.5,2.7-6.3,6.2-6.3c3.4,0,6.1,2.7,6.2,6.1
		C360.7,136,358.2,138.5,354.6,138.5z"/>
	<path class="st15" d="M433.9,138.5c-3.7,0-6.2-2.5-6.2-6.2c0-3.5,2.6-6.1,6.1-6.2c3.5,0,6.3,2.7,6.3,6.2
		C440.1,136,437.5,138.5,433.9,138.5z"/>
</g>
</svg>
