<svg version="1.2" xmlns="http://www.w3.org/2000/svg" viewBox="0 0 570 112" width="570" height="112">
	<title>Artboard 1-svg</title>
	<style>
		.s0 { fill: #0ea0b3 } 
		.s1 { fill: #0d9faf } 
		.s2 { fill: #76bf43 } 
		.s3 { fill: #010101 } 
	</style>
	<g id="Layer">
		<path id="Layer" class="s0" d="m54.7 53.4q0 3.9-1.9 7.8-1.8 3.8-5.1 6.5-3.7 2.9-8.5 4.6-4.8 1.6-11.6 1.6-7.4 0-13.2-1.4-5.8-1.3-11.9-4v-11.3h0.7q5.1 4.3 11.8 6.6 6.8 2.3 12.7 2.3 8.3 0 13-3.1 4.6-3.1 4.6-8.3 0-4.5-2.2-6.7-2.2-2.1-6.7-3.3-3.4-0.9-7.4-1.5-3.9-0.6-8.4-1.5-9-1.9-13.3-6.5-4.3-4.6-4.4-12 0-8.5 7.2-13.9 7.2-5.4 18.2-5.4 7.1 0 13.1 1.3 5.9 1.4 10.5 3.4v10.6h-0.6q-3.9-3.3-10.2-5.4-6.3-2.2-12.8-2.2-7.3 0-11.6 3-4.4 3-4.4 7.7 0 4.2 2.2 6.7 2.1 2.4 7.6 3.6 2.9 0.7 8.3 1.6 5.3 0.9 9.1 1.8 7.5 2 11.3 6.1 3.9 4 3.9 11.3z"/>
		<path id="Layer" class="s1" d="m194.7 72.7h-9v-58.3l-18.8 39.7h-5.4l-18.7-39.7v58.3h-8.4v-67.6h12.3l18 37.6 17.5-37.6h12.4v67.6h0.1z"/>
	</g>
	<path id="Layer" class="s2" d="m115.5 42.6h-40.5c-2.4 0-4.4-2-4.4-4.4 0-2.5 2-4.5 4.4-4.5h40.5c2.4 0 4.4 2 4.4 4.5 0 2.4-2 4.4-4.4 4.4z"/>
	<path id="Layer" class="s2" d="m115.5 71.5h-40.5c-2.4 0-4.4-2-4.4-4.5 0-2.4 2-4.4 4.4-4.4h40.5c2.4 0 4.4 2 4.4 4.4 0 2.5-2 4.5-4.4 4.5z"/>
	<path id="Layer" class="s2" d="m115.5 13.7h-40.5c-2.4 0-4.4-2-4.4-4.4 0-2.5 2-4.5 4.4-4.5h40.5c2.4 0 4.4 2 4.4 4.5 0 2.4-2 4.4-4.4 4.4z"/>
	<path id="Layer" class="s2" d="m79.5 9.3v7c0 2.4-2 4.4-4.5 4.4-2.4 0-4.4-2-4.4-4.4v-7c0-2.4 2-4.4 4.4-4.4 2.5 0 4.5 2 4.5 4.4z"/>
	<path id="Layer" class="s2" d="m79.5 60.1v6.9c0 2.5-2 4.5-4.5 4.5-2.4 0-4.4-2-4.4-4.5v-6.9c0-2.5 2-4.5 4.4-4.5 2.5 0 4.5 2 4.5 4.5z"/>
	<g id="Layer">
		<path id="Layer" class="s3" d="m37.9 108.7q-1.2 0.6-2.3 0.9-1.1 0.4-2.4 0.4-1.6 0-2.9-0.5-1.4-0.5-2.3-1.4-1-1-1.5-2.4-0.6-1.5-0.6-3.4 0-3.7 2-5.7 2-2.1 5.3-2.1 1.3 0 2.5 0.4 1.2 0.3 2.2 0.8v2.8h-0.1q-1.1-0.9-2.4-1.4-1.2-0.4-2.3-0.4-2.1 0-3.3 1.4-1.3 1.4-1.3 4.2c0 1.8 0.4 3.1 1.2 4.1q1.2 1.4 3.4 1.4 0.8 0 1.5-0.2 0.8-0.2 1.4-0.5 0.6-0.3 1.1-0.6 0.4-0.3 0.7-0.5h0.1z"/>
		<path id="Layer" fill-rule="evenodd" class="s3" d="m53.7 102.2q0 3.6-1.8 5.7-1.9 2.1-5 2.1-3.1 0-5-2.1-1.8-2.1-1.8-5.7 0-3.6 1.8-5.7 1.9-2.1 5-2.1c2.1 0 3.7 0.7 5 2.1q1.8 2.1 1.8 5.7zm-2.5 0q0-2.8-1.2-4.2-1.1-1.4-3.1-1.4c-1.3 0-2.4 0.4-3.1 1.4q-1.2 1.4-1.1 4.2c0 2 0.3 3.3 1.1 4.2q1.1 1.5 3.1 1.5 2 0 3.1-1.4 1.2-1.5 1.2-4.3z"/>
		<path id="Layer" class="s3" d="m79.2 109.6h-2.5v-8.4q0-1-0.1-1.8-0.1-0.9-0.4-1.5-0.3-0.5-0.8-0.8-0.6-0.3-1.7-0.3-1 0-2.1 0.5-1 0.5-2.1 1.3 0.1 0.3 0.1 0.8 0 0.4 0 0.8v9.4h-2.5v-8.4q0-1 0-1.9-0.1-0.8-0.4-1.4-0.3-0.5-0.9-0.8-0.5-0.3-1.6-0.3c-0.7 0-1.4 0.2-2.1 0.5q-1 0.5-2 1.3v11h-2.5v-14.8h2.5v1.7q1.2-1 2.3-1.5 1.2-0.6 2.5-0.6 1.5 0 2.5 0.7 1.1 0.6 1.6 1.7 1.5-1.3 2.8-1.8 1.2-0.6 2.6-0.6 2.4 0 3.6 1.5 1.2 1.5 1.2 4.1v9.6z"/>
		<path id="Layer" class="s3" d="m105.6 109.6h-2.5v-8.4q0-1-0.1-1.8-0.1-0.9-0.4-1.5-0.3-0.5-0.9-0.8-0.5-0.3-1.6-0.3-1.1 0-2.1 0.5-1 0.5-2.1 1.3 0.1 0.3 0.1 0.8 0 0.4 0 0.8v9.4h-2.5v-8.4q0-1-0.1-1.9 0-0.8-0.3-1.4-0.3-0.5-0.9-0.8-0.6-0.3-1.6-0.3c-0.7 0-1.4 0.2-2.1 0.5q-1 0.5-2 1.3v11h-2.5v-14.8h2.5v1.7q1.1-1 2.3-1.5 1.1-0.6 2.5-0.6 1.5 0 2.5 0.7 1.1 0.6 1.6 1.7 1.5-1.3 2.7-1.8 1.3-0.6 2.7-0.6 2.4 0 3.6 1.5 1.2 1.5 1.2 4.1v9.6z"/>
		<path id="Layer" class="s3" d="m113 92.4h-2.8v-2.6h2.8zm-0.1 17.2h-2.5v-14.8h2.5z"/>
		<path id="Layer" class="s3" d="m125.5 109.5q-0.7 0.2-1.6 0.3-0.8 0.1-1.4 0.1-2.3 0-3.5-1.2-1.2-1.2-1.2-3.9v-7.9h-1.6v-2.1h1.6v-4.2h2.5v4.2h5.2v2.1h-5.2v6.7q0 1.2 0.1 1.9 0 0.6 0.3 1.2 0.3 0.5 0.8 0.8 0.6 0.2 1.6 0.2 0.6 0 1.3-0.2 0.6-0.2 0.9-0.3h0.2c0 0 0 2.3 0 2.3z"/>
		<path id="Layer" class="s3" d="m136.1 109.5q-0.7 0.2-1.5 0.3-0.8 0.1-1.5 0.1-2.2 0-3.4-1.2-1.2-1.2-1.2-3.9v-7.9h-1.7v-2.1h1.7v-4.2h2.5v4.2h5.1v2.1h-5.1v6.7q0 1.2 0.1 1.9 0 0.6 0.3 1.2 0.3 0.5 0.8 0.8 0.5 0.2 1.6 0.2 0.6 0 1.3-0.2 0.6-0.2 0.9-0.3h0.1c0 0 0 2.3 0 2.3z"/>
		<path id="Layer" fill-rule="evenodd" class="s3" d="m151.5 102.5h-10.9q0 1.3 0.4 2.4 0.4 1 1.2 1.6 0.7 0.7 1.6 1 1 0.3 2.1 0.3 1.5 0 3-0.6 1.6-0.6 2.2-1.2h0.2v2.7q-1.3 0.5-2.6 0.9-1.3 0.4-2.8 0.4-3.6 0-5.7-2-2.1-2-2.1-5.7 0-3.6 2-5.8 2-2.1 5.2-2.1 3 0 4.6 1.8 1.6 1.7 1.6 4.9zm-2.4-1.9q0-1.9-1-3-1-1.1-2.9-1.1-2 0-3.2 1.2-1.2 1.2-1.4 2.9h8.5z"/>
		<path id="Layer" fill-rule="evenodd" class="s3" d="m167.7 102.5h-10.9q0 1.3 0.4 2.4 0.4 1 1.1 1.6 0.7 0.7 1.7 1 0.9 0.3 2.1 0.3 1.5 0 3-0.6 1.5-0.6 2.2-1.2h0.1v2.7q-1.3 0.5-2.6 0.9-1.3 0.4-2.7 0.4-3.7 0-5.8-2-2-2-2-5.7 0-3.6 2-5.8 1.9-2.1 5.2-2.1 3 0 4.6 1.8 1.6 1.7 1.6 4.9zm-2.4-1.9q0-1.9-1-3-1-1.1-3-1.1-2 0-3.2 1.2-1.2 1.2-1.3 2.9h8.5z"/>
	</g>
	<g id="Layer">
		<path id="Layer" class="s2" d="m225.4 30.4h-2.6v8.6q0 0.8-0.3 1.1-0.3 0.4-0.9 0.4-0.5 0-0.8-0.4-0.4-0.3-0.4-1.1v-8.6h-2.6q-0.6 0-0.9-0.2-0.3-0.3-0.3-0.7 0-0.5 0.3-0.8 0.4-0.2 0.9-0.2h7.6q0.7 0 1 0.2 0.3 0.3 0.3 0.8 0 0.4-0.3 0.7-0.3 0.2-1 0.2z"/>
		<path id="Layer" class="s2" d="m229.9 29.6v3.3q0.4-0.5 0.8-0.8 0.4-0.3 0.9-0.4 0.4-0.2 1-0.2 0.8 0 1.5 0.4 0.6 0.3 1 1 0.2 0.4 0.3 0.9 0.1 0.5 0.1 1.1v4.2q0 0.7-0.3 1-0.3 0.4-0.8 0.4-1.1 0-1.1-1.4v-3.7q0-1-0.3-1.6-0.3-0.6-1.2-0.6-0.6 0-1.1 0.4-0.4 0.3-0.7 0.9-0.1 0.5-0.1 1.7v2.9q0 0.7-0.3 1-0.3 0.4-0.9 0.4-1 0-1-1.4v-9.5q0-0.7 0.2-1 0.3-0.4 0.8-0.4 0.6 0 0.9 0.4 0.3 0.3 0.3 1z"/>
		<path id="Layer" fill-rule="evenodd" class="s2" d="m243.8 36.5h-4.3q0 0.8 0.3 1.4 0.3 0.5 0.8 0.8 0.5 0.3 1.1 0.3 0.4 0 0.7-0.1 0.3-0.1 0.6-0.3 0.3-0.2 0.6-0.4 0.2-0.2 0.6-0.6 0.2-0.1 0.5-0.1 0.4 0 0.6 0.1 0.2 0.2 0.2 0.6 0 0.3-0.2 0.7-0.3 0.4-0.8 0.7-0.4 0.4-1.1 0.6-0.7 0.3-1.7 0.3-2.1 0-3.3-1.2-1.1-1.2-1.1-3.3 0-1 0.2-1.8 0.3-0.8 0.9-1.4 0.6-0.6 1.4-1 0.8-0.3 1.8-0.3 1.3 0 2.2 0.6 0.9 0.5 1.4 1.4 0.4 0.8 0.4 1.7 0 0.9-0.5 1.1-0.4 0.3-1.3 0.3zm-4.3-1.3h4q-0.1-1.1-0.6-1.7-0.5-0.5-1.4-0.5c-0.6 0-1 0.2-1.4 0.5q-0.5 0.6-0.6 1.7z"/>
		<path id="Layer" fill-rule="evenodd" class="s2" d="m257.6 39.2v-0.2q-0.4 0.5-0.8 0.8-0.5 0.3-1 0.5-0.5 0.2-1.1 0.2-0.8 0-1.4-0.3-0.7-0.4-1.2-1-0.5-0.6-0.7-1.5-0.3-0.8-0.3-1.8 0-2 1-3.2 1-1.1 2.7-1.1 0.9 0 1.6 0.3 0.6 0.3 1.2 1v-3.3q0-0.6 0.3-1 0.3-0.3 0.8-0.3 0.5 0 0.7 0.3 0.3 0.3 0.3 0.9v9.7q0 0.7-0.3 1-0.3 0.3-0.7 0.3-0.5 0-0.8-0.3-0.3-0.4-0.3-1zm-4.3-3.2q0 0.9 0.3 1.5 0.3 0.6 0.7 1 0.5 0.3 1.1 0.3 0.6 0 1.1-0.3 0.4-0.3 0.7-1 0.3-0.6 0.3-1.5 0-0.9-0.3-1.5-0.3-0.6-0.7-1-0.5-0.3-1.1-0.3-0.6 0-1.1 0.3-0.5 0.4-0.7 1-0.3 0.6-0.3 1.5z"/>
		<path id="Layer" fill-rule="evenodd" class="s2" d="m268.1 36.5h-4.3q0 0.8 0.3 1.4 0.3 0.5 0.7 0.8 0.5 0.3 1.1 0.3 0.4 0 0.7-0.1 0.4-0.1 0.7-0.3 0.3-0.2 0.5-0.4 0.3-0.2 0.7-0.6 0.2-0.1 0.5-0.1 0.3 0 0.5 0.1 0.2 0.2 0.2 0.6 0 0.3-0.2 0.7-0.2 0.4-0.7 0.7-0.5 0.4-1.2 0.6-0.7 0.3-1.6 0.3-2.1 0-3.3-1.2-1.2-1.2-1.2-3.3 0-1 0.3-1.8 0.3-0.8 0.9-1.4 0.5-0.6 1.3-1 0.8-0.3 1.8-0.3 1.3 0 2.2 0.6 1 0.5 1.4 1.4 0.5 0.8 0.5 1.7 0 0.9-0.5 1.1-0.5 0.3-1.4 0.3zm-4.3-1.3h4q0-1.1-0.6-1.7-0.5-0.5-1.4-0.5c-0.5 0-1 0.2-1.3 0.5q-0.5 0.6-0.7 1.7z"/>
		<path id="Layer" class="s2" d="m279.6 37.8q0 0.4-0.2 0.8-0.3 0.5-0.8 0.9-0.5 0.5-1.3 0.7-0.7 0.3-1.7 0.3-2 0-3.2-1.2-1.1-1.2-1.1-3.2 0-1.4 0.5-2.4 0.5-1 1.5-1.6 1-0.6 2.4-0.6 0.9 0 1.6 0.3 0.7 0.2 1.2 0.6 0.5 0.4 0.7 0.9 0.3 0.4 0.3 0.8 0 0.4-0.3 0.7-0.3 0.2-0.7 0.2-0.3 0-0.5-0.1-0.1-0.2-0.4-0.5-0.4-0.6-0.8-0.9-0.4-0.3-1.1-0.3-1 0-1.6 0.8-0.6 0.7-0.6 2 0 0.6 0.1 1.2 0.2 0.5 0.5 0.9 0.3 0.3 0.7 0.5 0.4 0.2 0.9 0.2 0.7 0 1.1-0.3 0.5-0.3 0.8-0.9 0.2-0.4 0.5-0.6 0.2-0.2 0.5-0.2 0.5 0 0.7 0.3 0.3 0.3 0.3 0.6z"/>
		<path id="Layer" class="s2" d="m282.6 30.5q-0.4 0-0.8-0.3-0.3-0.2-0.3-0.8 0-0.4 0.3-0.7 0.4-0.3 0.8-0.3 0.5 0 0.8 0.2 0.3 0.3 0.3 0.8 0 0.6-0.3 0.8-0.3 0.3-0.8 0.3zm1.1 2.3v6.4q0 0.6-0.3 1-0.3 0.3-0.8 0.3-0.5 0-0.8-0.4-0.3-0.3-0.3-0.9v-6.3q0-0.7 0.3-1 0.3-0.3 0.8-0.3 0.5 0 0.8 0.3 0.3 0.3 0.3 0.9z"/>
		<path id="Layer" class="s2" d="m293.1 37.6q0 0.9-0.5 1.6-0.4 0.6-1.3 1-0.8 0.3-2.1 0.3c-0.8 0-1.5-0.1-2-0.4q-0.9-0.3-1.3-0.9-0.4-0.5-0.4-1.1 0-0.3 0.3-0.6 0.3-0.3 0.6-0.3 0.4 0 0.6 0.2 0.2 0.2 0.3 0.5 0.4 0.6 0.8 0.9 0.5 0.3 1.3 0.3 0.7 0 1.1-0.3 0.4-0.3 0.4-0.7 0-0.6-0.4-0.9-0.4-0.2-1.5-0.5-1.1-0.2-1.8-0.6-0.7-0.3-1.2-0.8-0.4-0.5-0.4-1.2 0-0.7 0.4-1.3 0.4-0.6 1.2-0.9 0.7-0.4 1.8-0.4 0.9 0 1.6 0.2 0.6 0.2 1.1 0.5 0.5 0.3 0.7 0.7 0.2 0.3 0.2 0.7 0 0.3-0.2 0.6-0.3 0.2-0.7 0.2-0.4 0-0.6-0.2-0.2-0.2-0.6-0.5-0.2-0.4-0.5-0.6-0.4-0.2-1-0.1-0.6-0.1-1 0.2-0.3 0.3-0.3 0.6 0 0.4 0.3 0.6 0.2 0.2 0.7 0.4 0.5 0.1 1.4 0.3 1 0.3 1.7 0.6 0.6 0.4 0.9 0.8 0.4 0.5 0.4 1.1z"/>
		<path id="Layer" class="s2" d="m296.1 30.5q-0.5 0-0.8-0.3-0.4-0.2-0.4-0.8 0-0.4 0.4-0.7 0.3-0.3 0.7-0.3 0.5 0 0.8 0.2 0.3 0.3 0.3 0.8 0 0.6-0.3 0.8-0.3 0.3-0.8 0.3zm1.1 2.3v6.4q0 0.6-0.3 1-0.3 0.3-0.8 0.3-0.5 0-0.8-0.4-0.3-0.3-0.3-0.9v-6.3q0-0.7 0.3-1 0.3-0.3 0.8-0.3 0.5 0 0.8 0.3 0.3 0.3 0.3 0.9z"/>
		<path id="Layer" fill-rule="evenodd" class="s2" d="m307.6 36q0.1 1-0.3 1.8-0.3 0.8-0.9 1.5-0.5 0.5-1.3 0.9-0.8 0.3-1.9 0.3-0.9 0-1.8-0.3-0.7-0.4-1.3-1-0.6-0.6-0.9-1.4-0.3-0.8-0.3-1.8 0-1 0.3-1.8 0.3-0.8 0.9-1.4 0.5-0.6 1.4-0.9 0.8-0.4 1.8-0.4 1 0 1.8 0.4 0.8 0.3 1.4 0.9 0.5 0.6 0.8 1.4 0.3 0.8 0.3 1.8zm-2.2 0q0-1.4-0.6-2.1-0.6-0.7-1.5-0.7-0.7 0-1.2 0.3-0.5 0.3-0.7 1-0.3 0.6-0.3 1.5 0 0.9 0.2 1.5 0.3 0.7 0.8 1 0.5 0.3 1.1 0.3 1 0 1.6-0.7 0.6-0.8 0.6-2.1z"/>
		<path id="Layer" class="s2" d="m311.4 32.8v0.2q0.6-0.7 1.3-1.1 0.6-0.3 1.5-0.3 0.9 0 1.6 0.3 0.7 0.4 1 1.1 0.2 0.4 0.3 0.9 0 0.4 0 1.2v4q0 0.7-0.3 1-0.3 0.4-0.8 0.4-0.4 0-0.8-0.4-0.3-0.3-0.3-0.9v-3.7q0-1.1-0.3-1.7-0.3-0.6-1.2-0.6-0.5 0-1 0.4-0.5 0.3-0.7 1-0.2 0.4-0.2 1.8v2.8q0 0.6-0.3 1-0.3 0.3-0.8 0.3-0.5 0-0.8-0.4-0.3-0.3-0.3-1v-6.3q0-0.6 0.3-1 0.2-0.3 0.7-0.3 0.3 0 0.5 0.2 0.3 0.1 0.4 0.4 0.2 0.3 0.2 0.7z"/>
		<path id="Layer" class="s2" d="m322.2 37h-2.5q-0.6 0-0.9-0.3-0.3-0.3-0.3-0.7 0-0.4 0.3-0.7 0.3-0.3 0.9-0.3h2.5q0.6 0 0.9 0.3 0.3 0.3 0.3 0.7 0 0.4-0.3 0.7-0.3 0.3-0.9 0.3z"/>
		<path id="Layer" class="s2" d="m332.1 36.2v2.9q0.1 0.7-0.3 1-0.3 0.4-0.8 0.4-0.5 0-0.8-0.4-0.3-0.3-0.3-1v-3.5q0-0.8-0.1-1.3 0-0.5-0.3-0.8-0.2-0.2-0.8-0.2-1 0-1.4 0.7-0.3 0.7-0.3 2.1v3q0 0.7-0.3 1-0.4 0.4-0.9 0.4-0.5 0-0.8-0.4-0.3-0.3-0.3-1v-6.3q0-0.6 0.3-0.9 0.3-0.3 0.7-0.4 0.5 0 0.8 0.3 0.3 0.4 0.3 0.9v0.2q0.6-0.7 1.2-1 0.7-0.3 1.5-0.3c0.5 0 1 0.1 1.4 0.3q0.6 0.3 1 1 0.5-0.7 1.2-1 0.6-0.3 1.4-0.3 0.9 0 1.5 0.3 0.7 0.4 1 1 0.3 0.6 0.3 1.9v4.3q0 0.7-0.3 1-0.4 0.4-0.9 0.4-0.5 0-0.8-0.4-0.3-0.3-0.3-1v-3.7q0-0.7-0.1-1.1 0-0.5-0.3-0.8-0.3-0.2-0.8-0.3-0.4 0.1-0.8 0.3-0.4 0.3-0.6 0.7-0.3 0.6-0.3 2z"/>
		<path id="Layer" fill-rule="evenodd" class="s2" d="m345 39.2q-0.8 0.7-1.5 1-0.8 0.3-1.7 0.3-0.9 0-1.5-0.3-0.6-0.4-1-1-0.3-0.5-0.3-1.2 0-0.9 0.5-1.5 0.6-0.7 1.6-0.9 0.2 0 1-0.2 0.9-0.2 1.5-0.3 0.6-0.2 1.2-0.4 0-0.8-0.3-1.2-0.3-0.4-1.3-0.4-0.8 0-1.3 0.2-0.4 0.2-0.7 0.7-0.3 0.4-0.4 0.6-0.1 0.2-0.5 0.2-0.4 0-0.7-0.3-0.3-0.2-0.3-0.6 0.1-0.6 0.5-1.1 0.4-0.6 1.2-0.9 0.9-0.4 2.2-0.4 1.5 0 2.3 0.4 0.8 0.3 1.2 1 0.3 0.8 0.3 2 0 0.8 0 1.3 0 0.6 0 1.2 0 0.6 0.2 1.3 0.2 0.7 0.2 0.9 0 0.3-0.3 0.6-0.3 0.3-0.7 0.3-0.4 0-0.7-0.3-0.3-0.4-0.7-1zm-0.2-3.2v0.1q0 0 0.1 0zm-1.5 0.3q-0.9 0.2-1.2 0.3-0.4 0.1-0.7 0.4-0.3 0.3-0.3 0.7 0 0.5 0.4 0.9 0.3 0.3 0.9 0.3 0.7 0 1.2-0.3 0.6-0.2 0.9-0.7 0.3-0.5 0.3-1.6l-0.1-0.3q-0.4 0.1-1.4 0.3z"/>
		<path id="Layer" class="s2" d="m354.7 39.5l-1.9-3.2-1.2 1.1v1.8q0 0.6-0.3 0.9-0.4 0.4-0.8 0.4-0.5 0-0.8-0.4-0.3-0.3-0.3-1v-9.3q0-0.8 0.3-1.2 0.3-0.3 0.8-0.3 0.5 0 0.8 0.3 0.3 0.4 0.3 1v5.4l2.5-2.6q0.4-0.5 0.7-0.7 0.2-0.2 0.6-0.2 0.4 0 0.6 0.3 0.3 0.2 0.3 0.6 0 0.5-0.9 1.3l-1.1 1.1 2.2 3.5q0.3 0.4 0.4 0.6 0.1 0.3 0.1 0.4 0 0.6-0.3 0.9-0.3 0.3-0.8 0.3-0.4 0-0.6-0.3-0.2-0.2-0.6-0.7z"/>
		<path id="Layer" class="s2" d="m359.4 30.5q-0.5 0-0.8-0.3-0.3-0.2-0.3-0.8 0-0.4 0.3-0.7 0.3-0.3 0.8-0.3 0.4 0 0.7 0.2 0.4 0.3 0.4 0.8 0 0.6-0.3 0.8-0.4 0.3-0.8 0.3zm1.1 2.3v6.4q0 0.6-0.3 1-0.3 0.3-0.8 0.3-0.5 0-0.8-0.4-0.3-0.3-0.3-0.9v-6.3q0-0.7 0.3-1 0.3-0.3 0.8-0.3 0.5 0 0.8 0.3 0.3 0.3 0.3 0.9z"/>
		<path id="Layer" class="s2" d="m364.8 32.8v0.2q0.5-0.7 1.2-1.1 0.7-0.3 1.6-0.3 0.9 0 1.6 0.3 0.6 0.4 1 1.1 0.2 0.4 0.3 0.9 0 0.4 0 1.2v4q0 0.7-0.3 1-0.3 0.4-0.8 0.4-0.5 0-0.8-0.4-0.3-0.3-0.3-0.9v-3.7q0-1.1-0.3-1.7-0.3-0.6-1.2-0.6-0.6 0-1.1 0.4-0.4 0.3-0.7 1-0.1 0.4-0.1 1.8v2.8q0 0.6-0.3 1-0.3 0.3-0.8 0.3-0.5 0-0.8-0.4-0.3-0.3-0.3-1v-6.3q0-0.6 0.2-1 0.3-0.3 0.8-0.3 0.3 0 0.5 0.2 0.3 0.1 0.4 0.4 0.1 0.3 0.1 0.7z"/>
		<path id="Layer" fill-rule="evenodd" class="s2" d="m380.8 33.2v6.3q0 1.1-0.2 1.9-0.3 0.8-0.8 1.3-0.5 0.6-1.3 0.8-0.9 0.3-2.1 0.3-1.1 0-2-0.4-0.9-0.3-1.4-0.8-0.5-0.5-0.5-1 0-0.4 0.3-0.7 0.3-0.2 0.6-0.2 0.5 0 0.9 0.4 0.2 0.2 0.4 0.4 0.2 0.3 0.4 0.4 0.2 0.2 0.5 0.3 0.4 0 0.8 0 0.8 0 1.3-0.2 0.5-0.2 0.7-0.7 0.2-0.4 0.2-0.9 0-0.5 0-1.5-0.5 0.7-1.1 1-0.7 0.4-1.6 0.4-1.1 0-1.9-0.6-0.9-0.5-1.3-1.5-0.5-1.1-0.4-2.4 0-1 0.2-1.8 0.3-0.8 0.8-1.3 0.5-0.6 1.1-0.8 0.7-0.3 1.5-0.3 0.9 0 1.6 0.3 0.7 0.4 1.3 1.2v-0.3q0-0.6 0.2-0.9 0.3-0.4 0.8-0.3 0.6 0 0.8 0.4 0.2 0.4 0.2 1.2zm-6.3 2.8q0 1.3 0.5 2 0.6 0.7 1.5 0.7 0.6-0.1 1.1-0.3 0.5-0.3 0.8-0.9 0.3-0.6 0.3-1.5 0-1.3-0.6-2.1-0.6-0.7-1.6-0.7c-0.6 0-1.1 0.2-1.5 0.7q-0.5 0.7-0.5 2.1z"/>
		<path id="Layer" fill-rule="evenodd" class="s2" d="m392.7 39.2q-0.8 0.7-1.5 1-0.8 0.3-1.7 0.3-0.8 0-1.5-0.3-0.6-0.4-1-1-0.3-0.5-0.3-1.2 0-0.9 0.5-1.5 0.6-0.7 1.6-0.9 0.2 0 1.1-0.2 0.8-0.2 1.4-0.3 0.6-0.2 1.3-0.4-0.1-0.8-0.4-1.2-0.3-0.4-1.3-0.4-0.8 0-1.2 0.2-0.4 0.2-0.8 0.7-0.2 0.4-0.4 0.6-0.1 0.2-0.5 0.2-0.4 0-0.7-0.3-0.2-0.2-0.2-0.6 0-0.6 0.4-1.1 0.4-0.6 1.3-0.9 0.8-0.4 2.1-0.4 1.5 0 2.3 0.4 0.8 0.3 1.2 1 0.3 0.8 0.3 2 0 0.8 0 1.3 0 0.6 0 1.2 0 0.6 0.2 1.3 0.2 0.7 0.2 0.9 0 0.3-0.3 0.6-0.3 0.3-0.7 0.3-0.4 0-0.7-0.3-0.3-0.4-0.7-1zm-0.1-3.2v0.1q0 0 0 0zm-1.4 0.3q-1 0.2-1.3 0.3-0.4 0.1-0.7 0.4-0.3 0.3-0.3 0.7 0 0.5 0.4 0.9 0.3 0.3 1 0.3 0.6 0 1.2-0.3 0.5-0.2 0.8-0.7 0.3-0.5 0.3-1.6v-0.3q-0.5 0.1-1.4 0.3z"/>
		<path id="Layer" class="s2" d="m402.7 39.2v-0.2q-0.4 0.5-0.8 0.8-0.5 0.3-1 0.5-0.5 0.2-1.2 0.2-0.8 0-1.4-0.4-0.6-0.3-1-0.9-0.4-0.7-0.4-2v-4.3q0-0.7 0.3-1 0.3-0.4 0.8-0.4 0.5 0 0.8 0.4 0.3 0.3 0.3 1v3.5q0 0.7 0.1 1.3 0.2 0.5 0.5 0.8 0.3 0.3 0.9 0.3 0.6 0 1.1-0.4 0.5-0.3 0.7-0.8 0.2-0.5 0.2-2.1v-2.7q0-0.6 0.3-0.9 0.3-0.4 0.8-0.4 0.5 0 0.8 0.4 0.3 0.3 0.3 1v6.3q0 0.6-0.3 1-0.3 0.3-0.8 0.3-0.4 0-0.7-0.4-0.3-0.3-0.3-0.9z"/>
		<path id="Layer" class="s2" d="m407.1 31.7h0.2v-1.3q0-0.5 0-0.8 0.1-0.3 0.2-0.5 0.1-0.3 0.4-0.4 0.2-0.1 0.5-0.1 0.4-0.1 0.8 0.3 0.2 0.2 0.3 0.5 0 0.3 0 0.8v1.5h0.8q0.5 0 0.7 0.3 0.3 0.2 0.3 0.5 0 0.5-0.4 0.6-0.3 0.2-1 0.2h-0.4v4.1q0 0.5 0.1 0.8 0 0.2 0.1 0.4 0.2 0.2 0.6 0.2 0.2 0 0.5-0.1 0.3-0.1 0.5-0.1 0.3 0 0.5 0.2 0.2 0.3 0.2 0.6 0 0.5-0.6 0.8-0.6 0.3-1.7 0.3c-0.7 0-1.2-0.2-1.5-0.4q-0.6-0.3-0.7-0.9-0.2-0.7-0.2-1.7v-4.2h-0.3q-0.5 0-0.7-0.2-0.3-0.3-0.3-0.6 0-0.4 0.3-0.6 0.3-0.2 0.8-0.2z"/>
		<path id="Layer" class="s2" d="m414.9 29.6v3.3q0.4-0.5 0.9-0.8 0.4-0.3 0.8-0.4 0.5-0.2 1.1-0.2 0.8 0 1.5 0.4 0.6 0.3 1 1 0.2 0.4 0.3 0.9 0.1 0.5 0.1 1.1v4.2q0 0.7-0.3 1-0.3 0.4-0.8 0.4-1.1 0-1.1-1.4v-3.7q0-1-0.3-1.6-0.3-0.6-1.2-0.6-0.6 0-1.1 0.4-0.4 0.3-0.7 0.9-0.2 0.5-0.2 1.7v2.9q0 0.7-0.3 1-0.2 0.4-0.8 0.4-1.1 0-1.1-1.4v-9.5q0-0.7 0.3-1 0.3-0.4 0.8-0.4 0.5 0 0.9 0.4 0.2 0.3 0.2 1z"/>
		<path id="Layer" fill-rule="evenodd" class="s2" d="m431 36q0 1-0.3 1.8-0.3 0.8-0.9 1.5-0.6 0.5-1.4 0.9-0.8 0.3-1.8 0.3-1 0-1.8-0.3-0.8-0.4-1.4-1-0.6-0.6-0.9-1.4-0.3-0.8-0.3-1.8 0-1 0.3-1.8 0.3-0.8 0.9-1.4 0.6-0.6 1.4-0.9 0.8-0.4 1.8-0.4 1 0 1.8 0.4 0.8 0.3 1.4 0.9 0.6 0.6 0.9 1.4 0.3 0.8 0.3 1.8zm-2.2 0q0-1.4-0.6-2.1-0.6-0.7-1.6-0.7-0.7 0-1.2 0.3-0.5 0.3-0.7 1-0.3 0.6-0.3 1.5 0 0.9 0.3 1.5 0.2 0.7 0.7 1 0.5 0.3 1.2 0.3 1 0 1.6-0.7 0.5-0.8 0.6-2.1z"/>
		<path id="Layer" class="s2" d="m434.9 37.3v1.9q0 0.6-0.3 1-0.3 0.3-0.8 0.3-0.5 0-0.8-0.4-0.3-0.3-0.3-1v-6.1q0-1.5 1.1-1.5 0.5 0 0.7 0.4 0.3 0.3 0.3 1 0.4-0.7 0.8-1 0.5-0.4 1.1-0.4 0.7 0 1.4 0.4 0.6 0.3 0.6 0.9 0 0.4-0.2 0.7-0.3 0.2-0.6 0.2-0.2 0-0.6-0.1-0.5-0.2-0.8-0.2-0.5 0-0.8 0.3-0.3 0.2-0.5 0.7-0.2 0.5-0.2 1.2-0.1 0.7-0.1 1.7z"/>
		<path id="Layer" class="s2" d="m441 30.5q-0.4 0-0.8-0.3-0.3-0.2-0.3-0.8 0-0.4 0.4-0.7 0.3-0.3 0.7-0.3 0.5 0 0.8 0.2 0.3 0.3 0.3 0.8 0 0.6-0.3 0.8-0.3 0.3-0.8 0.3zm1.1 2.3v6.4q0 0.6-0.3 1-0.3 0.3-0.8 0.3-0.5 0-0.8-0.4-0.3-0.3-0.3-0.9v-6.3q0-0.7 0.3-1 0.3-0.3 0.8-0.3 0.5 0 0.8 0.3 0.3 0.3 0.3 0.9z"/>
		<path id="Layer" class="s2" d="m444.5 31.7h0.3v-1.3q0-0.5 0-0.8 0-0.3 0.2-0.5 0.1-0.3 0.3-0.4 0.3-0.1 0.6-0.1 0.4-0.1 0.7 0.3 0.3 0.2 0.3 0.5 0.1 0.3 0.1 0.8v1.5h0.8q0.5 0 0.7 0.3 0.2 0.2 0.3 0.5-0.1 0.5-0.4 0.6-0.4 0.2-1 0.2h-0.4v4.1q0 0.5 0 0.8 0.1 0.2 0.2 0.4 0.2 0.2 0.5 0.2 0.2 0 0.6-0.1 0.3-0.1 0.5-0.1 0.2 0 0.5 0.2 0.2 0.3 0.2 0.6 0 0.5-0.6 0.8-0.6 0.3-1.7 0.3c-0.7 0-1.2-0.2-1.6-0.4q-0.5-0.3-0.7-0.9-0.1-0.7-0.1-1.7v-4.2h-0.3q-0.5 0-0.7-0.2-0.3-0.3-0.3-0.6 0-0.4 0.3-0.6 0.2-0.2 0.7-0.2z"/>
		<path id="Layer" class="s2" d="m452.3 40.8l0.2-0.5-2.7-6.8q-0.3-0.6-0.3-0.9 0-0.3 0.2-0.5 0.1-0.3 0.4-0.4 0.2-0.2 0.5-0.1 0.5 0 0.7 0.3 0.2 0.3 0.4 0.8l1.9 5.4 1.8-5q0.2-0.6 0.3-1 0.2-0.3 0.4-0.4 0.2-0.2 0.5-0.2 0.3 0 0.5 0.2 0.2 0.1 0.4 0.3 0.1 0.3 0.1 0.5 0 0.2-0.1 0.4-0.1 0.3-0.2 0.6l-2.9 7.5q-0.3 1-0.7 1.6-0.3 0.5-0.9 0.8-0.6 0.3-1.6 0.3c-0.7 0-1.1 0-1.5-0.2q-0.4-0.2-0.4-0.7 0-0.4 0.2-0.6 0.2-0.2 0.7-0.2 0.1 0 0.3 0 0.2 0.1 0.4 0.1 0.4 0 0.6-0.1 0.2-0.2 0.4-0.4 0.1-0.3 0.4-0.8z"/>
		<path id="Layer" class="s2" d="m463.1 31.7h0.6v-0.6q0-1.1 0.2-1.7 0.3-0.6 0.9-0.9 0.6-0.2 1.7-0.2 1.9 0 1.9 0.9 0 0.3-0.2 0.5-0.2 0.2-0.4 0.2-0.2 0-0.5 0-0.3-0.1-0.5-0.1-0.6 0-0.8 0.4-0.1 0.3-0.1 1v0.5h0.5q1.3 0 1.3 0.8 0 0.5-0.4 0.7-0.3 0.1-0.9 0.1h-0.5v5.8q0 0.7-0.3 1-0.3 0.4-0.8 0.4-0.5 0-0.8-0.4-0.3-0.3-0.3-1v-5.8h-0.6q-0.5 0-0.8-0.2-0.3-0.2-0.3-0.6 0.1-0.8 1.1-0.8z"/>
		<path id="Layer" fill-rule="evenodd" class="s2" d="m476.8 36q0 1-0.3 1.8-0.3 0.8-0.9 1.5-0.6 0.5-1.4 0.9-0.8 0.3-1.8 0.3-1 0-1.8-0.3-0.8-0.4-1.4-1-0.5-0.6-0.8-1.4-0.3-0.8-0.3-1.8 0-1 0.3-1.8 0.3-0.8 0.8-1.4 0.6-0.6 1.4-0.9 0.9-0.4 1.8-0.4 1 0 1.8 0.4 0.9 0.3 1.4 0.9 0.6 0.6 0.9 1.4 0.3 0.8 0.3 1.8zm-2.2 0q0-1.4-0.6-2.1-0.6-0.7-1.6-0.7-0.6 0-1.1 0.3-0.5 0.3-0.8 1-0.2 0.6-0.2 1.5 0 0.9 0.2 1.5 0.3 0.7 0.8 1 0.5 0.3 1.1 0.3 1 0 1.6-0.7 0.6-0.8 0.6-2.1z"/>
		<path id="Layer" class="s2" d="m480.7 37.3v1.9q0 0.6-0.3 1-0.3 0.3-0.8 0.3-0.5 0-0.7-0.4-0.4-0.3-0.4-1v-6.1q0-1.5 1.1-1.5 0.6 0 0.8 0.4 0.2 0.3 0.3 1 0.4-0.7 0.8-1 0.4-0.4 1.1-0.4 0.7 0 1.3 0.4 0.7 0.3 0.7 0.9 0 0.4-0.3 0.7-0.3 0.2-0.6 0.2-0.1 0-0.6-0.1-0.4-0.2-0.8-0.2-0.5 0-0.8 0.3-0.3 0.2-0.5 0.7-0.1 0.5-0.2 1.2 0 0.7 0 1.7z"/>
		<path id="Layer" class="s2" d="m490 31.7h0.3v-1.3q0-0.5 0-0.8 0-0.3 0.2-0.5 0.1-0.3 0.3-0.4 0.3-0.1 0.6-0.1 0.4-0.1 0.7 0.3 0.3 0.2 0.3 0.5 0.1 0.3 0.1 0.8v1.5h0.8q0.5 0 0.7 0.3 0.2 0.2 0.3 0.5-0.1 0.5-0.4 0.6-0.4 0.2-1 0.2h-0.4v4.1q0 0.5 0 0.8 0.1 0.2 0.2 0.4 0.2 0.2 0.5 0.2 0.2 0 0.6-0.1 0.3-0.1 0.5-0.1 0.2 0 0.5 0.2 0.2 0.3 0.2 0.6 0 0.5-0.6 0.8-0.6 0.3-1.7 0.3c-0.7 0-1.2-0.2-1.6-0.4q-0.5-0.3-0.7-0.9-0.1-0.7-0.1-1.7v-4.2h-0.3q-0.5 0-0.7-0.2-0.3-0.3-0.3-0.6 0-0.4 0.3-0.6 0.2-0.2 0.7-0.2z"/>
		<path id="Layer" class="s2" d="m497.9 29.6v3.3q0.4-0.5 0.8-0.8 0.4-0.3 0.9-0.4 0.5-0.2 1-0.2 0.9 0 1.5 0.4 0.7 0.3 1 1 0.3 0.4 0.4 0.9 0 0.5 0 1.1v4.2q0 0.7-0.3 1-0.3 0.4-0.8 0.4-1.1 0-1.1-1.4v-3.7q0.1-1-0.3-1.6-0.3-0.6-1.2-0.6-0.5 0-1 0.4-0.5 0.3-0.7 0.9-0.2 0.5-0.2 1.7v2.9q0 0.7-0.3 1-0.3 0.4-0.8 0.4-1.1 0-1.1-1.4v-9.5q0-0.7 0.3-1 0.3-0.4 0.8-0.4 0.5 0 0.8 0.4 0.3 0.3 0.3 1z"/>
		<path id="Layer" fill-rule="evenodd" class="s2" d="m511.9 36.5h-4.3q0 0.8 0.3 1.4 0.3 0.5 0.7 0.8 0.5 0.3 1.1 0.3 0.4 0 0.7-0.1 0.4-0.1 0.7-0.3 0.3-0.2 0.5-0.4 0.3-0.2 0.7-0.6 0.2-0.1 0.5-0.1 0.3 0 0.5 0.1 0.2 0.2 0.2 0.6 0 0.3-0.2 0.7-0.2 0.4-0.7 0.7-0.5 0.4-1.2 0.6-0.7 0.3-1.6 0.3-2.1 0-3.3-1.2-1.2-1.2-1.2-3.3 0-1 0.3-1.8 0.3-0.8 0.8-1.4 0.6-0.6 1.4-1 0.8-0.3 1.8-0.3 1.3 0 2.2 0.6 1 0.5 1.4 1.4 0.5 0.8 0.5 1.7 0 0.9-0.5 1.1-0.5 0.3-1.4 0.3zm-4.3-1.3h4q0-1.1-0.6-1.7-0.5-0.5-1.4-0.5-0.8 0-1.3 0.5-0.6 0.6-0.7 1.7z"/>
		<path id="Layer" class="s2" d="m528.8 36.7q0 1.1-0.6 2-0.5 0.8-1.6 1.3-1.1 0.5-2.5 0.5-1.8 0-2.9-0.7-0.8-0.4-1.3-1.2-0.5-0.8-0.5-1.6 0-0.4 0.3-0.7 0.3-0.3 0.8-0.3 0.3 0 0.6 0.2 0.3 0.2 0.5 0.7 0.2 0.6 0.4 1 0.3 0.3 0.8 0.6 0.5 0.2 1.2 0.2 1.1 0 1.8-0.5 0.6-0.5 0.6-1.2 0-0.6-0.3-1-0.4-0.3-1-0.5-0.5-0.2-1.5-0.4-1.3-0.3-2.1-0.7-0.9-0.4-1.4-1.1-0.5-0.7-0.5-1.7c0-0.7 0.2-1.3 0.6-1.8q0.5-0.7 1.5-1.1 1-0.4 2.4-0.4 1 0 1.8 0.2 0.8 0.3 1.4 0.8 0.5 0.4 0.7 0.9 0.3 0.5 0.3 1 0 0.4-0.3 0.7-0.3 0.4-0.8 0.4-0.4 0-0.6-0.2-0.2-0.2-0.5-0.7-0.3-0.7-0.7-1.1-0.5-0.3-1.5-0.3-0.9 0-1.5 0.4-0.5 0.4-0.5 1 0 0.3 0.2 0.6 0.1 0.2 0.5 0.4 0.3 0.2 0.7 0.3 0.3 0.1 1.1 0.3 1 0.3 1.8 0.5 0.8 0.3 1.4 0.7 0.6 0.4 0.9 1 0.3 0.7 0.3 1.6z"/>
		<path id="Layer" class="s2" d="m531.8 30.5q-0.5 0-0.8-0.3-0.4-0.2-0.4-0.8 0-0.4 0.4-0.7 0.3-0.3 0.8-0.3 0.4 0 0.7 0.2 0.3 0.3 0.3 0.8 0 0.6-0.3 0.8-0.3 0.3-0.7 0.3zm1.1 2.3v6.3q-0.1 0.7-0.4 1-0.3 0.4-0.8 0.4-0.4 0-0.7-0.4-0.3-0.3-0.3-0.9v-6.3q0-0.7 0.3-1 0.2-0.4 0.7-0.4 0.5 0 0.8 0.4 0.4 0.3 0.4 0.9z"/>
		<path id="Layer" class="s2" d="m537.1 32.8v0.2q0.6-0.7 1.3-1.1 0.7-0.3 1.6-0.3 0.9 0 1.5 0.3 0.7 0.4 1 1.1 0.3 0.4 0.3 0.9 0.1 0.4 0.1 1.2v4q0 0.7-0.3 1-0.3 0.4-0.8 0.4-0.5 0-0.8-0.4-0.3-0.3-0.3-0.9v-3.7q0-1.1-0.3-1.7-0.3-0.6-1.2-0.6-0.6 0-1.1 0.4-0.5 0.3-0.7 1-0.2 0.4-0.2 1.8v2.8q0 0.6-0.3 1-0.3 0.3-0.8 0.3-0.5 0-0.7-0.4-0.4-0.3-0.4-1v-6.3q0-0.6 0.3-1 0.3-0.3 0.8-0.3 0.3 0 0.5 0.2 0.2 0.1 0.4 0.4 0.1 0.3 0.1 0.7z"/>
		<path id="Layer" fill-rule="evenodd" class="s2" d="m553.2 33.2v6.3q0 1.1-0.3 1.9-0.2 0.8-0.7 1.3-0.5 0.6-1.4 0.8-0.8 0.3-2 0.3-1.2 0-2.1-0.4-0.8-0.3-1.3-0.8-0.5-0.5-0.5-1 0-0.4 0.3-0.7 0.2-0.2 0.6-0.2 0.5 0 0.9 0.4 0.1 0.2 0.3 0.4 0.2 0.3 0.5 0.4 0.2 0.2 0.5 0.3 0.3 0 0.7 0 0.9 0 1.4-0.2 0.4-0.2 0.6-0.7 0.2-0.4 0.3-0.9 0-0.5 0-1.5-0.5 0.7-1.2 1-0.6 0.4-1.5 0.4-1.1 0-2-0.6-0.8-0.5-1.2-1.5-0.5-1.1-0.5-2.4 0-1 0.3-1.8 0.3-0.8 0.8-1.3 0.5-0.6 1.1-0.8 0.7-0.3 1.4-0.3 1 0 1.7 0.3 0.6 0.4 1.2 1.2v-0.3q0-0.6 0.3-0.9 0.3-0.4 0.7-0.3 0.7 0 0.9 0.4 0.2 0.4 0.2 1.2zm-6.4 2.8q0 1.3 0.6 2 0.6 0.7 1.5 0.7 0.6-0.1 1.1-0.3 0.4-0.3 0.7-0.9 0.4-0.6 0.4-1.5 0-1.3-0.6-2.1-0.6-0.7-1.6-0.7c-0.6 0-1.1 0.2-1.5 0.7q-0.6 0.7-0.6 2.1z"/>
		<path id="Layer" class="s2" d="m555.2 39.1v-9.5q0-0.7 0.3-1 0.3-0.3 0.8-0.3 0.5 0 0.8 0.3 0.3 0.3 0.3 1v9.5q0 0.7-0.3 1-0.3 0.4-0.8 0.4-0.5 0-0.8-0.4-0.3-0.3-0.3-1z"/>
		<path id="Layer" fill-rule="evenodd" class="s2" d="m565.8 36.5h-4.3q0 0.8 0.3 1.4 0.3 0.5 0.8 0.8 0.4 0.3 1.1 0.3 0.3 0 0.7-0.1 0.3-0.1 0.6-0.3 0.3-0.2 0.6-0.4 0.2-0.2 0.6-0.6 0.2-0.1 0.5-0.1 0.4 0 0.6 0.1 0.2 0.2 0.2 0.6 0 0.3-0.3 0.7-0.2 0.4-0.7 0.7-0.4 0.4-1.2 0.6-0.7 0.3-1.6 0.3-2.1 0-3.3-1.2-1.2-1.2-1.2-3.3 0-1 0.3-1.8 0.3-0.8 0.9-1.4 0.5-0.6 1.4-1 0.8-0.3 1.7-0.3 1.3 0 2.3 0.6 0.9 0.5 1.3 1.4 0.5 0.8 0.5 1.7 0 0.9-0.5 1.1-0.5 0.3-1.3 0.3zm-4.3-1.3h4q-0.1-1.1-0.6-1.7-0.6-0.5-1.4-0.5-0.9 0-1.4 0.5-0.5 0.6-0.6 1.7z"/>
		<path id="Layer" class="s2" d="m225.6 50.1h-5.4v2.9h4.9q0.6 0 0.8 0.3 0.3 0.2 0.3 0.6 0 0.4-0.3 0.7-0.2 0.2-0.8 0.2h-4.9v3.4h5.5q0.6 0 0.9 0.2 0.3 0.3 0.3 0.7 0 0.5-0.3 0.7-0.3 0.3-0.9 0.3h-6.5q-0.7 0-1.1-0.4-0.3-0.3-0.3-1.1v-8.9q0-0.5 0.1-0.8 0.2-0.3 0.5-0.5 0.3-0.1 0.8-0.1h6.4q0.5 0 0.8 0.2 0.3 0.3 0.3 0.7 0 0.4-0.3 0.6-0.3 0.3-0.8 0.3z"/>
		<path id="Layer" class="s2" d="m228.6 58.9v-9.5q0-0.7 0.3-1 0.3-0.3 0.8-0.3 0.5 0 0.8 0.3 0.3 0.3 0.3 1v9.5q0 0.7-0.3 1-0.3 0.4-0.8 0.4-0.5 0-0.8-0.4-0.3-0.3-0.3-1z"/>
		<path id="Layer" fill-rule="evenodd" class="s2" d="m239.2 56.3h-4.3q0 0.8 0.3 1.4 0.3 0.5 0.8 0.8 0.5 0.3 1.1 0.3 0.4 0 0.7-0.1 0.3-0.1 0.6-0.3 0.3-0.2 0.6-0.4 0.3-0.2 0.7-0.6 0.1-0.1 0.4-0.1 0.4 0 0.6 0.1 0.2 0.2 0.2 0.6 0 0.3-0.2 0.7-0.3 0.4-0.7 0.7-0.5 0.4-1.2 0.6-0.7 0.3-1.7 0.3-2.1 0-3.2-1.2-1.2-1.2-1.2-3.3 0-1 0.3-1.8 0.3-0.8 0.8-1.4 0.6-0.6 1.4-1 0.8-0.3 1.8-0.3 1.3 0 2.2 0.6 0.9 0.5 1.4 1.4 0.4 0.8 0.4 1.7 0 0.9-0.4 1.1-0.5 0.3-1.4 0.3zm-4.3-1.3h4q-0.1-1.1-0.6-1.7-0.5-0.5-1.4-0.5c-0.6 0-1 0.1-1.3 0.5q-0.6 0.6-0.7 1.7z"/>
		<path id="Layer" class="s2" d="m250.8 57.6q0 0.4-0.3 0.8-0.2 0.5-0.7 0.9-0.5 0.5-1.3 0.7-0.8 0.3-1.7 0.3-2.1 0-3.2-1.2-1.1-1.2-1.1-3.2 0-1.4 0.5-2.4 0.5-1 1.5-1.6 1-0.6 2.4-0.6 0.8 0 1.5 0.3 0.8 0.2 1.2 0.6 0.5 0.4 0.8 0.9 0.3 0.4 0.3 0.8 0 0.4-0.3 0.7-0.3 0.2-0.7 0.2-0.3 0-0.5-0.1-0.2-0.2-0.4-0.5-0.4-0.6-0.8-0.9-0.5-0.3-1.2-0.3-0.9 0-1.5 0.8-0.6 0.7-0.6 2 0 0.6 0.1 1.2 0.2 0.5 0.5 0.9 0.2 0.3 0.7 0.5 0.4 0.2 0.9 0.2 0.6 0 1.1-0.3 0.5-0.3 0.8-0.9 0.2-0.4 0.4-0.6 0.3-0.2 0.6-0.2 0.4 0 0.7 0.3 0.3 0.3 0.3 0.6z"/>
		<path id="Layer" class="s2" d="m252.8 51.5h0.3v-1.3q0-0.5 0-0.8 0-0.3 0.1-0.5 0.2-0.3 0.4-0.4 0.3-0.1 0.6-0.1 0.4-0.1 0.7 0.3 0.2 0.2 0.3 0.5 0.1 0.3 0.1 0.8v1.5h0.8q0.4 0 0.7 0.3 0.2 0.2 0.2 0.5 0 0.5-0.3 0.6-0.4 0.2-1 0.2h-0.4v4.1q0 0.5 0 0.8 0.1 0.2 0.2 0.4 0.2 0.2 0.5 0.2 0.2 0 0.5-0.1 0.4-0.1 0.6-0.1 0.2 0 0.4 0.2 0.2 0.3 0.2 0.6 0.1 0.5-0.5 0.8-0.6 0.3-1.7 0.3c-0.7 0-1.2-0.2-1.6-0.4q-0.5-0.3-0.7-0.9-0.1-0.7-0.1-1.7v-4.2h-0.3q-0.5 0-0.8-0.2-0.2-0.3-0.2-0.6 0-0.4 0.3-0.6 0.2-0.2 0.7-0.2z"/>
		<path id="Layer" class="s2" d="m260.7 57.1v1.9q0 0.6-0.3 1-0.3 0.3-0.8 0.3-0.5 0-0.8-0.4-0.3-0.3-0.3-1v-6.1q0-1.5 1.1-1.5 0.5 0 0.8 0.4 0.2 0.3 0.3 1 0.3-0.7 0.8-1 0.4-0.4 1.1-0.4 0.7 0 1.3 0.4 0.7 0.3 0.7 0.9 0 0.4-0.3 0.7-0.3 0.2-0.6 0.2-0.1 0-0.6-0.1-0.5-0.2-0.8-0.2-0.5 0-0.8 0.3-0.3 0.2-0.5 0.7-0.1 0.5-0.2 1.2-0.1 0.7-0.1 1.7z"/>
		<path id="Layer" class="s2" d="m266.9 50.3q-0.5 0-0.8-0.3-0.3-0.2-0.3-0.8 0-0.4 0.3-0.7 0.3-0.3 0.8-0.3 0.4 0 0.7 0.2 0.4 0.3 0.4 0.8 0 0.6-0.4 0.8-0.3 0.3-0.7 0.3zm1.1 2.3v6.4q0 0.6-0.4 1-0.3 0.3-0.8 0.3-0.4 0-0.7-0.4-0.3-0.3-0.3-0.9v-6.3q0-0.7 0.3-1 0.3-0.3 0.7-0.3 0.5 0 0.8 0.3 0.4 0.3 0.4 0.9z"/>
		<path id="Layer" class="s2" d="m278.1 57.6q0 0.4-0.2 0.8-0.3 0.5-0.8 0.9-0.5 0.5-1.2 0.7-0.8 0.3-1.8 0.3-2 0-3.1-1.2-1.2-1.2-1.2-3.2 0-1.4 0.5-2.4 0.6-1 1.5-1.6 1-0.6 2.4-0.6 0.9 0 1.6 0.3 0.7 0.2 1.2 0.6 0.5 0.4 0.8 0.9 0.2 0.4 0.2 0.8 0 0.4-0.3 0.7-0.3 0.2-0.7 0.2-0.2 0-0.4-0.1-0.2-0.2-0.5-0.5-0.4-0.6-0.8-0.9-0.4-0.3-1.1-0.3-1 0-1.6 0.8-0.6 0.7-0.6 2 0 0.6 0.2 1.2 0.1 0.5 0.4 0.9 0.3 0.3 0.7 0.5 0.4 0.2 0.9 0.2 0.7 0 1.1-0.3 0.5-0.3 0.9-0.9 0.2-0.4 0.4-0.6 0.2-0.2 0.6-0.2 0.4 0 0.6 0.3 0.3 0.3 0.3 0.6z"/>
		<path id="Layer" class="s2" d="m281.2 50.3q-0.5 0-0.8-0.3-0.4-0.2-0.4-0.8 0-0.4 0.4-0.7 0.3-0.3 0.7-0.3 0.5 0 0.8 0.2 0.3 0.3 0.3 0.8 0 0.6-0.3 0.8-0.3 0.3-0.8 0.3zm1.1 2.3v6.4q0 0.6-0.3 1-0.3 0.3-0.8 0.3-0.4 0-0.8-0.4-0.3-0.3-0.3-0.9v-6.3q0-0.7 0.3-1 0.3-0.3 0.8-0.3 0.5 0 0.8 0.3 0.3 0.3 0.3 0.9z"/>
		<path id="Layer" class="s2" d="m284.6 51.5h0.3v-1.3q0-0.5 0-0.8 0-0.3 0.2-0.5 0.1-0.3 0.3-0.4 0.3-0.1 0.6-0.1 0.4-0.1 0.7 0.3 0.3 0.2 0.3 0.5 0.1 0.3 0.1 0.8v1.5h0.8q0.5 0 0.7 0.3 0.3 0.2 0.3 0.5 0 0.5-0.4 0.6-0.3 0.2-1 0.2h-0.4v4.1q0 0.5 0 0.8 0.1 0.2 0.2 0.4 0.2 0.2 0.5 0.2 0.2 0 0.6-0.1 0.3-0.1 0.5-0.1 0.2 0 0.5 0.2 0.2 0.3 0.2 0.6 0 0.5-0.6 0.8-0.6 0.3-1.7 0.3c-0.7 0-1.2-0.2-1.5-0.4q-0.6-0.3-0.7-0.9-0.2-0.7-0.2-1.7v-4.2h-0.3q-0.5 0-0.7-0.2-0.3-0.3-0.3-0.6 0-0.4 0.3-0.6 0.2-0.2 0.7-0.2z"/>
		<path id="Layer" class="s2" d="m292.4 60.6l0.2-0.5-2.7-6.9q-0.3-0.5-0.3-0.8 0-0.3 0.2-0.5 0.1-0.3 0.4-0.4 0.2-0.2 0.5-0.1 0.5 0 0.7 0.3 0.3 0.3 0.4 0.8l1.9 5.4 1.8-5q0.2-0.6 0.3-1 0.2-0.3 0.4-0.4 0.2-0.2 0.6-0.2 0.2 0 0.4 0.2 0.3 0.1 0.4 0.3 0.1 0.3 0.1 0.5 0 0.2-0.1 0.4-0.1 0.3-0.2 0.6l-2.8 7.5q-0.4 1-0.8 1.6-0.3 0.5-0.9 0.8-0.6 0.3-1.6 0.3c-0.7 0-1.1 0-1.4-0.2q-0.5-0.2-0.5-0.7 0-0.4 0.2-0.6 0.2-0.2 0.7-0.2 0.2 0 0.3 0 0.2 0.1 0.4 0.1 0.4 0 0.6-0.1 0.2-0.2 0.4-0.4 0.2-0.3 0.4-0.8z"/>
		<path id="Layer" class="s2" d="m307.6 58.3l-1.9-7.5v8.1q0 0.7-0.3 1.1-0.3 0.3-0.8 0.3-0.5 0-0.8-0.3-0.3-0.4-0.3-1.1v-9.3q0-0.8 0.4-1 0.4-0.3 1.1-0.3h0.7q0.7 0 1 0.1 0.3 0.1 0.4 0.4 0.2 0.4 0.3 1.1l1.8 6.4 1.7-6.4q0.2-0.7 0.3-1.1 0.2-0.3 0.5-0.4 0.3-0.1 0.9-0.1h0.8q0.7 0 1.1 0.3 0.4 0.2 0.4 1v9.3q0 0.7-0.3 1.1-0.3 0.3-0.8 0.3-0.5 0-0.8-0.3-0.3-0.4-0.3-1.1v-8.1l-1.9 7.5q-0.2 0.7-0.3 1.1-0.1 0.3-0.5 0.6-0.3 0.3-0.8 0.3-0.4 0-0.7-0.2-0.3-0.2-0.5-0.4-0.1-0.3-0.2-0.7-0.1-0.3-0.2-0.7z"/>
		<path id="Layer" fill-rule="evenodd" class="s2" d="m322.7 59q-0.8 0.7-1.5 1-0.7 0.3-1.7 0.3-0.8 0-1.5-0.3-0.6-0.4-1-1-0.3-0.5-0.3-1.2 0-0.9 0.6-1.5 0.5-0.7 1.5-0.9 0.2 0 1.1-0.2 0.8-0.2 1.4-0.3 0.6-0.2 1.3-0.4-0.1-0.8-0.4-1.2-0.3-0.4-1.3-0.4-0.8 0-1.2 0.2-0.4 0.2-0.7 0.7-0.3 0.4-0.5 0.6-0.1 0.2-0.5 0.2-0.4 0-0.7-0.3-0.2-0.2-0.2-0.6 0-0.6 0.4-1.1 0.4-0.6 1.3-0.9 0.8-0.4 2.1-0.4 1.5 0 2.3 0.4 0.8 0.3 1.2 1 0.3 0.8 0.3 2 0 0.8 0 1.3 0 0.6 0 1.2 0 0.6 0.2 1.3 0.2 0.7 0.2 0.9 0 0.3-0.3 0.6-0.3 0.3-0.7 0.3-0.3 0-0.7-0.3-0.3-0.4-0.7-1zm-0.1-3.1q0 0 0 0 0 0 0 0zm-1.4 0.3q-1 0.2-1.3 0.3-0.4 0.1-0.7 0.4-0.3 0.3-0.3 0.7 0 0.5 0.4 0.9 0.3 0.3 1 0.3 0.6 0 1.2-0.3 0.5-0.2 0.8-0.7 0.3-0.5 0.3-1.6c0 0 0-0.3 0-0.3q-0.5 0.1-1.4 0.3z"/>
		<path id="Layer" class="s2" d="m329.2 57.1v1.9q0 0.6-0.3 1-0.4 0.3-0.8 0.3-0.5 0-0.8-0.4-0.3-0.3-0.3-1v-6.1q0-1.5 1-1.5 0.6 0 0.8 0.4 0.3 0.3 0.3 1 0.4-0.7 0.8-1 0.4-0.4 1.1-0.4 0.7 0 1.4 0.4 0.6 0.3 0.6 0.9 0 0.4-0.3 0.7-0.3 0.2-0.6 0.2-0.1 0-0.5-0.1-0.5-0.2-0.9-0.2-0.5 0-0.8 0.3-0.3 0.2-0.4 0.7-0.2 0.5-0.3 1.2 0 0.7 0 1.7z"/>
		<path id="Layer" class="s2" d="m339.3 59.3l-2-3.2-1.2 1.1v1.8q0 0.6-0.3 0.9-0.3 0.4-0.8 0.4-0.5 0-0.8-0.4-0.3-0.3-0.3-1v-9.3q0-0.8 0.3-1.2 0.3-0.3 0.8-0.3 0.6 0 0.8 0.3 0.3 0.4 0.3 1v5.4l2.5-2.6q0.5-0.5 0.7-0.7 0.3-0.2 0.6-0.2 0.4 0 0.7 0.3 0.3 0.2 0.3 0.6 0 0.5-0.9 1.3l-1.2 1.1 2.3 3.5q0.2 0.4 0.3 0.6 0.1 0.3 0.1 0.4 0 0.6-0.3 0.9-0.2 0.3-0.7 0.3-0.4 0-0.6-0.3-0.2-0.2-0.6-0.7z"/>
		<path id="Layer" fill-rule="evenodd" class="s2" d="m348.8 56.3h-4.3q0 0.8 0.3 1.4 0.3 0.5 0.7 0.8 0.5 0.3 1.1 0.3 0.4 0 0.7-0.1 0.4-0.1 0.7-0.3 0.3-0.2 0.5-0.4 0.3-0.2 0.7-0.6 0.2-0.1 0.5-0.1 0.3 0 0.5 0.1 0.2 0.2 0.2 0.6 0 0.3-0.2 0.7-0.2 0.4-0.7 0.7-0.5 0.4-1.2 0.6-0.7 0.3-1.6 0.3-2.1 0-3.3-1.2-1.2-1.2-1.2-3.3 0-1 0.3-1.8 0.3-0.8 0.9-1.4 0.5-0.6 1.3-1 0.8-0.3 1.8-0.3 1.3 0 2.2 0.6 1 0.5 1.4 1.4 0.5 0.8 0.5 1.7 0 0.9-0.5 1.1-0.5 0.3-1.4 0.3zm-4.3-1.3h4q0-1.1-0.6-1.7-0.5-0.5-1.4-0.5-0.8 0-1.3 0.5-0.5 0.6-0.7 1.7z"/>
		<path id="Layer" class="s2" d="m352.5 51.5h0.3v-1.3q0-0.5 0-0.8 0-0.3 0.2-0.5 0.1-0.3 0.3-0.4 0.3-0.1 0.6-0.1 0.4-0.1 0.7 0.3 0.3 0.2 0.3 0.5 0.1 0.3 0.1 0.8v1.5h0.8q0.5 0 0.7 0.3 0.3 0.2 0.3 0.5 0 0.5-0.4 0.6-0.3 0.2-1 0.2h-0.4v4.1q0 0.5 0 0.8 0.1 0.2 0.2 0.4 0.2 0.2 0.5 0.2 0.2 0 0.6-0.1 0.3-0.1 0.5-0.1 0.2 0 0.5 0.2 0.2 0.3 0.2 0.6 0 0.5-0.6 0.8-0.6 0.3-1.7 0.3c-0.7 0-1.2-0.2-1.5-0.4q-0.6-0.3-0.7-0.9-0.2-0.7-0.2-1.7v-4.2h-0.3q-0.5 0-0.7-0.2-0.3-0.3-0.3-0.6 0-0.4 0.3-0.6 0.2-0.2 0.7-0.2z"/>
		<path id="Layer" fill-rule="evenodd" class="s2" d="m370.6 55.8q0 1-0.3 1.8-0.3 0.8-0.9 1.5-0.6 0.5-1.4 0.9-0.8 0.3-1.8 0.3-1 0-1.8-0.3-0.8-0.3-1.4-0.9-0.5-0.6-0.8-1.5-0.4-0.8-0.4-1.8 0-1 0.4-1.8 0.3-0.8 0.8-1.4 0.6-0.6 1.4-0.9 0.8-0.4 1.8-0.4 1 0 1.8 0.4 0.9 0.3 1.4 0.9 0.6 0.6 0.9 1.4 0.3 0.8 0.3 1.8zm-2.2 0q0-1.3-0.6-2.1-0.6-0.7-1.6-0.7-0.6 0-1.1 0.3-0.5 0.3-0.8 1-0.2 0.6-0.2 1.5 0 0.9 0.2 1.5 0.3 0.7 0.8 1 0.5 0.4 1.1 0.3 1 0.1 1.6-0.7 0.6-0.8 0.6-2.1z"/>
		<path id="Layer" class="s2" d="m374.4 52.6v0.2q0.5-0.7 1.2-1.1 0.7-0.4 1.6-0.4 0.9 0.1 1.6 0.4 0.6 0.4 1 1.1 0.2 0.4 0.2 0.9 0.1 0.4 0.1 1.2v4q0 0.7-0.3 1-0.3 0.4-0.8 0.4-0.5 0-0.8-0.4-0.3-0.3-0.3-0.9v-3.7q0-1.1-0.3-1.7-0.3-0.6-1.2-0.6-0.6 0-1.1 0.4-0.4 0.3-0.7 0.9-0.1 0.5-0.1 1.9v2.8q0 0.6-0.3 1-0.4 0.3-0.8 0.3-0.5 0-0.8-0.4-0.3-0.3-0.3-1v-6.3q0-0.6 0.2-1 0.3-0.3 0.8-0.3 0.3 0 0.5 0.2 0.2 0.1 0.4 0.4 0.1 0.3 0.1 0.7z"/>
		<path id="Layer" class="s2" d="m386.6 51.5h0.2v-1.3q0-0.5 0-0.8 0.1-0.3 0.2-0.5 0.1-0.3 0.4-0.4 0.2-0.1 0.5-0.1 0.4-0.1 0.8 0.3 0.2 0.2 0.3 0.5 0 0.3 0 0.8v1.5h0.8q0.5 0 0.7 0.3 0.3 0.2 0.3 0.5 0 0.5-0.4 0.6-0.3 0.2-1 0.2h-0.4v4.1q0 0.5 0.1 0.8 0 0.2 0.2 0.4 0.1 0.2 0.5 0.2 0.2 0 0.5-0.1 0.3-0.1 0.5-0.1 0.3 0 0.5 0.2 0.2 0.3 0.2 0.6 0 0.5-0.6 0.8-0.6 0.3-1.7 0.3c-0.7 0-1.2-0.2-1.5-0.4q-0.5-0.3-0.7-0.9-0.2-0.7-0.2-1.7v-4.2h-0.3q-0.4 0-0.7-0.2-0.3-0.3-0.3-0.6 0.1-0.4 0.3-0.6 0.3-0.2 0.8-0.2z"/>
		<path id="Layer" class="s2" d="m394.4 49.4v3.3q0.5-0.5 0.9-0.8 0.4-0.3 0.8-0.4 0.5-0.2 1.1-0.2 0.8 0 1.5 0.4 0.6 0.3 1 1 0.2 0.4 0.3 0.9 0.1 0.5 0.1 1.1v4.2q0 0.7-0.3 1-0.3 0.4-0.8 0.4-1.1 0-1.1-1.4v-3.7q0-1-0.3-1.6-0.3-0.6-1.2-0.6-0.6 0-1.1 0.4-0.4 0.3-0.7 0.9-0.1 0.5-0.1 1.7v2.9q-0.1 0.7-0.3 1-0.3 0.4-0.9 0.4-1.1 0-1-1.4v-9.5q-0.1-0.7 0.2-1 0.3-0.3 0.8-0.3 0.6 0 0.9 0.3 0.3 0.3 0.3 1z"/>
		<path id="Layer" fill-rule="evenodd" class="s2" d="m408.4 56.3h-4.3q0 0.8 0.3 1.4 0.3 0.5 0.8 0.8 0.4 0.3 1.1 0.3 0.3 0 0.7-0.1 0.3-0.1 0.6-0.3 0.3-0.2 0.6-0.4 0.2-0.2 0.6-0.6 0.2-0.1 0.5-0.1 0.4 0 0.6 0.1 0.2 0.2 0.2 0.6 0 0.3-0.3 0.7-0.2 0.4-0.7 0.7-0.4 0.4-1.1 0.6-0.8 0.3-1.7 0.3-2.1 0-3.3-1.2-1.2-1.2-1.2-3.3 0-1 0.3-1.8 0.3-0.8 0.9-1.4 0.5-0.6 1.4-1 0.8-0.3 1.8-0.3 1.2 0 2.2 0.6 0.9 0.5 1.3 1.4 0.5 0.8 0.5 1.7 0 0.9-0.5 1.1-0.5 0.3-1.3 0.3zm-4.3-1.3h4q-0.1-1.1-0.6-1.7-0.6-0.5-1.4-0.5-0.9 0-1.4 0.5-0.5 0.6-0.6 1.7z"/>
		<path id="Layer" class="s2" d="m417.3 50.3q-0.5 0-0.8-0.3-0.3-0.2-0.3-0.8 0-0.4 0.3-0.7 0.3-0.3 0.8-0.3 0.4 0 0.7 0.2 0.4 0.3 0.4 0.8 0 0.6-0.4 0.8-0.3 0.3-0.7 0.3zm1.1 2.3v6.4q0 0.6-0.3 1-0.4 0.3-0.8 0.3-0.5 0-0.8-0.4-0.3-0.3-0.3-0.9v-6.3q0-0.7 0.3-1 0.3-0.3 0.8-0.3 0.4 0 0.8 0.3 0.3 0.3 0.3 0.9z"/>
		<path id="Layer" class="s2" d="m427.7 57.4q0 0.9-0.4 1.6-0.4 0.6-1.3 1-0.9 0.3-2.1 0.3c-0.9 0-1.5-0.1-2-0.4q-0.9-0.3-1.3-0.9-0.4-0.5-0.4-1.1 0-0.3 0.3-0.6 0.2-0.3 0.6-0.3 0.4 0 0.5 0.2 0.2 0.2 0.4 0.5 0.3 0.6 0.8 0.9 0.5 0.3 1.3 0.3 0.7 0 1.1-0.3 0.4-0.3 0.4-0.7 0-0.6-0.4-0.9-0.5-0.2-1.5-0.5-1.1-0.2-1.8-0.6-0.8-0.3-1.2-0.8-0.4-0.5-0.4-1.2 0-0.7 0.4-1.3 0.4-0.6 1.1-0.9 0.8-0.4 1.9-0.4 0.8 0 1.5 0.2 0.7 0.2 1.2 0.5 0.4 0.3 0.7 0.7 0.2 0.3 0.2 0.7 0 0.3-0.2 0.6-0.3 0.2-0.8 0.2-0.3 0-0.5-0.2-0.3-0.2-0.6-0.5-0.2-0.4-0.6-0.6-0.3-0.2-0.9-0.1-0.6-0.1-1 0.2-0.4 0.3-0.4 0.6 0 0.4 0.3 0.6 0.3 0.2 0.8 0.4 0.5 0.1 1.3 0.3 1.1 0.3 1.7 0.6 0.7 0.4 1 0.8 0.3 0.5 0.3 1.1z"/>
		<path id="Layer" class="s2" d="m429.6 58.9v-9.5q0-0.7 0.3-1 0.3-0.3 0.8-0.3 0.5 0 0.8 0.3 0.3 0.3 0.3 1v9.5q0 0.7-0.3 1-0.3 0.4-0.8 0.4-0.5 0-0.8-0.4-0.3-0.3-0.3-1z"/>
		<path id="Layer" fill-rule="evenodd" class="s2" d="m439.6 59q-0.8 0.7-1.5 1-0.7 0.3-1.7 0.3-0.8 0-1.5-0.3-0.6-0.4-1-1-0.3-0.5-0.3-1.2 0-0.9 0.6-1.5 0.5-0.7 1.5-0.9 0.2 0 1.1-0.2 0.8-0.2 1.4-0.3 0.6-0.2 1.3-0.4-0.1-0.8-0.4-1.2-0.3-0.4-1.3-0.4-0.8 0-1.2 0.2-0.4 0.2-0.7 0.7-0.3 0.4-0.5 0.6-0.1 0.2-0.5 0.2-0.4 0-0.7-0.3-0.2-0.2-0.2-0.6 0-0.6 0.4-1.1 0.4-0.6 1.3-0.9 0.8-0.4 2.1-0.4 1.5 0 2.3 0.4 0.8 0.3 1.2 1 0.3 0.8 0.3 2 0 0.8 0 1.3 0 0.6 0 1.2 0 0.6 0.2 1.3 0.2 0.7 0.2 0.9 0 0.3-0.3 0.6-0.3 0.3-0.7 0.3-0.3 0-0.7-0.3-0.3-0.4-0.7-1zm-0.1-3.1q0 0 0 0 0 0 0 0zm-1.4 0.3q-1 0.2-1.3 0.3-0.4 0.1-0.7 0.4-0.3 0.3-0.3 0.7 0 0.5 0.4 0.9 0.3 0.3 1 0.3 0.6 0 1.2-0.3 0.5-0.2 0.8-0.7 0.3-0.5 0.3-1.6c0 0 0-0.3 0-0.3q-0.5 0.1-1.4 0.3z"/>
		<path id="Layer" class="s2" d="m445.9 52.6v0.2q0.6-0.7 1.2-1.1 0.7-0.4 1.6-0.4 0.9 0.1 1.6 0.4 0.7 0.4 1 1.1 0.2 0.4 0.3 0.9 0 0.4 0 1.2v4q0 0.7-0.3 1-0.3 0.4-0.8 0.4-0.5 0-0.8-0.4-0.3-0.3-0.3-0.9v-3.7q0-1.1-0.3-1.7-0.3-0.6-1.2-0.6-0.6 0-1 0.4-0.5 0.3-0.8 0.9-0.1 0.5-0.1 1.9v2.8q0 0.6-0.3 1-0.3 0.3-0.8 0.3-0.5 0-0.8-0.4-0.3-0.3-0.3-1v-6.3q0-0.6 0.3-1 0.2-0.3 0.7-0.3 0.3 0 0.5 0.2 0.3 0.1 0.4 0.4 0.2 0.3 0.1 0.7z"/>
		<path id="Layer" fill-rule="evenodd" class="s2" d="m459.9 59v-0.2q-0.5 0.5-0.9 0.8-0.4 0.3-0.9 0.5-0.5 0.2-1.1 0.2-0.8 0-1.5-0.3-0.7-0.4-1.2-1-0.5-0.6-0.7-1.5-0.3-0.8-0.3-1.8 0-2 1-3.2 1.1-1.1 2.7-1.1 0.9 0 1.6 0.3 0.7 0.3 1.3 1v-3.3q0-0.6 0.2-1 0.3-0.3 0.8-0.3 0.5 0 0.8 0.3 0.2 0.3 0.2 0.9v9.7q0 0.7-0.2 1-0.3 0.3-0.8 0.3-0.4 0-0.7-0.3-0.3-0.4-0.3-1zm-4.4-3.2q0 0.9 0.3 1.5 0.3 0.6 0.8 1 0.5 0.3 1 0.3 0.6 0 1.1-0.3 0.5-0.3 0.8-1 0.3-0.6 0.3-1.5 0-0.9-0.3-1.5-0.3-0.6-0.8-1-0.5-0.3-1.1-0.3-0.6 0-1.1 0.3-0.4 0.4-0.7 1-0.3 0.6-0.3 1.5z"/>
		<path id="Layer" fill-rule="evenodd" class="s2" d="m476.5 55.8q0 1-0.3 1.8-0.3 0.8-0.9 1.5-0.6 0.5-1.4 0.9-0.8 0.3-1.8 0.3-1 0-1.8-0.3-0.8-0.3-1.4-0.9-0.6-0.6-0.9-1.5-0.3-0.8-0.3-1.8 0-1 0.3-1.8 0.4-0.8 0.9-1.4 0.6-0.6 1.4-0.9 0.8-0.4 1.8-0.4 1 0 1.8 0.4 0.8 0.3 1.4 0.9 0.6 0.6 0.9 1.4 0.3 0.8 0.3 1.8zm-2.2 0q0-1.3-0.6-2.1-0.6-0.7-1.6-0.7-0.6 0-1.1 0.3-0.5 0.3-0.8 1-0.2 0.6-0.2 1.5 0 0.9 0.2 1.5 0.3 0.7 0.8 1 0.5 0.4 1.1 0.3 1 0.1 1.6-0.7 0.6-0.8 0.6-2.1z"/>
		<path id="Layer" class="s2" d="m478.1 51.5h0.5v-0.6q0-1.1 0.2-1.7 0.3-0.6 0.9-0.9 0.7-0.2 1.7-0.2 2 0 2 0.9 0 0.3-0.2 0.5-0.2 0.2-0.5 0.2-0.1 0-0.4 0-0.4-0.1-0.6-0.1-0.6 0-0.7 0.4-0.2 0.3-0.2 1v0.5h0.5q1.3 0 1.3 0.8 0 0.5-0.3 0.7-0.4 0.1-1 0.1h-0.5v5.8q0 0.7-0.3 1-0.3 0.4-0.8 0.4-0.5 0-0.8-0.4-0.3-0.3-0.3-1v-5.8h-0.6q-0.5 0-0.8-0.2-0.2-0.2-0.2-0.6 0-0.8 1.1-0.8z"/>
		<path id="Layer" class="s2" d="m490 58.8v-9.3q0-0.7 0.3-1.1 0.3-0.3 0.8-0.3 0.6 0 0.9 0.3 0.3 0.4 0.3 1.1v9.3q0 0.7-0.3 1.1-0.3 0.4-0.9 0.4-0.5 0-0.8-0.4-0.3-0.4-0.3-1.1z"/>
		<path id="Layer" class="s2" d="m497 57.1v1.9q0.1 0.6-0.3 1-0.3 0.3-0.8 0.3-0.4 0-0.7-0.4-0.3-0.3-0.3-1v-6.1q0-1.5 1-1.5 0.6 0 0.8 0.4 0.3 0.3 0.3 1 0.4-0.7 0.8-1 0.4-0.4 1.1-0.4 0.7 0 1.3 0.4 0.7 0.3 0.7 0.9 0 0.4-0.3 0.7-0.3 0.2-0.6 0.2-0.1 0-0.6-0.1-0.4-0.2-0.8-0.2-0.5 0-0.8 0.3-0.3 0.2-0.4 0.7-0.2 0.5-0.3 1.2 0 0.7-0.1 1.7z"/>
		<path id="Layer" fill-rule="evenodd" class="s2" d="m507.8 56.3h-4.3q0 0.8 0.3 1.4 0.3 0.5 0.8 0.8 0.5 0.3 1.1 0.3 0.4 0 0.7-0.1 0.3-0.1 0.6-0.3 0.3-0.2 0.6-0.4 0.3-0.2 0.7-0.6 0.1-0.1 0.4-0.1 0.4 0 0.6 0.1 0.2 0.2 0.2 0.6 0 0.3-0.2 0.7-0.3 0.4-0.7 0.7-0.5 0.4-1.2 0.6-0.7 0.3-1.7 0.3-2.1 0-3.2-1.2-1.2-1.2-1.2-3.3 0-1 0.3-1.8 0.3-0.8 0.8-1.4 0.6-0.6 1.4-1 0.8-0.3 1.8-0.3 1.3 0 2.2 0.6 0.9 0.5 1.4 1.4 0.4 0.8 0.4 1.7 0 0.9-0.4 1.1-0.5 0.3-1.4 0.3zm-4.3-1.3h4q-0.1-1.1-0.6-1.7-0.5-0.5-1.4-0.5-0.8 0-1.3 0.5-0.6 0.6-0.7 1.7z"/>
		<path id="Layer" class="s2" d="m511.5 58.9v-9.5q0-0.7 0.3-1 0.3-0.3 0.8-0.3 0.5 0 0.8 0.3 0.3 0.3 0.3 1v9.5q0 0.7-0.3 1-0.3 0.4-0.8 0.4-0.5 0-0.8-0.4-0.3-0.3-0.3-1z"/>
		<path id="Layer" fill-rule="evenodd" class="s2" d="m521.5 59q-0.8 0.7-1.5 1-0.8 0.3-1.7 0.3-0.8 0-1.5-0.3-0.6-0.4-1-1-0.3-0.5-0.3-1.2 0-0.9 0.6-1.5 0.5-0.7 1.5-0.9 0.2 0 1.1-0.2 0.8-0.2 1.4-0.3 0.6-0.2 1.3-0.4-0.1-0.8-0.4-1.2-0.3-0.4-1.3-0.4-0.8 0-1.2 0.2-0.4 0.2-0.8 0.7-0.2 0.4-0.4 0.6-0.1 0.2-0.5 0.2-0.4 0-0.7-0.3-0.2-0.2-0.2-0.6 0-0.6 0.4-1.1 0.4-0.6 1.3-0.9 0.8-0.4 2.1-0.4 1.5 0 2.3 0.4 0.8 0.3 1.2 1 0.3 0.8 0.3 2 0 0.8 0 1.3 0 0.6 0 1.2 0 0.6 0.2 1.3 0.2 0.7 0.2 0.9 0 0.3-0.3 0.6-0.3 0.3-0.7 0.3-0.4 0-0.7-0.3-0.3-0.4-0.7-1zm-0.1-3.1q0 0 0 0 0 0 0 0zm-1.4 0.3q-1 0.2-1.3 0.3-0.4 0.1-0.7 0.4-0.3 0.3-0.3 0.7 0 0.5 0.4 0.9 0.3 0.3 1 0.3 0.6 0 1.2-0.3 0.5-0.2 0.8-0.7 0.3-0.5 0.3-1.6c0 0 0-0.3 0-0.3q-0.5 0.1-1.4 0.3z"/>
		<path id="Layer" class="s2" d="m527.8 52.6v0.2q0.6-0.7 1.2-1.1 0.7-0.4 1.6-0.4 0.9 0.1 1.6 0.4 0.7 0.4 1 1.1 0.2 0.4 0.3 0.9 0 0.4 0 1.2v4q0 0.7-0.3 1-0.3 0.4-0.8 0.4-0.5 0-0.8-0.4-0.3-0.3-0.3-0.9v-3.7q0-1.1-0.3-1.7-0.3-0.6-1.2-0.6-0.6 0-1 0.4-0.5 0.3-0.8 0.9-0.1 0.5-0.1 1.9v2.8q0 0.6-0.3 1-0.3 0.3-0.8 0.3-0.5 0-0.8-0.4-0.3-0.3-0.3-1v-6.3q0-0.6 0.3-1 0.2-0.3 0.7-0.3 0.3 0 0.5 0.2 0.3 0.1 0.4 0.4 0.2 0.3 0.2 0.7z"/>
		<path id="Layer" fill-rule="evenodd" class="s2" d="m541.8 59v-0.2q-0.5 0.5-0.9 0.8-0.4 0.3-0.9 0.5-0.5 0.2-1.1 0.2-0.8 0-1.5-0.3-0.7-0.4-1.2-1-0.5-0.6-0.7-1.5-0.3-0.8-0.3-1.8 0-2 1-3.2 1-1.1 2.7-1.1 0.9 0 1.6 0.3 0.6 0.3 1.3 1v-3.3q0-0.6 0.2-1 0.3-0.3 0.8-0.3 0.5 0 0.8 0.3 0.2 0.3 0.2 0.9v9.7q0 0.7-0.3 1-0.2 0.3-0.7 0.3-0.5 0-0.8-0.3-0.2-0.4-0.2-1zm-4.4-3.2q0 0.9 0.3 1.5 0.3 0.6 0.8 1 0.4 0.3 1 0.3 0.6 0 1.1-0.3 0.5-0.3 0.8-1 0.2-0.6 0.2-1.5 0.1-0.9-0.2-1.5-0.3-0.6-0.8-1-0.5-0.3-1.1-0.3-0.6 0-1.1 0.3-0.4 0.4-0.7 1-0.3 0.6-0.3 1.5z"/>
	</g>
</svg>